%TF.GenerationSoftware,KiCad,Pcbnew,(6.0.1)*%
%TF.CreationDate,2022-08-22T16:21:28+03:00*%
%TF.ProjectId,Launch-Adapter,4c61756e-6368-42d4-9164-61707465722e,rev?*%
%TF.SameCoordinates,Original*%
%TF.FileFunction,Legend,Top*%
%TF.FilePolarity,Positive*%
%FSLAX46Y46*%
G04 Gerber Fmt 4.6, Leading zero omitted, Abs format (unit mm)*
G04 Created by KiCad (PCBNEW (6.0.1)) date 2022-08-22 16:21:28*
%MOMM*%
%LPD*%
G01*
G04 APERTURE LIST*
%ADD10C,0.150000*%
%ADD11C,0.300000*%
%ADD12C,0.120000*%
G04 APERTURE END LIST*
D10*
X117348000Y-115062000D02*
X121412000Y-115062000D01*
X121412000Y-115062000D02*
X121412000Y-123190000D01*
X121412000Y-123190000D02*
X117348000Y-123190000D01*
X117348000Y-123190000D02*
X117348000Y-115062000D01*
X120650000Y-106172000D02*
X123190000Y-106172000D01*
X123190000Y-106172000D02*
X123190000Y-112268000D01*
X123190000Y-112268000D02*
X120650000Y-112268000D01*
X120650000Y-112268000D02*
X120650000Y-106172000D01*
X115062000Y-32004000D02*
X56642000Y-32004000D01*
X56642000Y-32004000D02*
X56642000Y-161798000D01*
X56642000Y-161798000D02*
X115062000Y-161798000D01*
X115062000Y-161798000D02*
X115062000Y-32004000D01*
X117348000Y-67056000D02*
X121412000Y-67056000D01*
X121412000Y-67056000D02*
X121412000Y-75184000D01*
X121412000Y-75184000D02*
X117348000Y-75184000D01*
X117348000Y-75184000D02*
X117348000Y-67056000D01*
X127762000Y-32004000D02*
X130302000Y-32004000D01*
X130302000Y-32004000D02*
X130302000Y-38100000D01*
X130302000Y-38100000D02*
X127762000Y-38100000D01*
X127762000Y-38100000D02*
X127762000Y-32004000D01*
X117348000Y-141478000D02*
X121412000Y-141478000D01*
X121412000Y-141478000D02*
X121412000Y-152400000D01*
X121412000Y-152400000D02*
X117348000Y-152400000D01*
X117348000Y-152400000D02*
X117348000Y-141478000D01*
X117348000Y-127000000D02*
X121412000Y-127000000D01*
X121412000Y-127000000D02*
X121412000Y-135128000D01*
X121412000Y-135128000D02*
X117348000Y-135128000D01*
X117348000Y-135128000D02*
X117348000Y-127000000D01*
X129286000Y-106172000D02*
X131826000Y-106172000D01*
X131826000Y-106172000D02*
X131826000Y-112268000D01*
X131826000Y-112268000D02*
X129286000Y-112268000D01*
X129286000Y-112268000D02*
X129286000Y-106172000D01*
X118364000Y-32004000D02*
X120904000Y-32004000D01*
X120904000Y-32004000D02*
X120904000Y-38100000D01*
X120904000Y-38100000D02*
X118364000Y-38100000D01*
X118364000Y-38100000D02*
X118364000Y-32004000D01*
X118027380Y-122046666D02*
X119027380Y-121713333D01*
X118027380Y-121380000D01*
X119027380Y-120903809D02*
X118979761Y-120999047D01*
X118932142Y-121046666D01*
X118836904Y-121094285D01*
X118551190Y-121094285D01*
X118455952Y-121046666D01*
X118408333Y-120999047D01*
X118360714Y-120903809D01*
X118360714Y-120760952D01*
X118408333Y-120665714D01*
X118455952Y-120618095D01*
X118551190Y-120570476D01*
X118836904Y-120570476D01*
X118932142Y-120618095D01*
X118979761Y-120665714D01*
X119027380Y-120760952D01*
X119027380Y-120903809D01*
X119027380Y-119999047D02*
X118979761Y-120094285D01*
X118884523Y-120141904D01*
X118027380Y-120141904D01*
X118360714Y-119760952D02*
X118360714Y-119380000D01*
X118027380Y-119618095D02*
X118884523Y-119618095D01*
X118979761Y-119570476D01*
X119027380Y-119475238D01*
X119027380Y-119380000D01*
X119027380Y-118618095D02*
X118503571Y-118618095D01*
X118408333Y-118665714D01*
X118360714Y-118760952D01*
X118360714Y-118951428D01*
X118408333Y-119046666D01*
X118979761Y-118618095D02*
X119027380Y-118713333D01*
X119027380Y-118951428D01*
X118979761Y-119046666D01*
X118884523Y-119094285D01*
X118789285Y-119094285D01*
X118694047Y-119046666D01*
X118646428Y-118951428D01*
X118646428Y-118713333D01*
X118598809Y-118618095D01*
X118360714Y-117713333D02*
X119170238Y-117713333D01*
X119265476Y-117760952D01*
X119313095Y-117808571D01*
X119360714Y-117903809D01*
X119360714Y-118046666D01*
X119313095Y-118141904D01*
X118979761Y-117713333D02*
X119027380Y-117808571D01*
X119027380Y-117999047D01*
X118979761Y-118094285D01*
X118932142Y-118141904D01*
X118836904Y-118189523D01*
X118551190Y-118189523D01*
X118455952Y-118141904D01*
X118408333Y-118094285D01*
X118360714Y-117999047D01*
X118360714Y-117808571D01*
X118408333Y-117713333D01*
X118979761Y-116856190D02*
X119027380Y-116951428D01*
X119027380Y-117141904D01*
X118979761Y-117237142D01*
X118884523Y-117284761D01*
X118503571Y-117284761D01*
X118408333Y-117237142D01*
X118360714Y-117141904D01*
X118360714Y-116951428D01*
X118408333Y-116856190D01*
X118503571Y-116808571D01*
X118598809Y-116808571D01*
X118694047Y-117284761D01*
X120637380Y-122189523D02*
X119637380Y-122189523D01*
X120351666Y-121856190D01*
X119637380Y-121522857D01*
X120637380Y-121522857D01*
X120589761Y-120665714D02*
X120637380Y-120760952D01*
X120637380Y-120951428D01*
X120589761Y-121046666D01*
X120494523Y-121094285D01*
X120113571Y-121094285D01*
X120018333Y-121046666D01*
X119970714Y-120951428D01*
X119970714Y-120760952D01*
X120018333Y-120665714D01*
X120113571Y-120618095D01*
X120208809Y-120618095D01*
X120304047Y-121094285D01*
X120637380Y-119760952D02*
X120113571Y-119760952D01*
X120018333Y-119808571D01*
X119970714Y-119903809D01*
X119970714Y-120094285D01*
X120018333Y-120189523D01*
X120589761Y-119760952D02*
X120637380Y-119856190D01*
X120637380Y-120094285D01*
X120589761Y-120189523D01*
X120494523Y-120237142D01*
X120399285Y-120237142D01*
X120304047Y-120189523D01*
X120256428Y-120094285D01*
X120256428Y-119856190D01*
X120208809Y-119760952D01*
X120589761Y-119332380D02*
X120637380Y-119237142D01*
X120637380Y-119046666D01*
X120589761Y-118951428D01*
X120494523Y-118903809D01*
X120446904Y-118903809D01*
X120351666Y-118951428D01*
X120304047Y-119046666D01*
X120304047Y-119189523D01*
X120256428Y-119284761D01*
X120161190Y-119332380D01*
X120113571Y-119332380D01*
X120018333Y-119284761D01*
X119970714Y-119189523D01*
X119970714Y-119046666D01*
X120018333Y-118951428D01*
X119970714Y-118046666D02*
X120637380Y-118046666D01*
X119970714Y-118475238D02*
X120494523Y-118475238D01*
X120589761Y-118427619D01*
X120637380Y-118332380D01*
X120637380Y-118189523D01*
X120589761Y-118094285D01*
X120542142Y-118046666D01*
X120637380Y-117570476D02*
X119970714Y-117570476D01*
X120161190Y-117570476D02*
X120065952Y-117522857D01*
X120018333Y-117475238D01*
X119970714Y-117380000D01*
X119970714Y-117284761D01*
X120589761Y-116570476D02*
X120637380Y-116665714D01*
X120637380Y-116856190D01*
X120589761Y-116951428D01*
X120494523Y-116999047D01*
X120113571Y-116999047D01*
X120018333Y-116951428D01*
X119970714Y-116856190D01*
X119970714Y-116665714D01*
X120018333Y-116570476D01*
X120113571Y-116522857D01*
X120208809Y-116522857D01*
X120304047Y-116999047D01*
X118832380Y-72953333D02*
X118832380Y-72381904D01*
X119832380Y-72667619D02*
X118832380Y-72667619D01*
X119784761Y-71667619D02*
X119832380Y-71762857D01*
X119832380Y-71953333D01*
X119784761Y-72048571D01*
X119689523Y-72096190D01*
X119308571Y-72096190D01*
X119213333Y-72048571D01*
X119165714Y-71953333D01*
X119165714Y-71762857D01*
X119213333Y-71667619D01*
X119308571Y-71620000D01*
X119403809Y-71620000D01*
X119499047Y-72096190D01*
X119832380Y-71191428D02*
X119165714Y-71191428D01*
X119260952Y-71191428D02*
X119213333Y-71143809D01*
X119165714Y-71048571D01*
X119165714Y-70905714D01*
X119213333Y-70810476D01*
X119308571Y-70762857D01*
X119832380Y-70762857D01*
X119308571Y-70762857D02*
X119213333Y-70715238D01*
X119165714Y-70620000D01*
X119165714Y-70477142D01*
X119213333Y-70381904D01*
X119308571Y-70334285D01*
X119832380Y-70334285D01*
X119165714Y-69858095D02*
X120165714Y-69858095D01*
X119213333Y-69858095D02*
X119165714Y-69762857D01*
X119165714Y-69572380D01*
X119213333Y-69477142D01*
X119260952Y-69429523D01*
X119356190Y-69381904D01*
X119641904Y-69381904D01*
X119737142Y-69429523D01*
X119784761Y-69477142D01*
X119832380Y-69572380D01*
X119832380Y-69762857D01*
X119784761Y-69858095D01*
D11*
X123840857Y-93217904D02*
X123840857Y-91694095D01*
D10*
X119705428Y-37052000D02*
X119705428Y-36290095D01*
X120086380Y-36671047D02*
X119324476Y-36671047D01*
X119086380Y-35909142D02*
X119086380Y-35290095D01*
X119467333Y-35623428D01*
X119467333Y-35480571D01*
X119514952Y-35385333D01*
X119562571Y-35337714D01*
X119657809Y-35290095D01*
X119895904Y-35290095D01*
X119991142Y-35337714D01*
X120038761Y-35385333D01*
X120086380Y-35480571D01*
X120086380Y-35766285D01*
X120038761Y-35861523D01*
X119991142Y-35909142D01*
X119991142Y-34861523D02*
X120038761Y-34813904D01*
X120086380Y-34861523D01*
X120038761Y-34909142D01*
X119991142Y-34861523D01*
X120086380Y-34861523D01*
X119086380Y-34480571D02*
X119086380Y-33861523D01*
X119467333Y-34194857D01*
X119467333Y-34052000D01*
X119514952Y-33956761D01*
X119562571Y-33909142D01*
X119657809Y-33861523D01*
X119895904Y-33861523D01*
X119991142Y-33909142D01*
X120038761Y-33956761D01*
X120086380Y-34052000D01*
X120086380Y-34337714D01*
X120038761Y-34432952D01*
X119991142Y-34480571D01*
X119086380Y-33575809D02*
X120086380Y-33242476D01*
X119086380Y-32909142D01*
X118932142Y-133246571D02*
X118979761Y-133294190D01*
X119027380Y-133437047D01*
X119027380Y-133532285D01*
X118979761Y-133675142D01*
X118884523Y-133770380D01*
X118789285Y-133818000D01*
X118598809Y-133865619D01*
X118455952Y-133865619D01*
X118265476Y-133818000D01*
X118170238Y-133770380D01*
X118075000Y-133675142D01*
X118027380Y-133532285D01*
X118027380Y-133437047D01*
X118075000Y-133294190D01*
X118122619Y-133246571D01*
X118360714Y-132389428D02*
X119027380Y-132389428D01*
X118360714Y-132818000D02*
X118884523Y-132818000D01*
X118979761Y-132770380D01*
X119027380Y-132675142D01*
X119027380Y-132532285D01*
X118979761Y-132437047D01*
X118932142Y-132389428D01*
X119027380Y-131913238D02*
X118360714Y-131913238D01*
X118551190Y-131913238D02*
X118455952Y-131865619D01*
X118408333Y-131818000D01*
X118360714Y-131722761D01*
X118360714Y-131627523D01*
X119027380Y-131294190D02*
X118360714Y-131294190D01*
X118551190Y-131294190D02*
X118455952Y-131246571D01*
X118408333Y-131198952D01*
X118360714Y-131103714D01*
X118360714Y-131008476D01*
X118979761Y-130294190D02*
X119027380Y-130389428D01*
X119027380Y-130579904D01*
X118979761Y-130675142D01*
X118884523Y-130722761D01*
X118503571Y-130722761D01*
X118408333Y-130675142D01*
X118360714Y-130579904D01*
X118360714Y-130389428D01*
X118408333Y-130294190D01*
X118503571Y-130246571D01*
X118598809Y-130246571D01*
X118694047Y-130722761D01*
X118360714Y-129818000D02*
X119027380Y-129818000D01*
X118455952Y-129818000D02*
X118408333Y-129770380D01*
X118360714Y-129675142D01*
X118360714Y-129532285D01*
X118408333Y-129437047D01*
X118503571Y-129389428D01*
X119027380Y-129389428D01*
X118360714Y-129056095D02*
X118360714Y-128675142D01*
X118027380Y-128913238D02*
X118884523Y-128913238D01*
X118979761Y-128865619D01*
X119027380Y-128770380D01*
X119027380Y-128675142D01*
X120637380Y-134127523D02*
X119637380Y-134127523D01*
X120351666Y-133794190D01*
X119637380Y-133460857D01*
X120637380Y-133460857D01*
X120589761Y-132603714D02*
X120637380Y-132698952D01*
X120637380Y-132889428D01*
X120589761Y-132984666D01*
X120494523Y-133032285D01*
X120113571Y-133032285D01*
X120018333Y-132984666D01*
X119970714Y-132889428D01*
X119970714Y-132698952D01*
X120018333Y-132603714D01*
X120113571Y-132556095D01*
X120208809Y-132556095D01*
X120304047Y-133032285D01*
X120637380Y-131698952D02*
X120113571Y-131698952D01*
X120018333Y-131746571D01*
X119970714Y-131841809D01*
X119970714Y-132032285D01*
X120018333Y-132127523D01*
X120589761Y-131698952D02*
X120637380Y-131794190D01*
X120637380Y-132032285D01*
X120589761Y-132127523D01*
X120494523Y-132175142D01*
X120399285Y-132175142D01*
X120304047Y-132127523D01*
X120256428Y-132032285D01*
X120256428Y-131794190D01*
X120208809Y-131698952D01*
X120589761Y-131270380D02*
X120637380Y-131175142D01*
X120637380Y-130984666D01*
X120589761Y-130889428D01*
X120494523Y-130841809D01*
X120446904Y-130841809D01*
X120351666Y-130889428D01*
X120304047Y-130984666D01*
X120304047Y-131127523D01*
X120256428Y-131222761D01*
X120161190Y-131270380D01*
X120113571Y-131270380D01*
X120018333Y-131222761D01*
X119970714Y-131127523D01*
X119970714Y-130984666D01*
X120018333Y-130889428D01*
X119970714Y-129984666D02*
X120637380Y-129984666D01*
X119970714Y-130413238D02*
X120494523Y-130413238D01*
X120589761Y-130365619D01*
X120637380Y-130270380D01*
X120637380Y-130127523D01*
X120589761Y-130032285D01*
X120542142Y-129984666D01*
X120637380Y-129508476D02*
X119970714Y-129508476D01*
X120161190Y-129508476D02*
X120065952Y-129460857D01*
X120018333Y-129413238D01*
X119970714Y-129318000D01*
X119970714Y-129222761D01*
X120589761Y-128508476D02*
X120637380Y-128603714D01*
X120637380Y-128794190D01*
X120589761Y-128889428D01*
X120494523Y-128937047D01*
X120113571Y-128937047D01*
X120018333Y-128889428D01*
X119970714Y-128794190D01*
X119970714Y-128603714D01*
X120018333Y-128508476D01*
X120113571Y-128460857D01*
X120208809Y-128460857D01*
X120304047Y-128937047D01*
X71731428Y-28349380D02*
X71731428Y-27349380D01*
X71969523Y-27349380D01*
X72112380Y-27397000D01*
X72207619Y-27492238D01*
X72255238Y-27587476D01*
X72302857Y-27777952D01*
X72302857Y-27920809D01*
X72255238Y-28111285D01*
X72207619Y-28206523D01*
X72112380Y-28301761D01*
X71969523Y-28349380D01*
X71731428Y-28349380D01*
X72731428Y-28349380D02*
X72731428Y-27682714D01*
X72731428Y-27873190D02*
X72779047Y-27777952D01*
X72826666Y-27730333D01*
X72921904Y-27682714D01*
X73017142Y-27682714D01*
X73350476Y-28349380D02*
X73350476Y-27682714D01*
X73350476Y-27349380D02*
X73302857Y-27397000D01*
X73350476Y-27444619D01*
X73398095Y-27397000D01*
X73350476Y-27349380D01*
X73350476Y-27444619D01*
X73731428Y-27682714D02*
X73969523Y-28349380D01*
X74207619Y-27682714D01*
X74969523Y-28301761D02*
X74874285Y-28349380D01*
X74683809Y-28349380D01*
X74588571Y-28301761D01*
X74540952Y-28206523D01*
X74540952Y-27825571D01*
X74588571Y-27730333D01*
X74683809Y-27682714D01*
X74874285Y-27682714D01*
X74969523Y-27730333D01*
X75017142Y-27825571D01*
X75017142Y-27920809D01*
X74540952Y-28016047D01*
X75445714Y-28349380D02*
X75445714Y-27682714D01*
X75445714Y-27873190D02*
X75493333Y-27777952D01*
X75540952Y-27730333D01*
X75636190Y-27682714D01*
X75731428Y-27682714D01*
X70707619Y-29864142D02*
X70660000Y-29911761D01*
X70517142Y-29959380D01*
X70421904Y-29959380D01*
X70279047Y-29911761D01*
X70183809Y-29816523D01*
X70136190Y-29721285D01*
X70088571Y-29530809D01*
X70088571Y-29387952D01*
X70136190Y-29197476D01*
X70183809Y-29102238D01*
X70279047Y-29007000D01*
X70421904Y-28959380D01*
X70517142Y-28959380D01*
X70660000Y-29007000D01*
X70707619Y-29054619D01*
X71279047Y-29959380D02*
X71183809Y-29911761D01*
X71136190Y-29864142D01*
X71088571Y-29768904D01*
X71088571Y-29483190D01*
X71136190Y-29387952D01*
X71183809Y-29340333D01*
X71279047Y-29292714D01*
X71421904Y-29292714D01*
X71517142Y-29340333D01*
X71564761Y-29387952D01*
X71612380Y-29483190D01*
X71612380Y-29768904D01*
X71564761Y-29864142D01*
X71517142Y-29911761D01*
X71421904Y-29959380D01*
X71279047Y-29959380D01*
X72040952Y-29292714D02*
X72040952Y-29959380D01*
X72040952Y-29387952D02*
X72088571Y-29340333D01*
X72183809Y-29292714D01*
X72326666Y-29292714D01*
X72421904Y-29340333D01*
X72469523Y-29435571D01*
X72469523Y-29959380D01*
X72945714Y-29292714D02*
X72945714Y-29959380D01*
X72945714Y-29387952D02*
X72993333Y-29340333D01*
X73088571Y-29292714D01*
X73231428Y-29292714D01*
X73326666Y-29340333D01*
X73374285Y-29435571D01*
X73374285Y-29959380D01*
X74231428Y-29911761D02*
X74136190Y-29959380D01*
X73945714Y-29959380D01*
X73850476Y-29911761D01*
X73802857Y-29816523D01*
X73802857Y-29435571D01*
X73850476Y-29340333D01*
X73945714Y-29292714D01*
X74136190Y-29292714D01*
X74231428Y-29340333D01*
X74279047Y-29435571D01*
X74279047Y-29530809D01*
X73802857Y-29626047D01*
X75136190Y-29911761D02*
X75040952Y-29959380D01*
X74850476Y-29959380D01*
X74755238Y-29911761D01*
X74707619Y-29864142D01*
X74660000Y-29768904D01*
X74660000Y-29483190D01*
X74707619Y-29387952D01*
X74755238Y-29340333D01*
X74850476Y-29292714D01*
X75040952Y-29292714D01*
X75136190Y-29340333D01*
X75421904Y-29292714D02*
X75802857Y-29292714D01*
X75564761Y-28959380D02*
X75564761Y-29816523D01*
X75612380Y-29911761D01*
X75707619Y-29959380D01*
X75802857Y-29959380D01*
X76279047Y-29959380D02*
X76183809Y-29911761D01*
X76136190Y-29864142D01*
X76088571Y-29768904D01*
X76088571Y-29483190D01*
X76136190Y-29387952D01*
X76183809Y-29340333D01*
X76279047Y-29292714D01*
X76421904Y-29292714D01*
X76517142Y-29340333D01*
X76564761Y-29387952D01*
X76612380Y-29483190D01*
X76612380Y-29768904D01*
X76564761Y-29864142D01*
X76517142Y-29911761D01*
X76421904Y-29959380D01*
X76279047Y-29959380D01*
X77040952Y-29959380D02*
X77040952Y-29292714D01*
X77040952Y-29483190D02*
X77088571Y-29387952D01*
X77136190Y-29340333D01*
X77231428Y-29292714D01*
X77326666Y-29292714D01*
D11*
X123190095Y-29860857D02*
X124713904Y-29860857D01*
X123952000Y-30622761D02*
X123952000Y-29098952D01*
X123190095Y-89296857D02*
X124713904Y-89296857D01*
X123952000Y-90058761D02*
X123952000Y-88534952D01*
X123840857Y-81787904D02*
X123840857Y-80264095D01*
D10*
X122118380Y-26614285D02*
X121642190Y-26947619D01*
X122118380Y-27185714D02*
X121118380Y-27185714D01*
X121118380Y-26804761D01*
X121166000Y-26709523D01*
X121213619Y-26661904D01*
X121308857Y-26614285D01*
X121451714Y-26614285D01*
X121546952Y-26661904D01*
X121594571Y-26709523D01*
X121642190Y-26804761D01*
X121642190Y-27185714D01*
X122070761Y-25804761D02*
X122118380Y-25900000D01*
X122118380Y-26090476D01*
X122070761Y-26185714D01*
X121975523Y-26233333D01*
X121594571Y-26233333D01*
X121499333Y-26185714D01*
X121451714Y-26090476D01*
X121451714Y-25900000D01*
X121499333Y-25804761D01*
X121594571Y-25757142D01*
X121689809Y-25757142D01*
X121785047Y-26233333D01*
X122118380Y-25185714D02*
X122070761Y-25280952D01*
X121975523Y-25328571D01*
X121118380Y-25328571D01*
X122118380Y-24376190D02*
X121594571Y-24376190D01*
X121499333Y-24423809D01*
X121451714Y-24519047D01*
X121451714Y-24709523D01*
X121499333Y-24804761D01*
X122070761Y-24376190D02*
X122118380Y-24471428D01*
X122118380Y-24709523D01*
X122070761Y-24804761D01*
X121975523Y-24852380D01*
X121880285Y-24852380D01*
X121785047Y-24804761D01*
X121737428Y-24709523D01*
X121737428Y-24471428D01*
X121689809Y-24376190D01*
X121451714Y-23995238D02*
X122118380Y-23757142D01*
X121451714Y-23519047D02*
X122118380Y-23757142D01*
X122356476Y-23852380D01*
X122404095Y-23900000D01*
X122451714Y-23995238D01*
D11*
X123190095Y-59578857D02*
X124713904Y-59578857D01*
X123952000Y-60340761D02*
X123952000Y-58816952D01*
X123840857Y-52069904D02*
X123840857Y-50546095D01*
X123190095Y-47894857D02*
X124713904Y-47894857D01*
X123952000Y-48656761D02*
X123952000Y-47132952D01*
X123190095Y-100980857D02*
X124713904Y-100980857D01*
X123952000Y-101742761D02*
X123952000Y-100218952D01*
D10*
X129103428Y-36813904D02*
X129103428Y-36052000D01*
X129484380Y-36432952D02*
X128722476Y-36432952D01*
X129484380Y-35052000D02*
X129484380Y-35623428D01*
X129484380Y-35337714D02*
X128484380Y-35337714D01*
X128627238Y-35432952D01*
X128722476Y-35528190D01*
X128770095Y-35623428D01*
X128484380Y-34147238D02*
X128484380Y-34623428D01*
X128960571Y-34671047D01*
X128912952Y-34623428D01*
X128865333Y-34528190D01*
X128865333Y-34290095D01*
X128912952Y-34194857D01*
X128960571Y-34147238D01*
X129055809Y-34099619D01*
X129293904Y-34099619D01*
X129389142Y-34147238D01*
X129436761Y-34194857D01*
X129484380Y-34290095D01*
X129484380Y-34528190D01*
X129436761Y-34623428D01*
X129389142Y-34671047D01*
X128484380Y-33813904D02*
X129484380Y-33480571D01*
X128484380Y-33147238D01*
X119832380Y-151256476D02*
X119356190Y-151589809D01*
X119832380Y-151827904D02*
X118832380Y-151827904D01*
X118832380Y-151446952D01*
X118880000Y-151351714D01*
X118927619Y-151304095D01*
X119022857Y-151256476D01*
X119165714Y-151256476D01*
X119260952Y-151304095D01*
X119308571Y-151351714D01*
X119356190Y-151446952D01*
X119356190Y-151827904D01*
X119784761Y-150875523D02*
X119832380Y-150732666D01*
X119832380Y-150494571D01*
X119784761Y-150399333D01*
X119737142Y-150351714D01*
X119641904Y-150304095D01*
X119546666Y-150304095D01*
X119451428Y-150351714D01*
X119403809Y-150399333D01*
X119356190Y-150494571D01*
X119308571Y-150685047D01*
X119260952Y-150780285D01*
X119213333Y-150827904D01*
X119118095Y-150875523D01*
X119022857Y-150875523D01*
X118927619Y-150827904D01*
X118880000Y-150780285D01*
X118832380Y-150685047D01*
X118832380Y-150446952D01*
X118880000Y-150304095D01*
X119451428Y-149875523D02*
X119451428Y-149113619D01*
X119165714Y-148208857D02*
X119832380Y-148208857D01*
X118784761Y-148446952D02*
X119499047Y-148685047D01*
X119499047Y-148066000D01*
X119260952Y-147542190D02*
X119213333Y-147637428D01*
X119165714Y-147685047D01*
X119070476Y-147732666D01*
X119022857Y-147732666D01*
X118927619Y-147685047D01*
X118880000Y-147637428D01*
X118832380Y-147542190D01*
X118832380Y-147351714D01*
X118880000Y-147256476D01*
X118927619Y-147208857D01*
X119022857Y-147161238D01*
X119070476Y-147161238D01*
X119165714Y-147208857D01*
X119213333Y-147256476D01*
X119260952Y-147351714D01*
X119260952Y-147542190D01*
X119308571Y-147637428D01*
X119356190Y-147685047D01*
X119451428Y-147732666D01*
X119641904Y-147732666D01*
X119737142Y-147685047D01*
X119784761Y-147637428D01*
X119832380Y-147542190D01*
X119832380Y-147351714D01*
X119784761Y-147256476D01*
X119737142Y-147208857D01*
X119641904Y-147161238D01*
X119451428Y-147161238D01*
X119356190Y-147208857D01*
X119308571Y-147256476D01*
X119260952Y-147351714D01*
X118832380Y-146256476D02*
X118832380Y-146732666D01*
X119308571Y-146780285D01*
X119260952Y-146732666D01*
X119213333Y-146637428D01*
X119213333Y-146399333D01*
X119260952Y-146304095D01*
X119308571Y-146256476D01*
X119403809Y-146208857D01*
X119641904Y-146208857D01*
X119737142Y-146256476D01*
X119784761Y-146304095D01*
X119832380Y-146399333D01*
X119832380Y-146637428D01*
X119784761Y-146732666D01*
X119737142Y-146780285D01*
X118784761Y-145066000D02*
X120070476Y-145923142D01*
X119737142Y-144161238D02*
X119784761Y-144208857D01*
X119832380Y-144351714D01*
X119832380Y-144446952D01*
X119784761Y-144589809D01*
X119689523Y-144685047D01*
X119594285Y-144732666D01*
X119403809Y-144780285D01*
X119260952Y-144780285D01*
X119070476Y-144732666D01*
X118975238Y-144685047D01*
X118880000Y-144589809D01*
X118832380Y-144446952D01*
X118832380Y-144351714D01*
X118880000Y-144208857D01*
X118927619Y-144161238D01*
X119546666Y-143780285D02*
X119546666Y-143304095D01*
X119832380Y-143875523D02*
X118832380Y-143542190D01*
X119832380Y-143208857D01*
X119832380Y-142875523D02*
X118832380Y-142875523D01*
X119832380Y-142304095D01*
X118832380Y-142304095D01*
X121991428Y-110505714D02*
X121991428Y-109743809D01*
X122372380Y-110124761D02*
X121610476Y-110124761D01*
X121372380Y-108791428D02*
X121372380Y-109267619D01*
X121848571Y-109315238D01*
X121800952Y-109267619D01*
X121753333Y-109172380D01*
X121753333Y-108934285D01*
X121800952Y-108839047D01*
X121848571Y-108791428D01*
X121943809Y-108743809D01*
X122181904Y-108743809D01*
X122277142Y-108791428D01*
X122324761Y-108839047D01*
X122372380Y-108934285D01*
X122372380Y-109172380D01*
X122324761Y-109267619D01*
X122277142Y-109315238D01*
X121372380Y-108458095D02*
X122372380Y-108124761D01*
X121372380Y-107791428D01*
D11*
X124094857Y-22351904D02*
X124094857Y-20828095D01*
D10*
X130008380Y-111243809D02*
X130008380Y-111720000D01*
X130484571Y-111767619D01*
X130436952Y-111720000D01*
X130389333Y-111624761D01*
X130389333Y-111386666D01*
X130436952Y-111291428D01*
X130484571Y-111243809D01*
X130579809Y-111196190D01*
X130817904Y-111196190D01*
X130913142Y-111243809D01*
X130960761Y-111291428D01*
X131008380Y-111386666D01*
X131008380Y-111624761D01*
X130960761Y-111720000D01*
X130913142Y-111767619D01*
X130008380Y-110910476D02*
X131008380Y-110577142D01*
X130008380Y-110243809D01*
X130913142Y-108577142D02*
X130960761Y-108624761D01*
X131008380Y-108767619D01*
X131008380Y-108862857D01*
X130960761Y-109005714D01*
X130865523Y-109100952D01*
X130770285Y-109148571D01*
X130579809Y-109196190D01*
X130436952Y-109196190D01*
X130246476Y-109148571D01*
X130151238Y-109100952D01*
X130056000Y-109005714D01*
X130008380Y-108862857D01*
X130008380Y-108767619D01*
X130056000Y-108624761D01*
X130103619Y-108577142D01*
X130722666Y-108196190D02*
X130722666Y-107720000D01*
X131008380Y-108291428D02*
X130008380Y-107958095D01*
X131008380Y-107624761D01*
X131008380Y-107291428D02*
X130008380Y-107291428D01*
X131008380Y-106720000D01*
X130008380Y-106720000D01*
D11*
X124094857Y-40385904D02*
X124094857Y-38862095D01*
D10*
%TO.C,R41*%
X82923142Y-47690380D02*
X82589809Y-47214190D01*
X82351714Y-47690380D02*
X82351714Y-46690380D01*
X82732666Y-46690380D01*
X82827904Y-46738000D01*
X82875523Y-46785619D01*
X82923142Y-46880857D01*
X82923142Y-47023714D01*
X82875523Y-47118952D01*
X82827904Y-47166571D01*
X82732666Y-47214190D01*
X82351714Y-47214190D01*
X83780285Y-47023714D02*
X83780285Y-47690380D01*
X83542190Y-46642761D02*
X83304095Y-47357047D01*
X83923142Y-47357047D01*
X84827904Y-47690380D02*
X84256476Y-47690380D01*
X84542190Y-47690380D02*
X84542190Y-46690380D01*
X84446952Y-46833238D01*
X84351714Y-46928476D01*
X84256476Y-46976095D01*
%TO.C,R28*%
X72509142Y-71826380D02*
X72175809Y-71350190D01*
X71937714Y-71826380D02*
X71937714Y-70826380D01*
X72318666Y-70826380D01*
X72413904Y-70874000D01*
X72461523Y-70921619D01*
X72509142Y-71016857D01*
X72509142Y-71159714D01*
X72461523Y-71254952D01*
X72413904Y-71302571D01*
X72318666Y-71350190D01*
X71937714Y-71350190D01*
X72890095Y-70921619D02*
X72937714Y-70874000D01*
X73032952Y-70826380D01*
X73271047Y-70826380D01*
X73366285Y-70874000D01*
X73413904Y-70921619D01*
X73461523Y-71016857D01*
X73461523Y-71112095D01*
X73413904Y-71254952D01*
X72842476Y-71826380D01*
X73461523Y-71826380D01*
X74032952Y-71254952D02*
X73937714Y-71207333D01*
X73890095Y-71159714D01*
X73842476Y-71064476D01*
X73842476Y-71016857D01*
X73890095Y-70921619D01*
X73937714Y-70874000D01*
X74032952Y-70826380D01*
X74223428Y-70826380D01*
X74318666Y-70874000D01*
X74366285Y-70921619D01*
X74413904Y-71016857D01*
X74413904Y-71064476D01*
X74366285Y-71159714D01*
X74318666Y-71207333D01*
X74223428Y-71254952D01*
X74032952Y-71254952D01*
X73937714Y-71302571D01*
X73890095Y-71350190D01*
X73842476Y-71445428D01*
X73842476Y-71635904D01*
X73890095Y-71731142D01*
X73937714Y-71778761D01*
X74032952Y-71826380D01*
X74223428Y-71826380D01*
X74318666Y-71778761D01*
X74366285Y-71731142D01*
X74413904Y-71635904D01*
X74413904Y-71445428D01*
X74366285Y-71350190D01*
X74318666Y-71302571D01*
X74223428Y-71254952D01*
%TO.C,R31*%
X72509142Y-84526380D02*
X72175809Y-84050190D01*
X71937714Y-84526380D02*
X71937714Y-83526380D01*
X72318666Y-83526380D01*
X72413904Y-83574000D01*
X72461523Y-83621619D01*
X72509142Y-83716857D01*
X72509142Y-83859714D01*
X72461523Y-83954952D01*
X72413904Y-84002571D01*
X72318666Y-84050190D01*
X71937714Y-84050190D01*
X72842476Y-83526380D02*
X73461523Y-83526380D01*
X73128190Y-83907333D01*
X73271047Y-83907333D01*
X73366285Y-83954952D01*
X73413904Y-84002571D01*
X73461523Y-84097809D01*
X73461523Y-84335904D01*
X73413904Y-84431142D01*
X73366285Y-84478761D01*
X73271047Y-84526380D01*
X72985333Y-84526380D01*
X72890095Y-84478761D01*
X72842476Y-84431142D01*
X74413904Y-84526380D02*
X73842476Y-84526380D01*
X74128190Y-84526380D02*
X74128190Y-83526380D01*
X74032952Y-83669238D01*
X73937714Y-83764476D01*
X73842476Y-83812095D01*
%TO.C,R17*%
X132024380Y-37472857D02*
X131548190Y-37806190D01*
X132024380Y-38044285D02*
X131024380Y-38044285D01*
X131024380Y-37663333D01*
X131072000Y-37568095D01*
X131119619Y-37520476D01*
X131214857Y-37472857D01*
X131357714Y-37472857D01*
X131452952Y-37520476D01*
X131500571Y-37568095D01*
X131548190Y-37663333D01*
X131548190Y-38044285D01*
X132024380Y-36520476D02*
X132024380Y-37091904D01*
X132024380Y-36806190D02*
X131024380Y-36806190D01*
X131167238Y-36901428D01*
X131262476Y-36996666D01*
X131310095Y-37091904D01*
X131024380Y-36187142D02*
X131024380Y-35520476D01*
X132024380Y-35949047D01*
%TO.C,C23*%
X93845142Y-95861142D02*
X93797523Y-95908761D01*
X93654666Y-95956380D01*
X93559428Y-95956380D01*
X93416571Y-95908761D01*
X93321333Y-95813523D01*
X93273714Y-95718285D01*
X93226095Y-95527809D01*
X93226095Y-95384952D01*
X93273714Y-95194476D01*
X93321333Y-95099238D01*
X93416571Y-95004000D01*
X93559428Y-94956380D01*
X93654666Y-94956380D01*
X93797523Y-95004000D01*
X93845142Y-95051619D01*
X94226095Y-95051619D02*
X94273714Y-95004000D01*
X94368952Y-94956380D01*
X94607047Y-94956380D01*
X94702285Y-95004000D01*
X94749904Y-95051619D01*
X94797523Y-95146857D01*
X94797523Y-95242095D01*
X94749904Y-95384952D01*
X94178476Y-95956380D01*
X94797523Y-95956380D01*
X95130857Y-94956380D02*
X95749904Y-94956380D01*
X95416571Y-95337333D01*
X95559428Y-95337333D01*
X95654666Y-95384952D01*
X95702285Y-95432571D01*
X95749904Y-95527809D01*
X95749904Y-95765904D01*
X95702285Y-95861142D01*
X95654666Y-95908761D01*
X95559428Y-95956380D01*
X95273714Y-95956380D01*
X95178476Y-95908761D01*
X95130857Y-95861142D01*
%TO.C,R35*%
X72763142Y-137866380D02*
X72429809Y-137390190D01*
X72191714Y-137866380D02*
X72191714Y-136866380D01*
X72572666Y-136866380D01*
X72667904Y-136914000D01*
X72715523Y-136961619D01*
X72763142Y-137056857D01*
X72763142Y-137199714D01*
X72715523Y-137294952D01*
X72667904Y-137342571D01*
X72572666Y-137390190D01*
X72191714Y-137390190D01*
X73096476Y-136866380D02*
X73715523Y-136866380D01*
X73382190Y-137247333D01*
X73525047Y-137247333D01*
X73620285Y-137294952D01*
X73667904Y-137342571D01*
X73715523Y-137437809D01*
X73715523Y-137675904D01*
X73667904Y-137771142D01*
X73620285Y-137818761D01*
X73525047Y-137866380D01*
X73239333Y-137866380D01*
X73144095Y-137818761D01*
X73096476Y-137771142D01*
X74620285Y-136866380D02*
X74144095Y-136866380D01*
X74096476Y-137342571D01*
X74144095Y-137294952D01*
X74239333Y-137247333D01*
X74477428Y-137247333D01*
X74572666Y-137294952D01*
X74620285Y-137342571D01*
X74667904Y-137437809D01*
X74667904Y-137675904D01*
X74620285Y-137771142D01*
X74572666Y-137818761D01*
X74477428Y-137866380D01*
X74239333Y-137866380D01*
X74144095Y-137818761D01*
X74096476Y-137771142D01*
%TO.C,C5*%
X120229333Y-52681142D02*
X120181714Y-52728761D01*
X120038857Y-52776380D01*
X119943619Y-52776380D01*
X119800761Y-52728761D01*
X119705523Y-52633523D01*
X119657904Y-52538285D01*
X119610285Y-52347809D01*
X119610285Y-52204952D01*
X119657904Y-52014476D01*
X119705523Y-51919238D01*
X119800761Y-51824000D01*
X119943619Y-51776380D01*
X120038857Y-51776380D01*
X120181714Y-51824000D01*
X120229333Y-51871619D01*
X121134095Y-51776380D02*
X120657904Y-51776380D01*
X120610285Y-52252571D01*
X120657904Y-52204952D01*
X120753142Y-52157333D01*
X120991238Y-52157333D01*
X121086476Y-52204952D01*
X121134095Y-52252571D01*
X121181714Y-52347809D01*
X121181714Y-52585904D01*
X121134095Y-52681142D01*
X121086476Y-52728761D01*
X120991238Y-52776380D01*
X120753142Y-52776380D01*
X120657904Y-52728761D01*
X120610285Y-52681142D01*
%TO.C,R29*%
X72509142Y-74366380D02*
X72175809Y-73890190D01*
X71937714Y-74366380D02*
X71937714Y-73366380D01*
X72318666Y-73366380D01*
X72413904Y-73414000D01*
X72461523Y-73461619D01*
X72509142Y-73556857D01*
X72509142Y-73699714D01*
X72461523Y-73794952D01*
X72413904Y-73842571D01*
X72318666Y-73890190D01*
X71937714Y-73890190D01*
X72890095Y-73461619D02*
X72937714Y-73414000D01*
X73032952Y-73366380D01*
X73271047Y-73366380D01*
X73366285Y-73414000D01*
X73413904Y-73461619D01*
X73461523Y-73556857D01*
X73461523Y-73652095D01*
X73413904Y-73794952D01*
X72842476Y-74366380D01*
X73461523Y-74366380D01*
X73937714Y-74366380D02*
X74128190Y-74366380D01*
X74223428Y-74318761D01*
X74271047Y-74271142D01*
X74366285Y-74128285D01*
X74413904Y-73937809D01*
X74413904Y-73556857D01*
X74366285Y-73461619D01*
X74318666Y-73414000D01*
X74223428Y-73366380D01*
X74032952Y-73366380D01*
X73937714Y-73414000D01*
X73890095Y-73461619D01*
X73842476Y-73556857D01*
X73842476Y-73794952D01*
X73890095Y-73890190D01*
X73937714Y-73937809D01*
X74032952Y-73985428D01*
X74223428Y-73985428D01*
X74318666Y-73937809D01*
X74366285Y-73890190D01*
X74413904Y-73794952D01*
%TO.C,C1*%
X95384333Y-117705142D02*
X95336714Y-117752761D01*
X95193857Y-117800380D01*
X95098619Y-117800380D01*
X94955761Y-117752761D01*
X94860523Y-117657523D01*
X94812904Y-117562285D01*
X94765285Y-117371809D01*
X94765285Y-117228952D01*
X94812904Y-117038476D01*
X94860523Y-116943238D01*
X94955761Y-116848000D01*
X95098619Y-116800380D01*
X95193857Y-116800380D01*
X95336714Y-116848000D01*
X95384333Y-116895619D01*
X96336714Y-117800380D02*
X95765285Y-117800380D01*
X96051000Y-117800380D02*
X96051000Y-116800380D01*
X95955761Y-116943238D01*
X95860523Y-117038476D01*
X95765285Y-117086095D01*
%TO.C,R20*%
X133469142Y-111958380D02*
X133135809Y-111482190D01*
X132897714Y-111958380D02*
X132897714Y-110958380D01*
X133278666Y-110958380D01*
X133373904Y-111006000D01*
X133421523Y-111053619D01*
X133469142Y-111148857D01*
X133469142Y-111291714D01*
X133421523Y-111386952D01*
X133373904Y-111434571D01*
X133278666Y-111482190D01*
X132897714Y-111482190D01*
X133850095Y-111053619D02*
X133897714Y-111006000D01*
X133992952Y-110958380D01*
X134231047Y-110958380D01*
X134326285Y-111006000D01*
X134373904Y-111053619D01*
X134421523Y-111148857D01*
X134421523Y-111244095D01*
X134373904Y-111386952D01*
X133802476Y-111958380D01*
X134421523Y-111958380D01*
X135040571Y-110958380D02*
X135135809Y-110958380D01*
X135231047Y-111006000D01*
X135278666Y-111053619D01*
X135326285Y-111148857D01*
X135373904Y-111339333D01*
X135373904Y-111577428D01*
X135326285Y-111767904D01*
X135278666Y-111863142D01*
X135231047Y-111910761D01*
X135135809Y-111958380D01*
X135040571Y-111958380D01*
X134945333Y-111910761D01*
X134897714Y-111863142D01*
X134850095Y-111767904D01*
X134802476Y-111577428D01*
X134802476Y-111339333D01*
X134850095Y-111148857D01*
X134897714Y-111053619D01*
X134945333Y-111006000D01*
X135040571Y-110958380D01*
%TO.C,C11*%
X97401142Y-42521142D02*
X97353523Y-42568761D01*
X97210666Y-42616380D01*
X97115428Y-42616380D01*
X96972571Y-42568761D01*
X96877333Y-42473523D01*
X96829714Y-42378285D01*
X96782095Y-42187809D01*
X96782095Y-42044952D01*
X96829714Y-41854476D01*
X96877333Y-41759238D01*
X96972571Y-41664000D01*
X97115428Y-41616380D01*
X97210666Y-41616380D01*
X97353523Y-41664000D01*
X97401142Y-41711619D01*
X98353523Y-42616380D02*
X97782095Y-42616380D01*
X98067809Y-42616380D02*
X98067809Y-41616380D01*
X97972571Y-41759238D01*
X97877333Y-41854476D01*
X97782095Y-41902095D01*
X99305904Y-42616380D02*
X98734476Y-42616380D01*
X99020190Y-42616380D02*
X99020190Y-41616380D01*
X98924952Y-41759238D01*
X98829714Y-41854476D01*
X98734476Y-41902095D01*
%TO.C,J13*%
X121118380Y-30527523D02*
X121832666Y-30527523D01*
X121975523Y-30575142D01*
X122070761Y-30670380D01*
X122118380Y-30813238D01*
X122118380Y-30908476D01*
X122118380Y-29527523D02*
X122118380Y-30098952D01*
X122118380Y-29813238D02*
X121118380Y-29813238D01*
X121261238Y-29908476D01*
X121356476Y-30003714D01*
X121404095Y-30098952D01*
X121118380Y-29194190D02*
X121118380Y-28575142D01*
X121499333Y-28908476D01*
X121499333Y-28765619D01*
X121546952Y-28670380D01*
X121594571Y-28622761D01*
X121689809Y-28575142D01*
X121927904Y-28575142D01*
X122023142Y-28622761D01*
X122070761Y-28670380D01*
X122118380Y-28765619D01*
X122118380Y-29051333D01*
X122070761Y-29146571D01*
X122023142Y-29194190D01*
%TO.C,R38*%
X97909142Y-74366380D02*
X97575809Y-73890190D01*
X97337714Y-74366380D02*
X97337714Y-73366380D01*
X97718666Y-73366380D01*
X97813904Y-73414000D01*
X97861523Y-73461619D01*
X97909142Y-73556857D01*
X97909142Y-73699714D01*
X97861523Y-73794952D01*
X97813904Y-73842571D01*
X97718666Y-73890190D01*
X97337714Y-73890190D01*
X98242476Y-73366380D02*
X98861523Y-73366380D01*
X98528190Y-73747333D01*
X98671047Y-73747333D01*
X98766285Y-73794952D01*
X98813904Y-73842571D01*
X98861523Y-73937809D01*
X98861523Y-74175904D01*
X98813904Y-74271142D01*
X98766285Y-74318761D01*
X98671047Y-74366380D01*
X98385333Y-74366380D01*
X98290095Y-74318761D01*
X98242476Y-74271142D01*
X99432952Y-73794952D02*
X99337714Y-73747333D01*
X99290095Y-73699714D01*
X99242476Y-73604476D01*
X99242476Y-73556857D01*
X99290095Y-73461619D01*
X99337714Y-73414000D01*
X99432952Y-73366380D01*
X99623428Y-73366380D01*
X99718666Y-73414000D01*
X99766285Y-73461619D01*
X99813904Y-73556857D01*
X99813904Y-73604476D01*
X99766285Y-73699714D01*
X99718666Y-73747333D01*
X99623428Y-73794952D01*
X99432952Y-73794952D01*
X99337714Y-73842571D01*
X99290095Y-73890190D01*
X99242476Y-73985428D01*
X99242476Y-74175904D01*
X99290095Y-74271142D01*
X99337714Y-74318761D01*
X99432952Y-74366380D01*
X99623428Y-74366380D01*
X99718666Y-74318761D01*
X99766285Y-74271142D01*
X99813904Y-74175904D01*
X99813904Y-73985428D01*
X99766285Y-73890190D01*
X99718666Y-73842571D01*
X99623428Y-73794952D01*
%TO.C,R8*%
X91527333Y-95956380D02*
X91194000Y-95480190D01*
X90955904Y-95956380D02*
X90955904Y-94956380D01*
X91336857Y-94956380D01*
X91432095Y-95004000D01*
X91479714Y-95051619D01*
X91527333Y-95146857D01*
X91527333Y-95289714D01*
X91479714Y-95384952D01*
X91432095Y-95432571D01*
X91336857Y-95480190D01*
X90955904Y-95480190D01*
X92098761Y-95384952D02*
X92003523Y-95337333D01*
X91955904Y-95289714D01*
X91908285Y-95194476D01*
X91908285Y-95146857D01*
X91955904Y-95051619D01*
X92003523Y-95004000D01*
X92098761Y-94956380D01*
X92289238Y-94956380D01*
X92384476Y-95004000D01*
X92432095Y-95051619D01*
X92479714Y-95146857D01*
X92479714Y-95194476D01*
X92432095Y-95289714D01*
X92384476Y-95337333D01*
X92289238Y-95384952D01*
X92098761Y-95384952D01*
X92003523Y-95432571D01*
X91955904Y-95480190D01*
X91908285Y-95575428D01*
X91908285Y-95765904D01*
X91955904Y-95861142D01*
X92003523Y-95908761D01*
X92098761Y-95956380D01*
X92289238Y-95956380D01*
X92384476Y-95908761D01*
X92432095Y-95861142D01*
X92479714Y-95765904D01*
X92479714Y-95575428D01*
X92432095Y-95480190D01*
X92384476Y-95432571D01*
X92289238Y-95384952D01*
%TO.C,R15*%
X95877142Y-100274380D02*
X95543809Y-99798190D01*
X95305714Y-100274380D02*
X95305714Y-99274380D01*
X95686666Y-99274380D01*
X95781904Y-99322000D01*
X95829523Y-99369619D01*
X95877142Y-99464857D01*
X95877142Y-99607714D01*
X95829523Y-99702952D01*
X95781904Y-99750571D01*
X95686666Y-99798190D01*
X95305714Y-99798190D01*
X96829523Y-100274380D02*
X96258095Y-100274380D01*
X96543809Y-100274380D02*
X96543809Y-99274380D01*
X96448571Y-99417238D01*
X96353333Y-99512476D01*
X96258095Y-99560095D01*
X97734285Y-99274380D02*
X97258095Y-99274380D01*
X97210476Y-99750571D01*
X97258095Y-99702952D01*
X97353333Y-99655333D01*
X97591428Y-99655333D01*
X97686666Y-99702952D01*
X97734285Y-99750571D01*
X97781904Y-99845809D01*
X97781904Y-100083904D01*
X97734285Y-100179142D01*
X97686666Y-100226761D01*
X97591428Y-100274380D01*
X97353333Y-100274380D01*
X97258095Y-100226761D01*
X97210476Y-100179142D01*
%TO.C,J5*%
X76120666Y-20534380D02*
X76120666Y-21248666D01*
X76073047Y-21391523D01*
X75977809Y-21486761D01*
X75834952Y-21534380D01*
X75739714Y-21534380D01*
X77073047Y-20534380D02*
X76596857Y-20534380D01*
X76549238Y-21010571D01*
X76596857Y-20962952D01*
X76692095Y-20915333D01*
X76930190Y-20915333D01*
X77025428Y-20962952D01*
X77073047Y-21010571D01*
X77120666Y-21105809D01*
X77120666Y-21343904D01*
X77073047Y-21439142D01*
X77025428Y-21486761D01*
X76930190Y-21534380D01*
X76692095Y-21534380D01*
X76596857Y-21486761D01*
X76549238Y-21439142D01*
%TO.C,J9*%
X115784380Y-55959333D02*
X116498666Y-55959333D01*
X116641523Y-56006952D01*
X116736761Y-56102190D01*
X116784380Y-56245047D01*
X116784380Y-56340285D01*
X116784380Y-55435523D02*
X116784380Y-55245047D01*
X116736761Y-55149809D01*
X116689142Y-55102190D01*
X116546285Y-55006952D01*
X116355809Y-54959333D01*
X115974857Y-54959333D01*
X115879619Y-55006952D01*
X115832000Y-55054571D01*
X115784380Y-55149809D01*
X115784380Y-55340285D01*
X115832000Y-55435523D01*
X115879619Y-55483142D01*
X115974857Y-55530761D01*
X116212952Y-55530761D01*
X116308190Y-55483142D01*
X116355809Y-55435523D01*
X116403428Y-55340285D01*
X116403428Y-55149809D01*
X116355809Y-55054571D01*
X116308190Y-55006952D01*
X116212952Y-54959333D01*
%TO.C,C19*%
X89273142Y-100179142D02*
X89225523Y-100226761D01*
X89082666Y-100274380D01*
X88987428Y-100274380D01*
X88844571Y-100226761D01*
X88749333Y-100131523D01*
X88701714Y-100036285D01*
X88654095Y-99845809D01*
X88654095Y-99702952D01*
X88701714Y-99512476D01*
X88749333Y-99417238D01*
X88844571Y-99322000D01*
X88987428Y-99274380D01*
X89082666Y-99274380D01*
X89225523Y-99322000D01*
X89273142Y-99369619D01*
X90225523Y-100274380D02*
X89654095Y-100274380D01*
X89939809Y-100274380D02*
X89939809Y-99274380D01*
X89844571Y-99417238D01*
X89749333Y-99512476D01*
X89654095Y-99560095D01*
X90701714Y-100274380D02*
X90892190Y-100274380D01*
X90987428Y-100226761D01*
X91035047Y-100179142D01*
X91130285Y-100036285D01*
X91177904Y-99845809D01*
X91177904Y-99464857D01*
X91130285Y-99369619D01*
X91082666Y-99322000D01*
X90987428Y-99274380D01*
X90796952Y-99274380D01*
X90701714Y-99322000D01*
X90654095Y-99369619D01*
X90606476Y-99464857D01*
X90606476Y-99702952D01*
X90654095Y-99798190D01*
X90701714Y-99845809D01*
X90796952Y-99893428D01*
X90987428Y-99893428D01*
X91082666Y-99845809D01*
X91130285Y-99798190D01*
X91177904Y-99702952D01*
%TO.C,R11*%
X73525142Y-113482380D02*
X73191809Y-113006190D01*
X72953714Y-113482380D02*
X72953714Y-112482380D01*
X73334666Y-112482380D01*
X73429904Y-112530000D01*
X73477523Y-112577619D01*
X73525142Y-112672857D01*
X73525142Y-112815714D01*
X73477523Y-112910952D01*
X73429904Y-112958571D01*
X73334666Y-113006190D01*
X72953714Y-113006190D01*
X74477523Y-113482380D02*
X73906095Y-113482380D01*
X74191809Y-113482380D02*
X74191809Y-112482380D01*
X74096571Y-112625238D01*
X74001333Y-112720476D01*
X73906095Y-112768095D01*
X75429904Y-113482380D02*
X74858476Y-113482380D01*
X75144190Y-113482380D02*
X75144190Y-112482380D01*
X75048952Y-112625238D01*
X74953714Y-112720476D01*
X74858476Y-112768095D01*
%TO.C,C18*%
X70223142Y-113387142D02*
X70175523Y-113434761D01*
X70032666Y-113482380D01*
X69937428Y-113482380D01*
X69794571Y-113434761D01*
X69699333Y-113339523D01*
X69651714Y-113244285D01*
X69604095Y-113053809D01*
X69604095Y-112910952D01*
X69651714Y-112720476D01*
X69699333Y-112625238D01*
X69794571Y-112530000D01*
X69937428Y-112482380D01*
X70032666Y-112482380D01*
X70175523Y-112530000D01*
X70223142Y-112577619D01*
X71175523Y-113482380D02*
X70604095Y-113482380D01*
X70889809Y-113482380D02*
X70889809Y-112482380D01*
X70794571Y-112625238D01*
X70699333Y-112720476D01*
X70604095Y-112768095D01*
X71746952Y-112910952D02*
X71651714Y-112863333D01*
X71604095Y-112815714D01*
X71556476Y-112720476D01*
X71556476Y-112672857D01*
X71604095Y-112577619D01*
X71651714Y-112530000D01*
X71746952Y-112482380D01*
X71937428Y-112482380D01*
X72032666Y-112530000D01*
X72080285Y-112577619D01*
X72127904Y-112672857D01*
X72127904Y-112720476D01*
X72080285Y-112815714D01*
X72032666Y-112863333D01*
X71937428Y-112910952D01*
X71746952Y-112910952D01*
X71651714Y-112958571D01*
X71604095Y-113006190D01*
X71556476Y-113101428D01*
X71556476Y-113291904D01*
X71604095Y-113387142D01*
X71651714Y-113434761D01*
X71746952Y-113482380D01*
X71937428Y-113482380D01*
X72032666Y-113434761D01*
X72080285Y-113387142D01*
X72127904Y-113291904D01*
X72127904Y-113101428D01*
X72080285Y-113006190D01*
X72032666Y-112958571D01*
X71937428Y-112910952D01*
%TO.C,R16*%
X73779142Y-65730380D02*
X73445809Y-65254190D01*
X73207714Y-65730380D02*
X73207714Y-64730380D01*
X73588666Y-64730380D01*
X73683904Y-64778000D01*
X73731523Y-64825619D01*
X73779142Y-64920857D01*
X73779142Y-65063714D01*
X73731523Y-65158952D01*
X73683904Y-65206571D01*
X73588666Y-65254190D01*
X73207714Y-65254190D01*
X74731523Y-65730380D02*
X74160095Y-65730380D01*
X74445809Y-65730380D02*
X74445809Y-64730380D01*
X74350571Y-64873238D01*
X74255333Y-64968476D01*
X74160095Y-65016095D01*
X75588666Y-64730380D02*
X75398190Y-64730380D01*
X75302952Y-64778000D01*
X75255333Y-64825619D01*
X75160095Y-64968476D01*
X75112476Y-65158952D01*
X75112476Y-65539904D01*
X75160095Y-65635142D01*
X75207714Y-65682761D01*
X75302952Y-65730380D01*
X75493428Y-65730380D01*
X75588666Y-65682761D01*
X75636285Y-65635142D01*
X75683904Y-65539904D01*
X75683904Y-65301809D01*
X75636285Y-65206571D01*
X75588666Y-65158952D01*
X75493428Y-65111333D01*
X75302952Y-65111333D01*
X75207714Y-65158952D01*
X75160095Y-65206571D01*
X75112476Y-65301809D01*
%TO.C,R27*%
X72509142Y-69286380D02*
X72175809Y-68810190D01*
X71937714Y-69286380D02*
X71937714Y-68286380D01*
X72318666Y-68286380D01*
X72413904Y-68334000D01*
X72461523Y-68381619D01*
X72509142Y-68476857D01*
X72509142Y-68619714D01*
X72461523Y-68714952D01*
X72413904Y-68762571D01*
X72318666Y-68810190D01*
X71937714Y-68810190D01*
X72890095Y-68381619D02*
X72937714Y-68334000D01*
X73032952Y-68286380D01*
X73271047Y-68286380D01*
X73366285Y-68334000D01*
X73413904Y-68381619D01*
X73461523Y-68476857D01*
X73461523Y-68572095D01*
X73413904Y-68714952D01*
X72842476Y-69286380D01*
X73461523Y-69286380D01*
X73794857Y-68286380D02*
X74461523Y-68286380D01*
X74032952Y-69286380D01*
%TO.C,R34*%
X72763142Y-135326380D02*
X72429809Y-134850190D01*
X72191714Y-135326380D02*
X72191714Y-134326380D01*
X72572666Y-134326380D01*
X72667904Y-134374000D01*
X72715523Y-134421619D01*
X72763142Y-134516857D01*
X72763142Y-134659714D01*
X72715523Y-134754952D01*
X72667904Y-134802571D01*
X72572666Y-134850190D01*
X72191714Y-134850190D01*
X73096476Y-134326380D02*
X73715523Y-134326380D01*
X73382190Y-134707333D01*
X73525047Y-134707333D01*
X73620285Y-134754952D01*
X73667904Y-134802571D01*
X73715523Y-134897809D01*
X73715523Y-135135904D01*
X73667904Y-135231142D01*
X73620285Y-135278761D01*
X73525047Y-135326380D01*
X73239333Y-135326380D01*
X73144095Y-135278761D01*
X73096476Y-135231142D01*
X74572666Y-134659714D02*
X74572666Y-135326380D01*
X74334571Y-134278761D02*
X74096476Y-134993047D01*
X74715523Y-134993047D01*
%TO.C,J10*%
X115784380Y-97583523D02*
X116498666Y-97583523D01*
X116641523Y-97631142D01*
X116736761Y-97726380D01*
X116784380Y-97869238D01*
X116784380Y-97964476D01*
X116784380Y-96583523D02*
X116784380Y-97154952D01*
X116784380Y-96869238D02*
X115784380Y-96869238D01*
X115927238Y-96964476D01*
X116022476Y-97059714D01*
X116070095Y-97154952D01*
X115784380Y-95964476D02*
X115784380Y-95869238D01*
X115832000Y-95774000D01*
X115879619Y-95726380D01*
X115974857Y-95678761D01*
X116165333Y-95631142D01*
X116403428Y-95631142D01*
X116593904Y-95678761D01*
X116689142Y-95726380D01*
X116736761Y-95774000D01*
X116784380Y-95869238D01*
X116784380Y-95964476D01*
X116736761Y-96059714D01*
X116689142Y-96107333D01*
X116593904Y-96154952D01*
X116403428Y-96202571D01*
X116165333Y-96202571D01*
X115974857Y-96154952D01*
X115879619Y-96107333D01*
X115832000Y-96059714D01*
X115784380Y-95964476D01*
%TO.C,R6*%
X74255333Y-117800380D02*
X73922000Y-117324190D01*
X73683904Y-117800380D02*
X73683904Y-116800380D01*
X74064857Y-116800380D01*
X74160095Y-116848000D01*
X74207714Y-116895619D01*
X74255333Y-116990857D01*
X74255333Y-117133714D01*
X74207714Y-117228952D01*
X74160095Y-117276571D01*
X74064857Y-117324190D01*
X73683904Y-117324190D01*
X75112476Y-116800380D02*
X74922000Y-116800380D01*
X74826761Y-116848000D01*
X74779142Y-116895619D01*
X74683904Y-117038476D01*
X74636285Y-117228952D01*
X74636285Y-117609904D01*
X74683904Y-117705142D01*
X74731523Y-117752761D01*
X74826761Y-117800380D01*
X75017238Y-117800380D01*
X75112476Y-117752761D01*
X75160095Y-117705142D01*
X75207714Y-117609904D01*
X75207714Y-117371809D01*
X75160095Y-117276571D01*
X75112476Y-117228952D01*
X75017238Y-117181333D01*
X74826761Y-117181333D01*
X74731523Y-117228952D01*
X74683904Y-117276571D01*
X74636285Y-117371809D01*
%TO.C,R10*%
X72509142Y-100274380D02*
X72175809Y-99798190D01*
X71937714Y-100274380D02*
X71937714Y-99274380D01*
X72318666Y-99274380D01*
X72413904Y-99322000D01*
X72461523Y-99369619D01*
X72509142Y-99464857D01*
X72509142Y-99607714D01*
X72461523Y-99702952D01*
X72413904Y-99750571D01*
X72318666Y-99798190D01*
X71937714Y-99798190D01*
X73461523Y-100274380D02*
X72890095Y-100274380D01*
X73175809Y-100274380D02*
X73175809Y-99274380D01*
X73080571Y-99417238D01*
X72985333Y-99512476D01*
X72890095Y-99560095D01*
X74080571Y-99274380D02*
X74175809Y-99274380D01*
X74271047Y-99322000D01*
X74318666Y-99369619D01*
X74366285Y-99464857D01*
X74413904Y-99655333D01*
X74413904Y-99893428D01*
X74366285Y-100083904D01*
X74318666Y-100179142D01*
X74271047Y-100226761D01*
X74175809Y-100274380D01*
X74080571Y-100274380D01*
X73985333Y-100226761D01*
X73937714Y-100179142D01*
X73890095Y-100083904D01*
X73842476Y-99893428D01*
X73842476Y-99655333D01*
X73890095Y-99464857D01*
X73937714Y-99369619D01*
X73985333Y-99322000D01*
X74080571Y-99274380D01*
%TO.C,R51*%
X95877142Y-112212380D02*
X95543809Y-111736190D01*
X95305714Y-112212380D02*
X95305714Y-111212380D01*
X95686666Y-111212380D01*
X95781904Y-111260000D01*
X95829523Y-111307619D01*
X95877142Y-111402857D01*
X95877142Y-111545714D01*
X95829523Y-111640952D01*
X95781904Y-111688571D01*
X95686666Y-111736190D01*
X95305714Y-111736190D01*
X96781904Y-111212380D02*
X96305714Y-111212380D01*
X96258095Y-111688571D01*
X96305714Y-111640952D01*
X96400952Y-111593333D01*
X96639047Y-111593333D01*
X96734285Y-111640952D01*
X96781904Y-111688571D01*
X96829523Y-111783809D01*
X96829523Y-112021904D01*
X96781904Y-112117142D01*
X96734285Y-112164761D01*
X96639047Y-112212380D01*
X96400952Y-112212380D01*
X96305714Y-112164761D01*
X96258095Y-112117142D01*
X97781904Y-112212380D02*
X97210476Y-112212380D01*
X97496190Y-112212380D02*
X97496190Y-111212380D01*
X97400952Y-111355238D01*
X97305714Y-111450476D01*
X97210476Y-111498095D01*
%TO.C,C2*%
X120229333Y-40997142D02*
X120181714Y-41044761D01*
X120038857Y-41092380D01*
X119943619Y-41092380D01*
X119800761Y-41044761D01*
X119705523Y-40949523D01*
X119657904Y-40854285D01*
X119610285Y-40663809D01*
X119610285Y-40520952D01*
X119657904Y-40330476D01*
X119705523Y-40235238D01*
X119800761Y-40140000D01*
X119943619Y-40092380D01*
X120038857Y-40092380D01*
X120181714Y-40140000D01*
X120229333Y-40187619D01*
X120610285Y-40187619D02*
X120657904Y-40140000D01*
X120753142Y-40092380D01*
X120991238Y-40092380D01*
X121086476Y-40140000D01*
X121134095Y-40187619D01*
X121181714Y-40282857D01*
X121181714Y-40378095D01*
X121134095Y-40520952D01*
X120562666Y-41092380D01*
X121181714Y-41092380D01*
%TO.C,R1*%
X97623333Y-152598380D02*
X97290000Y-152122190D01*
X97051904Y-152598380D02*
X97051904Y-151598380D01*
X97432857Y-151598380D01*
X97528095Y-151646000D01*
X97575714Y-151693619D01*
X97623333Y-151788857D01*
X97623333Y-151931714D01*
X97575714Y-152026952D01*
X97528095Y-152074571D01*
X97432857Y-152122190D01*
X97051904Y-152122190D01*
X98575714Y-152598380D02*
X98004285Y-152598380D01*
X98290000Y-152598380D02*
X98290000Y-151598380D01*
X98194761Y-151741238D01*
X98099523Y-151836476D01*
X98004285Y-151884095D01*
%TO.C,R19*%
X122880380Y-37472857D02*
X122404190Y-37806190D01*
X122880380Y-38044285D02*
X121880380Y-38044285D01*
X121880380Y-37663333D01*
X121928000Y-37568095D01*
X121975619Y-37520476D01*
X122070857Y-37472857D01*
X122213714Y-37472857D01*
X122308952Y-37520476D01*
X122356571Y-37568095D01*
X122404190Y-37663333D01*
X122404190Y-38044285D01*
X122880380Y-36520476D02*
X122880380Y-37091904D01*
X122880380Y-36806190D02*
X121880380Y-36806190D01*
X122023238Y-36901428D01*
X122118476Y-36996666D01*
X122166095Y-37091904D01*
X122880380Y-36044285D02*
X122880380Y-35853809D01*
X122832761Y-35758571D01*
X122785142Y-35710952D01*
X122642285Y-35615714D01*
X122451809Y-35568095D01*
X122070857Y-35568095D01*
X121975619Y-35615714D01*
X121928000Y-35663333D01*
X121880380Y-35758571D01*
X121880380Y-35949047D01*
X121928000Y-36044285D01*
X121975619Y-36091904D01*
X122070857Y-36139523D01*
X122308952Y-36139523D01*
X122404190Y-36091904D01*
X122451809Y-36044285D01*
X122499428Y-35949047D01*
X122499428Y-35758571D01*
X122451809Y-35663333D01*
X122404190Y-35615714D01*
X122308952Y-35568095D01*
%TO.C,D4*%
X132024380Y-34774095D02*
X131024380Y-34774095D01*
X131024380Y-34536000D01*
X131072000Y-34393142D01*
X131167238Y-34297904D01*
X131262476Y-34250285D01*
X131452952Y-34202666D01*
X131595809Y-34202666D01*
X131786285Y-34250285D01*
X131881523Y-34297904D01*
X131976761Y-34393142D01*
X132024380Y-34536000D01*
X132024380Y-34774095D01*
X131357714Y-33345523D02*
X132024380Y-33345523D01*
X130976761Y-33583619D02*
X131691047Y-33821714D01*
X131691047Y-33202666D01*
%TO.C,D7*%
X133373904Y-105862380D02*
X133373904Y-104862380D01*
X133612000Y-104862380D01*
X133754857Y-104910000D01*
X133850095Y-105005238D01*
X133897714Y-105100476D01*
X133945333Y-105290952D01*
X133945333Y-105433809D01*
X133897714Y-105624285D01*
X133850095Y-105719523D01*
X133754857Y-105814761D01*
X133612000Y-105862380D01*
X133373904Y-105862380D01*
X134278666Y-104862380D02*
X134945333Y-104862380D01*
X134516761Y-105862380D01*
%TO.C,C7*%
X100464333Y-117705142D02*
X100416714Y-117752761D01*
X100273857Y-117800380D01*
X100178619Y-117800380D01*
X100035761Y-117752761D01*
X99940523Y-117657523D01*
X99892904Y-117562285D01*
X99845285Y-117371809D01*
X99845285Y-117228952D01*
X99892904Y-117038476D01*
X99940523Y-116943238D01*
X100035761Y-116848000D01*
X100178619Y-116800380D01*
X100273857Y-116800380D01*
X100416714Y-116848000D01*
X100464333Y-116895619D01*
X100797666Y-116800380D02*
X101464333Y-116800380D01*
X101035761Y-117800380D01*
%TO.C,R45*%
X97463142Y-147010380D02*
X97129809Y-146534190D01*
X96891714Y-147010380D02*
X96891714Y-146010380D01*
X97272666Y-146010380D01*
X97367904Y-146058000D01*
X97415523Y-146105619D01*
X97463142Y-146200857D01*
X97463142Y-146343714D01*
X97415523Y-146438952D01*
X97367904Y-146486571D01*
X97272666Y-146534190D01*
X96891714Y-146534190D01*
X98320285Y-146343714D02*
X98320285Y-147010380D01*
X98082190Y-145962761D02*
X97844095Y-146677047D01*
X98463142Y-146677047D01*
X99320285Y-146010380D02*
X98844095Y-146010380D01*
X98796476Y-146486571D01*
X98844095Y-146438952D01*
X98939333Y-146391333D01*
X99177428Y-146391333D01*
X99272666Y-146438952D01*
X99320285Y-146486571D01*
X99367904Y-146581809D01*
X99367904Y-146819904D01*
X99320285Y-146915142D01*
X99272666Y-146962761D01*
X99177428Y-147010380D01*
X98939333Y-147010380D01*
X98844095Y-146962761D01*
X98796476Y-146915142D01*
%TO.C,R33*%
X72763142Y-132786380D02*
X72429809Y-132310190D01*
X72191714Y-132786380D02*
X72191714Y-131786380D01*
X72572666Y-131786380D01*
X72667904Y-131834000D01*
X72715523Y-131881619D01*
X72763142Y-131976857D01*
X72763142Y-132119714D01*
X72715523Y-132214952D01*
X72667904Y-132262571D01*
X72572666Y-132310190D01*
X72191714Y-132310190D01*
X73096476Y-131786380D02*
X73715523Y-131786380D01*
X73382190Y-132167333D01*
X73525047Y-132167333D01*
X73620285Y-132214952D01*
X73667904Y-132262571D01*
X73715523Y-132357809D01*
X73715523Y-132595904D01*
X73667904Y-132691142D01*
X73620285Y-132738761D01*
X73525047Y-132786380D01*
X73239333Y-132786380D01*
X73144095Y-132738761D01*
X73096476Y-132691142D01*
X74048857Y-131786380D02*
X74667904Y-131786380D01*
X74334571Y-132167333D01*
X74477428Y-132167333D01*
X74572666Y-132214952D01*
X74620285Y-132262571D01*
X74667904Y-132357809D01*
X74667904Y-132595904D01*
X74620285Y-132691142D01*
X74572666Y-132738761D01*
X74477428Y-132786380D01*
X74191714Y-132786380D01*
X74096476Y-132738761D01*
X74048857Y-132691142D01*
%TO.C,R32*%
X72509142Y-87066380D02*
X72175809Y-86590190D01*
X71937714Y-87066380D02*
X71937714Y-86066380D01*
X72318666Y-86066380D01*
X72413904Y-86114000D01*
X72461523Y-86161619D01*
X72509142Y-86256857D01*
X72509142Y-86399714D01*
X72461523Y-86494952D01*
X72413904Y-86542571D01*
X72318666Y-86590190D01*
X71937714Y-86590190D01*
X72842476Y-86066380D02*
X73461523Y-86066380D01*
X73128190Y-86447333D01*
X73271047Y-86447333D01*
X73366285Y-86494952D01*
X73413904Y-86542571D01*
X73461523Y-86637809D01*
X73461523Y-86875904D01*
X73413904Y-86971142D01*
X73366285Y-87018761D01*
X73271047Y-87066380D01*
X72985333Y-87066380D01*
X72890095Y-87018761D01*
X72842476Y-86971142D01*
X73842476Y-86161619D02*
X73890095Y-86114000D01*
X73985333Y-86066380D01*
X74223428Y-86066380D01*
X74318666Y-86114000D01*
X74366285Y-86161619D01*
X74413904Y-86256857D01*
X74413904Y-86352095D01*
X74366285Y-86494952D01*
X73794857Y-87066380D01*
X74413904Y-87066380D01*
%TO.C,R14*%
X66921142Y-113482380D02*
X66587809Y-113006190D01*
X66349714Y-113482380D02*
X66349714Y-112482380D01*
X66730666Y-112482380D01*
X66825904Y-112530000D01*
X66873523Y-112577619D01*
X66921142Y-112672857D01*
X66921142Y-112815714D01*
X66873523Y-112910952D01*
X66825904Y-112958571D01*
X66730666Y-113006190D01*
X66349714Y-113006190D01*
X67873523Y-113482380D02*
X67302095Y-113482380D01*
X67587809Y-113482380D02*
X67587809Y-112482380D01*
X67492571Y-112625238D01*
X67397333Y-112720476D01*
X67302095Y-112768095D01*
X68730666Y-112815714D02*
X68730666Y-113482380D01*
X68492571Y-112434761D02*
X68254476Y-113149047D01*
X68873523Y-113149047D01*
%TO.C,C21*%
X67937142Y-95861142D02*
X67889523Y-95908761D01*
X67746666Y-95956380D01*
X67651428Y-95956380D01*
X67508571Y-95908761D01*
X67413333Y-95813523D01*
X67365714Y-95718285D01*
X67318095Y-95527809D01*
X67318095Y-95384952D01*
X67365714Y-95194476D01*
X67413333Y-95099238D01*
X67508571Y-95004000D01*
X67651428Y-94956380D01*
X67746666Y-94956380D01*
X67889523Y-95004000D01*
X67937142Y-95051619D01*
X68318095Y-95051619D02*
X68365714Y-95004000D01*
X68460952Y-94956380D01*
X68699047Y-94956380D01*
X68794285Y-95004000D01*
X68841904Y-95051619D01*
X68889523Y-95146857D01*
X68889523Y-95242095D01*
X68841904Y-95384952D01*
X68270476Y-95956380D01*
X68889523Y-95956380D01*
X69841904Y-95956380D02*
X69270476Y-95956380D01*
X69556190Y-95956380D02*
X69556190Y-94956380D01*
X69460952Y-95099238D01*
X69365714Y-95194476D01*
X69270476Y-95242095D01*
%TO.C,C10*%
X87749142Y-120753142D02*
X87701523Y-120800761D01*
X87558666Y-120848380D01*
X87463428Y-120848380D01*
X87320571Y-120800761D01*
X87225333Y-120705523D01*
X87177714Y-120610285D01*
X87130095Y-120419809D01*
X87130095Y-120276952D01*
X87177714Y-120086476D01*
X87225333Y-119991238D01*
X87320571Y-119896000D01*
X87463428Y-119848380D01*
X87558666Y-119848380D01*
X87701523Y-119896000D01*
X87749142Y-119943619D01*
X88701523Y-120848380D02*
X88130095Y-120848380D01*
X88415809Y-120848380D02*
X88415809Y-119848380D01*
X88320571Y-119991238D01*
X88225333Y-120086476D01*
X88130095Y-120134095D01*
X89320571Y-119848380D02*
X89415809Y-119848380D01*
X89511047Y-119896000D01*
X89558666Y-119943619D01*
X89606285Y-120038857D01*
X89653904Y-120229333D01*
X89653904Y-120467428D01*
X89606285Y-120657904D01*
X89558666Y-120753142D01*
X89511047Y-120800761D01*
X89415809Y-120848380D01*
X89320571Y-120848380D01*
X89225333Y-120800761D01*
X89177714Y-120753142D01*
X89130095Y-120657904D01*
X89082476Y-120467428D01*
X89082476Y-120229333D01*
X89130095Y-120038857D01*
X89177714Y-119943619D01*
X89225333Y-119896000D01*
X89320571Y-119848380D01*
%TO.C,U5*%
X87630095Y-105878380D02*
X87630095Y-106687904D01*
X87677714Y-106783142D01*
X87725333Y-106830761D01*
X87820571Y-106878380D01*
X88011047Y-106878380D01*
X88106285Y-106830761D01*
X88153904Y-106783142D01*
X88201523Y-106687904D01*
X88201523Y-105878380D01*
X89153904Y-105878380D02*
X88677714Y-105878380D01*
X88630095Y-106354571D01*
X88677714Y-106306952D01*
X88772952Y-106259333D01*
X89011047Y-106259333D01*
X89106285Y-106306952D01*
X89153904Y-106354571D01*
X89201523Y-106449809D01*
X89201523Y-106687904D01*
X89153904Y-106783142D01*
X89106285Y-106830761D01*
X89011047Y-106878380D01*
X88772952Y-106878380D01*
X88677714Y-106830761D01*
X88630095Y-106783142D01*
%TO.C,R44*%
X97463142Y-136342380D02*
X97129809Y-135866190D01*
X96891714Y-136342380D02*
X96891714Y-135342380D01*
X97272666Y-135342380D01*
X97367904Y-135390000D01*
X97415523Y-135437619D01*
X97463142Y-135532857D01*
X97463142Y-135675714D01*
X97415523Y-135770952D01*
X97367904Y-135818571D01*
X97272666Y-135866190D01*
X96891714Y-135866190D01*
X98320285Y-135675714D02*
X98320285Y-136342380D01*
X98082190Y-135294761D02*
X97844095Y-136009047D01*
X98463142Y-136009047D01*
X99272666Y-135675714D02*
X99272666Y-136342380D01*
X99034571Y-135294761D02*
X98796476Y-136009047D01*
X99415523Y-136009047D01*
%TO.C,J8*%
X115784380Y-44275333D02*
X116498666Y-44275333D01*
X116641523Y-44322952D01*
X116736761Y-44418190D01*
X116784380Y-44561047D01*
X116784380Y-44656285D01*
X116212952Y-43656285D02*
X116165333Y-43751523D01*
X116117714Y-43799142D01*
X116022476Y-43846761D01*
X115974857Y-43846761D01*
X115879619Y-43799142D01*
X115832000Y-43751523D01*
X115784380Y-43656285D01*
X115784380Y-43465809D01*
X115832000Y-43370571D01*
X115879619Y-43322952D01*
X115974857Y-43275333D01*
X116022476Y-43275333D01*
X116117714Y-43322952D01*
X116165333Y-43370571D01*
X116212952Y-43465809D01*
X116212952Y-43656285D01*
X116260571Y-43751523D01*
X116308190Y-43799142D01*
X116403428Y-43846761D01*
X116593904Y-43846761D01*
X116689142Y-43799142D01*
X116736761Y-43751523D01*
X116784380Y-43656285D01*
X116784380Y-43465809D01*
X116736761Y-43370571D01*
X116689142Y-43322952D01*
X116593904Y-43275333D01*
X116403428Y-43275333D01*
X116308190Y-43322952D01*
X116260571Y-43370571D01*
X116212952Y-43465809D01*
%TO.C,R5*%
X71207333Y-95956380D02*
X70874000Y-95480190D01*
X70635904Y-95956380D02*
X70635904Y-94956380D01*
X71016857Y-94956380D01*
X71112095Y-95004000D01*
X71159714Y-95051619D01*
X71207333Y-95146857D01*
X71207333Y-95289714D01*
X71159714Y-95384952D01*
X71112095Y-95432571D01*
X71016857Y-95480190D01*
X70635904Y-95480190D01*
X72112095Y-94956380D02*
X71635904Y-94956380D01*
X71588285Y-95432571D01*
X71635904Y-95384952D01*
X71731142Y-95337333D01*
X71969238Y-95337333D01*
X72064476Y-95384952D01*
X72112095Y-95432571D01*
X72159714Y-95527809D01*
X72159714Y-95765904D01*
X72112095Y-95861142D01*
X72064476Y-95908761D01*
X71969238Y-95956380D01*
X71731142Y-95956380D01*
X71635904Y-95908761D01*
X71588285Y-95861142D01*
%TO.C,J6*%
X123912380Y-115395333D02*
X124626666Y-115395333D01*
X124769523Y-115442952D01*
X124864761Y-115538190D01*
X124912380Y-115681047D01*
X124912380Y-115776285D01*
X123912380Y-114490571D02*
X123912380Y-114681047D01*
X123960000Y-114776285D01*
X124007619Y-114823904D01*
X124150476Y-114919142D01*
X124340952Y-114966761D01*
X124721904Y-114966761D01*
X124817142Y-114919142D01*
X124864761Y-114871523D01*
X124912380Y-114776285D01*
X124912380Y-114585809D01*
X124864761Y-114490571D01*
X124817142Y-114442952D01*
X124721904Y-114395333D01*
X124483809Y-114395333D01*
X124388571Y-114442952D01*
X124340952Y-114490571D01*
X124293333Y-114585809D01*
X124293333Y-114776285D01*
X124340952Y-114871523D01*
X124388571Y-114919142D01*
X124483809Y-114966761D01*
%TO.C,J14*%
X115784380Y-71929523D02*
X116498666Y-71929523D01*
X116641523Y-71977142D01*
X116736761Y-72072380D01*
X116784380Y-72215238D01*
X116784380Y-72310476D01*
X116784380Y-70929523D02*
X116784380Y-71500952D01*
X116784380Y-71215238D02*
X115784380Y-71215238D01*
X115927238Y-71310476D01*
X116022476Y-71405714D01*
X116070095Y-71500952D01*
X116117714Y-70072380D02*
X116784380Y-70072380D01*
X115736761Y-70310476D02*
X116451047Y-70548571D01*
X116451047Y-69929523D01*
%TO.C,R39*%
X78351142Y-59126380D02*
X78017809Y-58650190D01*
X77779714Y-59126380D02*
X77779714Y-58126380D01*
X78160666Y-58126380D01*
X78255904Y-58174000D01*
X78303523Y-58221619D01*
X78351142Y-58316857D01*
X78351142Y-58459714D01*
X78303523Y-58554952D01*
X78255904Y-58602571D01*
X78160666Y-58650190D01*
X77779714Y-58650190D01*
X78684476Y-58126380D02*
X79303523Y-58126380D01*
X78970190Y-58507333D01*
X79113047Y-58507333D01*
X79208285Y-58554952D01*
X79255904Y-58602571D01*
X79303523Y-58697809D01*
X79303523Y-58935904D01*
X79255904Y-59031142D01*
X79208285Y-59078761D01*
X79113047Y-59126380D01*
X78827333Y-59126380D01*
X78732095Y-59078761D01*
X78684476Y-59031142D01*
X79779714Y-59126380D02*
X79970190Y-59126380D01*
X80065428Y-59078761D01*
X80113047Y-59031142D01*
X80208285Y-58888285D01*
X80255904Y-58697809D01*
X80255904Y-58316857D01*
X80208285Y-58221619D01*
X80160666Y-58174000D01*
X80065428Y-58126380D01*
X79874952Y-58126380D01*
X79779714Y-58174000D01*
X79732095Y-58221619D01*
X79684476Y-58316857D01*
X79684476Y-58554952D01*
X79732095Y-58650190D01*
X79779714Y-58697809D01*
X79874952Y-58745428D01*
X80065428Y-58745428D01*
X80160666Y-58697809D01*
X80208285Y-58650190D01*
X80255904Y-58554952D01*
%TO.C,C6*%
X119975333Y-94083142D02*
X119927714Y-94130761D01*
X119784857Y-94178380D01*
X119689619Y-94178380D01*
X119546761Y-94130761D01*
X119451523Y-94035523D01*
X119403904Y-93940285D01*
X119356285Y-93749809D01*
X119356285Y-93606952D01*
X119403904Y-93416476D01*
X119451523Y-93321238D01*
X119546761Y-93226000D01*
X119689619Y-93178380D01*
X119784857Y-93178380D01*
X119927714Y-93226000D01*
X119975333Y-93273619D01*
X120832476Y-93178380D02*
X120642000Y-93178380D01*
X120546761Y-93226000D01*
X120499142Y-93273619D01*
X120403904Y-93416476D01*
X120356285Y-93606952D01*
X120356285Y-93987904D01*
X120403904Y-94083142D01*
X120451523Y-94130761D01*
X120546761Y-94178380D01*
X120737238Y-94178380D01*
X120832476Y-94130761D01*
X120880095Y-94083142D01*
X120927714Y-93987904D01*
X120927714Y-93749809D01*
X120880095Y-93654571D01*
X120832476Y-93606952D01*
X120737238Y-93559333D01*
X120546761Y-93559333D01*
X120451523Y-93606952D01*
X120403904Y-93654571D01*
X120356285Y-93749809D01*
%TO.C,C3*%
X119975333Y-82399142D02*
X119927714Y-82446761D01*
X119784857Y-82494380D01*
X119689619Y-82494380D01*
X119546761Y-82446761D01*
X119451523Y-82351523D01*
X119403904Y-82256285D01*
X119356285Y-82065809D01*
X119356285Y-81922952D01*
X119403904Y-81732476D01*
X119451523Y-81637238D01*
X119546761Y-81542000D01*
X119689619Y-81494380D01*
X119784857Y-81494380D01*
X119927714Y-81542000D01*
X119975333Y-81589619D01*
X120308666Y-81494380D02*
X120927714Y-81494380D01*
X120594380Y-81875333D01*
X120737238Y-81875333D01*
X120832476Y-81922952D01*
X120880095Y-81970571D01*
X120927714Y-82065809D01*
X120927714Y-82303904D01*
X120880095Y-82399142D01*
X120832476Y-82446761D01*
X120737238Y-82494380D01*
X120451523Y-82494380D01*
X120356285Y-82446761D01*
X120308666Y-82399142D01*
%TO.C,C15*%
X79621142Y-122785142D02*
X79573523Y-122832761D01*
X79430666Y-122880380D01*
X79335428Y-122880380D01*
X79192571Y-122832761D01*
X79097333Y-122737523D01*
X79049714Y-122642285D01*
X79002095Y-122451809D01*
X79002095Y-122308952D01*
X79049714Y-122118476D01*
X79097333Y-122023238D01*
X79192571Y-121928000D01*
X79335428Y-121880380D01*
X79430666Y-121880380D01*
X79573523Y-121928000D01*
X79621142Y-121975619D01*
X80573523Y-122880380D02*
X80002095Y-122880380D01*
X80287809Y-122880380D02*
X80287809Y-121880380D01*
X80192571Y-122023238D01*
X80097333Y-122118476D01*
X80002095Y-122166095D01*
X81478285Y-121880380D02*
X81002095Y-121880380D01*
X80954476Y-122356571D01*
X81002095Y-122308952D01*
X81097333Y-122261333D01*
X81335428Y-122261333D01*
X81430666Y-122308952D01*
X81478285Y-122356571D01*
X81525904Y-122451809D01*
X81525904Y-122689904D01*
X81478285Y-122785142D01*
X81430666Y-122832761D01*
X81335428Y-122880380D01*
X81097333Y-122880380D01*
X81002095Y-122832761D01*
X80954476Y-122785142D01*
%TO.C,J2*%
X63928666Y-124376380D02*
X63928666Y-125090666D01*
X63881047Y-125233523D01*
X63785809Y-125328761D01*
X63642952Y-125376380D01*
X63547714Y-125376380D01*
X64357238Y-124471619D02*
X64404857Y-124424000D01*
X64500095Y-124376380D01*
X64738190Y-124376380D01*
X64833428Y-124424000D01*
X64881047Y-124471619D01*
X64928666Y-124566857D01*
X64928666Y-124662095D01*
X64881047Y-124804952D01*
X64309619Y-125376380D01*
X64928666Y-125376380D01*
%TO.C,R4*%
X73493333Y-95956380D02*
X73160000Y-95480190D01*
X72921904Y-95956380D02*
X72921904Y-94956380D01*
X73302857Y-94956380D01*
X73398095Y-95004000D01*
X73445714Y-95051619D01*
X73493333Y-95146857D01*
X73493333Y-95289714D01*
X73445714Y-95384952D01*
X73398095Y-95432571D01*
X73302857Y-95480190D01*
X72921904Y-95480190D01*
X74350476Y-95289714D02*
X74350476Y-95956380D01*
X74112380Y-94908761D02*
X73874285Y-95623047D01*
X74493333Y-95623047D01*
%TO.C,R9*%
X89241333Y-95956380D02*
X88908000Y-95480190D01*
X88669904Y-95956380D02*
X88669904Y-94956380D01*
X89050857Y-94956380D01*
X89146095Y-95004000D01*
X89193714Y-95051619D01*
X89241333Y-95146857D01*
X89241333Y-95289714D01*
X89193714Y-95384952D01*
X89146095Y-95432571D01*
X89050857Y-95480190D01*
X88669904Y-95480190D01*
X89717523Y-95956380D02*
X89908000Y-95956380D01*
X90003238Y-95908761D01*
X90050857Y-95861142D01*
X90146095Y-95718285D01*
X90193714Y-95527809D01*
X90193714Y-95146857D01*
X90146095Y-95051619D01*
X90098476Y-95004000D01*
X90003238Y-94956380D01*
X89812761Y-94956380D01*
X89717523Y-95004000D01*
X89669904Y-95051619D01*
X89622285Y-95146857D01*
X89622285Y-95384952D01*
X89669904Y-95480190D01*
X89717523Y-95527809D01*
X89812761Y-95575428D01*
X90003238Y-95575428D01*
X90098476Y-95527809D01*
X90146095Y-95480190D01*
X90193714Y-95384952D01*
%TO.C,D6*%
X122880380Y-34774095D02*
X121880380Y-34774095D01*
X121880380Y-34536000D01*
X121928000Y-34393142D01*
X122023238Y-34297904D01*
X122118476Y-34250285D01*
X122308952Y-34202666D01*
X122451809Y-34202666D01*
X122642285Y-34250285D01*
X122737523Y-34297904D01*
X122832761Y-34393142D01*
X122880380Y-34536000D01*
X122880380Y-34774095D01*
X121880380Y-33345523D02*
X121880380Y-33536000D01*
X121928000Y-33631238D01*
X121975619Y-33678857D01*
X122118476Y-33774095D01*
X122308952Y-33821714D01*
X122689904Y-33821714D01*
X122785142Y-33774095D01*
X122832761Y-33726476D01*
X122880380Y-33631238D01*
X122880380Y-33440761D01*
X122832761Y-33345523D01*
X122785142Y-33297904D01*
X122689904Y-33250285D01*
X122451809Y-33250285D01*
X122356571Y-33297904D01*
X122308952Y-33345523D01*
X122261333Y-33440761D01*
X122261333Y-33631238D01*
X122308952Y-33726476D01*
X122356571Y-33774095D01*
X122451809Y-33821714D01*
%TO.C,D5*%
X124991904Y-105862380D02*
X124991904Y-104862380D01*
X125230000Y-104862380D01*
X125372857Y-104910000D01*
X125468095Y-105005238D01*
X125515714Y-105100476D01*
X125563333Y-105290952D01*
X125563333Y-105433809D01*
X125515714Y-105624285D01*
X125468095Y-105719523D01*
X125372857Y-105814761D01*
X125230000Y-105862380D01*
X124991904Y-105862380D01*
X126468095Y-104862380D02*
X125991904Y-104862380D01*
X125944285Y-105338571D01*
X125991904Y-105290952D01*
X126087142Y-105243333D01*
X126325238Y-105243333D01*
X126420476Y-105290952D01*
X126468095Y-105338571D01*
X126515714Y-105433809D01*
X126515714Y-105671904D01*
X126468095Y-105767142D01*
X126420476Y-105814761D01*
X126325238Y-105862380D01*
X126087142Y-105862380D01*
X125991904Y-105814761D01*
X125944285Y-105767142D01*
%TO.C,Q1*%
X78390761Y-55157619D02*
X78295523Y-55110000D01*
X78200285Y-55014761D01*
X78057428Y-54871904D01*
X77962190Y-54824285D01*
X77866952Y-54824285D01*
X77914571Y-55062380D02*
X77819333Y-55014761D01*
X77724095Y-54919523D01*
X77676476Y-54729047D01*
X77676476Y-54395714D01*
X77724095Y-54205238D01*
X77819333Y-54110000D01*
X77914571Y-54062380D01*
X78105047Y-54062380D01*
X78200285Y-54110000D01*
X78295523Y-54205238D01*
X78343142Y-54395714D01*
X78343142Y-54729047D01*
X78295523Y-54919523D01*
X78200285Y-55014761D01*
X78105047Y-55062380D01*
X77914571Y-55062380D01*
X79295523Y-55062380D02*
X78724095Y-55062380D01*
X79009809Y-55062380D02*
X79009809Y-54062380D01*
X78914571Y-54205238D01*
X78819333Y-54300476D01*
X78724095Y-54348095D01*
%TO.C,R36*%
X97909142Y-64206380D02*
X97575809Y-63730190D01*
X97337714Y-64206380D02*
X97337714Y-63206380D01*
X97718666Y-63206380D01*
X97813904Y-63254000D01*
X97861523Y-63301619D01*
X97909142Y-63396857D01*
X97909142Y-63539714D01*
X97861523Y-63634952D01*
X97813904Y-63682571D01*
X97718666Y-63730190D01*
X97337714Y-63730190D01*
X98242476Y-63206380D02*
X98861523Y-63206380D01*
X98528190Y-63587333D01*
X98671047Y-63587333D01*
X98766285Y-63634952D01*
X98813904Y-63682571D01*
X98861523Y-63777809D01*
X98861523Y-64015904D01*
X98813904Y-64111142D01*
X98766285Y-64158761D01*
X98671047Y-64206380D01*
X98385333Y-64206380D01*
X98290095Y-64158761D01*
X98242476Y-64111142D01*
X99718666Y-63206380D02*
X99528190Y-63206380D01*
X99432952Y-63254000D01*
X99385333Y-63301619D01*
X99290095Y-63444476D01*
X99242476Y-63634952D01*
X99242476Y-64015904D01*
X99290095Y-64111142D01*
X99337714Y-64158761D01*
X99432952Y-64206380D01*
X99623428Y-64206380D01*
X99718666Y-64158761D01*
X99766285Y-64111142D01*
X99813904Y-64015904D01*
X99813904Y-63777809D01*
X99766285Y-63682571D01*
X99718666Y-63634952D01*
X99623428Y-63587333D01*
X99432952Y-63587333D01*
X99337714Y-63634952D01*
X99290095Y-63682571D01*
X99242476Y-63777809D01*
%TO.C,C9*%
X93559333Y-112117142D02*
X93511714Y-112164761D01*
X93368857Y-112212380D01*
X93273619Y-112212380D01*
X93130761Y-112164761D01*
X93035523Y-112069523D01*
X92987904Y-111974285D01*
X92940285Y-111783809D01*
X92940285Y-111640952D01*
X92987904Y-111450476D01*
X93035523Y-111355238D01*
X93130761Y-111260000D01*
X93273619Y-111212380D01*
X93368857Y-111212380D01*
X93511714Y-111260000D01*
X93559333Y-111307619D01*
X94035523Y-112212380D02*
X94226000Y-112212380D01*
X94321238Y-112164761D01*
X94368857Y-112117142D01*
X94464095Y-111974285D01*
X94511714Y-111783809D01*
X94511714Y-111402857D01*
X94464095Y-111307619D01*
X94416476Y-111260000D01*
X94321238Y-111212380D01*
X94130761Y-111212380D01*
X94035523Y-111260000D01*
X93987904Y-111307619D01*
X93940285Y-111402857D01*
X93940285Y-111640952D01*
X93987904Y-111736190D01*
X94035523Y-111783809D01*
X94130761Y-111831428D01*
X94321238Y-111831428D01*
X94416476Y-111783809D01*
X94464095Y-111736190D01*
X94511714Y-111640952D01*
%TO.C,D1*%
X69365904Y-45410380D02*
X69365904Y-44410380D01*
X69604000Y-44410380D01*
X69746857Y-44458000D01*
X69842095Y-44553238D01*
X69889714Y-44648476D01*
X69937333Y-44838952D01*
X69937333Y-44981809D01*
X69889714Y-45172285D01*
X69842095Y-45267523D01*
X69746857Y-45362761D01*
X69604000Y-45410380D01*
X69365904Y-45410380D01*
X70889714Y-45410380D02*
X70318285Y-45410380D01*
X70604000Y-45410380D02*
X70604000Y-44410380D01*
X70508761Y-44553238D01*
X70413523Y-44648476D01*
X70318285Y-44696095D01*
%TO.C,J12*%
X123912380Y-127809523D02*
X124626666Y-127809523D01*
X124769523Y-127857142D01*
X124864761Y-127952380D01*
X124912380Y-128095238D01*
X124912380Y-128190476D01*
X124912380Y-126809523D02*
X124912380Y-127380952D01*
X124912380Y-127095238D02*
X123912380Y-127095238D01*
X124055238Y-127190476D01*
X124150476Y-127285714D01*
X124198095Y-127380952D01*
X124007619Y-126428571D02*
X123960000Y-126380952D01*
X123912380Y-126285714D01*
X123912380Y-126047619D01*
X123960000Y-125952380D01*
X124007619Y-125904761D01*
X124102857Y-125857142D01*
X124198095Y-125857142D01*
X124340952Y-125904761D01*
X124912380Y-126476190D01*
X124912380Y-125857142D01*
%TO.C,R30*%
X72509142Y-81986380D02*
X72175809Y-81510190D01*
X71937714Y-81986380D02*
X71937714Y-80986380D01*
X72318666Y-80986380D01*
X72413904Y-81034000D01*
X72461523Y-81081619D01*
X72509142Y-81176857D01*
X72509142Y-81319714D01*
X72461523Y-81414952D01*
X72413904Y-81462571D01*
X72318666Y-81510190D01*
X71937714Y-81510190D01*
X72842476Y-80986380D02*
X73461523Y-80986380D01*
X73128190Y-81367333D01*
X73271047Y-81367333D01*
X73366285Y-81414952D01*
X73413904Y-81462571D01*
X73461523Y-81557809D01*
X73461523Y-81795904D01*
X73413904Y-81891142D01*
X73366285Y-81938761D01*
X73271047Y-81986380D01*
X72985333Y-81986380D01*
X72890095Y-81938761D01*
X72842476Y-81891142D01*
X74080571Y-80986380D02*
X74175809Y-80986380D01*
X74271047Y-81034000D01*
X74318666Y-81081619D01*
X74366285Y-81176857D01*
X74413904Y-81367333D01*
X74413904Y-81605428D01*
X74366285Y-81795904D01*
X74318666Y-81891142D01*
X74271047Y-81938761D01*
X74175809Y-81986380D01*
X74080571Y-81986380D01*
X73985333Y-81938761D01*
X73937714Y-81891142D01*
X73890095Y-81795904D01*
X73842476Y-81605428D01*
X73842476Y-81367333D01*
X73890095Y-81176857D01*
X73937714Y-81081619D01*
X73985333Y-81034000D01*
X74080571Y-80986380D01*
%TO.C,C22*%
X68445142Y-117705142D02*
X68397523Y-117752761D01*
X68254666Y-117800380D01*
X68159428Y-117800380D01*
X68016571Y-117752761D01*
X67921333Y-117657523D01*
X67873714Y-117562285D01*
X67826095Y-117371809D01*
X67826095Y-117228952D01*
X67873714Y-117038476D01*
X67921333Y-116943238D01*
X68016571Y-116848000D01*
X68159428Y-116800380D01*
X68254666Y-116800380D01*
X68397523Y-116848000D01*
X68445142Y-116895619D01*
X68826095Y-116895619D02*
X68873714Y-116848000D01*
X68968952Y-116800380D01*
X69207047Y-116800380D01*
X69302285Y-116848000D01*
X69349904Y-116895619D01*
X69397523Y-116990857D01*
X69397523Y-117086095D01*
X69349904Y-117228952D01*
X68778476Y-117800380D01*
X69397523Y-117800380D01*
X69778476Y-116895619D02*
X69826095Y-116848000D01*
X69921333Y-116800380D01*
X70159428Y-116800380D01*
X70254666Y-116848000D01*
X70302285Y-116895619D01*
X70349904Y-116990857D01*
X70349904Y-117086095D01*
X70302285Y-117228952D01*
X69730857Y-117800380D01*
X70349904Y-117800380D01*
%TO.C,J11*%
X123912380Y-140255523D02*
X124626666Y-140255523D01*
X124769523Y-140303142D01*
X124864761Y-140398380D01*
X124912380Y-140541238D01*
X124912380Y-140636476D01*
X124912380Y-139255523D02*
X124912380Y-139826952D01*
X124912380Y-139541238D02*
X123912380Y-139541238D01*
X124055238Y-139636476D01*
X124150476Y-139731714D01*
X124198095Y-139826952D01*
X124912380Y-138303142D02*
X124912380Y-138874571D01*
X124912380Y-138588857D02*
X123912380Y-138588857D01*
X124055238Y-138684095D01*
X124150476Y-138779333D01*
X124198095Y-138874571D01*
%TO.C,C17*%
X69207142Y-100179142D02*
X69159523Y-100226761D01*
X69016666Y-100274380D01*
X68921428Y-100274380D01*
X68778571Y-100226761D01*
X68683333Y-100131523D01*
X68635714Y-100036285D01*
X68588095Y-99845809D01*
X68588095Y-99702952D01*
X68635714Y-99512476D01*
X68683333Y-99417238D01*
X68778571Y-99322000D01*
X68921428Y-99274380D01*
X69016666Y-99274380D01*
X69159523Y-99322000D01*
X69207142Y-99369619D01*
X70159523Y-100274380D02*
X69588095Y-100274380D01*
X69873809Y-100274380D02*
X69873809Y-99274380D01*
X69778571Y-99417238D01*
X69683333Y-99512476D01*
X69588095Y-99560095D01*
X70492857Y-99274380D02*
X71159523Y-99274380D01*
X70730952Y-100274380D01*
%TO.C,R2*%
X87463333Y-152598380D02*
X87130000Y-152122190D01*
X86891904Y-152598380D02*
X86891904Y-151598380D01*
X87272857Y-151598380D01*
X87368095Y-151646000D01*
X87415714Y-151693619D01*
X87463333Y-151788857D01*
X87463333Y-151931714D01*
X87415714Y-152026952D01*
X87368095Y-152074571D01*
X87272857Y-152122190D01*
X86891904Y-152122190D01*
X87844285Y-151693619D02*
X87891904Y-151646000D01*
X87987142Y-151598380D01*
X88225238Y-151598380D01*
X88320476Y-151646000D01*
X88368095Y-151693619D01*
X88415714Y-151788857D01*
X88415714Y-151884095D01*
X88368095Y-152026952D01*
X87796666Y-152598380D01*
X88415714Y-152598380D01*
%TO.C,R7*%
X71715333Y-117800380D02*
X71382000Y-117324190D01*
X71143904Y-117800380D02*
X71143904Y-116800380D01*
X71524857Y-116800380D01*
X71620095Y-116848000D01*
X71667714Y-116895619D01*
X71715333Y-116990857D01*
X71715333Y-117133714D01*
X71667714Y-117228952D01*
X71620095Y-117276571D01*
X71524857Y-117324190D01*
X71143904Y-117324190D01*
X72048666Y-116800380D02*
X72715333Y-116800380D01*
X72286761Y-117800380D01*
%TO.C,R40*%
X68445142Y-58110380D02*
X68111809Y-57634190D01*
X67873714Y-58110380D02*
X67873714Y-57110380D01*
X68254666Y-57110380D01*
X68349904Y-57158000D01*
X68397523Y-57205619D01*
X68445142Y-57300857D01*
X68445142Y-57443714D01*
X68397523Y-57538952D01*
X68349904Y-57586571D01*
X68254666Y-57634190D01*
X67873714Y-57634190D01*
X69302285Y-57443714D02*
X69302285Y-58110380D01*
X69064190Y-57062761D02*
X68826095Y-57777047D01*
X69445142Y-57777047D01*
X70016571Y-57110380D02*
X70111809Y-57110380D01*
X70207047Y-57158000D01*
X70254666Y-57205619D01*
X70302285Y-57300857D01*
X70349904Y-57491333D01*
X70349904Y-57729428D01*
X70302285Y-57919904D01*
X70254666Y-58015142D01*
X70207047Y-58062761D01*
X70111809Y-58110380D01*
X70016571Y-58110380D01*
X69921333Y-58062761D01*
X69873714Y-58015142D01*
X69826095Y-57919904D01*
X69778476Y-57729428D01*
X69778476Y-57491333D01*
X69826095Y-57300857D01*
X69873714Y-57205619D01*
X69921333Y-57158000D01*
X70016571Y-57110380D01*
%TO.C,J4*%
X107108666Y-124376380D02*
X107108666Y-125090666D01*
X107061047Y-125233523D01*
X106965809Y-125328761D01*
X106822952Y-125376380D01*
X106727714Y-125376380D01*
X108013428Y-124709714D02*
X108013428Y-125376380D01*
X107775333Y-124328761D02*
X107537238Y-125043047D01*
X108156285Y-125043047D01*
%TO.C,J3*%
X107108666Y-60876380D02*
X107108666Y-61590666D01*
X107061047Y-61733523D01*
X106965809Y-61828761D01*
X106822952Y-61876380D01*
X106727714Y-61876380D01*
X107489619Y-60876380D02*
X108108666Y-60876380D01*
X107775333Y-61257333D01*
X107918190Y-61257333D01*
X108013428Y-61304952D01*
X108061047Y-61352571D01*
X108108666Y-61447809D01*
X108108666Y-61685904D01*
X108061047Y-61781142D01*
X108013428Y-61828761D01*
X107918190Y-61876380D01*
X107632476Y-61876380D01*
X107537238Y-61828761D01*
X107489619Y-61781142D01*
%TO.C,C14*%
X75049142Y-92559142D02*
X75001523Y-92606761D01*
X74858666Y-92654380D01*
X74763428Y-92654380D01*
X74620571Y-92606761D01*
X74525333Y-92511523D01*
X74477714Y-92416285D01*
X74430095Y-92225809D01*
X74430095Y-92082952D01*
X74477714Y-91892476D01*
X74525333Y-91797238D01*
X74620571Y-91702000D01*
X74763428Y-91654380D01*
X74858666Y-91654380D01*
X75001523Y-91702000D01*
X75049142Y-91749619D01*
X76001523Y-92654380D02*
X75430095Y-92654380D01*
X75715809Y-92654380D02*
X75715809Y-91654380D01*
X75620571Y-91797238D01*
X75525333Y-91892476D01*
X75430095Y-91940095D01*
X76858666Y-91987714D02*
X76858666Y-92654380D01*
X76620571Y-91606761D02*
X76382476Y-92321047D01*
X77001523Y-92321047D01*
%TO.C,R21*%
X72509142Y-79446380D02*
X72175809Y-78970190D01*
X71937714Y-79446380D02*
X71937714Y-78446380D01*
X72318666Y-78446380D01*
X72413904Y-78494000D01*
X72461523Y-78541619D01*
X72509142Y-78636857D01*
X72509142Y-78779714D01*
X72461523Y-78874952D01*
X72413904Y-78922571D01*
X72318666Y-78970190D01*
X71937714Y-78970190D01*
X72890095Y-78541619D02*
X72937714Y-78494000D01*
X73032952Y-78446380D01*
X73271047Y-78446380D01*
X73366285Y-78494000D01*
X73413904Y-78541619D01*
X73461523Y-78636857D01*
X73461523Y-78732095D01*
X73413904Y-78874952D01*
X72842476Y-79446380D01*
X73461523Y-79446380D01*
X74413904Y-79446380D02*
X73842476Y-79446380D01*
X74128190Y-79446380D02*
X74128190Y-78446380D01*
X74032952Y-78589238D01*
X73937714Y-78684476D01*
X73842476Y-78732095D01*
%TO.C,J7*%
X115784380Y-85677333D02*
X116498666Y-85677333D01*
X116641523Y-85724952D01*
X116736761Y-85820190D01*
X116784380Y-85963047D01*
X116784380Y-86058285D01*
X115784380Y-85296380D02*
X115784380Y-84629714D01*
X116784380Y-85058285D01*
%TO.C,D2*%
X78509904Y-33654380D02*
X78509904Y-32654380D01*
X78748000Y-32654380D01*
X78890857Y-32702000D01*
X78986095Y-32797238D01*
X79033714Y-32892476D01*
X79081333Y-33082952D01*
X79081333Y-33225809D01*
X79033714Y-33416285D01*
X78986095Y-33511523D01*
X78890857Y-33606761D01*
X78748000Y-33654380D01*
X78509904Y-33654380D01*
X79462285Y-32749619D02*
X79509904Y-32702000D01*
X79605142Y-32654380D01*
X79843238Y-32654380D01*
X79938476Y-32702000D01*
X79986095Y-32749619D01*
X80033714Y-32844857D01*
X80033714Y-32940095D01*
X79986095Y-33082952D01*
X79414666Y-33654380D01*
X80033714Y-33654380D01*
%TO.C,C8*%
X83653333Y-120753142D02*
X83605714Y-120800761D01*
X83462857Y-120848380D01*
X83367619Y-120848380D01*
X83224761Y-120800761D01*
X83129523Y-120705523D01*
X83081904Y-120610285D01*
X83034285Y-120419809D01*
X83034285Y-120276952D01*
X83081904Y-120086476D01*
X83129523Y-119991238D01*
X83224761Y-119896000D01*
X83367619Y-119848380D01*
X83462857Y-119848380D01*
X83605714Y-119896000D01*
X83653333Y-119943619D01*
X84224761Y-120276952D02*
X84129523Y-120229333D01*
X84081904Y-120181714D01*
X84034285Y-120086476D01*
X84034285Y-120038857D01*
X84081904Y-119943619D01*
X84129523Y-119896000D01*
X84224761Y-119848380D01*
X84415238Y-119848380D01*
X84510476Y-119896000D01*
X84558095Y-119943619D01*
X84605714Y-120038857D01*
X84605714Y-120086476D01*
X84558095Y-120181714D01*
X84510476Y-120229333D01*
X84415238Y-120276952D01*
X84224761Y-120276952D01*
X84129523Y-120324571D01*
X84081904Y-120372190D01*
X84034285Y-120467428D01*
X84034285Y-120657904D01*
X84081904Y-120753142D01*
X84129523Y-120800761D01*
X84224761Y-120848380D01*
X84415238Y-120848380D01*
X84510476Y-120800761D01*
X84558095Y-120753142D01*
X84605714Y-120657904D01*
X84605714Y-120467428D01*
X84558095Y-120372190D01*
X84510476Y-120324571D01*
X84415238Y-120276952D01*
%TO.C,C16*%
X86987142Y-92559142D02*
X86939523Y-92606761D01*
X86796666Y-92654380D01*
X86701428Y-92654380D01*
X86558571Y-92606761D01*
X86463333Y-92511523D01*
X86415714Y-92416285D01*
X86368095Y-92225809D01*
X86368095Y-92082952D01*
X86415714Y-91892476D01*
X86463333Y-91797238D01*
X86558571Y-91702000D01*
X86701428Y-91654380D01*
X86796666Y-91654380D01*
X86939523Y-91702000D01*
X86987142Y-91749619D01*
X87939523Y-92654380D02*
X87368095Y-92654380D01*
X87653809Y-92654380D02*
X87653809Y-91654380D01*
X87558571Y-91797238D01*
X87463333Y-91892476D01*
X87368095Y-91940095D01*
X88796666Y-91654380D02*
X88606190Y-91654380D01*
X88510952Y-91702000D01*
X88463333Y-91749619D01*
X88368095Y-91892476D01*
X88320476Y-92082952D01*
X88320476Y-92463904D01*
X88368095Y-92559142D01*
X88415714Y-92606761D01*
X88510952Y-92654380D01*
X88701428Y-92654380D01*
X88796666Y-92606761D01*
X88844285Y-92559142D01*
X88891904Y-92463904D01*
X88891904Y-92225809D01*
X88844285Y-92130571D01*
X88796666Y-92082952D01*
X88701428Y-92035333D01*
X88510952Y-92035333D01*
X88415714Y-92082952D01*
X88368095Y-92130571D01*
X88320476Y-92225809D01*
%TO.C,R37*%
X97909142Y-69286380D02*
X97575809Y-68810190D01*
X97337714Y-69286380D02*
X97337714Y-68286380D01*
X97718666Y-68286380D01*
X97813904Y-68334000D01*
X97861523Y-68381619D01*
X97909142Y-68476857D01*
X97909142Y-68619714D01*
X97861523Y-68714952D01*
X97813904Y-68762571D01*
X97718666Y-68810190D01*
X97337714Y-68810190D01*
X98242476Y-68286380D02*
X98861523Y-68286380D01*
X98528190Y-68667333D01*
X98671047Y-68667333D01*
X98766285Y-68714952D01*
X98813904Y-68762571D01*
X98861523Y-68857809D01*
X98861523Y-69095904D01*
X98813904Y-69191142D01*
X98766285Y-69238761D01*
X98671047Y-69286380D01*
X98385333Y-69286380D01*
X98290095Y-69238761D01*
X98242476Y-69191142D01*
X99194857Y-68286380D02*
X99861523Y-68286380D01*
X99432952Y-69286380D01*
%TO.C,R46*%
X97463142Y-145232380D02*
X97129809Y-144756190D01*
X96891714Y-145232380D02*
X96891714Y-144232380D01*
X97272666Y-144232380D01*
X97367904Y-144280000D01*
X97415523Y-144327619D01*
X97463142Y-144422857D01*
X97463142Y-144565714D01*
X97415523Y-144660952D01*
X97367904Y-144708571D01*
X97272666Y-144756190D01*
X96891714Y-144756190D01*
X98320285Y-144565714D02*
X98320285Y-145232380D01*
X98082190Y-144184761D02*
X97844095Y-144899047D01*
X98463142Y-144899047D01*
X99272666Y-144232380D02*
X99082190Y-144232380D01*
X98986952Y-144280000D01*
X98939333Y-144327619D01*
X98844095Y-144470476D01*
X98796476Y-144660952D01*
X98796476Y-145041904D01*
X98844095Y-145137142D01*
X98891714Y-145184761D01*
X98986952Y-145232380D01*
X99177428Y-145232380D01*
X99272666Y-145184761D01*
X99320285Y-145137142D01*
X99367904Y-145041904D01*
X99367904Y-144803809D01*
X99320285Y-144708571D01*
X99272666Y-144660952D01*
X99177428Y-144613333D01*
X98986952Y-144613333D01*
X98891714Y-144660952D01*
X98844095Y-144708571D01*
X98796476Y-144803809D01*
%TO.C,U4*%
X87884095Y-145756380D02*
X87884095Y-146565904D01*
X87931714Y-146661142D01*
X87979333Y-146708761D01*
X88074571Y-146756380D01*
X88265047Y-146756380D01*
X88360285Y-146708761D01*
X88407904Y-146661142D01*
X88455523Y-146565904D01*
X88455523Y-145756380D01*
X89360285Y-146089714D02*
X89360285Y-146756380D01*
X89122190Y-145708761D02*
X88884095Y-146423047D01*
X89503142Y-146423047D01*
%TO.C,R50*%
X90289142Y-112212380D02*
X89955809Y-111736190D01*
X89717714Y-112212380D02*
X89717714Y-111212380D01*
X90098666Y-111212380D01*
X90193904Y-111260000D01*
X90241523Y-111307619D01*
X90289142Y-111402857D01*
X90289142Y-111545714D01*
X90241523Y-111640952D01*
X90193904Y-111688571D01*
X90098666Y-111736190D01*
X89717714Y-111736190D01*
X91193904Y-111212380D02*
X90717714Y-111212380D01*
X90670095Y-111688571D01*
X90717714Y-111640952D01*
X90812952Y-111593333D01*
X91051047Y-111593333D01*
X91146285Y-111640952D01*
X91193904Y-111688571D01*
X91241523Y-111783809D01*
X91241523Y-112021904D01*
X91193904Y-112117142D01*
X91146285Y-112164761D01*
X91051047Y-112212380D01*
X90812952Y-112212380D01*
X90717714Y-112164761D01*
X90670095Y-112117142D01*
X91860571Y-111212380D02*
X91955809Y-111212380D01*
X92051047Y-111260000D01*
X92098666Y-111307619D01*
X92146285Y-111402857D01*
X92193904Y-111593333D01*
X92193904Y-111831428D01*
X92146285Y-112021904D01*
X92098666Y-112117142D01*
X92051047Y-112164761D01*
X91955809Y-112212380D01*
X91860571Y-112212380D01*
X91765333Y-112164761D01*
X91717714Y-112117142D01*
X91670095Y-112021904D01*
X91622476Y-111831428D01*
X91622476Y-111593333D01*
X91670095Y-111402857D01*
X91717714Y-111307619D01*
X91765333Y-111260000D01*
X91860571Y-111212380D01*
%TO.C,R43*%
X97463142Y-138120380D02*
X97129809Y-137644190D01*
X96891714Y-138120380D02*
X96891714Y-137120380D01*
X97272666Y-137120380D01*
X97367904Y-137168000D01*
X97415523Y-137215619D01*
X97463142Y-137310857D01*
X97463142Y-137453714D01*
X97415523Y-137548952D01*
X97367904Y-137596571D01*
X97272666Y-137644190D01*
X96891714Y-137644190D01*
X98320285Y-137453714D02*
X98320285Y-138120380D01*
X98082190Y-137072761D02*
X97844095Y-137787047D01*
X98463142Y-137787047D01*
X98748857Y-137120380D02*
X99367904Y-137120380D01*
X99034571Y-137501333D01*
X99177428Y-137501333D01*
X99272666Y-137548952D01*
X99320285Y-137596571D01*
X99367904Y-137691809D01*
X99367904Y-137929904D01*
X99320285Y-138025142D01*
X99272666Y-138072761D01*
X99177428Y-138120380D01*
X98891714Y-138120380D01*
X98796476Y-138072761D01*
X98748857Y-138025142D01*
%TO.C,J1*%
X63928666Y-60876380D02*
X63928666Y-61590666D01*
X63881047Y-61733523D01*
X63785809Y-61828761D01*
X63642952Y-61876380D01*
X63547714Y-61876380D01*
X64928666Y-61876380D02*
X64357238Y-61876380D01*
X64642952Y-61876380D02*
X64642952Y-60876380D01*
X64547714Y-61019238D01*
X64452476Y-61114476D01*
X64357238Y-61162095D01*
%TO.C,R18*%
X125087142Y-111958380D02*
X124753809Y-111482190D01*
X124515714Y-111958380D02*
X124515714Y-110958380D01*
X124896666Y-110958380D01*
X124991904Y-111006000D01*
X125039523Y-111053619D01*
X125087142Y-111148857D01*
X125087142Y-111291714D01*
X125039523Y-111386952D01*
X124991904Y-111434571D01*
X124896666Y-111482190D01*
X124515714Y-111482190D01*
X126039523Y-111958380D02*
X125468095Y-111958380D01*
X125753809Y-111958380D02*
X125753809Y-110958380D01*
X125658571Y-111101238D01*
X125563333Y-111196476D01*
X125468095Y-111244095D01*
X126610952Y-111386952D02*
X126515714Y-111339333D01*
X126468095Y-111291714D01*
X126420476Y-111196476D01*
X126420476Y-111148857D01*
X126468095Y-111053619D01*
X126515714Y-111006000D01*
X126610952Y-110958380D01*
X126801428Y-110958380D01*
X126896666Y-111006000D01*
X126944285Y-111053619D01*
X126991904Y-111148857D01*
X126991904Y-111196476D01*
X126944285Y-111291714D01*
X126896666Y-111339333D01*
X126801428Y-111386952D01*
X126610952Y-111386952D01*
X126515714Y-111434571D01*
X126468095Y-111482190D01*
X126420476Y-111577428D01*
X126420476Y-111767904D01*
X126468095Y-111863142D01*
X126515714Y-111910761D01*
X126610952Y-111958380D01*
X126801428Y-111958380D01*
X126896666Y-111910761D01*
X126944285Y-111863142D01*
X126991904Y-111767904D01*
X126991904Y-111577428D01*
X126944285Y-111482190D01*
X126896666Y-111434571D01*
X126801428Y-111386952D01*
%TO.C,R12*%
X92575142Y-100274380D02*
X92241809Y-99798190D01*
X92003714Y-100274380D02*
X92003714Y-99274380D01*
X92384666Y-99274380D01*
X92479904Y-99322000D01*
X92527523Y-99369619D01*
X92575142Y-99464857D01*
X92575142Y-99607714D01*
X92527523Y-99702952D01*
X92479904Y-99750571D01*
X92384666Y-99798190D01*
X92003714Y-99798190D01*
X93527523Y-100274380D02*
X92956095Y-100274380D01*
X93241809Y-100274380D02*
X93241809Y-99274380D01*
X93146571Y-99417238D01*
X93051333Y-99512476D01*
X92956095Y-99560095D01*
X93908476Y-99369619D02*
X93956095Y-99322000D01*
X94051333Y-99274380D01*
X94289428Y-99274380D01*
X94384666Y-99322000D01*
X94432285Y-99369619D01*
X94479904Y-99464857D01*
X94479904Y-99560095D01*
X94432285Y-99702952D01*
X93860857Y-100274380D01*
X94479904Y-100274380D01*
%TO.C,R13*%
X65905142Y-100274380D02*
X65571809Y-99798190D01*
X65333714Y-100274380D02*
X65333714Y-99274380D01*
X65714666Y-99274380D01*
X65809904Y-99322000D01*
X65857523Y-99369619D01*
X65905142Y-99464857D01*
X65905142Y-99607714D01*
X65857523Y-99702952D01*
X65809904Y-99750571D01*
X65714666Y-99798190D01*
X65333714Y-99798190D01*
X66857523Y-100274380D02*
X66286095Y-100274380D01*
X66571809Y-100274380D02*
X66571809Y-99274380D01*
X66476571Y-99417238D01*
X66381333Y-99512476D01*
X66286095Y-99560095D01*
X67190857Y-99274380D02*
X67809904Y-99274380D01*
X67476571Y-99655333D01*
X67619428Y-99655333D01*
X67714666Y-99702952D01*
X67762285Y-99750571D01*
X67809904Y-99845809D01*
X67809904Y-100083904D01*
X67762285Y-100179142D01*
X67714666Y-100226761D01*
X67619428Y-100274380D01*
X67333714Y-100274380D01*
X67238476Y-100226761D01*
X67190857Y-100179142D01*
D12*
%TO.C,R41*%
X84289737Y-43603000D02*
X82842263Y-43603000D01*
X84289737Y-46313000D02*
X82842263Y-46313000D01*
%TO.C,R28*%
X69569064Y-70639000D02*
X69114936Y-70639000D01*
X69569064Y-72109000D02*
X69114936Y-72109000D01*
%TO.C,R31*%
X69569064Y-84809000D02*
X69114936Y-84809000D01*
X69569064Y-83339000D02*
X69114936Y-83339000D01*
%TO.C,R17*%
X134154936Y-37311000D02*
X134609064Y-37311000D01*
X134154936Y-35841000D02*
X134609064Y-35841000D01*
%TO.C,C23*%
X86641000Y-95765252D02*
X86641000Y-95242748D01*
X88111000Y-95765252D02*
X88111000Y-95242748D01*
%TO.C,R35*%
X69569064Y-136679000D02*
X69114936Y-136679000D01*
X69569064Y-138149000D02*
X69114936Y-138149000D01*
%TO.C,C5*%
X119130000Y-56337252D02*
X119130000Y-54914748D01*
X121850000Y-56337252D02*
X121850000Y-54914748D01*
%TO.C,R29*%
X69569064Y-74649000D02*
X69114936Y-74649000D01*
X69569064Y-73179000D02*
X69114936Y-73179000D01*
%TO.C,C1*%
X92483000Y-117609252D02*
X92483000Y-117086748D01*
X93953000Y-117609252D02*
X93953000Y-117086748D01*
%TO.C,R20*%
X134016436Y-108993000D02*
X134470564Y-108993000D01*
X134016436Y-110463000D02*
X134470564Y-110463000D01*
%TO.C,C11*%
X94515000Y-41902748D02*
X94515000Y-42425252D01*
X95985000Y-41902748D02*
X95985000Y-42425252D01*
%TO.C,J13*%
X125778500Y-30839000D02*
X125778500Y-20469000D01*
X135908500Y-29839000D02*
X134908500Y-30839000D01*
X134908500Y-20469000D02*
X135908500Y-21469000D01*
X125778500Y-20469000D02*
X134908500Y-20469000D01*
X134908500Y-30839000D02*
X125778500Y-30839000D01*
X135908500Y-21469000D02*
X135908500Y-29839000D01*
%TO.C,R38*%
X102589064Y-74649000D02*
X102134936Y-74649000D01*
X102589064Y-73179000D02*
X102134936Y-73179000D01*
%TO.C,R8*%
X85803500Y-95747064D02*
X85803500Y-95292936D01*
X84333500Y-95747064D02*
X84333500Y-95292936D01*
%TO.C,R15*%
X88111000Y-99594936D02*
X88111000Y-100049064D01*
X86641000Y-99594936D02*
X86641000Y-100049064D01*
%TO.C,J5*%
X97010000Y-29656000D02*
X97010000Y-28346000D01*
X80360000Y-29286000D02*
X80360000Y-29656000D01*
X101110000Y-28346000D02*
X101110000Y-28346000D01*
X87520000Y-28346000D02*
X87520000Y-21946000D01*
X101110000Y-28346000D02*
X101110000Y-29656000D01*
X80360000Y-21506000D02*
X80360000Y-20636000D01*
X117760000Y-29656000D02*
X117760000Y-29286000D01*
X97010000Y-28346000D02*
X87520000Y-28346000D01*
X110600000Y-28346000D02*
X101110000Y-28346000D01*
X110600000Y-21946000D02*
X110600000Y-28346000D01*
X91440000Y-30046000D02*
X90940000Y-31046000D01*
X90940000Y-31046000D02*
X91940000Y-31046000D01*
X80360000Y-20636000D02*
X117760000Y-20636000D01*
X87520000Y-21946000D02*
X110600000Y-21946000D01*
X80360000Y-29656000D02*
X117760000Y-29656000D01*
X117760000Y-20636000D02*
X117760000Y-21506000D01*
X91940000Y-31046000D02*
X91440000Y-30046000D01*
%TO.C,J9*%
X125740000Y-50399000D02*
X134870000Y-50399000D01*
X125740000Y-60769000D02*
X125740000Y-50399000D01*
X135870000Y-51399000D02*
X135870000Y-59769000D01*
X134870000Y-60769000D02*
X125740000Y-60769000D01*
X134870000Y-50399000D02*
X135870000Y-51399000D01*
X135870000Y-59769000D02*
X134870000Y-60769000D01*
%TO.C,C19*%
X82047500Y-100083252D02*
X82047500Y-99560748D01*
X83517500Y-100083252D02*
X83517500Y-99560748D01*
%TO.C,R11*%
X80545000Y-112802936D02*
X80545000Y-113257064D01*
X82015000Y-112802936D02*
X82015000Y-113257064D01*
%TO.C,C18*%
X79729000Y-112768748D02*
X79729000Y-113291252D01*
X78259000Y-112768748D02*
X78259000Y-113291252D01*
%TO.C,R16*%
X75157000Y-62711064D02*
X75157000Y-62256936D01*
X73687000Y-62711064D02*
X73687000Y-62256936D01*
%TO.C,R27*%
X69569064Y-69569000D02*
X69114936Y-69569000D01*
X69569064Y-68099000D02*
X69114936Y-68099000D01*
%TO.C,R34*%
X69569064Y-134139000D02*
X69114936Y-134139000D01*
X69569064Y-135609000D02*
X69114936Y-135609000D01*
%TO.C,J10*%
X125740000Y-102131000D02*
X125740000Y-91761000D01*
X135870000Y-92761000D02*
X135870000Y-101131000D01*
X134870000Y-102131000D02*
X125740000Y-102131000D01*
X135870000Y-101131000D02*
X134870000Y-102131000D01*
X125740000Y-91761000D02*
X134870000Y-91761000D01*
X134870000Y-91761000D02*
X135870000Y-92761000D01*
%TO.C,R6*%
X82015000Y-117120936D02*
X82015000Y-117575064D01*
X80545000Y-117120936D02*
X80545000Y-117575064D01*
%TO.C,R10*%
X79529000Y-100049064D02*
X79529000Y-99594936D01*
X80999000Y-100049064D02*
X80999000Y-99594936D01*
%TO.C,R51*%
X89127000Y-113257064D02*
X89127000Y-112802936D01*
X87657000Y-113257064D02*
X87657000Y-112802936D01*
%TO.C,C2*%
X121756000Y-44653252D02*
X121756000Y-43230748D01*
X119036000Y-44653252D02*
X119036000Y-43230748D01*
%TO.C,R1*%
X94641936Y-153008000D02*
X95096064Y-153008000D01*
X94641936Y-151538000D02*
X95096064Y-151538000D01*
%TO.C,R19*%
X125010936Y-35841000D02*
X125465064Y-35841000D01*
X125010936Y-37311000D02*
X125465064Y-37311000D01*
%TO.C,D4*%
X132522000Y-33076000D02*
X132522000Y-34996000D01*
X132522000Y-34996000D02*
X135382000Y-34996000D01*
X135382000Y-33076000D02*
X132522000Y-33076000D01*
%TO.C,D7*%
X132383500Y-106228000D02*
X132383500Y-108148000D01*
X132383500Y-108148000D02*
X135243500Y-108148000D01*
X135243500Y-106228000D02*
X132383500Y-106228000D01*
%TO.C,C7*%
X99033000Y-117609252D02*
X99033000Y-117086748D01*
X97563000Y-117609252D02*
X97563000Y-117086748D01*
%TO.C,R45*%
X101569936Y-144299000D02*
X102024064Y-144299000D01*
X101569936Y-145769000D02*
X102024064Y-145769000D01*
%TO.C,R33*%
X69569064Y-131599000D02*
X69114936Y-131599000D01*
X69569064Y-133069000D02*
X69114936Y-133069000D01*
%TO.C,R32*%
X69569064Y-85879000D02*
X69114936Y-85879000D01*
X69569064Y-87349000D02*
X69114936Y-87349000D01*
%TO.C,R14*%
X75973000Y-113257064D02*
X75973000Y-112802936D01*
X77443000Y-113257064D02*
X77443000Y-112802936D01*
%TO.C,C21*%
X74957000Y-95765252D02*
X74957000Y-95242748D01*
X76427000Y-95765252D02*
X76427000Y-95242748D01*
%TO.C,C10*%
X89127000Y-117086748D02*
X89127000Y-117609252D01*
X87657000Y-117086748D02*
X87657000Y-117609252D01*
%TO.C,U5*%
X78115000Y-106426000D02*
X78115000Y-104476000D01*
X86985000Y-106426000D02*
X86985000Y-108376000D01*
X78115000Y-106426000D02*
X78115000Y-108376000D01*
X86985000Y-106426000D02*
X86985000Y-102976000D01*
%TO.C,R44*%
X101688936Y-136679000D02*
X102143064Y-136679000D01*
X101688936Y-138149000D02*
X102143064Y-138149000D01*
%TO.C,J8*%
X134908500Y-49121000D02*
X125778500Y-49121000D01*
X125778500Y-49121000D02*
X125778500Y-38751000D01*
X134908500Y-38751000D02*
X135908500Y-39751000D01*
X135908500Y-39751000D02*
X135908500Y-48121000D01*
X125778500Y-38751000D02*
X134908500Y-38751000D01*
X135908500Y-48121000D02*
X134908500Y-49121000D01*
%TO.C,R5*%
X77243000Y-95260936D02*
X77243000Y-95715064D01*
X78713000Y-95260936D02*
X78713000Y-95715064D01*
%TO.C,J6*%
X134870000Y-114529000D02*
X135870000Y-115529000D01*
X125740000Y-124899000D02*
X125740000Y-114529000D01*
X135870000Y-123899000D02*
X134870000Y-124899000D01*
X135870000Y-115529000D02*
X135870000Y-123899000D01*
X134870000Y-124899000D02*
X125740000Y-124899000D01*
X125740000Y-114529000D02*
X134870000Y-114529000D01*
%TO.C,J14*%
X125740000Y-65657000D02*
X134870000Y-65657000D01*
X135870000Y-75027000D02*
X134870000Y-76027000D01*
X134870000Y-76027000D02*
X125740000Y-76027000D01*
X125740000Y-76027000D02*
X125740000Y-65657000D01*
X134870000Y-65657000D02*
X135870000Y-66657000D01*
X135870000Y-66657000D02*
X135870000Y-75027000D01*
%TO.C,R39*%
X75210936Y-59409000D02*
X75665064Y-59409000D01*
X75210936Y-57939000D02*
X75665064Y-57939000D01*
%TO.C,C6*%
X121596000Y-97645252D02*
X121596000Y-96222748D01*
X118876000Y-97645252D02*
X118876000Y-96222748D01*
%TO.C,C3*%
X118876000Y-85999752D02*
X118876000Y-84577248D01*
X121596000Y-85999752D02*
X121596000Y-84577248D01*
%TO.C,C15*%
X80525252Y-121385000D02*
X80002748Y-121385000D01*
X80525252Y-119915000D02*
X80002748Y-119915000D01*
%TO.C,J2*%
X61662000Y-151444000D02*
X66862000Y-151444000D01*
X64262000Y-125924000D02*
X66862000Y-125924000D01*
X61662000Y-128524000D02*
X61662000Y-151444000D01*
X61662000Y-128524000D02*
X64262000Y-128524000D01*
X64262000Y-128524000D02*
X64262000Y-125924000D01*
X61662000Y-127254000D02*
X61662000Y-125924000D01*
X66862000Y-125924000D02*
X66862000Y-151444000D01*
X61662000Y-125924000D02*
X62992000Y-125924000D01*
%TO.C,R4*%
X79529000Y-95715064D02*
X79529000Y-95260936D01*
X80999000Y-95715064D02*
X80999000Y-95260936D01*
%TO.C,R9*%
X83517500Y-95276936D02*
X83517500Y-95731064D01*
X82047500Y-95276936D02*
X82047500Y-95731064D01*
%TO.C,D6*%
X123378000Y-34996000D02*
X126238000Y-34996000D01*
X123378000Y-33076000D02*
X123378000Y-34996000D01*
X126238000Y-33076000D02*
X123378000Y-33076000D01*
%TO.C,D5*%
X123870000Y-108148000D02*
X126730000Y-108148000D01*
X126730000Y-106228000D02*
X123870000Y-106228000D01*
X123870000Y-106228000D02*
X123870000Y-108148000D01*
%TO.C,Q1*%
X73878000Y-54610000D02*
X73878000Y-56285000D01*
X76998000Y-54610000D02*
X76998000Y-55260000D01*
X76998000Y-54610000D02*
X76998000Y-53960000D01*
X73878000Y-54610000D02*
X73878000Y-53960000D01*
%TO.C,R36*%
X102589064Y-64489000D02*
X102134936Y-64489000D01*
X102589064Y-63019000D02*
X102134936Y-63019000D01*
%TO.C,C9*%
X86841000Y-112768748D02*
X86841000Y-113291252D01*
X85371000Y-112768748D02*
X85371000Y-113291252D01*
%TO.C,D1*%
X79368000Y-51193000D02*
X79368000Y-38723000D01*
X79368000Y-38723000D02*
X71508000Y-38723000D01*
X71568000Y-45958000D02*
X71568000Y-47493000D01*
X79308000Y-42423000D02*
X71568000Y-42423000D01*
X71508000Y-51193000D02*
X79368000Y-51193000D01*
X79308000Y-47493000D02*
X79308000Y-42423000D01*
X71508000Y-38723000D02*
X71508000Y-51193000D01*
X71568000Y-42423000D02*
X71568000Y-43958000D01*
X71568000Y-47493000D02*
X79308000Y-47493000D01*
X71568000Y-45958000D02*
G75*
G03*
X71568000Y-43958000I0J1000000D01*
G01*
%TO.C,J12*%
X134870000Y-136583000D02*
X125740000Y-136583000D01*
X125740000Y-136583000D02*
X125740000Y-126213000D01*
X135870000Y-127213000D02*
X135870000Y-135583000D01*
X135870000Y-135583000D02*
X134870000Y-136583000D01*
X125740000Y-126213000D02*
X134870000Y-126213000D01*
X134870000Y-126213000D02*
X135870000Y-127213000D01*
%TO.C,R30*%
X69569064Y-82269000D02*
X69114936Y-82269000D01*
X69569064Y-80799000D02*
X69114936Y-80799000D01*
%TO.C,C22*%
X77443000Y-117086748D02*
X77443000Y-117609252D01*
X75973000Y-117086748D02*
X75973000Y-117609252D01*
%TO.C,J11*%
X135870000Y-139707000D02*
X135870000Y-154077000D01*
X125740000Y-155077000D02*
X125740000Y-138707000D01*
X134870000Y-155077000D02*
X125740000Y-155077000D01*
X135870000Y-154077000D02*
X134870000Y-155077000D01*
X134870000Y-138707000D02*
X135870000Y-139707000D01*
X125740000Y-138707000D02*
X134870000Y-138707000D01*
%TO.C,C17*%
X77243000Y-100083252D02*
X77243000Y-99560748D01*
X78713000Y-100083252D02*
X78713000Y-99560748D01*
%TO.C,R2*%
X90323936Y-153008000D02*
X90778064Y-153008000D01*
X90323936Y-151538000D02*
X90778064Y-151538000D01*
%TO.C,R7*%
X79729000Y-117575064D02*
X79729000Y-117120936D01*
X78259000Y-117575064D02*
X78259000Y-117120936D01*
%TO.C,R40*%
X71147000Y-57430936D02*
X71147000Y-57885064D01*
X72617000Y-57430936D02*
X72617000Y-57885064D01*
%TO.C,J4*%
X107442000Y-128524000D02*
X107442000Y-125924000D01*
X104842000Y-128524000D02*
X107442000Y-128524000D01*
X104842000Y-128524000D02*
X104842000Y-151444000D01*
X104842000Y-127254000D02*
X104842000Y-125924000D01*
X107442000Y-125924000D02*
X110042000Y-125924000D01*
X104842000Y-125924000D02*
X106172000Y-125924000D01*
X104842000Y-151444000D02*
X110042000Y-151444000D01*
X110042000Y-125924000D02*
X110042000Y-151444000D01*
%TO.C,J3*%
X104842000Y-62424000D02*
X106172000Y-62424000D01*
X107442000Y-65024000D02*
X107442000Y-62424000D01*
X107442000Y-62424000D02*
X110042000Y-62424000D01*
X104842000Y-87944000D02*
X110042000Y-87944000D01*
X110042000Y-62424000D02*
X110042000Y-87944000D01*
X104842000Y-63754000D02*
X104842000Y-62424000D01*
X104842000Y-65024000D02*
X107442000Y-65024000D01*
X104842000Y-65024000D02*
X104842000Y-87944000D01*
%TO.C,C14*%
X79509252Y-91467000D02*
X78986748Y-91467000D01*
X79509252Y-92937000D02*
X78986748Y-92937000D01*
%TO.C,R21*%
X69569064Y-79729000D02*
X69114936Y-79729000D01*
X69569064Y-78259000D02*
X69114936Y-78259000D01*
%TO.C,J7*%
X125740000Y-90449500D02*
X125740000Y-80079500D01*
X134870000Y-80079500D02*
X135870000Y-81079500D01*
X134870000Y-90449500D02*
X125740000Y-90449500D01*
X125740000Y-80079500D02*
X134870000Y-80079500D01*
X135870000Y-81079500D02*
X135870000Y-89449500D01*
X135870000Y-89449500D02*
X134870000Y-90449500D01*
%TO.C,D2*%
X77748000Y-34202000D02*
X80298000Y-34202000D01*
X77748000Y-34202000D02*
X77748000Y-35902000D01*
X77748000Y-35902000D02*
X80298000Y-35902000D01*
%TO.C,C8*%
X83085000Y-117086748D02*
X83085000Y-117609252D01*
X84555000Y-117086748D02*
X84555000Y-117609252D01*
%TO.C,C16*%
X84313752Y-91467000D02*
X83791248Y-91467000D01*
X84313752Y-92937000D02*
X83791248Y-92937000D01*
%TO.C,R37*%
X102589064Y-69569000D02*
X102134936Y-69569000D01*
X102589064Y-68099000D02*
X102134936Y-68099000D01*
%TO.C,R46*%
X101569936Y-141759000D02*
X102024064Y-141759000D01*
X101569936Y-143229000D02*
X102024064Y-143229000D01*
%TO.C,U4*%
X95143000Y-146177000D02*
X95143000Y-142727000D01*
X90023000Y-146177000D02*
X90023000Y-148127000D01*
X95143000Y-146177000D02*
X95143000Y-148127000D01*
X90023000Y-146177000D02*
X90023000Y-144227000D01*
%TO.C,R50*%
X84555000Y-112802936D02*
X84555000Y-113257064D01*
X83085000Y-112802936D02*
X83085000Y-113257064D01*
%TO.C,R43*%
X101688936Y-140689000D02*
X102143064Y-140689000D01*
X101688936Y-139219000D02*
X102143064Y-139219000D01*
%TO.C,J1*%
X64262000Y-62424000D02*
X66862000Y-62424000D01*
X61662000Y-63754000D02*
X61662000Y-62424000D01*
X61662000Y-87944000D02*
X66862000Y-87944000D01*
X61662000Y-65024000D02*
X61662000Y-87944000D01*
X64262000Y-65024000D02*
X64262000Y-62424000D01*
X61662000Y-62424000D02*
X62992000Y-62424000D01*
X61662000Y-65024000D02*
X64262000Y-65024000D01*
X66862000Y-62424000D02*
X66862000Y-87944000D01*
%TO.C,R18*%
X125502936Y-110463000D02*
X125957064Y-110463000D01*
X125502936Y-108993000D02*
X125957064Y-108993000D01*
%TO.C,R12*%
X85803500Y-100049064D02*
X85803500Y-99594936D01*
X84333500Y-100049064D02*
X84333500Y-99594936D01*
%TO.C,R13*%
X74957000Y-99594936D02*
X74957000Y-100049064D01*
X76427000Y-99594936D02*
X76427000Y-100049064D01*
%TD*%
M02*
