%TF.GenerationSoftware,KiCad,Pcbnew,(6.0.1)*%
%TF.CreationDate,2022-08-22T15:26:46+03:00*%
%TF.ProjectId,Launch-Adapter,4c61756e-6368-42d4-9164-61707465722e,rev?*%
%TF.SameCoordinates,Original*%
%TF.FileFunction,Copper,L2,Inr*%
%TF.FilePolarity,Positive*%
%FSLAX46Y46*%
G04 Gerber Fmt 4.6, Leading zero omitted, Abs format (unit mm)*
G04 Created by KiCad (PCBNEW (6.0.1)) date 2022-08-22 15:26:46*
%MOMM*%
%LPD*%
G01*
G04 APERTURE LIST*
G04 Aperture macros list*
%AMRoundRect*
0 Rectangle with rounded corners*
0 $1 Rounding radius*
0 $2 $3 $4 $5 $6 $7 $8 $9 X,Y pos of 4 corners*
0 Add a 4 corners polygon primitive as box body*
4,1,4,$2,$3,$4,$5,$6,$7,$8,$9,$2,$3,0*
0 Add four circle primitives for the rounded corners*
1,1,$1+$1,$2,$3*
1,1,$1+$1,$4,$5*
1,1,$1+$1,$6,$7*
1,1,$1+$1,$8,$9*
0 Add four rect primitives between the rounded corners*
20,1,$1+$1,$2,$3,$4,$5,0*
20,1,$1+$1,$4,$5,$6,$7,0*
20,1,$1+$1,$6,$7,$8,$9,0*
20,1,$1+$1,$8,$9,$2,$3,0*%
G04 Aperture macros list end*
%TA.AperFunction,ComponentPad*%
%ADD10RoundRect,0.250001X-0.499999X0.499999X-0.499999X-0.499999X0.499999X-0.499999X0.499999X0.499999X0*%
%TD*%
%TA.AperFunction,ComponentPad*%
%ADD11C,1.500000*%
%TD*%
%TA.AperFunction,ComponentPad*%
%ADD12RoundRect,0.250000X0.600000X-0.600000X0.600000X0.600000X-0.600000X0.600000X-0.600000X-0.600000X0*%
%TD*%
%TA.AperFunction,ComponentPad*%
%ADD13C,1.700000*%
%TD*%
%TA.AperFunction,ComponentPad*%
%ADD14C,8.000000*%
%TD*%
%TA.AperFunction,ComponentPad*%
%ADD15R,1.700000X1.700000*%
%TD*%
%TA.AperFunction,ComponentPad*%
%ADD16O,1.700000X1.700000*%
%TD*%
%TA.AperFunction,ViaPad*%
%ADD17C,0.800000*%
%TD*%
%TA.AperFunction,Conductor*%
%ADD18C,0.500000*%
%TD*%
G04 APERTURE END LIST*
D10*
%TO.N,GND*%
%TO.C,J13*%
X126878500Y-24154000D03*
D11*
%TO.N,Net-(D1-Pad4)*%
X126878500Y-27154000D03*
%TO.N,GND*%
X123878500Y-24154000D03*
%TO.N,Net-(D1-Pad4)*%
X123878500Y-27154000D03*
%TD*%
D12*
%TO.N,RDY*%
%TO.C,J5*%
X91440000Y-26416000D03*
D13*
%TO.N,GND*%
X91440000Y-23876000D03*
%TO.N,FLT*%
X93980000Y-26416000D03*
%TO.N,GND*%
X93980000Y-23876000D03*
%TO.N,RST*%
X96520000Y-26416000D03*
%TO.N,GND*%
X96520000Y-23876000D03*
%TO.N,IN-*%
X99060000Y-26416000D03*
%TO.N,GND*%
X99060000Y-23876000D03*
%TO.N,IN+*%
X101600000Y-26416000D03*
%TO.N,GND*%
X101600000Y-23876000D03*
%TO.N,+5V*%
X104140000Y-26416000D03*
%TO.N,GND*%
X104140000Y-23876000D03*
%TO.N,+15V*%
X106680000Y-26416000D03*
%TO.N,GND*%
X106680000Y-23876000D03*
D14*
%TO.N,N/C*%
X115620000Y-25396000D03*
X82500000Y-25396000D03*
%TD*%
D10*
%TO.N,GND*%
%TO.C,J9*%
X126840000Y-54084000D03*
D11*
%TO.N,+3V3*%
X126840000Y-57084000D03*
%TO.N,GND*%
X123840000Y-54084000D03*
%TO.N,+3V3*%
X123840000Y-57084000D03*
%TD*%
D10*
%TO.N,GND2*%
%TO.C,J10*%
X126840000Y-95446000D03*
D11*
%TO.N,+5VD*%
X126840000Y-98446000D03*
%TO.N,GND2*%
X123840000Y-95446000D03*
%TO.N,+5VD*%
X123840000Y-98446000D03*
%TD*%
D10*
%TO.N,GND*%
%TO.C,J8*%
X126878500Y-42436000D03*
D11*
%TO.N,+15V*%
X126878500Y-45436000D03*
%TO.N,GND*%
X123878500Y-42436000D03*
%TO.N,+15V*%
X123878500Y-45436000D03*
%TD*%
D10*
%TO.N,GND*%
%TO.C,J6*%
X126840000Y-118214000D03*
D11*
X126840000Y-121214000D03*
%TO.N,V_IN*%
X123840000Y-118214000D03*
%TO.N,V_OUT*%
X123840000Y-121214000D03*
%TD*%
D10*
%TO.N,unconnected-(J14-Pad1)*%
%TO.C,J14*%
X126840000Y-69342000D03*
D11*
%TO.N,Temp*%
X126840000Y-72342000D03*
%TO.N,GND*%
X123840000Y-69342000D03*
%TO.N,+5V*%
X123840000Y-72342000D03*
%TD*%
D15*
%TO.N,+3V3*%
%TO.C,J2*%
X62992000Y-127254000D03*
D16*
%TO.N,+5V*%
X65532000Y-127254000D03*
%TO.N,unconnected-(J2-Pad3)*%
X62992000Y-129794000D03*
%TO.N,GND*%
X65532000Y-129794000D03*
%TO.N,unconnected-(J2-Pad5)*%
X62992000Y-132334000D03*
%TO.N,Net-(J2-Pad6)*%
X65532000Y-132334000D03*
%TO.N,unconnected-(J2-Pad7)*%
X62992000Y-134874000D03*
%TO.N,Net-(J2-Pad8)*%
X65532000Y-134874000D03*
%TO.N,unconnected-(J2-Pad9)*%
X62992000Y-137414000D03*
%TO.N,Net-(J2-Pad10)*%
X65532000Y-137414000D03*
%TO.N,unconnected-(J2-Pad11)*%
X62992000Y-139954000D03*
%TO.N,unconnected-(J2-Pad12)*%
X65532000Y-139954000D03*
%TO.N,unconnected-(J2-Pad13)*%
X62992000Y-142494000D03*
%TO.N,unconnected-(J2-Pad14)*%
X65532000Y-142494000D03*
%TO.N,unconnected-(J2-Pad15)*%
X62992000Y-145034000D03*
%TO.N,unconnected-(J2-Pad16)*%
X65532000Y-145034000D03*
%TO.N,unconnected-(J2-Pad17)*%
X62992000Y-147574000D03*
%TO.N,unconnected-(J2-Pad18)*%
X65532000Y-147574000D03*
%TO.N,unconnected-(J2-Pad19)*%
X62992000Y-150114000D03*
%TO.N,unconnected-(J2-Pad20)*%
X65532000Y-150114000D03*
%TD*%
D10*
%TO.N,GND*%
%TO.C,J12*%
X126840000Y-129898000D03*
D11*
%TO.N,I_INDUCT*%
X126840000Y-132898000D03*
%TO.N,GND*%
X123840000Y-129898000D03*
%TO.N,I_INDUCT*%
X123840000Y-132898000D03*
%TD*%
D10*
%TO.N,CANL*%
%TO.C,J11*%
X126840000Y-142392000D03*
D11*
%TO.N,GND*%
X126840000Y-145392000D03*
%TO.N,B*%
X126840000Y-148392000D03*
%TO.N,Y*%
X126840000Y-151392000D03*
%TO.N,CANH*%
X123840000Y-142392000D03*
%TO.N,GND*%
X123840000Y-145392000D03*
%TO.N,A*%
X123840000Y-148392000D03*
%TO.N,Z*%
X123840000Y-151392000D03*
%TD*%
D15*
%TO.N,unconnected-(J4-Pad1)*%
%TO.C,J4*%
X106172000Y-127254000D03*
D16*
%TO.N,unconnected-(J4-Pad2)*%
X108712000Y-127254000D03*
%TO.N,unconnected-(J4-Pad3)*%
X106172000Y-129794000D03*
%TO.N,unconnected-(J4-Pad4)*%
X108712000Y-129794000D03*
%TO.N,unconnected-(J4-Pad5)*%
X106172000Y-132334000D03*
%TO.N,unconnected-(J4-Pad6)*%
X108712000Y-132334000D03*
%TO.N,unconnected-(J4-Pad7)*%
X106172000Y-134874000D03*
%TO.N,unconnected-(J4-Pad8)*%
X108712000Y-134874000D03*
%TO.N,Net-(J4-Pad9)*%
X106172000Y-137414000D03*
%TO.N,unconnected-(J4-Pad10)*%
X108712000Y-137414000D03*
%TO.N,Net-(J4-Pad11)*%
X106172000Y-139954000D03*
%TO.N,unconnected-(J4-Pad12)*%
X108712000Y-139954000D03*
%TO.N,Net-(J4-Pad13)*%
X106172000Y-142494000D03*
%TO.N,unconnected-(J4-Pad14)*%
X108712000Y-142494000D03*
%TO.N,Net-(J4-Pad15)*%
X106172000Y-145034000D03*
%TO.N,unconnected-(J4-Pad16)*%
X108712000Y-145034000D03*
%TO.N,unconnected-(J4-Pad17)*%
X106172000Y-147574000D03*
%TO.N,unconnected-(J4-Pad18)*%
X108712000Y-147574000D03*
%TO.N,unconnected-(J4-Pad19)*%
X106172000Y-150114000D03*
%TO.N,unconnected-(J4-Pad20)*%
X108712000Y-150114000D03*
%TD*%
D15*
%TO.N,Net-(J3-Pad1)*%
%TO.C,J3*%
X106172000Y-63754000D03*
D16*
%TO.N,unconnected-(J3-Pad2)*%
X108712000Y-63754000D03*
%TO.N,unconnected-(J3-Pad3)*%
X106172000Y-66294000D03*
%TO.N,unconnected-(J3-Pad4)*%
X108712000Y-66294000D03*
%TO.N,Net-(J3-Pad5)*%
X106172000Y-68834000D03*
%TO.N,unconnected-(J3-Pad6)*%
X108712000Y-68834000D03*
%TO.N,unconnected-(J3-Pad7)*%
X106172000Y-71374000D03*
%TO.N,unconnected-(J3-Pad8)*%
X108712000Y-71374000D03*
%TO.N,Net-(J3-Pad9)*%
X106172000Y-73914000D03*
%TO.N,unconnected-(J3-Pad10)*%
X108712000Y-73914000D03*
%TO.N,unconnected-(J3-Pad11)*%
X106172000Y-76454000D03*
%TO.N,unconnected-(J3-Pad12)*%
X108712000Y-76454000D03*
%TO.N,RST*%
X106172000Y-78994000D03*
%TO.N,unconnected-(J3-Pad14)*%
X108712000Y-78994000D03*
%TO.N,FLT*%
X106172000Y-81534000D03*
%TO.N,unconnected-(J3-Pad16)*%
X108712000Y-81534000D03*
%TO.N,unconnected-(J3-Pad17)*%
X106172000Y-84074000D03*
%TO.N,Relay_Control*%
X108712000Y-84074000D03*
%TO.N,unconnected-(J3-Pad19)*%
X106172000Y-86614000D03*
%TO.N,RDY*%
X108712000Y-86614000D03*
%TD*%
D10*
%TO.N,GND*%
%TO.C,J7*%
X126840000Y-83764500D03*
D11*
%TO.N,+5V*%
X126840000Y-86764500D03*
%TO.N,GND*%
X123840000Y-83764500D03*
%TO.N,+5V*%
X123840000Y-86764500D03*
%TD*%
D15*
%TO.N,+3V3*%
%TO.C,J1*%
X62992000Y-63754000D03*
D16*
%TO.N,+5V*%
X65532000Y-63754000D03*
%TO.N,unconnected-(J1-Pad3)*%
X62992000Y-66294000D03*
%TO.N,GND*%
X65532000Y-66294000D03*
%TO.N,TXD*%
X62992000Y-68834000D03*
%TO.N,Net-(J1-Pad6)*%
X65532000Y-68834000D03*
%TO.N,RXD*%
X62992000Y-71374000D03*
%TO.N,Net-(J1-Pad8)*%
X65532000Y-71374000D03*
%TO.N,unconnected-(J1-Pad9)*%
X62992000Y-73914000D03*
%TO.N,Net-(J1-Pad10)*%
X65532000Y-73914000D03*
%TO.N,unconnected-(J1-Pad11)*%
X62992000Y-76454000D03*
%TO.N,unconnected-(J1-Pad12)*%
X65532000Y-76454000D03*
%TO.N,unconnected-(J1-Pad13)*%
X62992000Y-78994000D03*
%TO.N,Net-(J1-Pad14)*%
X65532000Y-78994000D03*
%TO.N,unconnected-(J1-Pad15)*%
X62992000Y-81534000D03*
%TO.N,Net-(J1-Pad16)*%
X65532000Y-81534000D03*
%TO.N,unconnected-(J1-Pad17)*%
X62992000Y-84074000D03*
%TO.N,Net-(J1-Pad18)*%
X65532000Y-84074000D03*
%TO.N,unconnected-(J1-Pad19)*%
X62992000Y-86614000D03*
%TO.N,Net-(J1-Pad20)*%
X65532000Y-86614000D03*
%TD*%
D17*
%TO.N,+5V*%
X118110000Y-86360000D03*
X124705000Y-111515000D03*
X92267000Y-40959000D03*
X118110000Y-87376000D03*
%TO.N,+3V3*%
X82550000Y-102362000D03*
X93218000Y-121158000D03*
X94488000Y-141986000D03*
X71882000Y-58674000D03*
X118204000Y-56642000D03*
X122428000Y-36576000D03*
X118204000Y-57658000D03*
%TO.N,+5VD*%
X98298000Y-121158000D03*
%TO.N,GND2*%
X98298000Y-113538000D03*
%TO.N,Temp*%
X86106000Y-117094000D03*
%TO.N,GND*%
X76438000Y-58674000D03*
X82804000Y-98806000D03*
X77978000Y-98806000D03*
X90678000Y-141986000D03*
X86106000Y-120650000D03*
X82042000Y-35052000D03*
X93218000Y-113538000D03*
X87376000Y-94488000D03*
X98806000Y-46228000D03*
X79226500Y-120650000D03*
X118110000Y-42926000D03*
X82550000Y-110490000D03*
X78994000Y-114046000D03*
X118110000Y-83312000D03*
X82801250Y-94485250D03*
X118110000Y-84328000D03*
X77978000Y-94488000D03*
X118110000Y-41910000D03*
X118110000Y-54610000D03*
X124714000Y-105410000D03*
X86106000Y-114046000D03*
X118110000Y-53594000D03*
%TO.N,Temp_ADC*%
X86868000Y-86106000D03*
X82550000Y-86106000D03*
%TO.N,IN-*%
X94869000Y-38735000D03*
%TO.N,IN+*%
X96139000Y-38735000D03*
%TO.N,V_OUT*%
X80285500Y-90191500D03*
%TO.N,V_IN*%
X85090000Y-90170000D03*
%TO.N,PWM_IN*%
X101362000Y-49546000D03*
%TO.N,TXD*%
X64262000Y-116078000D03*
X60452000Y-116078000D03*
%TO.N,Net-(D1-Pad4)*%
X77978000Y-37084000D03*
%TD*%
D18*
%TO.N,Temp*%
X86106000Y-116840000D02*
X86106000Y-117094000D01*
X126840000Y-72342000D02*
X115062000Y-84120000D01*
X115062000Y-84120000D02*
X115062000Y-87884000D01*
X115062000Y-87884000D02*
X86106000Y-116840000D01*
%TD*%
%TA.AperFunction,Conductor*%
%TO.N,Net-(D1-Pad4)*%
G36*
X127958121Y-26182002D02*
G01*
X128004614Y-26235658D01*
X128016000Y-26288000D01*
X128016000Y-37720000D01*
X127995998Y-37788121D01*
X127942342Y-37834614D01*
X127890000Y-37846000D01*
X123442681Y-37846000D01*
X123374560Y-37825998D01*
X123328067Y-37772342D01*
X123317963Y-37702068D01*
X123347457Y-37637488D01*
X123353741Y-37630749D01*
X123417013Y-37567697D01*
X123498190Y-37486803D01*
X123556269Y-37405978D01*
X123629559Y-37303983D01*
X123632577Y-37299783D01*
X123734615Y-37093325D01*
X123770628Y-36974794D01*
X123800059Y-36877927D01*
X123800060Y-36877921D01*
X123801563Y-36872975D01*
X123831622Y-36644649D01*
X123833300Y-36576000D01*
X123814430Y-36346478D01*
X123768936Y-36165362D01*
X123759585Y-36128132D01*
X123759585Y-36128131D01*
X123758326Y-36123120D01*
X123742211Y-36086057D01*
X123668556Y-35916661D01*
X123668554Y-35916658D01*
X123666496Y-35911924D01*
X123589964Y-35793624D01*
X123544215Y-35722906D01*
X123544213Y-35722903D01*
X123541405Y-35718563D01*
X123520774Y-35695889D01*
X123389890Y-35552051D01*
X123389889Y-35552050D01*
X123386412Y-35548229D01*
X123382361Y-35545030D01*
X123382357Y-35545026D01*
X123209735Y-35408697D01*
X123209730Y-35408693D01*
X123205681Y-35405496D01*
X123201165Y-35403003D01*
X123201162Y-35403001D01*
X123008589Y-35296695D01*
X123008585Y-35296693D01*
X123004065Y-35294198D01*
X122999196Y-35292474D01*
X122999192Y-35292472D01*
X122791853Y-35219049D01*
X122791849Y-35219048D01*
X122786978Y-35217323D01*
X122781885Y-35216416D01*
X122781882Y-35216415D01*
X122685707Y-35199284D01*
X122560250Y-35176937D01*
X122473802Y-35175881D01*
X122335141Y-35174186D01*
X122335139Y-35174186D01*
X122329971Y-35174123D01*
X122102325Y-35208958D01*
X121883424Y-35280506D01*
X121679149Y-35386845D01*
X121494984Y-35525119D01*
X121335877Y-35691616D01*
X121332963Y-35695888D01*
X121332962Y-35695889D01*
X121278462Y-35775783D01*
X121206099Y-35881863D01*
X121203923Y-35886552D01*
X121203919Y-35886558D01*
X121114867Y-36078405D01*
X121109136Y-36090752D01*
X121047592Y-36312673D01*
X121047043Y-36317810D01*
X121029430Y-36482616D01*
X121023119Y-36541665D01*
X121023416Y-36546817D01*
X121023416Y-36546821D01*
X121033795Y-36726815D01*
X121036376Y-36771580D01*
X121037513Y-36776626D01*
X121037514Y-36776632D01*
X121059226Y-36872975D01*
X121087006Y-36996242D01*
X121088948Y-37001024D01*
X121088949Y-37001028D01*
X121125677Y-37091477D01*
X121173649Y-37209618D01*
X121293979Y-37405978D01*
X121444763Y-37580048D01*
X121448738Y-37583348D01*
X121448741Y-37583351D01*
X121496566Y-37623056D01*
X121536201Y-37681959D01*
X121537699Y-37752940D01*
X121500584Y-37813462D01*
X121436640Y-37844311D01*
X121416081Y-37846000D01*
X97279389Y-37846000D01*
X97211268Y-37825998D01*
X97186196Y-37804800D01*
X97115542Y-37727154D01*
X97097412Y-37707229D01*
X97093361Y-37704030D01*
X97093357Y-37704026D01*
X96920735Y-37567697D01*
X96920730Y-37567693D01*
X96916681Y-37564496D01*
X96912165Y-37562003D01*
X96912162Y-37562001D01*
X96719589Y-37455695D01*
X96719585Y-37455693D01*
X96715065Y-37453198D01*
X96710196Y-37451474D01*
X96710192Y-37451472D01*
X96502853Y-37378049D01*
X96502849Y-37378048D01*
X96497978Y-37376323D01*
X96492885Y-37375416D01*
X96492882Y-37375415D01*
X96396707Y-37358284D01*
X96271250Y-37335937D01*
X96184802Y-37334881D01*
X96046141Y-37333186D01*
X96046139Y-37333186D01*
X96040971Y-37333123D01*
X95813325Y-37367958D01*
X95594424Y-37439506D01*
X95589836Y-37441894D01*
X95589832Y-37441896D01*
X95564716Y-37454971D01*
X95495057Y-37468684D01*
X95454954Y-37456376D01*
X95454307Y-37457816D01*
X95449588Y-37455695D01*
X95445065Y-37453198D01*
X95440196Y-37451474D01*
X95440192Y-37451472D01*
X95232853Y-37378049D01*
X95232849Y-37378048D01*
X95227978Y-37376323D01*
X95222885Y-37375416D01*
X95222882Y-37375415D01*
X95126707Y-37358284D01*
X95001250Y-37335937D01*
X94914802Y-37334881D01*
X94776141Y-37333186D01*
X94776139Y-37333186D01*
X94770971Y-37333123D01*
X94543325Y-37367958D01*
X94324424Y-37439506D01*
X94120149Y-37545845D01*
X93935984Y-37684119D01*
X93932410Y-37687859D01*
X93818508Y-37807051D01*
X93756984Y-37842481D01*
X93727414Y-37846000D01*
X77088000Y-37846000D01*
X77019879Y-37825998D01*
X76973386Y-37772342D01*
X76962000Y-37720000D01*
X76962000Y-35017665D01*
X80637119Y-35017665D01*
X80637416Y-35022817D01*
X80637416Y-35022821D01*
X80642864Y-35117296D01*
X80650376Y-35247580D01*
X80651513Y-35252626D01*
X80651514Y-35252632D01*
X80673226Y-35348975D01*
X80701006Y-35472242D01*
X80702948Y-35477024D01*
X80702949Y-35477028D01*
X80740427Y-35569325D01*
X80787649Y-35685618D01*
X80907979Y-35881978D01*
X81058763Y-36056048D01*
X81235953Y-36203154D01*
X81434790Y-36319345D01*
X81649934Y-36401501D01*
X81655000Y-36402532D01*
X81655001Y-36402532D01*
X81755697Y-36423018D01*
X81875607Y-36447414D01*
X82005352Y-36452172D01*
X82100585Y-36455664D01*
X82100589Y-36455664D01*
X82105749Y-36455853D01*
X82110869Y-36455197D01*
X82110871Y-36455197D01*
X82180272Y-36446307D01*
X82334178Y-36426591D01*
X82339126Y-36425106D01*
X82339133Y-36425105D01*
X82549811Y-36361898D01*
X82549810Y-36361898D01*
X82554761Y-36360413D01*
X82761574Y-36259096D01*
X82949062Y-36125363D01*
X83112190Y-35962803D01*
X83170269Y-35881978D01*
X83243559Y-35779983D01*
X83246577Y-35775783D01*
X83272711Y-35722906D01*
X83346321Y-35573966D01*
X83348615Y-35569325D01*
X83397418Y-35408697D01*
X83414059Y-35353927D01*
X83414060Y-35353921D01*
X83415563Y-35348975D01*
X83429592Y-35242411D01*
X83445185Y-35123971D01*
X83445185Y-35123965D01*
X83445622Y-35120649D01*
X83447300Y-35052000D01*
X83428430Y-34822478D01*
X83372326Y-34599120D01*
X83368131Y-34589471D01*
X109916955Y-34589471D01*
X109941914Y-34906607D01*
X110005336Y-35218338D01*
X110106276Y-35520016D01*
X110243229Y-35807143D01*
X110414153Y-36075440D01*
X110616500Y-36320907D01*
X110847254Y-36539884D01*
X111102975Y-36729108D01*
X111168908Y-36766411D01*
X111376492Y-36883857D01*
X111376496Y-36883859D01*
X111379849Y-36885756D01*
X111673751Y-37007494D01*
X111775083Y-37035596D01*
X111976582Y-37091477D01*
X111976590Y-37091479D01*
X111980298Y-37092507D01*
X112294921Y-37139528D01*
X112298219Y-37139672D01*
X112407427Y-37144440D01*
X112407432Y-37144440D01*
X112408804Y-37144500D01*
X112602799Y-37144500D01*
X112839524Y-37130021D01*
X112843307Y-37129320D01*
X112843314Y-37129319D01*
X113012477Y-37097966D01*
X113152313Y-37072049D01*
X113392744Y-36996242D01*
X113452035Y-36977548D01*
X113452038Y-36977547D01*
X113455707Y-36976390D01*
X113459204Y-36974796D01*
X113459210Y-36974794D01*
X113741673Y-36846068D01*
X113741677Y-36846066D01*
X113745181Y-36844469D01*
X113930334Y-36731007D01*
X114013142Y-36680262D01*
X114013145Y-36680260D01*
X114016420Y-36678253D01*
X114019424Y-36675863D01*
X114019429Y-36675860D01*
X114262370Y-36482616D01*
X114265381Y-36480221D01*
X114289328Y-36455853D01*
X114430030Y-36312673D01*
X114488352Y-36253324D01*
X114529385Y-36199849D01*
X114679674Y-36003989D01*
X114679679Y-36003981D01*
X114682009Y-36000945D01*
X114754674Y-35877584D01*
X114841513Y-35730162D01*
X114841515Y-35730159D01*
X114843466Y-35726846D01*
X114970315Y-35435114D01*
X114979828Y-35403001D01*
X115016588Y-35278899D01*
X115060665Y-35130097D01*
X115113169Y-34816343D01*
X115127045Y-34498529D01*
X115103464Y-34198906D01*
X115102388Y-34185228D01*
X115102388Y-34185225D01*
X115102086Y-34181393D01*
X115038664Y-33869662D01*
X114937724Y-33567984D01*
X114800771Y-33280857D01*
X114629847Y-33012560D01*
X114427500Y-32767093D01*
X114196746Y-32548116D01*
X113941025Y-32358892D01*
X113740680Y-32245542D01*
X113667508Y-32204143D01*
X113667504Y-32204141D01*
X113664151Y-32202244D01*
X113370249Y-32080506D01*
X113268917Y-32052404D01*
X113067418Y-31996523D01*
X113067410Y-31996521D01*
X113063702Y-31995493D01*
X112749079Y-31948472D01*
X112745781Y-31948328D01*
X112636573Y-31943560D01*
X112636568Y-31943560D01*
X112635196Y-31943500D01*
X112441201Y-31943500D01*
X112204476Y-31957979D01*
X112200693Y-31958680D01*
X112200686Y-31958681D01*
X112048082Y-31986965D01*
X111891687Y-32015951D01*
X111711997Y-32072606D01*
X111591965Y-32110452D01*
X111591962Y-32110453D01*
X111588293Y-32111610D01*
X111584796Y-32113204D01*
X111584790Y-32113206D01*
X111302327Y-32241932D01*
X111302323Y-32241934D01*
X111298819Y-32243531D01*
X111295540Y-32245541D01*
X111295537Y-32245542D01*
X111106826Y-32361185D01*
X111027580Y-32409747D01*
X111024576Y-32412137D01*
X111024571Y-32412140D01*
X110805962Y-32586030D01*
X110778619Y-32607779D01*
X110555648Y-32834676D01*
X110553307Y-32837727D01*
X110553306Y-32837728D01*
X110364326Y-33084011D01*
X110364321Y-33084019D01*
X110361991Y-33087055D01*
X110360042Y-33090364D01*
X110245792Y-33284322D01*
X110200534Y-33361154D01*
X110073685Y-33652886D01*
X109983335Y-33957903D01*
X109930831Y-34271657D01*
X109916955Y-34589471D01*
X83368131Y-34589471D01*
X83280496Y-34387924D01*
X83155405Y-34194563D01*
X83143422Y-34181393D01*
X83003890Y-34028051D01*
X83003889Y-34028050D01*
X83000412Y-34024229D01*
X82996361Y-34021030D01*
X82996357Y-34021026D01*
X82823735Y-33884697D01*
X82823730Y-33884693D01*
X82819681Y-33881496D01*
X82815165Y-33879003D01*
X82815162Y-33879001D01*
X82622589Y-33772695D01*
X82622585Y-33772693D01*
X82618065Y-33770198D01*
X82613196Y-33768474D01*
X82613192Y-33768472D01*
X82405853Y-33695049D01*
X82405849Y-33695048D01*
X82400978Y-33693323D01*
X82395885Y-33692416D01*
X82395882Y-33692415D01*
X82299707Y-33675284D01*
X82174250Y-33652937D01*
X82087802Y-33651881D01*
X81949141Y-33650186D01*
X81949139Y-33650186D01*
X81943971Y-33650123D01*
X81716325Y-33684958D01*
X81497424Y-33756506D01*
X81293149Y-33862845D01*
X81108984Y-34001119D01*
X80949877Y-34167616D01*
X80820099Y-34357863D01*
X80817923Y-34362552D01*
X80817919Y-34362558D01*
X80806145Y-34387924D01*
X80723136Y-34566752D01*
X80661592Y-34788673D01*
X80637119Y-35017665D01*
X76962000Y-35017665D01*
X76962000Y-30606000D01*
X76982002Y-30537879D01*
X77035658Y-30491386D01*
X77088000Y-30480000D01*
X120650000Y-30480000D01*
X120650000Y-26288000D01*
X120670002Y-26219879D01*
X120723658Y-26173386D01*
X120776000Y-26162000D01*
X127890000Y-26162000D01*
X127958121Y-26182002D01*
G37*
%TD.AperFunction*%
%TD*%
%TA.AperFunction,Conductor*%
%TO.N,+3V3*%
G36*
X118560121Y-56154002D02*
G01*
X118606614Y-56207658D01*
X118618000Y-56260000D01*
X118618000Y-61596000D01*
X118597998Y-61664121D01*
X118544342Y-61710614D01*
X118492000Y-61722000D01*
X99568000Y-61722000D01*
X99568000Y-101557336D01*
X99547998Y-101625457D01*
X99531095Y-101646431D01*
X87612055Y-113565471D01*
X87549743Y-113599497D01*
X87478928Y-113594432D01*
X87422092Y-113551885D01*
X87407410Y-113526618D01*
X87397430Y-113503665D01*
X87344496Y-113381924D01*
X87219405Y-113188563D01*
X87198774Y-113165889D01*
X87067890Y-113022051D01*
X87067889Y-113022050D01*
X87064412Y-113018229D01*
X87060361Y-113015030D01*
X87060357Y-113015026D01*
X86887735Y-112878697D01*
X86887730Y-112878693D01*
X86883681Y-112875496D01*
X86879165Y-112873003D01*
X86879162Y-112873001D01*
X86686589Y-112766695D01*
X86686585Y-112766693D01*
X86682065Y-112764198D01*
X86677196Y-112762474D01*
X86677192Y-112762472D01*
X86469853Y-112689049D01*
X86469849Y-112689048D01*
X86464978Y-112687323D01*
X86459885Y-112686416D01*
X86459882Y-112686415D01*
X86363707Y-112669284D01*
X86238250Y-112646937D01*
X86151802Y-112645881D01*
X86013141Y-112644186D01*
X86013139Y-112644186D01*
X86007971Y-112644123D01*
X85780325Y-112678958D01*
X85561424Y-112750506D01*
X85357149Y-112856845D01*
X85172984Y-112995119D01*
X85013877Y-113161616D01*
X84884099Y-113351863D01*
X84881923Y-113356552D01*
X84881919Y-113356558D01*
X84802980Y-113526618D01*
X84787136Y-113560752D01*
X84725592Y-113782673D01*
X84701119Y-114011665D01*
X84701416Y-114016817D01*
X84701416Y-114016821D01*
X84703636Y-114055325D01*
X84714376Y-114241580D01*
X84715513Y-114246626D01*
X84715514Y-114246632D01*
X84737226Y-114342975D01*
X84765006Y-114466242D01*
X84766948Y-114471024D01*
X84766949Y-114471028D01*
X84825151Y-114614361D01*
X84851649Y-114679618D01*
X84971979Y-114875978D01*
X85122763Y-115050048D01*
X85299953Y-115197154D01*
X85498790Y-115313345D01*
X85503610Y-115315186D01*
X85503615Y-115315188D01*
X85540922Y-115329434D01*
X85581607Y-115344970D01*
X85638109Y-115387956D01*
X85662402Y-115454667D01*
X85646772Y-115523922D01*
X85625752Y-115551774D01*
X85286016Y-115891510D01*
X85273626Y-115902377D01*
X85256146Y-115915790D01*
X85201958Y-115975342D01*
X85201654Y-115975676D01*
X85197555Y-115979971D01*
X85181720Y-115995806D01*
X85165083Y-116015704D01*
X85161632Y-116019659D01*
X85105914Y-116080893D01*
X85096470Y-116095948D01*
X85086401Y-116109806D01*
X85075003Y-116123438D01*
X85072224Y-116128310D01*
X85072222Y-116128313D01*
X85051239Y-116165101D01*
X85032885Y-116189725D01*
X85013877Y-116209616D01*
X84884099Y-116399863D01*
X84881923Y-116404552D01*
X84881919Y-116404558D01*
X84791214Y-116599966D01*
X84787136Y-116608752D01*
X84725592Y-116830673D01*
X84725043Y-116835810D01*
X84709141Y-116984606D01*
X84701119Y-117059665D01*
X84701416Y-117064817D01*
X84701416Y-117064821D01*
X84708561Y-117188728D01*
X84714376Y-117289580D01*
X84715513Y-117294626D01*
X84715514Y-117294632D01*
X84736198Y-117386413D01*
X84765006Y-117514242D01*
X84766948Y-117519024D01*
X84766949Y-117519028D01*
X84804427Y-117611325D01*
X84851649Y-117727618D01*
X84971979Y-117923978D01*
X85122763Y-118098048D01*
X85299953Y-118245154D01*
X85498790Y-118361345D01*
X85713934Y-118443501D01*
X85719000Y-118444532D01*
X85719001Y-118444532D01*
X85819697Y-118465018D01*
X85939607Y-118489414D01*
X86069352Y-118494172D01*
X86164585Y-118497664D01*
X86164589Y-118497664D01*
X86169749Y-118497853D01*
X86174869Y-118497197D01*
X86174871Y-118497197D01*
X86244272Y-118488307D01*
X86398178Y-118468591D01*
X86403126Y-118467106D01*
X86403133Y-118467105D01*
X86613811Y-118403898D01*
X86613810Y-118403898D01*
X86618761Y-118402413D01*
X86825574Y-118301096D01*
X87013062Y-118167363D01*
X87176190Y-118004803D01*
X87234269Y-117923978D01*
X87307559Y-117821983D01*
X87310577Y-117817783D01*
X87412615Y-117611325D01*
X87451952Y-117481853D01*
X87478059Y-117395927D01*
X87478060Y-117395921D01*
X87479563Y-117390975D01*
X87497641Y-117253654D01*
X87526363Y-117188728D01*
X87533468Y-117181006D01*
X91651836Y-113062638D01*
X91714148Y-113028612D01*
X91784963Y-113033677D01*
X91841799Y-113076224D01*
X91866610Y-113142744D01*
X91862349Y-113185400D01*
X91837592Y-113274673D01*
X91837043Y-113279810D01*
X91825624Y-113386661D01*
X91813119Y-113503665D01*
X91813416Y-113508817D01*
X91813416Y-113508821D01*
X91818004Y-113588381D01*
X91826376Y-113733580D01*
X91827513Y-113738626D01*
X91827514Y-113738632D01*
X91838597Y-113787810D01*
X91877006Y-113958242D01*
X91878948Y-113963024D01*
X91878949Y-113963028D01*
X91916427Y-114055325D01*
X91963649Y-114171618D01*
X92083979Y-114367978D01*
X92234763Y-114542048D01*
X92411953Y-114689154D01*
X92610790Y-114805345D01*
X92825934Y-114887501D01*
X92831000Y-114888532D01*
X92831001Y-114888532D01*
X92924214Y-114907496D01*
X93051607Y-114933414D01*
X93181352Y-114938172D01*
X93276585Y-114941664D01*
X93276589Y-114941664D01*
X93281749Y-114941853D01*
X93286869Y-114941197D01*
X93286871Y-114941197D01*
X93505050Y-114913248D01*
X93505051Y-114913248D01*
X93510178Y-114912591D01*
X93515129Y-114911106D01*
X93515132Y-114911105D01*
X93563793Y-114896506D01*
X93634788Y-114896090D01*
X93694738Y-114934122D01*
X93724610Y-114998528D01*
X93726000Y-115017192D01*
X93726000Y-122174000D01*
X97283672Y-122174000D01*
X97351793Y-122194002D01*
X97364157Y-122203056D01*
X97491953Y-122309154D01*
X97690790Y-122425345D01*
X97905934Y-122507501D01*
X97911000Y-122508532D01*
X97911001Y-122508532D01*
X98011697Y-122529018D01*
X98131607Y-122553414D01*
X98261352Y-122558172D01*
X98356585Y-122561664D01*
X98356589Y-122561664D01*
X98361749Y-122561853D01*
X98366869Y-122561197D01*
X98366871Y-122561197D01*
X98436272Y-122552307D01*
X98590178Y-122532591D01*
X98595126Y-122531106D01*
X98595133Y-122531105D01*
X98805811Y-122467898D01*
X98805810Y-122467898D01*
X98810761Y-122466413D01*
X99017574Y-122365096D01*
X99205062Y-122231363D01*
X99353061Y-122083880D01*
X99415431Y-122049964D01*
X99486238Y-122055152D01*
X99543000Y-122097798D01*
X99567694Y-122164361D01*
X99568000Y-122173131D01*
X99568000Y-160926000D01*
X99547998Y-160994121D01*
X99494342Y-161040614D01*
X99442000Y-161052000D01*
X61116013Y-161052000D01*
X61047892Y-161031998D01*
X61001399Y-160978342D01*
X60991295Y-160908068D01*
X61020789Y-160843488D01*
X61026143Y-160837686D01*
X61145650Y-160716075D01*
X61145661Y-160716063D01*
X61148352Y-160713324D01*
X61150694Y-160710272D01*
X61339674Y-160463989D01*
X61339679Y-160463981D01*
X61342009Y-160460945D01*
X61400231Y-160362104D01*
X61501513Y-160190162D01*
X61501515Y-160190159D01*
X61503466Y-160186846D01*
X61630315Y-159895114D01*
X61720665Y-159590097D01*
X61773169Y-159276343D01*
X61787045Y-158958529D01*
X61762086Y-158641393D01*
X61698664Y-158329662D01*
X61597724Y-158027984D01*
X61460771Y-157740857D01*
X61289847Y-157472560D01*
X61087500Y-157227093D01*
X60856746Y-157008116D01*
X60601025Y-156818892D01*
X60400680Y-156705542D01*
X60327508Y-156664143D01*
X60327504Y-156664141D01*
X60324151Y-156662244D01*
X60030249Y-156540506D01*
X59928917Y-156512404D01*
X59727418Y-156456523D01*
X59727410Y-156456521D01*
X59723702Y-156455493D01*
X59409079Y-156408472D01*
X59405781Y-156408328D01*
X59296573Y-156403560D01*
X59296568Y-156403560D01*
X59295196Y-156403500D01*
X59101201Y-156403500D01*
X58864476Y-156417979D01*
X58860693Y-156418680D01*
X58860686Y-156418681D01*
X58708082Y-156446965D01*
X58551687Y-156475951D01*
X58371997Y-156532606D01*
X58251965Y-156570452D01*
X58251962Y-156570453D01*
X58248293Y-156571610D01*
X58244796Y-156573204D01*
X58244790Y-156573206D01*
X57962327Y-156701932D01*
X57962323Y-156701934D01*
X57958819Y-156703531D01*
X57955540Y-156705541D01*
X57955537Y-156705542D01*
X57724997Y-156846818D01*
X57687580Y-156869747D01*
X57684576Y-156872137D01*
X57684571Y-156872140D01*
X57592437Y-156945427D01*
X57526673Y-156972179D01*
X57456886Y-156959130D01*
X57405232Y-156910423D01*
X57388000Y-156846818D01*
X57388000Y-150055726D01*
X61137688Y-150055726D01*
X61147977Y-150317582D01*
X61195058Y-150575376D01*
X61277994Y-150823965D01*
X61279987Y-150827953D01*
X61357018Y-150982116D01*
X61395128Y-151058387D01*
X61544124Y-151273967D01*
X61650230Y-151388751D01*
X61665321Y-151405076D01*
X61722010Y-151466402D01*
X61725464Y-151469214D01*
X61921778Y-151629039D01*
X61921782Y-151629042D01*
X61925235Y-151631853D01*
X62149745Y-151767019D01*
X62262545Y-151814784D01*
X62386962Y-151867468D01*
X62386966Y-151867469D01*
X62391060Y-151869203D01*
X62395352Y-151870341D01*
X62395355Y-151870342D01*
X62496125Y-151897061D01*
X62644365Y-151936366D01*
X62648789Y-151936890D01*
X62648791Y-151936890D01*
X62799572Y-151954736D01*
X62904607Y-151967167D01*
X63166592Y-151960993D01*
X63170986Y-151960262D01*
X63170993Y-151960261D01*
X63420692Y-151918700D01*
X63420696Y-151918699D01*
X63425094Y-151917967D01*
X63589061Y-151866111D01*
X63670709Y-151840289D01*
X63670711Y-151840288D01*
X63674955Y-151838946D01*
X63678966Y-151837020D01*
X63678971Y-151837018D01*
X63907169Y-151727439D01*
X63907170Y-151727438D01*
X63911188Y-151725509D01*
X64055566Y-151629039D01*
X64125374Y-151582395D01*
X64125379Y-151582391D01*
X64129082Y-151579917D01*
X64132398Y-151576946D01*
X64132403Y-151576943D01*
X64178606Y-151535560D01*
X64242694Y-151505011D01*
X64313125Y-151513960D01*
X64342221Y-151531704D01*
X64461778Y-151629039D01*
X64461782Y-151629042D01*
X64465235Y-151631853D01*
X64689745Y-151767019D01*
X64802545Y-151814784D01*
X64926962Y-151867468D01*
X64926966Y-151867469D01*
X64931060Y-151869203D01*
X64935352Y-151870341D01*
X64935355Y-151870342D01*
X65036125Y-151897061D01*
X65184365Y-151936366D01*
X65188789Y-151936890D01*
X65188791Y-151936890D01*
X65339572Y-151954736D01*
X65444607Y-151967167D01*
X65706592Y-151960993D01*
X65710986Y-151960262D01*
X65710993Y-151960261D01*
X65960692Y-151918700D01*
X65960696Y-151918699D01*
X65965094Y-151917967D01*
X66129061Y-151866111D01*
X66210709Y-151840289D01*
X66210711Y-151840288D01*
X66214955Y-151838946D01*
X66218966Y-151837020D01*
X66218971Y-151837018D01*
X66447169Y-151727439D01*
X66447170Y-151727438D01*
X66451188Y-151725509D01*
X66595566Y-151629039D01*
X66665380Y-151582391D01*
X66665384Y-151582388D01*
X66669082Y-151579917D01*
X66864287Y-151405076D01*
X66974496Y-151273967D01*
X67030043Y-151207886D01*
X67030045Y-151207884D01*
X67032910Y-151204475D01*
X67171586Y-150982116D01*
X67239741Y-150827953D01*
X67275749Y-150746503D01*
X67277547Y-150742436D01*
X67348681Y-150490216D01*
X67371280Y-150321962D01*
X67383139Y-150233673D01*
X67383140Y-150233665D01*
X67383566Y-150230491D01*
X67387227Y-150114000D01*
X67368719Y-149852596D01*
X67313563Y-149596408D01*
X67294610Y-149545032D01*
X67224401Y-149354724D01*
X67222860Y-149350547D01*
X67098420Y-149119920D01*
X67095774Y-149116337D01*
X66947735Y-148915907D01*
X66923353Y-148849228D01*
X66938890Y-148779953D01*
X66952636Y-148759973D01*
X67030045Y-148667883D01*
X67032910Y-148664475D01*
X67171586Y-148442116D01*
X67239741Y-148287953D01*
X67275749Y-148206503D01*
X67277547Y-148202436D01*
X67348681Y-147950216D01*
X67371280Y-147781962D01*
X67383139Y-147693673D01*
X67383140Y-147693665D01*
X67383566Y-147690491D01*
X67387227Y-147574000D01*
X67368719Y-147312596D01*
X67313563Y-147056408D01*
X67294610Y-147005032D01*
X67224401Y-146814724D01*
X67222860Y-146810547D01*
X67098420Y-146579920D01*
X67095774Y-146576337D01*
X66947735Y-146375907D01*
X66923353Y-146309228D01*
X66938890Y-146239953D01*
X66952636Y-146219973D01*
X67030045Y-146127883D01*
X67032910Y-146124475D01*
X67171586Y-145902116D01*
X67239741Y-145747953D01*
X67275749Y-145666503D01*
X67277547Y-145662436D01*
X67348681Y-145410216D01*
X67371280Y-145241962D01*
X67383139Y-145153673D01*
X67383140Y-145153665D01*
X67383566Y-145150491D01*
X67387227Y-145034000D01*
X67368719Y-144772596D01*
X67313563Y-144516408D01*
X67294610Y-144465032D01*
X67224401Y-144274724D01*
X67222860Y-144270547D01*
X67098420Y-144039920D01*
X67095774Y-144036337D01*
X66947735Y-143835907D01*
X66923353Y-143769228D01*
X66938890Y-143699953D01*
X66952636Y-143679973D01*
X67030045Y-143587883D01*
X67032910Y-143584475D01*
X67171586Y-143362116D01*
X67183353Y-143335501D01*
X67275749Y-143126503D01*
X67277547Y-143122436D01*
X67348681Y-142870216D01*
X67356557Y-142811577D01*
X67383139Y-142613673D01*
X67383140Y-142613665D01*
X67383566Y-142610491D01*
X67387227Y-142494000D01*
X67368719Y-142232596D01*
X67313563Y-141976408D01*
X67304435Y-141951665D01*
X89273119Y-141951665D01*
X89273416Y-141956817D01*
X89273416Y-141956821D01*
X89278864Y-142051296D01*
X89286376Y-142181580D01*
X89287513Y-142186626D01*
X89287514Y-142186632D01*
X89309226Y-142282975D01*
X89337006Y-142406242D01*
X89338948Y-142411024D01*
X89338949Y-142411028D01*
X89376427Y-142503325D01*
X89423649Y-142619618D01*
X89543979Y-142815978D01*
X89694763Y-142990048D01*
X89871953Y-143137154D01*
X90070790Y-143253345D01*
X90285934Y-143335501D01*
X90291000Y-143336532D01*
X90291001Y-143336532D01*
X90391697Y-143357018D01*
X90511607Y-143381414D01*
X90641352Y-143386172D01*
X90736585Y-143389664D01*
X90736589Y-143389664D01*
X90741749Y-143389853D01*
X90746869Y-143389197D01*
X90746871Y-143389197D01*
X90816272Y-143380307D01*
X90970178Y-143360591D01*
X90975126Y-143359106D01*
X90975133Y-143359105D01*
X91185811Y-143295898D01*
X91185810Y-143295898D01*
X91190761Y-143294413D01*
X91397574Y-143193096D01*
X91585062Y-143059363D01*
X91748190Y-142896803D01*
X91806269Y-142815978D01*
X91879559Y-142713983D01*
X91882577Y-142709783D01*
X91886443Y-142701962D01*
X91982321Y-142507966D01*
X91984615Y-142503325D01*
X92015643Y-142401200D01*
X92050059Y-142287927D01*
X92050060Y-142287921D01*
X92051563Y-142282975D01*
X92081622Y-142054649D01*
X92083300Y-141986000D01*
X92064430Y-141756478D01*
X92008326Y-141533120D01*
X91916496Y-141321924D01*
X91811712Y-141159953D01*
X91794215Y-141132906D01*
X91794213Y-141132903D01*
X91791405Y-141128563D01*
X91781098Y-141117235D01*
X91639890Y-140962051D01*
X91639889Y-140962050D01*
X91636412Y-140958229D01*
X91632361Y-140955030D01*
X91632357Y-140955026D01*
X91459735Y-140818697D01*
X91459730Y-140818693D01*
X91455681Y-140815496D01*
X91451165Y-140813003D01*
X91451162Y-140813001D01*
X91258589Y-140706695D01*
X91258585Y-140706693D01*
X91254065Y-140704198D01*
X91249196Y-140702474D01*
X91249192Y-140702472D01*
X91041853Y-140629049D01*
X91041849Y-140629048D01*
X91036978Y-140627323D01*
X91031885Y-140626416D01*
X91031882Y-140626415D01*
X90935707Y-140609284D01*
X90810250Y-140586937D01*
X90723802Y-140585881D01*
X90585141Y-140584186D01*
X90585139Y-140584186D01*
X90579971Y-140584123D01*
X90352325Y-140618958D01*
X90133424Y-140690506D01*
X89929149Y-140796845D01*
X89744984Y-140935119D01*
X89585877Y-141101616D01*
X89582963Y-141105888D01*
X89582962Y-141105889D01*
X89546082Y-141159953D01*
X89456099Y-141291863D01*
X89453923Y-141296552D01*
X89453919Y-141296558D01*
X89361315Y-141496057D01*
X89359136Y-141500752D01*
X89297592Y-141722673D01*
X89297043Y-141727810D01*
X89276870Y-141916570D01*
X89273119Y-141951665D01*
X67304435Y-141951665D01*
X67294610Y-141925032D01*
X67224401Y-141734724D01*
X67222860Y-141730547D01*
X67098420Y-141499920D01*
X67095567Y-141496057D01*
X66947735Y-141295907D01*
X66923353Y-141229228D01*
X66938890Y-141159953D01*
X66952636Y-141139973D01*
X67030045Y-141047883D01*
X67032910Y-141044475D01*
X67171586Y-140822116D01*
X67182759Y-140796845D01*
X67275749Y-140586503D01*
X67277547Y-140582436D01*
X67348681Y-140330216D01*
X67371280Y-140161962D01*
X67383139Y-140073673D01*
X67383140Y-140073665D01*
X67383566Y-140070491D01*
X67387227Y-139954000D01*
X67368719Y-139692596D01*
X67313563Y-139436408D01*
X67294610Y-139385032D01*
X67224401Y-139194724D01*
X67222860Y-139190547D01*
X67098420Y-138959920D01*
X67095774Y-138956337D01*
X66947735Y-138755907D01*
X66923353Y-138689228D01*
X66938890Y-138619953D01*
X66952636Y-138599973D01*
X67030045Y-138507883D01*
X67032910Y-138504475D01*
X67171586Y-138282116D01*
X67239741Y-138127953D01*
X67275749Y-138046503D01*
X67277547Y-138042436D01*
X67348681Y-137790216D01*
X67371280Y-137621962D01*
X67383139Y-137533673D01*
X67383140Y-137533665D01*
X67383566Y-137530491D01*
X67387227Y-137414000D01*
X67368719Y-137152596D01*
X67313563Y-136896408D01*
X67294610Y-136845032D01*
X67224401Y-136654724D01*
X67222860Y-136650547D01*
X67098420Y-136419920D01*
X67095774Y-136416337D01*
X66947735Y-136215907D01*
X66923353Y-136149228D01*
X66938890Y-136079953D01*
X66952636Y-136059973D01*
X67030045Y-135967883D01*
X67032910Y-135964475D01*
X67171586Y-135742116D01*
X67239741Y-135587953D01*
X67275749Y-135506503D01*
X67277547Y-135502436D01*
X67348681Y-135250216D01*
X67371280Y-135081962D01*
X67383139Y-134993673D01*
X67383140Y-134993665D01*
X67383566Y-134990491D01*
X67387227Y-134874000D01*
X67368719Y-134612596D01*
X67313563Y-134356408D01*
X67294610Y-134305032D01*
X67224401Y-134114724D01*
X67222860Y-134110547D01*
X67098420Y-133879920D01*
X67095774Y-133876337D01*
X66947735Y-133675907D01*
X66923353Y-133609228D01*
X66938890Y-133539953D01*
X66952636Y-133519973D01*
X67030045Y-133427883D01*
X67032910Y-133424475D01*
X67171586Y-133202116D01*
X67239741Y-133047953D01*
X67275749Y-132966503D01*
X67277547Y-132962436D01*
X67348681Y-132710216D01*
X67371280Y-132541962D01*
X67383139Y-132453673D01*
X67383140Y-132453665D01*
X67383566Y-132450491D01*
X67387227Y-132334000D01*
X67368719Y-132072596D01*
X67313563Y-131816408D01*
X67294610Y-131765032D01*
X67224401Y-131574724D01*
X67222860Y-131570547D01*
X67098420Y-131339920D01*
X67095774Y-131336337D01*
X66947735Y-131135907D01*
X66923353Y-131069228D01*
X66938890Y-130999953D01*
X66952636Y-130979973D01*
X67030045Y-130887883D01*
X67032910Y-130884475D01*
X67171586Y-130662116D01*
X67239741Y-130507953D01*
X67275749Y-130426503D01*
X67277547Y-130422436D01*
X67348681Y-130170216D01*
X67371280Y-130001962D01*
X67383139Y-129913673D01*
X67383140Y-129913665D01*
X67383566Y-129910491D01*
X67387227Y-129794000D01*
X67368719Y-129532596D01*
X67313563Y-129276408D01*
X67294610Y-129225032D01*
X67224401Y-129034724D01*
X67222860Y-129030547D01*
X67098420Y-128799920D01*
X67095774Y-128796337D01*
X66947735Y-128595907D01*
X66923353Y-128529228D01*
X66938890Y-128459953D01*
X66952636Y-128439973D01*
X66983761Y-128402945D01*
X67032910Y-128344475D01*
X67171586Y-128122116D01*
X67185185Y-128091357D01*
X67275749Y-127886503D01*
X67277547Y-127882436D01*
X67348681Y-127630216D01*
X67371280Y-127461962D01*
X67383139Y-127373673D01*
X67383140Y-127373665D01*
X67383566Y-127370491D01*
X67387227Y-127254000D01*
X67368719Y-126992596D01*
X67313563Y-126736408D01*
X67294610Y-126685032D01*
X67224401Y-126494724D01*
X67222860Y-126490547D01*
X67098420Y-126259920D01*
X67073303Y-126225913D01*
X66945370Y-126052706D01*
X66942726Y-126049126D01*
X66758884Y-125862374D01*
X66690336Y-125810060D01*
X66554107Y-125706093D01*
X66554103Y-125706090D01*
X66550562Y-125703388D01*
X66321917Y-125575340D01*
X66317768Y-125573735D01*
X66317764Y-125573733D01*
X66170196Y-125516644D01*
X66077512Y-125480787D01*
X66073191Y-125479785D01*
X66073183Y-125479783D01*
X65905069Y-125440817D01*
X65822221Y-125421614D01*
X65561141Y-125399002D01*
X65556706Y-125399246D01*
X65556702Y-125399246D01*
X65303921Y-125413157D01*
X65303914Y-125413158D01*
X65299478Y-125413402D01*
X65042456Y-125464527D01*
X65038246Y-125466005D01*
X65038244Y-125466006D01*
X64893497Y-125516838D01*
X64795201Y-125551357D01*
X64791250Y-125553410D01*
X64791244Y-125553412D01*
X64663894Y-125619566D01*
X64562647Y-125672159D01*
X64559032Y-125674742D01*
X64559026Y-125674746D01*
X64353055Y-125821935D01*
X64353051Y-125821938D01*
X64349434Y-125824523D01*
X64159816Y-126005409D01*
X63997578Y-126211208D01*
X63995346Y-126215050D01*
X63995343Y-126215055D01*
X63919177Y-126346184D01*
X63865955Y-126437813D01*
X63864290Y-126441925D01*
X63864287Y-126441930D01*
X63769248Y-126676570D01*
X63767574Y-126680703D01*
X63704399Y-126935032D01*
X63677688Y-127195726D01*
X63687977Y-127457582D01*
X63735058Y-127715376D01*
X63736467Y-127719599D01*
X63796586Y-127899798D01*
X63799170Y-127970747D01*
X63762987Y-128031831D01*
X63699522Y-128063656D01*
X63631600Y-128057186D01*
X63541668Y-128022394D01*
X63541657Y-128022391D01*
X63537512Y-128020787D01*
X63533191Y-128019785D01*
X63533183Y-128019783D01*
X63365069Y-127980817D01*
X63282221Y-127961614D01*
X63021141Y-127939002D01*
X63016706Y-127939246D01*
X63016702Y-127939246D01*
X62763921Y-127953157D01*
X62763914Y-127953158D01*
X62759478Y-127953402D01*
X62502456Y-128004527D01*
X62255201Y-128091357D01*
X62251250Y-128093410D01*
X62251244Y-128093412D01*
X62195987Y-128122116D01*
X62022647Y-128212159D01*
X62019032Y-128214742D01*
X62019026Y-128214746D01*
X61813055Y-128361935D01*
X61813051Y-128361938D01*
X61809434Y-128364523D01*
X61619816Y-128545409D01*
X61457578Y-128751208D01*
X61455346Y-128755050D01*
X61455343Y-128755055D01*
X61328186Y-128973972D01*
X61325955Y-128977813D01*
X61324290Y-128981925D01*
X61324287Y-128981930D01*
X61229248Y-129216570D01*
X61227574Y-129220703D01*
X61164399Y-129475032D01*
X61137688Y-129735726D01*
X61147977Y-129997582D01*
X61195058Y-130255376D01*
X61277994Y-130503965D01*
X61279987Y-130507953D01*
X61357018Y-130662116D01*
X61395128Y-130738387D01*
X61544124Y-130953967D01*
X61567855Y-130979638D01*
X61599406Y-131043237D01*
X61591565Y-131113800D01*
X61574279Y-131143171D01*
X61460338Y-131287705D01*
X61460328Y-131287719D01*
X61457578Y-131291208D01*
X61455346Y-131295050D01*
X61455343Y-131295055D01*
X61328186Y-131513972D01*
X61325955Y-131517813D01*
X61324290Y-131521925D01*
X61324287Y-131521930D01*
X61229248Y-131756570D01*
X61227574Y-131760703D01*
X61164399Y-132015032D01*
X61137688Y-132275726D01*
X61147977Y-132537582D01*
X61195058Y-132795376D01*
X61277994Y-133043965D01*
X61279987Y-133047953D01*
X61357018Y-133202116D01*
X61395128Y-133278387D01*
X61544124Y-133493967D01*
X61567855Y-133519638D01*
X61599406Y-133583237D01*
X61591565Y-133653800D01*
X61574279Y-133683171D01*
X61460338Y-133827705D01*
X61460328Y-133827719D01*
X61457578Y-133831208D01*
X61455346Y-133835050D01*
X61455343Y-133835055D01*
X61328186Y-134053972D01*
X61325955Y-134057813D01*
X61324290Y-134061925D01*
X61324287Y-134061930D01*
X61229248Y-134296570D01*
X61227574Y-134300703D01*
X61164399Y-134555032D01*
X61137688Y-134815726D01*
X61147977Y-135077582D01*
X61195058Y-135335376D01*
X61277994Y-135583965D01*
X61279987Y-135587953D01*
X61357018Y-135742116D01*
X61395128Y-135818387D01*
X61544124Y-136033967D01*
X61567855Y-136059638D01*
X61599406Y-136123237D01*
X61591565Y-136193800D01*
X61574279Y-136223171D01*
X61460338Y-136367705D01*
X61460328Y-136367719D01*
X61457578Y-136371208D01*
X61455346Y-136375050D01*
X61455343Y-136375055D01*
X61328186Y-136593972D01*
X61325955Y-136597813D01*
X61324290Y-136601925D01*
X61324287Y-136601930D01*
X61229248Y-136836570D01*
X61227574Y-136840703D01*
X61164399Y-137095032D01*
X61137688Y-137355726D01*
X61147977Y-137617582D01*
X61195058Y-137875376D01*
X61277994Y-138123965D01*
X61279987Y-138127953D01*
X61357018Y-138282116D01*
X61395128Y-138358387D01*
X61544124Y-138573967D01*
X61567855Y-138599638D01*
X61599406Y-138663237D01*
X61591565Y-138733800D01*
X61574279Y-138763171D01*
X61460338Y-138907705D01*
X61460328Y-138907719D01*
X61457578Y-138911208D01*
X61455346Y-138915050D01*
X61455343Y-138915055D01*
X61328186Y-139133972D01*
X61325955Y-139137813D01*
X61324290Y-139141925D01*
X61324287Y-139141930D01*
X61229248Y-139376570D01*
X61227574Y-139380703D01*
X61164399Y-139635032D01*
X61137688Y-139895726D01*
X61147977Y-140157582D01*
X61195058Y-140415376D01*
X61196467Y-140419599D01*
X61262718Y-140618176D01*
X61277994Y-140663965D01*
X61279987Y-140667953D01*
X61357018Y-140822116D01*
X61395128Y-140898387D01*
X61436487Y-140958229D01*
X61535588Y-141101616D01*
X61544124Y-141113967D01*
X61567855Y-141139638D01*
X61599406Y-141203237D01*
X61591565Y-141273800D01*
X61574279Y-141303171D01*
X61460341Y-141447702D01*
X61460335Y-141447710D01*
X61457578Y-141451208D01*
X61455346Y-141455050D01*
X61455343Y-141455055D01*
X61407088Y-141538132D01*
X61325955Y-141677813D01*
X61324290Y-141681925D01*
X61324287Y-141681930D01*
X61296125Y-141751459D01*
X61227574Y-141920703D01*
X61164399Y-142175032D01*
X61137688Y-142435726D01*
X61141513Y-142533072D01*
X61144914Y-142619618D01*
X61147977Y-142697582D01*
X61195058Y-142955376D01*
X61277994Y-143203965D01*
X61279987Y-143207953D01*
X61370783Y-143389664D01*
X61395128Y-143438387D01*
X61544124Y-143653967D01*
X61567855Y-143679638D01*
X61599406Y-143743237D01*
X61591565Y-143813800D01*
X61574279Y-143843171D01*
X61460338Y-143987705D01*
X61460328Y-143987719D01*
X61457578Y-143991208D01*
X61455346Y-143995050D01*
X61455343Y-143995055D01*
X61328186Y-144213972D01*
X61325955Y-144217813D01*
X61324290Y-144221925D01*
X61324287Y-144221930D01*
X61229248Y-144456570D01*
X61227574Y-144460703D01*
X61164399Y-144715032D01*
X61137688Y-144975726D01*
X61147977Y-145237582D01*
X61195058Y-145495376D01*
X61277994Y-145743965D01*
X61279987Y-145747953D01*
X61357018Y-145902116D01*
X61395128Y-145978387D01*
X61544124Y-146193967D01*
X61567855Y-146219638D01*
X61599406Y-146283237D01*
X61591565Y-146353800D01*
X61574279Y-146383171D01*
X61460338Y-146527705D01*
X61460328Y-146527719D01*
X61457578Y-146531208D01*
X61455346Y-146535050D01*
X61455343Y-146535055D01*
X61328186Y-146753972D01*
X61325955Y-146757813D01*
X61324290Y-146761925D01*
X61324287Y-146761930D01*
X61229248Y-146996570D01*
X61227574Y-147000703D01*
X61164399Y-147255032D01*
X61137688Y-147515726D01*
X61147977Y-147777582D01*
X61195058Y-148035376D01*
X61277994Y-148283965D01*
X61279987Y-148287953D01*
X61357018Y-148442116D01*
X61395128Y-148518387D01*
X61544124Y-148733967D01*
X61567855Y-148759638D01*
X61599406Y-148823237D01*
X61591565Y-148893800D01*
X61574279Y-148923171D01*
X61460338Y-149067705D01*
X61460328Y-149067719D01*
X61457578Y-149071208D01*
X61455346Y-149075050D01*
X61455343Y-149075055D01*
X61328186Y-149293972D01*
X61325955Y-149297813D01*
X61324290Y-149301925D01*
X61324287Y-149301930D01*
X61229248Y-149536570D01*
X61227574Y-149540703D01*
X61164399Y-149795032D01*
X61137688Y-150055726D01*
X57388000Y-150055726D01*
X57388000Y-120615665D01*
X77821619Y-120615665D01*
X77821916Y-120620817D01*
X77821916Y-120620821D01*
X77826777Y-120705120D01*
X77834876Y-120845580D01*
X77836013Y-120850626D01*
X77836014Y-120850632D01*
X77857726Y-120946975D01*
X77885506Y-121070242D01*
X77887448Y-121075024D01*
X77887449Y-121075028D01*
X77924927Y-121167325D01*
X77972149Y-121283618D01*
X78092479Y-121479978D01*
X78243263Y-121654048D01*
X78420453Y-121801154D01*
X78619290Y-121917345D01*
X78834434Y-121999501D01*
X78839500Y-122000532D01*
X78839501Y-122000532D01*
X78940197Y-122021018D01*
X79060107Y-122045414D01*
X79189852Y-122050172D01*
X79285085Y-122053664D01*
X79285089Y-122053664D01*
X79290249Y-122053853D01*
X79295369Y-122053197D01*
X79295371Y-122053197D01*
X79364772Y-122044307D01*
X79518678Y-122024591D01*
X79523626Y-122023106D01*
X79523633Y-122023105D01*
X79734311Y-121959898D01*
X79734310Y-121959898D01*
X79739261Y-121958413D01*
X79946074Y-121857096D01*
X80133562Y-121723363D01*
X80296690Y-121560803D01*
X80354769Y-121479978D01*
X80428059Y-121377983D01*
X80431077Y-121373783D01*
X80533115Y-121167325D01*
X80564143Y-121065200D01*
X80598559Y-120951927D01*
X80598560Y-120951921D01*
X80600063Y-120946975D01*
X80630122Y-120718649D01*
X80631800Y-120650000D01*
X80628977Y-120615665D01*
X84701119Y-120615665D01*
X84701416Y-120620817D01*
X84701416Y-120620821D01*
X84706277Y-120705120D01*
X84714376Y-120845580D01*
X84715513Y-120850626D01*
X84715514Y-120850632D01*
X84737226Y-120946975D01*
X84765006Y-121070242D01*
X84766948Y-121075024D01*
X84766949Y-121075028D01*
X84804427Y-121167325D01*
X84851649Y-121283618D01*
X84971979Y-121479978D01*
X85122763Y-121654048D01*
X85299953Y-121801154D01*
X85498790Y-121917345D01*
X85713934Y-121999501D01*
X85719000Y-122000532D01*
X85719001Y-122000532D01*
X85819697Y-122021018D01*
X85939607Y-122045414D01*
X86069352Y-122050172D01*
X86164585Y-122053664D01*
X86164589Y-122053664D01*
X86169749Y-122053853D01*
X86174869Y-122053197D01*
X86174871Y-122053197D01*
X86244272Y-122044307D01*
X86398178Y-122024591D01*
X86403126Y-122023106D01*
X86403133Y-122023105D01*
X86613811Y-121959898D01*
X86613810Y-121959898D01*
X86618761Y-121958413D01*
X86825574Y-121857096D01*
X87013062Y-121723363D01*
X87176190Y-121560803D01*
X87234269Y-121479978D01*
X87307559Y-121377983D01*
X87310577Y-121373783D01*
X87412615Y-121167325D01*
X87443643Y-121065200D01*
X87478059Y-120951927D01*
X87478060Y-120951921D01*
X87479563Y-120946975D01*
X87509622Y-120718649D01*
X87511300Y-120650000D01*
X87492430Y-120420478D01*
X87436326Y-120197120D01*
X87382750Y-120073903D01*
X87346556Y-119990661D01*
X87346554Y-119990658D01*
X87344496Y-119985924D01*
X87224895Y-119801049D01*
X87222215Y-119796906D01*
X87222213Y-119796903D01*
X87219405Y-119792563D01*
X87198774Y-119769889D01*
X87067890Y-119626051D01*
X87067889Y-119626050D01*
X87064412Y-119622229D01*
X87060361Y-119619030D01*
X87060357Y-119619026D01*
X86887735Y-119482697D01*
X86887730Y-119482693D01*
X86883681Y-119479496D01*
X86879165Y-119477003D01*
X86879162Y-119477001D01*
X86686589Y-119370695D01*
X86686585Y-119370693D01*
X86682065Y-119368198D01*
X86677196Y-119366474D01*
X86677192Y-119366472D01*
X86469853Y-119293049D01*
X86469849Y-119293048D01*
X86464978Y-119291323D01*
X86459885Y-119290416D01*
X86459882Y-119290415D01*
X86363707Y-119273284D01*
X86238250Y-119250937D01*
X86151802Y-119249881D01*
X86013141Y-119248186D01*
X86013139Y-119248186D01*
X86007971Y-119248123D01*
X85780325Y-119282958D01*
X85561424Y-119354506D01*
X85357149Y-119460845D01*
X85172984Y-119599119D01*
X85013877Y-119765616D01*
X85010963Y-119769888D01*
X85010962Y-119769889D01*
X84989706Y-119801049D01*
X84884099Y-119955863D01*
X84881923Y-119960552D01*
X84881919Y-119960558D01*
X84789315Y-120160057D01*
X84787136Y-120164752D01*
X84725592Y-120386673D01*
X84701119Y-120615665D01*
X80628977Y-120615665D01*
X80612930Y-120420478D01*
X80556826Y-120197120D01*
X80503250Y-120073903D01*
X80467056Y-119990661D01*
X80467054Y-119990658D01*
X80464996Y-119985924D01*
X80345395Y-119801049D01*
X80342715Y-119796906D01*
X80342713Y-119796903D01*
X80339905Y-119792563D01*
X80319274Y-119769889D01*
X80188390Y-119626051D01*
X80188389Y-119626050D01*
X80184912Y-119622229D01*
X80180861Y-119619030D01*
X80180857Y-119619026D01*
X80008235Y-119482697D01*
X80008230Y-119482693D01*
X80004181Y-119479496D01*
X79999665Y-119477003D01*
X79999662Y-119477001D01*
X79807089Y-119370695D01*
X79807085Y-119370693D01*
X79802565Y-119368198D01*
X79797696Y-119366474D01*
X79797692Y-119366472D01*
X79590353Y-119293049D01*
X79590349Y-119293048D01*
X79585478Y-119291323D01*
X79580385Y-119290416D01*
X79580382Y-119290415D01*
X79484207Y-119273284D01*
X79358750Y-119250937D01*
X79272302Y-119249881D01*
X79133641Y-119248186D01*
X79133639Y-119248186D01*
X79128471Y-119248123D01*
X78900825Y-119282958D01*
X78681924Y-119354506D01*
X78477649Y-119460845D01*
X78293484Y-119599119D01*
X78134377Y-119765616D01*
X78131463Y-119769888D01*
X78131462Y-119769889D01*
X78110206Y-119801049D01*
X78004599Y-119955863D01*
X78002423Y-119960552D01*
X78002419Y-119960558D01*
X77909815Y-120160057D01*
X77907636Y-120164752D01*
X77846092Y-120386673D01*
X77821619Y-120615665D01*
X57388000Y-120615665D01*
X57388000Y-116043665D01*
X59047119Y-116043665D01*
X59047416Y-116048817D01*
X59047416Y-116048821D01*
X59051719Y-116123438D01*
X59060376Y-116273580D01*
X59061513Y-116278626D01*
X59061514Y-116278632D01*
X59083226Y-116374975D01*
X59111006Y-116498242D01*
X59112948Y-116503024D01*
X59112949Y-116503028D01*
X59150427Y-116595325D01*
X59197649Y-116711618D01*
X59317979Y-116907978D01*
X59468763Y-117082048D01*
X59645953Y-117229154D01*
X59844790Y-117345345D01*
X60059934Y-117427501D01*
X60065000Y-117428532D01*
X60065001Y-117428532D01*
X60165697Y-117449018D01*
X60285607Y-117473414D01*
X60415352Y-117478172D01*
X60510585Y-117481664D01*
X60510589Y-117481664D01*
X60515749Y-117481853D01*
X60520869Y-117481197D01*
X60520871Y-117481197D01*
X60590272Y-117472307D01*
X60744178Y-117452591D01*
X60749126Y-117451106D01*
X60749133Y-117451105D01*
X60959811Y-117387898D01*
X60959810Y-117387898D01*
X60964761Y-117386413D01*
X61171574Y-117285096D01*
X61359062Y-117151363D01*
X61522190Y-116988803D01*
X61580269Y-116907978D01*
X61653559Y-116805983D01*
X61656577Y-116801783D01*
X61758615Y-116595325D01*
X61816575Y-116404558D01*
X61824059Y-116379927D01*
X61824060Y-116379921D01*
X61825563Y-116374975D01*
X61846770Y-116213889D01*
X61855185Y-116149971D01*
X61855185Y-116149965D01*
X61855622Y-116146649D01*
X61856684Y-116103218D01*
X61857218Y-116081364D01*
X61857218Y-116081360D01*
X61857300Y-116078000D01*
X61854477Y-116043665D01*
X62857119Y-116043665D01*
X62857416Y-116048817D01*
X62857416Y-116048821D01*
X62861719Y-116123438D01*
X62870376Y-116273580D01*
X62871513Y-116278626D01*
X62871514Y-116278632D01*
X62893226Y-116374975D01*
X62921006Y-116498242D01*
X62922948Y-116503024D01*
X62922949Y-116503028D01*
X62960427Y-116595325D01*
X63007649Y-116711618D01*
X63127979Y-116907978D01*
X63278763Y-117082048D01*
X63455953Y-117229154D01*
X63654790Y-117345345D01*
X63869934Y-117427501D01*
X63875000Y-117428532D01*
X63875001Y-117428532D01*
X63975697Y-117449018D01*
X64095607Y-117473414D01*
X64225352Y-117478172D01*
X64320585Y-117481664D01*
X64320589Y-117481664D01*
X64325749Y-117481853D01*
X64330869Y-117481197D01*
X64330871Y-117481197D01*
X64400272Y-117472307D01*
X64554178Y-117452591D01*
X64559126Y-117451106D01*
X64559133Y-117451105D01*
X64769811Y-117387898D01*
X64769810Y-117387898D01*
X64774761Y-117386413D01*
X64981574Y-117285096D01*
X65169062Y-117151363D01*
X65332190Y-116988803D01*
X65390269Y-116907978D01*
X65463559Y-116805983D01*
X65466577Y-116801783D01*
X65568615Y-116595325D01*
X65626575Y-116404558D01*
X65634059Y-116379927D01*
X65634060Y-116379921D01*
X65635563Y-116374975D01*
X65656770Y-116213889D01*
X65665185Y-116149971D01*
X65665185Y-116149965D01*
X65665622Y-116146649D01*
X65666684Y-116103218D01*
X65667218Y-116081364D01*
X65667218Y-116081360D01*
X65667300Y-116078000D01*
X65648430Y-115848478D01*
X65592326Y-115625120D01*
X65538750Y-115501903D01*
X65502556Y-115418661D01*
X65502554Y-115418658D01*
X65500496Y-115413924D01*
X65375405Y-115220563D01*
X65356480Y-115199764D01*
X65223890Y-115054051D01*
X65223889Y-115054050D01*
X65220412Y-115050229D01*
X65216361Y-115047030D01*
X65216357Y-115047026D01*
X65043735Y-114910697D01*
X65043730Y-114910693D01*
X65039681Y-114907496D01*
X65035165Y-114905003D01*
X65035162Y-114905001D01*
X64842589Y-114798695D01*
X64842585Y-114798693D01*
X64838065Y-114796198D01*
X64833196Y-114794474D01*
X64833192Y-114794472D01*
X64625853Y-114721049D01*
X64625849Y-114721048D01*
X64620978Y-114719323D01*
X64615885Y-114718416D01*
X64615882Y-114718415D01*
X64519707Y-114701284D01*
X64394250Y-114678937D01*
X64307802Y-114677881D01*
X64169141Y-114676186D01*
X64169139Y-114676186D01*
X64163971Y-114676123D01*
X63936325Y-114710958D01*
X63717424Y-114782506D01*
X63513149Y-114888845D01*
X63328984Y-115027119D01*
X63169877Y-115193616D01*
X63040099Y-115383863D01*
X63037923Y-115388552D01*
X63037919Y-115388558D01*
X62962157Y-115551774D01*
X62943136Y-115592752D01*
X62881592Y-115814673D01*
X62881043Y-115819810D01*
X62859684Y-116019669D01*
X62857119Y-116043665D01*
X61854477Y-116043665D01*
X61838430Y-115848478D01*
X61782326Y-115625120D01*
X61728750Y-115501903D01*
X61692556Y-115418661D01*
X61692554Y-115418658D01*
X61690496Y-115413924D01*
X61565405Y-115220563D01*
X61546480Y-115199764D01*
X61413890Y-115054051D01*
X61413889Y-115054050D01*
X61410412Y-115050229D01*
X61406361Y-115047030D01*
X61406357Y-115047026D01*
X61233735Y-114910697D01*
X61233730Y-114910693D01*
X61229681Y-114907496D01*
X61225165Y-114905003D01*
X61225162Y-114905001D01*
X61032589Y-114798695D01*
X61032585Y-114798693D01*
X61028065Y-114796198D01*
X61023196Y-114794474D01*
X61023192Y-114794472D01*
X60815853Y-114721049D01*
X60815849Y-114721048D01*
X60810978Y-114719323D01*
X60805885Y-114718416D01*
X60805882Y-114718415D01*
X60709707Y-114701284D01*
X60584250Y-114678937D01*
X60497802Y-114677881D01*
X60359141Y-114676186D01*
X60359139Y-114676186D01*
X60353971Y-114676123D01*
X60126325Y-114710958D01*
X59907424Y-114782506D01*
X59703149Y-114888845D01*
X59518984Y-115027119D01*
X59359877Y-115193616D01*
X59230099Y-115383863D01*
X59227923Y-115388552D01*
X59227919Y-115388558D01*
X59152157Y-115551774D01*
X59133136Y-115592752D01*
X59071592Y-115814673D01*
X59071043Y-115819810D01*
X59049684Y-116019669D01*
X59047119Y-116043665D01*
X57388000Y-116043665D01*
X57388000Y-114011665D01*
X77589119Y-114011665D01*
X77589416Y-114016817D01*
X77589416Y-114016821D01*
X77591636Y-114055325D01*
X77602376Y-114241580D01*
X77603513Y-114246626D01*
X77603514Y-114246632D01*
X77625226Y-114342975D01*
X77653006Y-114466242D01*
X77654948Y-114471024D01*
X77654949Y-114471028D01*
X77713151Y-114614361D01*
X77739649Y-114679618D01*
X77859979Y-114875978D01*
X78010763Y-115050048D01*
X78187953Y-115197154D01*
X78386790Y-115313345D01*
X78601934Y-115395501D01*
X78607000Y-115396532D01*
X78607001Y-115396532D01*
X78658513Y-115407012D01*
X78827607Y-115441414D01*
X78957352Y-115446172D01*
X79052585Y-115449664D01*
X79052589Y-115449664D01*
X79057749Y-115449853D01*
X79062869Y-115449197D01*
X79062871Y-115449197D01*
X79132272Y-115440307D01*
X79286178Y-115420591D01*
X79291126Y-115419106D01*
X79291133Y-115419105D01*
X79501811Y-115355898D01*
X79501810Y-115355898D01*
X79506761Y-115354413D01*
X79713574Y-115253096D01*
X79901062Y-115119363D01*
X80064190Y-114956803D01*
X80075069Y-114941664D01*
X80195559Y-114773983D01*
X80198577Y-114769783D01*
X80300615Y-114563325D01*
X80335410Y-114448803D01*
X80366059Y-114347927D01*
X80366060Y-114347921D01*
X80367563Y-114342975D01*
X80397622Y-114114649D01*
X80399300Y-114046000D01*
X80380430Y-113816478D01*
X80324326Y-113593120D01*
X80232496Y-113381924D01*
X80107405Y-113188563D01*
X80086774Y-113165889D01*
X79955890Y-113022051D01*
X79955889Y-113022050D01*
X79952412Y-113018229D01*
X79948361Y-113015030D01*
X79948357Y-113015026D01*
X79775735Y-112878697D01*
X79775730Y-112878693D01*
X79771681Y-112875496D01*
X79767165Y-112873003D01*
X79767162Y-112873001D01*
X79574589Y-112766695D01*
X79574585Y-112766693D01*
X79570065Y-112764198D01*
X79565196Y-112762474D01*
X79565192Y-112762472D01*
X79357853Y-112689049D01*
X79357849Y-112689048D01*
X79352978Y-112687323D01*
X79347885Y-112686416D01*
X79347882Y-112686415D01*
X79251707Y-112669284D01*
X79126250Y-112646937D01*
X79039802Y-112645881D01*
X78901141Y-112644186D01*
X78901139Y-112644186D01*
X78895971Y-112644123D01*
X78668325Y-112678958D01*
X78449424Y-112750506D01*
X78245149Y-112856845D01*
X78060984Y-112995119D01*
X77901877Y-113161616D01*
X77772099Y-113351863D01*
X77769923Y-113356552D01*
X77769919Y-113356558D01*
X77690980Y-113526618D01*
X77675136Y-113560752D01*
X77613592Y-113782673D01*
X77589119Y-114011665D01*
X57388000Y-114011665D01*
X57388000Y-110455665D01*
X81145119Y-110455665D01*
X81145416Y-110460817D01*
X81145416Y-110460821D01*
X81150864Y-110555296D01*
X81158376Y-110685580D01*
X81159513Y-110690626D01*
X81159514Y-110690632D01*
X81181226Y-110786975D01*
X81209006Y-110910242D01*
X81210948Y-110915024D01*
X81210949Y-110915028D01*
X81248427Y-111007325D01*
X81295649Y-111123618D01*
X81415979Y-111319978D01*
X81566763Y-111494048D01*
X81743953Y-111641154D01*
X81942790Y-111757345D01*
X82157934Y-111839501D01*
X82163000Y-111840532D01*
X82163001Y-111840532D01*
X82263697Y-111861018D01*
X82383607Y-111885414D01*
X82513352Y-111890172D01*
X82608585Y-111893664D01*
X82608589Y-111893664D01*
X82613749Y-111893853D01*
X82618869Y-111893197D01*
X82618871Y-111893197D01*
X82688272Y-111884307D01*
X82842178Y-111864591D01*
X82847126Y-111863106D01*
X82847133Y-111863105D01*
X83057811Y-111799898D01*
X83057810Y-111799898D01*
X83062761Y-111798413D01*
X83269574Y-111697096D01*
X83457062Y-111563363D01*
X83620190Y-111400803D01*
X83678269Y-111319978D01*
X83751559Y-111217983D01*
X83754577Y-111213783D01*
X83856615Y-111007325D01*
X83887643Y-110905200D01*
X83922059Y-110791927D01*
X83922060Y-110791921D01*
X83923563Y-110786975D01*
X83953622Y-110558649D01*
X83955300Y-110490000D01*
X83936430Y-110260478D01*
X83880326Y-110037120D01*
X83788496Y-109825924D01*
X83663405Y-109632563D01*
X83642774Y-109609889D01*
X83511890Y-109466051D01*
X83511889Y-109466050D01*
X83508412Y-109462229D01*
X83504361Y-109459030D01*
X83504357Y-109459026D01*
X83331735Y-109322697D01*
X83331730Y-109322693D01*
X83327681Y-109319496D01*
X83323165Y-109317003D01*
X83323162Y-109317001D01*
X83130589Y-109210695D01*
X83130585Y-109210693D01*
X83126065Y-109208198D01*
X83121196Y-109206474D01*
X83121192Y-109206472D01*
X82913853Y-109133049D01*
X82913849Y-109133048D01*
X82908978Y-109131323D01*
X82903885Y-109130416D01*
X82903882Y-109130415D01*
X82807707Y-109113284D01*
X82682250Y-109090937D01*
X82595802Y-109089881D01*
X82457141Y-109088186D01*
X82457139Y-109088186D01*
X82451971Y-109088123D01*
X82224325Y-109122958D01*
X82005424Y-109194506D01*
X81801149Y-109300845D01*
X81616984Y-109439119D01*
X81457877Y-109605616D01*
X81328099Y-109795863D01*
X81325923Y-109800552D01*
X81325919Y-109800558D01*
X81314145Y-109825924D01*
X81231136Y-110004752D01*
X81169592Y-110226673D01*
X81145119Y-110455665D01*
X57388000Y-110455665D01*
X57388000Y-98771665D01*
X76573119Y-98771665D01*
X76573416Y-98776817D01*
X76573416Y-98776821D01*
X76578864Y-98871296D01*
X76586376Y-99001580D01*
X76587513Y-99006626D01*
X76587514Y-99006632D01*
X76609226Y-99102975D01*
X76637006Y-99226242D01*
X76638948Y-99231024D01*
X76638949Y-99231028D01*
X76676427Y-99323325D01*
X76723649Y-99439618D01*
X76843979Y-99635978D01*
X76994763Y-99810048D01*
X77171953Y-99957154D01*
X77370790Y-100073345D01*
X77585934Y-100155501D01*
X77591000Y-100156532D01*
X77591001Y-100156532D01*
X77691697Y-100177018D01*
X77811607Y-100201414D01*
X77941352Y-100206172D01*
X78036585Y-100209664D01*
X78036589Y-100209664D01*
X78041749Y-100209853D01*
X78046869Y-100209197D01*
X78046871Y-100209197D01*
X78116272Y-100200307D01*
X78270178Y-100180591D01*
X78275126Y-100179106D01*
X78275133Y-100179105D01*
X78485811Y-100115898D01*
X78485810Y-100115898D01*
X78490761Y-100114413D01*
X78697574Y-100013096D01*
X78885062Y-99879363D01*
X79048190Y-99716803D01*
X79106269Y-99635978D01*
X79179559Y-99533983D01*
X79182577Y-99529783D01*
X79284615Y-99323325D01*
X79315643Y-99221200D01*
X79350059Y-99107927D01*
X79350060Y-99107921D01*
X79351563Y-99102975D01*
X79381622Y-98874649D01*
X79383300Y-98806000D01*
X79380477Y-98771665D01*
X81399119Y-98771665D01*
X81399416Y-98776817D01*
X81399416Y-98776821D01*
X81404864Y-98871296D01*
X81412376Y-99001580D01*
X81413513Y-99006626D01*
X81413514Y-99006632D01*
X81435226Y-99102975D01*
X81463006Y-99226242D01*
X81464948Y-99231024D01*
X81464949Y-99231028D01*
X81502427Y-99323325D01*
X81549649Y-99439618D01*
X81669979Y-99635978D01*
X81820763Y-99810048D01*
X81997953Y-99957154D01*
X82196790Y-100073345D01*
X82411934Y-100155501D01*
X82417000Y-100156532D01*
X82417001Y-100156532D01*
X82517697Y-100177018D01*
X82637607Y-100201414D01*
X82767352Y-100206172D01*
X82862585Y-100209664D01*
X82862589Y-100209664D01*
X82867749Y-100209853D01*
X82872869Y-100209197D01*
X82872871Y-100209197D01*
X82942272Y-100200307D01*
X83096178Y-100180591D01*
X83101126Y-100179106D01*
X83101133Y-100179105D01*
X83311811Y-100115898D01*
X83311810Y-100115898D01*
X83316761Y-100114413D01*
X83523574Y-100013096D01*
X83711062Y-99879363D01*
X83874190Y-99716803D01*
X83932269Y-99635978D01*
X84005559Y-99533983D01*
X84008577Y-99529783D01*
X84110615Y-99323325D01*
X84141643Y-99221200D01*
X84176059Y-99107927D01*
X84176060Y-99107921D01*
X84177563Y-99102975D01*
X84207622Y-98874649D01*
X84209300Y-98806000D01*
X84190430Y-98576478D01*
X84134326Y-98353120D01*
X84042496Y-98141924D01*
X83917405Y-97948563D01*
X83896774Y-97925889D01*
X83765890Y-97782051D01*
X83765889Y-97782050D01*
X83762412Y-97778229D01*
X83758361Y-97775030D01*
X83758357Y-97775026D01*
X83585735Y-97638697D01*
X83585730Y-97638693D01*
X83581681Y-97635496D01*
X83577165Y-97633003D01*
X83577162Y-97633001D01*
X83384589Y-97526695D01*
X83384585Y-97526693D01*
X83380065Y-97524198D01*
X83375196Y-97522474D01*
X83375192Y-97522472D01*
X83167853Y-97449049D01*
X83167849Y-97449048D01*
X83162978Y-97447323D01*
X83157885Y-97446416D01*
X83157882Y-97446415D01*
X83061707Y-97429284D01*
X82936250Y-97406937D01*
X82849802Y-97405881D01*
X82711141Y-97404186D01*
X82711139Y-97404186D01*
X82705971Y-97404123D01*
X82478325Y-97438958D01*
X82259424Y-97510506D01*
X82055149Y-97616845D01*
X81870984Y-97755119D01*
X81711877Y-97921616D01*
X81582099Y-98111863D01*
X81579923Y-98116552D01*
X81579919Y-98116558D01*
X81568145Y-98141924D01*
X81485136Y-98320752D01*
X81423592Y-98542673D01*
X81399119Y-98771665D01*
X79380477Y-98771665D01*
X79364430Y-98576478D01*
X79308326Y-98353120D01*
X79216496Y-98141924D01*
X79091405Y-97948563D01*
X79070774Y-97925889D01*
X78939890Y-97782051D01*
X78939889Y-97782050D01*
X78936412Y-97778229D01*
X78932361Y-97775030D01*
X78932357Y-97775026D01*
X78759735Y-97638697D01*
X78759730Y-97638693D01*
X78755681Y-97635496D01*
X78751165Y-97633003D01*
X78751162Y-97633001D01*
X78558589Y-97526695D01*
X78558585Y-97526693D01*
X78554065Y-97524198D01*
X78549196Y-97522474D01*
X78549192Y-97522472D01*
X78341853Y-97449049D01*
X78341849Y-97449048D01*
X78336978Y-97447323D01*
X78331885Y-97446416D01*
X78331882Y-97446415D01*
X78235707Y-97429284D01*
X78110250Y-97406937D01*
X78023802Y-97405881D01*
X77885141Y-97404186D01*
X77885139Y-97404186D01*
X77879971Y-97404123D01*
X77652325Y-97438958D01*
X77433424Y-97510506D01*
X77229149Y-97616845D01*
X77044984Y-97755119D01*
X76885877Y-97921616D01*
X76756099Y-98111863D01*
X76753923Y-98116552D01*
X76753919Y-98116558D01*
X76742145Y-98141924D01*
X76659136Y-98320752D01*
X76597592Y-98542673D01*
X76573119Y-98771665D01*
X57388000Y-98771665D01*
X57388000Y-94453665D01*
X76573119Y-94453665D01*
X76573416Y-94458817D01*
X76573416Y-94458821D01*
X76579057Y-94556649D01*
X76586376Y-94683580D01*
X76587513Y-94688626D01*
X76587514Y-94688632D01*
X76608607Y-94782225D01*
X76637006Y-94908242D01*
X76638948Y-94913024D01*
X76638949Y-94913028D01*
X76721705Y-95116831D01*
X76723649Y-95121618D01*
X76843979Y-95317978D01*
X76994763Y-95492048D01*
X77171953Y-95639154D01*
X77370790Y-95755345D01*
X77585934Y-95837501D01*
X77591000Y-95838532D01*
X77591001Y-95838532D01*
X77688436Y-95858355D01*
X77811607Y-95883414D01*
X77941352Y-95888172D01*
X78036585Y-95891664D01*
X78036589Y-95891664D01*
X78041749Y-95891853D01*
X78046869Y-95891197D01*
X78046871Y-95891197D01*
X78129094Y-95880664D01*
X78270178Y-95862591D01*
X78275126Y-95861106D01*
X78275133Y-95861105D01*
X78485811Y-95797898D01*
X78485810Y-95797898D01*
X78490761Y-95796413D01*
X78697574Y-95695096D01*
X78885062Y-95561363D01*
X79048190Y-95398803D01*
X79106269Y-95317978D01*
X79179559Y-95215983D01*
X79182577Y-95211783D01*
X79228499Y-95118868D01*
X79282321Y-95009966D01*
X79284615Y-95005325D01*
X79316479Y-94900450D01*
X79350059Y-94789927D01*
X79350060Y-94789921D01*
X79351563Y-94784975D01*
X79381622Y-94556649D01*
X79383300Y-94488000D01*
X79380251Y-94450915D01*
X81396369Y-94450915D01*
X81396666Y-94456067D01*
X81396666Y-94456071D01*
X81398701Y-94491364D01*
X81409626Y-94680830D01*
X81410763Y-94685876D01*
X81410764Y-94685882D01*
X81431940Y-94779846D01*
X81460256Y-94905492D01*
X81462198Y-94910274D01*
X81462199Y-94910278D01*
X81498782Y-95000371D01*
X81546899Y-95118868D01*
X81667229Y-95315228D01*
X81818013Y-95489298D01*
X81995203Y-95636404D01*
X82194040Y-95752595D01*
X82409184Y-95834751D01*
X82414250Y-95835782D01*
X82414251Y-95835782D01*
X82427768Y-95838532D01*
X82634857Y-95880664D01*
X82764602Y-95885422D01*
X82859835Y-95888914D01*
X82859839Y-95888914D01*
X82864999Y-95889103D01*
X82870119Y-95888447D01*
X82870121Y-95888447D01*
X82939522Y-95879557D01*
X83093428Y-95859841D01*
X83098376Y-95858356D01*
X83098383Y-95858355D01*
X83309061Y-95795148D01*
X83309060Y-95795148D01*
X83314011Y-95793663D01*
X83520824Y-95692346D01*
X83708312Y-95558613D01*
X83871440Y-95396053D01*
X83929519Y-95315228D01*
X84002809Y-95213233D01*
X84005827Y-95209033D01*
X84107865Y-95002575D01*
X84172473Y-94789927D01*
X84173309Y-94787177D01*
X84173310Y-94787171D01*
X84174813Y-94782225D01*
X84204872Y-94553899D01*
X84206550Y-94485250D01*
X84203953Y-94453665D01*
X85971119Y-94453665D01*
X85971416Y-94458817D01*
X85971416Y-94458821D01*
X85977057Y-94556649D01*
X85984376Y-94683580D01*
X85985513Y-94688626D01*
X85985514Y-94688632D01*
X86006607Y-94782225D01*
X86035006Y-94908242D01*
X86036948Y-94913024D01*
X86036949Y-94913028D01*
X86119705Y-95116831D01*
X86121649Y-95121618D01*
X86241979Y-95317978D01*
X86392763Y-95492048D01*
X86569953Y-95639154D01*
X86768790Y-95755345D01*
X86983934Y-95837501D01*
X86989000Y-95838532D01*
X86989001Y-95838532D01*
X87086436Y-95858355D01*
X87209607Y-95883414D01*
X87339352Y-95888172D01*
X87434585Y-95891664D01*
X87434589Y-95891664D01*
X87439749Y-95891853D01*
X87444869Y-95891197D01*
X87444871Y-95891197D01*
X87527094Y-95880664D01*
X87668178Y-95862591D01*
X87673126Y-95861106D01*
X87673133Y-95861105D01*
X87883811Y-95797898D01*
X87883810Y-95797898D01*
X87888761Y-95796413D01*
X88095574Y-95695096D01*
X88283062Y-95561363D01*
X88446190Y-95398803D01*
X88504269Y-95317978D01*
X88577559Y-95215983D01*
X88580577Y-95211783D01*
X88626499Y-95118868D01*
X88680321Y-95009966D01*
X88682615Y-95005325D01*
X88714479Y-94900450D01*
X88748059Y-94789927D01*
X88748060Y-94789921D01*
X88749563Y-94784975D01*
X88779622Y-94556649D01*
X88781300Y-94488000D01*
X88762430Y-94258478D01*
X88706326Y-94035120D01*
X88614496Y-93823924D01*
X88489405Y-93630563D01*
X88483422Y-93623987D01*
X88337890Y-93464051D01*
X88337889Y-93464050D01*
X88334412Y-93460229D01*
X88330361Y-93457030D01*
X88330357Y-93457026D01*
X88157735Y-93320697D01*
X88157730Y-93320693D01*
X88153681Y-93317496D01*
X88149165Y-93315003D01*
X88149162Y-93315001D01*
X87956589Y-93208695D01*
X87956585Y-93208693D01*
X87952065Y-93206198D01*
X87947196Y-93204474D01*
X87947192Y-93204472D01*
X87739853Y-93131049D01*
X87739849Y-93131048D01*
X87734978Y-93129323D01*
X87729885Y-93128416D01*
X87729882Y-93128415D01*
X87633707Y-93111284D01*
X87508250Y-93088937D01*
X87421802Y-93087881D01*
X87283141Y-93086186D01*
X87283139Y-93086186D01*
X87277971Y-93086123D01*
X87050325Y-93120958D01*
X86831424Y-93192506D01*
X86627149Y-93298845D01*
X86442984Y-93437119D01*
X86283877Y-93603616D01*
X86154099Y-93793863D01*
X86151923Y-93798552D01*
X86151919Y-93798558D01*
X86137946Y-93828661D01*
X86057136Y-94002752D01*
X85995592Y-94224673D01*
X85971119Y-94453665D01*
X84203953Y-94453665D01*
X84187680Y-94255728D01*
X84131576Y-94032370D01*
X84078000Y-93909153D01*
X84041806Y-93825911D01*
X84041804Y-93825908D01*
X84039746Y-93821174D01*
X83914655Y-93627813D01*
X83896526Y-93607889D01*
X83763140Y-93461301D01*
X83763139Y-93461300D01*
X83759662Y-93457479D01*
X83755611Y-93454280D01*
X83755607Y-93454276D01*
X83582985Y-93317947D01*
X83582980Y-93317943D01*
X83578931Y-93314746D01*
X83574415Y-93312253D01*
X83574412Y-93312251D01*
X83381839Y-93205945D01*
X83381835Y-93205943D01*
X83377315Y-93203448D01*
X83372446Y-93201724D01*
X83372442Y-93201722D01*
X83165103Y-93128299D01*
X83165099Y-93128298D01*
X83160228Y-93126573D01*
X83155135Y-93125666D01*
X83155132Y-93125665D01*
X83058957Y-93108534D01*
X82933500Y-93086187D01*
X82847052Y-93085131D01*
X82708391Y-93083436D01*
X82708389Y-93083436D01*
X82703221Y-93083373D01*
X82475575Y-93118208D01*
X82256674Y-93189756D01*
X82052399Y-93296095D01*
X81868234Y-93434369D01*
X81709127Y-93600866D01*
X81579349Y-93791113D01*
X81577173Y-93795802D01*
X81577169Y-93795808D01*
X81484565Y-93995307D01*
X81482386Y-94000002D01*
X81420842Y-94221923D01*
X81396369Y-94450915D01*
X79380251Y-94450915D01*
X79364430Y-94258478D01*
X79308326Y-94035120D01*
X79216496Y-93823924D01*
X79091405Y-93630563D01*
X79085422Y-93623987D01*
X78939890Y-93464051D01*
X78939889Y-93464050D01*
X78936412Y-93460229D01*
X78932361Y-93457030D01*
X78932357Y-93457026D01*
X78759735Y-93320697D01*
X78759730Y-93320693D01*
X78755681Y-93317496D01*
X78751165Y-93315003D01*
X78751162Y-93315001D01*
X78558589Y-93208695D01*
X78558585Y-93208693D01*
X78554065Y-93206198D01*
X78549196Y-93204474D01*
X78549192Y-93204472D01*
X78341853Y-93131049D01*
X78341849Y-93131048D01*
X78336978Y-93129323D01*
X78331885Y-93128416D01*
X78331882Y-93128415D01*
X78235707Y-93111284D01*
X78110250Y-93088937D01*
X78023802Y-93087881D01*
X77885141Y-93086186D01*
X77885139Y-93086186D01*
X77879971Y-93086123D01*
X77652325Y-93120958D01*
X77433424Y-93192506D01*
X77229149Y-93298845D01*
X77044984Y-93437119D01*
X76885877Y-93603616D01*
X76756099Y-93793863D01*
X76753923Y-93798552D01*
X76753919Y-93798558D01*
X76739946Y-93828661D01*
X76659136Y-94002752D01*
X76597592Y-94224673D01*
X76573119Y-94453665D01*
X57388000Y-94453665D01*
X57388000Y-90157165D01*
X78880619Y-90157165D01*
X78880916Y-90162317D01*
X78880916Y-90162321D01*
X78885124Y-90235296D01*
X78893876Y-90387080D01*
X78895013Y-90392126D01*
X78895014Y-90392132D01*
X78916726Y-90488475D01*
X78944506Y-90611742D01*
X78946448Y-90616524D01*
X78946449Y-90616528D01*
X78983927Y-90708825D01*
X79031149Y-90825118D01*
X79033848Y-90829522D01*
X79140696Y-91003881D01*
X79151479Y-91021478D01*
X79302263Y-91195548D01*
X79479453Y-91342654D01*
X79678290Y-91458845D01*
X79893434Y-91541001D01*
X79898500Y-91542032D01*
X79898501Y-91542032D01*
X79999197Y-91562518D01*
X80119107Y-91586914D01*
X80248852Y-91591672D01*
X80344085Y-91595164D01*
X80344089Y-91595164D01*
X80349249Y-91595353D01*
X80354369Y-91594697D01*
X80354371Y-91594697D01*
X80423772Y-91585807D01*
X80577678Y-91566091D01*
X80582626Y-91564606D01*
X80582633Y-91564605D01*
X80793311Y-91501398D01*
X80793310Y-91501398D01*
X80798261Y-91499913D01*
X81005074Y-91398596D01*
X81192562Y-91264863D01*
X81355690Y-91102303D01*
X81413769Y-91021478D01*
X81487059Y-90919483D01*
X81490077Y-90915283D01*
X81592115Y-90708825D01*
X81623143Y-90606700D01*
X81657559Y-90493427D01*
X81657560Y-90493421D01*
X81659063Y-90488475D01*
X81689122Y-90260149D01*
X81689648Y-90238649D01*
X81690718Y-90194864D01*
X81690718Y-90194860D01*
X81690800Y-90191500D01*
X81686210Y-90135665D01*
X83685119Y-90135665D01*
X83685416Y-90140817D01*
X83685416Y-90140821D01*
X83688145Y-90188146D01*
X83698376Y-90365580D01*
X83699513Y-90370626D01*
X83699514Y-90370632D01*
X83721226Y-90466975D01*
X83749006Y-90590242D01*
X83750948Y-90595024D01*
X83750949Y-90595028D01*
X83799042Y-90713466D01*
X83835649Y-90803618D01*
X83955979Y-90999978D01*
X84106763Y-91174048D01*
X84283953Y-91321154D01*
X84482790Y-91437345D01*
X84487615Y-91439187D01*
X84487616Y-91439188D01*
X84543919Y-91460688D01*
X84697934Y-91519501D01*
X84703000Y-91520532D01*
X84703001Y-91520532D01*
X84794543Y-91539156D01*
X84923607Y-91565414D01*
X85053352Y-91570172D01*
X85148585Y-91573664D01*
X85148589Y-91573664D01*
X85153749Y-91573853D01*
X85158869Y-91573197D01*
X85158871Y-91573197D01*
X85228272Y-91564307D01*
X85382178Y-91544591D01*
X85387126Y-91543106D01*
X85387133Y-91543105D01*
X85597811Y-91479898D01*
X85597810Y-91479898D01*
X85602761Y-91478413D01*
X85809574Y-91377096D01*
X85997062Y-91243363D01*
X86160190Y-91080803D01*
X86218269Y-90999978D01*
X86291559Y-90897983D01*
X86294577Y-90893783D01*
X86396615Y-90687325D01*
X86427643Y-90585200D01*
X86462059Y-90471927D01*
X86462060Y-90471921D01*
X86463563Y-90466975D01*
X86493622Y-90238649D01*
X86494692Y-90194864D01*
X86495218Y-90173364D01*
X86495218Y-90173360D01*
X86495300Y-90170000D01*
X86476430Y-89940478D01*
X86420326Y-89717120D01*
X86339904Y-89532161D01*
X86330556Y-89510661D01*
X86330554Y-89510658D01*
X86328496Y-89505924D01*
X86203405Y-89312563D01*
X86195049Y-89303379D01*
X86051890Y-89146051D01*
X86051889Y-89146050D01*
X86048412Y-89142229D01*
X86044361Y-89139030D01*
X86044357Y-89139026D01*
X85871735Y-89002697D01*
X85871730Y-89002693D01*
X85867681Y-88999496D01*
X85863165Y-88997003D01*
X85863162Y-88997001D01*
X85670589Y-88890695D01*
X85670585Y-88890693D01*
X85666065Y-88888198D01*
X85661196Y-88886474D01*
X85661192Y-88886472D01*
X85453853Y-88813049D01*
X85453849Y-88813048D01*
X85448978Y-88811323D01*
X85443885Y-88810416D01*
X85443882Y-88810415D01*
X85347707Y-88793284D01*
X85222250Y-88770937D01*
X85135802Y-88769881D01*
X84997141Y-88768186D01*
X84997139Y-88768186D01*
X84991971Y-88768123D01*
X84764325Y-88802958D01*
X84545424Y-88874506D01*
X84341149Y-88980845D01*
X84156984Y-89119119D01*
X83997877Y-89285616D01*
X83994963Y-89289888D01*
X83994962Y-89289889D01*
X83964829Y-89334063D01*
X83868099Y-89475863D01*
X83865923Y-89480552D01*
X83865919Y-89480558D01*
X83844165Y-89527424D01*
X83771136Y-89684752D01*
X83709592Y-89906673D01*
X83685119Y-90135665D01*
X81686210Y-90135665D01*
X81671930Y-89961978D01*
X81615826Y-89738620D01*
X81523996Y-89527424D01*
X81398905Y-89334063D01*
X81383294Y-89316906D01*
X81247390Y-89167551D01*
X81247389Y-89167550D01*
X81243912Y-89163729D01*
X81239861Y-89160530D01*
X81239857Y-89160526D01*
X81067235Y-89024197D01*
X81067230Y-89024193D01*
X81063181Y-89020996D01*
X81058665Y-89018503D01*
X81058662Y-89018501D01*
X80866089Y-88912195D01*
X80866085Y-88912193D01*
X80861565Y-88909698D01*
X80856696Y-88907974D01*
X80856692Y-88907972D01*
X80649353Y-88834549D01*
X80649349Y-88834548D01*
X80644478Y-88832823D01*
X80639385Y-88831916D01*
X80639382Y-88831915D01*
X80518679Y-88810415D01*
X80417750Y-88792437D01*
X80331302Y-88791381D01*
X80192641Y-88789686D01*
X80192639Y-88789686D01*
X80187471Y-88789623D01*
X79959825Y-88824458D01*
X79740924Y-88896006D01*
X79536649Y-89002345D01*
X79352484Y-89140619D01*
X79193377Y-89307116D01*
X79063599Y-89497363D01*
X79061423Y-89502052D01*
X79061419Y-89502058D01*
X78968815Y-89701557D01*
X78966636Y-89706252D01*
X78905092Y-89928173D01*
X78904543Y-89933310D01*
X78882366Y-90140821D01*
X78880619Y-90157165D01*
X57388000Y-90157165D01*
X57388000Y-86555726D01*
X61137688Y-86555726D01*
X61141513Y-86653072D01*
X61144914Y-86739618D01*
X61147977Y-86817582D01*
X61195058Y-87075376D01*
X61277994Y-87323965D01*
X61322051Y-87412137D01*
X61370783Y-87509664D01*
X61395128Y-87558387D01*
X61544124Y-87773967D01*
X61650230Y-87888751D01*
X61665321Y-87905076D01*
X61722010Y-87966402D01*
X61725464Y-87969214D01*
X61921778Y-88129039D01*
X61921782Y-88129042D01*
X61925235Y-88131853D01*
X62149745Y-88267019D01*
X62262545Y-88314784D01*
X62386962Y-88367468D01*
X62386966Y-88367469D01*
X62391060Y-88369203D01*
X62395352Y-88370341D01*
X62395355Y-88370342D01*
X62496125Y-88397061D01*
X62644365Y-88436366D01*
X62648789Y-88436890D01*
X62648791Y-88436890D01*
X62754178Y-88449363D01*
X62904607Y-88467167D01*
X63166592Y-88460993D01*
X63170986Y-88460262D01*
X63170993Y-88460261D01*
X63420692Y-88418700D01*
X63420696Y-88418699D01*
X63425094Y-88417967D01*
X63589061Y-88366111D01*
X63670709Y-88340289D01*
X63670711Y-88340288D01*
X63674955Y-88338946D01*
X63678966Y-88337020D01*
X63678971Y-88337018D01*
X63907169Y-88227439D01*
X63907170Y-88227438D01*
X63911188Y-88225509D01*
X64081131Y-88111957D01*
X64125374Y-88082395D01*
X64125379Y-88082391D01*
X64129082Y-88079917D01*
X64132398Y-88076946D01*
X64132403Y-88076943D01*
X64178606Y-88035560D01*
X64242694Y-88005011D01*
X64313125Y-88013960D01*
X64342221Y-88031704D01*
X64461778Y-88129039D01*
X64461782Y-88129042D01*
X64465235Y-88131853D01*
X64689745Y-88267019D01*
X64802545Y-88314784D01*
X64926962Y-88367468D01*
X64926966Y-88367469D01*
X64931060Y-88369203D01*
X64935352Y-88370341D01*
X64935355Y-88370342D01*
X65036125Y-88397061D01*
X65184365Y-88436366D01*
X65188789Y-88436890D01*
X65188791Y-88436890D01*
X65294178Y-88449363D01*
X65444607Y-88467167D01*
X65706592Y-88460993D01*
X65710986Y-88460262D01*
X65710993Y-88460261D01*
X65960692Y-88418700D01*
X65960696Y-88418699D01*
X65965094Y-88417967D01*
X66129061Y-88366111D01*
X66210709Y-88340289D01*
X66210711Y-88340288D01*
X66214955Y-88338946D01*
X66218966Y-88337020D01*
X66218971Y-88337018D01*
X66447169Y-88227439D01*
X66447170Y-88227438D01*
X66451188Y-88225509D01*
X66621131Y-88111957D01*
X66665380Y-88082391D01*
X66665384Y-88082388D01*
X66669082Y-88079917D01*
X66864287Y-87905076D01*
X66974496Y-87773967D01*
X67030043Y-87707886D01*
X67030045Y-87707884D01*
X67032910Y-87704475D01*
X67171586Y-87482116D01*
X67183353Y-87455501D01*
X67275749Y-87246503D01*
X67277547Y-87242436D01*
X67348681Y-86990216D01*
X67365551Y-86864617D01*
X67383139Y-86733673D01*
X67383140Y-86733665D01*
X67383566Y-86730491D01*
X67383667Y-86727280D01*
X67387126Y-86617222D01*
X67387126Y-86617217D01*
X67387227Y-86614000D01*
X67368719Y-86352596D01*
X67313563Y-86096408D01*
X67304435Y-86071665D01*
X81145119Y-86071665D01*
X81145416Y-86076817D01*
X81145416Y-86076821D01*
X81148510Y-86130478D01*
X81158376Y-86301580D01*
X81159513Y-86306626D01*
X81159514Y-86306632D01*
X81181226Y-86402975D01*
X81209006Y-86526242D01*
X81210948Y-86531024D01*
X81210949Y-86531028D01*
X81248427Y-86623325D01*
X81295649Y-86739618D01*
X81415979Y-86935978D01*
X81566763Y-87110048D01*
X81743953Y-87257154D01*
X81942790Y-87373345D01*
X81947615Y-87375187D01*
X81947616Y-87375188D01*
X82021962Y-87403578D01*
X82157934Y-87455501D01*
X82163000Y-87456532D01*
X82163001Y-87456532D01*
X82263697Y-87477018D01*
X82383607Y-87501414D01*
X82513352Y-87506172D01*
X82608585Y-87509664D01*
X82608589Y-87509664D01*
X82613749Y-87509853D01*
X82618869Y-87509197D01*
X82618871Y-87509197D01*
X82688272Y-87500307D01*
X82842178Y-87480591D01*
X82847126Y-87479106D01*
X82847133Y-87479105D01*
X83057811Y-87415898D01*
X83057810Y-87415898D01*
X83062761Y-87414413D01*
X83269574Y-87313096D01*
X83457062Y-87179363D01*
X83620190Y-87016803D01*
X83678269Y-86935978D01*
X83751559Y-86833983D01*
X83754577Y-86829783D01*
X83758443Y-86821962D01*
X83854321Y-86627966D01*
X83856615Y-86623325D01*
X83915763Y-86428649D01*
X83922059Y-86407927D01*
X83922060Y-86407921D01*
X83923563Y-86402975D01*
X83953622Y-86174649D01*
X83955300Y-86106000D01*
X83952477Y-86071665D01*
X85463119Y-86071665D01*
X85463416Y-86076817D01*
X85463416Y-86076821D01*
X85466510Y-86130478D01*
X85476376Y-86301580D01*
X85477513Y-86306626D01*
X85477514Y-86306632D01*
X85499226Y-86402975D01*
X85527006Y-86526242D01*
X85528948Y-86531024D01*
X85528949Y-86531028D01*
X85566427Y-86623325D01*
X85613649Y-86739618D01*
X85733979Y-86935978D01*
X85884763Y-87110048D01*
X86061953Y-87257154D01*
X86260790Y-87373345D01*
X86265615Y-87375187D01*
X86265616Y-87375188D01*
X86339962Y-87403578D01*
X86475934Y-87455501D01*
X86481000Y-87456532D01*
X86481001Y-87456532D01*
X86581697Y-87477018D01*
X86701607Y-87501414D01*
X86831352Y-87506172D01*
X86926585Y-87509664D01*
X86926589Y-87509664D01*
X86931749Y-87509853D01*
X86936869Y-87509197D01*
X86936871Y-87509197D01*
X87006272Y-87500307D01*
X87160178Y-87480591D01*
X87165126Y-87479106D01*
X87165133Y-87479105D01*
X87375811Y-87415898D01*
X87375810Y-87415898D01*
X87380761Y-87414413D01*
X87587574Y-87313096D01*
X87775062Y-87179363D01*
X87938190Y-87016803D01*
X87996269Y-86935978D01*
X88069559Y-86833983D01*
X88072577Y-86829783D01*
X88076443Y-86821962D01*
X88172321Y-86627966D01*
X88174615Y-86623325D01*
X88233763Y-86428649D01*
X88240059Y-86407927D01*
X88240060Y-86407921D01*
X88241563Y-86402975D01*
X88271622Y-86174649D01*
X88273300Y-86106000D01*
X88254430Y-85876478D01*
X88198326Y-85653120D01*
X88144750Y-85529903D01*
X88108556Y-85446661D01*
X88108554Y-85446658D01*
X88106496Y-85441924D01*
X88001712Y-85279953D01*
X87984215Y-85252906D01*
X87984213Y-85252903D01*
X87981405Y-85248563D01*
X87971098Y-85237235D01*
X87829890Y-85082051D01*
X87829889Y-85082050D01*
X87826412Y-85078229D01*
X87822361Y-85075030D01*
X87822357Y-85075026D01*
X87649735Y-84938697D01*
X87649730Y-84938693D01*
X87645681Y-84935496D01*
X87641165Y-84933003D01*
X87641162Y-84933001D01*
X87448589Y-84826695D01*
X87448585Y-84826693D01*
X87444065Y-84824198D01*
X87439196Y-84822474D01*
X87439192Y-84822472D01*
X87231853Y-84749049D01*
X87231849Y-84749048D01*
X87226978Y-84747323D01*
X87221885Y-84746416D01*
X87221882Y-84746415D01*
X87125707Y-84729284D01*
X87000250Y-84706937D01*
X86913802Y-84705881D01*
X86775141Y-84704186D01*
X86775139Y-84704186D01*
X86769971Y-84704123D01*
X86542325Y-84738958D01*
X86323424Y-84810506D01*
X86119149Y-84916845D01*
X85934984Y-85055119D01*
X85775877Y-85221616D01*
X85772963Y-85225888D01*
X85772962Y-85225889D01*
X85736082Y-85279953D01*
X85646099Y-85411863D01*
X85643923Y-85416552D01*
X85643919Y-85416558D01*
X85551315Y-85616057D01*
X85549136Y-85620752D01*
X85487592Y-85842673D01*
X85487043Y-85847810D01*
X85466870Y-86036570D01*
X85463119Y-86071665D01*
X83952477Y-86071665D01*
X83936430Y-85876478D01*
X83880326Y-85653120D01*
X83826750Y-85529903D01*
X83790556Y-85446661D01*
X83790554Y-85446658D01*
X83788496Y-85441924D01*
X83683712Y-85279953D01*
X83666215Y-85252906D01*
X83666213Y-85252903D01*
X83663405Y-85248563D01*
X83653098Y-85237235D01*
X83511890Y-85082051D01*
X83511889Y-85082050D01*
X83508412Y-85078229D01*
X83504361Y-85075030D01*
X83504357Y-85075026D01*
X83331735Y-84938697D01*
X83331730Y-84938693D01*
X83327681Y-84935496D01*
X83323165Y-84933003D01*
X83323162Y-84933001D01*
X83130589Y-84826695D01*
X83130585Y-84826693D01*
X83126065Y-84824198D01*
X83121196Y-84822474D01*
X83121192Y-84822472D01*
X82913853Y-84749049D01*
X82913849Y-84749048D01*
X82908978Y-84747323D01*
X82903885Y-84746416D01*
X82903882Y-84746415D01*
X82807707Y-84729284D01*
X82682250Y-84706937D01*
X82595802Y-84705881D01*
X82457141Y-84704186D01*
X82457139Y-84704186D01*
X82451971Y-84704123D01*
X82224325Y-84738958D01*
X82005424Y-84810506D01*
X81801149Y-84916845D01*
X81616984Y-85055119D01*
X81457877Y-85221616D01*
X81454963Y-85225888D01*
X81454962Y-85225889D01*
X81418082Y-85279953D01*
X81328099Y-85411863D01*
X81325923Y-85416552D01*
X81325919Y-85416558D01*
X81233315Y-85616057D01*
X81231136Y-85620752D01*
X81169592Y-85842673D01*
X81169043Y-85847810D01*
X81148870Y-86036570D01*
X81145119Y-86071665D01*
X67304435Y-86071665D01*
X67294610Y-86045032D01*
X67224401Y-85854724D01*
X67222860Y-85850547D01*
X67098420Y-85619920D01*
X67095567Y-85616057D01*
X66947735Y-85415907D01*
X66923353Y-85349228D01*
X66938890Y-85279953D01*
X66952636Y-85259973D01*
X67030045Y-85167883D01*
X67032910Y-85164475D01*
X67171586Y-84942116D01*
X67182759Y-84916845D01*
X67275749Y-84706503D01*
X67277547Y-84702436D01*
X67348681Y-84450216D01*
X67355876Y-84396649D01*
X67383139Y-84193673D01*
X67383140Y-84193665D01*
X67383566Y-84190491D01*
X67387227Y-84074000D01*
X67368719Y-83812596D01*
X67319010Y-83581708D01*
X67314500Y-83560760D01*
X67313563Y-83556408D01*
X67311196Y-83549990D01*
X67224401Y-83314724D01*
X67222860Y-83310547D01*
X67098420Y-83079920D01*
X67095774Y-83076337D01*
X66947735Y-82875907D01*
X66923353Y-82809228D01*
X66938890Y-82739953D01*
X66952636Y-82719973D01*
X67030045Y-82627883D01*
X67032910Y-82624475D01*
X67171586Y-82402116D01*
X67239741Y-82247953D01*
X67275749Y-82166503D01*
X67277547Y-82162436D01*
X67348681Y-81910216D01*
X67371280Y-81741962D01*
X67383139Y-81653673D01*
X67383140Y-81653665D01*
X67383566Y-81650491D01*
X67387227Y-81534000D01*
X67368719Y-81272596D01*
X67313563Y-81016408D01*
X67294610Y-80965032D01*
X67224401Y-80774724D01*
X67222860Y-80770547D01*
X67098420Y-80539920D01*
X67095774Y-80536337D01*
X66947735Y-80335907D01*
X66923353Y-80269228D01*
X66938890Y-80199953D01*
X66952636Y-80179973D01*
X67030045Y-80087883D01*
X67032910Y-80084475D01*
X67171586Y-79862116D01*
X67239741Y-79707953D01*
X67275749Y-79626503D01*
X67277547Y-79622436D01*
X67348681Y-79370216D01*
X67371280Y-79201962D01*
X67383139Y-79113673D01*
X67383140Y-79113665D01*
X67383566Y-79110491D01*
X67387227Y-78994000D01*
X67368719Y-78732596D01*
X67313563Y-78476408D01*
X67294610Y-78425032D01*
X67224401Y-78234724D01*
X67222860Y-78230547D01*
X67098420Y-77999920D01*
X67095774Y-77996337D01*
X66947735Y-77795907D01*
X66923353Y-77729228D01*
X66938890Y-77659953D01*
X66952636Y-77639973D01*
X67030045Y-77547883D01*
X67032910Y-77544475D01*
X67171586Y-77322116D01*
X67239741Y-77167953D01*
X67275749Y-77086503D01*
X67277547Y-77082436D01*
X67348681Y-76830216D01*
X67371280Y-76661962D01*
X67383139Y-76573673D01*
X67383140Y-76573665D01*
X67383566Y-76570491D01*
X67387227Y-76454000D01*
X67368719Y-76192596D01*
X67313563Y-75936408D01*
X67294610Y-75885032D01*
X67224401Y-75694724D01*
X67222860Y-75690547D01*
X67098420Y-75459920D01*
X67095774Y-75456337D01*
X66947735Y-75255907D01*
X66923353Y-75189228D01*
X66938890Y-75119953D01*
X66952636Y-75099973D01*
X67030045Y-75007883D01*
X67032910Y-75004475D01*
X67171586Y-74782116D01*
X67239741Y-74627953D01*
X67275749Y-74546503D01*
X67277547Y-74542436D01*
X67348681Y-74290216D01*
X67371280Y-74121962D01*
X67383139Y-74033673D01*
X67383140Y-74033665D01*
X67383566Y-74030491D01*
X67387227Y-73914000D01*
X67368719Y-73652596D01*
X67313563Y-73396408D01*
X67294610Y-73345032D01*
X67224401Y-73154724D01*
X67222860Y-73150547D01*
X67098420Y-72919920D01*
X67095774Y-72916337D01*
X66947735Y-72715907D01*
X66923353Y-72649228D01*
X66938890Y-72579953D01*
X66952636Y-72559973D01*
X67030045Y-72467883D01*
X67032910Y-72464475D01*
X67171586Y-72242116D01*
X67239741Y-72087953D01*
X67275749Y-72006503D01*
X67277547Y-72002436D01*
X67348681Y-71750216D01*
X67371280Y-71581962D01*
X67383139Y-71493673D01*
X67383140Y-71493665D01*
X67383566Y-71490491D01*
X67383667Y-71487280D01*
X67387126Y-71377222D01*
X67387126Y-71377217D01*
X67387227Y-71374000D01*
X67368719Y-71112596D01*
X67313563Y-70856408D01*
X67294610Y-70805032D01*
X67224401Y-70614724D01*
X67222860Y-70610547D01*
X67098420Y-70379920D01*
X67095774Y-70376337D01*
X66947735Y-70175907D01*
X66923353Y-70109228D01*
X66938890Y-70039953D01*
X66952636Y-70019973D01*
X67030045Y-69927883D01*
X67032910Y-69924475D01*
X67171586Y-69702116D01*
X67239741Y-69547953D01*
X67275749Y-69466503D01*
X67277547Y-69462436D01*
X67348681Y-69210216D01*
X67371280Y-69041962D01*
X67383139Y-68953673D01*
X67383140Y-68953665D01*
X67383566Y-68950491D01*
X67387227Y-68834000D01*
X67368719Y-68572596D01*
X67313563Y-68316408D01*
X67294610Y-68265032D01*
X67224401Y-68074724D01*
X67222860Y-68070547D01*
X67098420Y-67839920D01*
X67095774Y-67836337D01*
X66947735Y-67635907D01*
X66923353Y-67569228D01*
X66938890Y-67499953D01*
X66952636Y-67479973D01*
X67030045Y-67387883D01*
X67032910Y-67384475D01*
X67171586Y-67162116D01*
X67239741Y-67007953D01*
X67275749Y-66926503D01*
X67277547Y-66922436D01*
X67348681Y-66670216D01*
X67371280Y-66501962D01*
X67383139Y-66413673D01*
X67383140Y-66413665D01*
X67383566Y-66410491D01*
X67387227Y-66294000D01*
X67368719Y-66032596D01*
X67313563Y-65776408D01*
X67294610Y-65725032D01*
X67224401Y-65534724D01*
X67222860Y-65530547D01*
X67098420Y-65299920D01*
X67095774Y-65296337D01*
X66947735Y-65095907D01*
X66923353Y-65029228D01*
X66938890Y-64959953D01*
X66952636Y-64939973D01*
X66983761Y-64902945D01*
X67032910Y-64844475D01*
X67171586Y-64622116D01*
X67185185Y-64591357D01*
X67275749Y-64386503D01*
X67277547Y-64382436D01*
X67348681Y-64130216D01*
X67371280Y-63961962D01*
X67383139Y-63873673D01*
X67383140Y-63873665D01*
X67383566Y-63870491D01*
X67387227Y-63754000D01*
X67368719Y-63492596D01*
X67313563Y-63236408D01*
X67294610Y-63185032D01*
X67224401Y-62994724D01*
X67222860Y-62990547D01*
X67098420Y-62759920D01*
X67073303Y-62725913D01*
X66945370Y-62552706D01*
X66942726Y-62549126D01*
X66758884Y-62362374D01*
X66690336Y-62310060D01*
X66554107Y-62206093D01*
X66554103Y-62206090D01*
X66550562Y-62203388D01*
X66321917Y-62075340D01*
X66317768Y-62073735D01*
X66317764Y-62073733D01*
X66170196Y-62016644D01*
X66077512Y-61980787D01*
X66073191Y-61979785D01*
X66073183Y-61979783D01*
X65905069Y-61940817D01*
X65822221Y-61921614D01*
X65561141Y-61899002D01*
X65556706Y-61899246D01*
X65556702Y-61899246D01*
X65303921Y-61913157D01*
X65303914Y-61913158D01*
X65299478Y-61913402D01*
X65042456Y-61964527D01*
X65038246Y-61966005D01*
X65038244Y-61966006D01*
X64893497Y-62016838D01*
X64795201Y-62051357D01*
X64791250Y-62053410D01*
X64791244Y-62053412D01*
X64663894Y-62119566D01*
X64562647Y-62172159D01*
X64559032Y-62174742D01*
X64559026Y-62174746D01*
X64353055Y-62321935D01*
X64353051Y-62321938D01*
X64349434Y-62324523D01*
X64159816Y-62505409D01*
X63997578Y-62711208D01*
X63995346Y-62715050D01*
X63995343Y-62715055D01*
X63919177Y-62846184D01*
X63865955Y-62937813D01*
X63864290Y-62941925D01*
X63864287Y-62941930D01*
X63769248Y-63176570D01*
X63767574Y-63180703D01*
X63704399Y-63435032D01*
X63677688Y-63695726D01*
X63687977Y-63957582D01*
X63735058Y-64215376D01*
X63736467Y-64219599D01*
X63796586Y-64399798D01*
X63799170Y-64470747D01*
X63762987Y-64531831D01*
X63699522Y-64563656D01*
X63631600Y-64557186D01*
X63541668Y-64522394D01*
X63541657Y-64522391D01*
X63537512Y-64520787D01*
X63533191Y-64519785D01*
X63533183Y-64519783D01*
X63365069Y-64480817D01*
X63282221Y-64461614D01*
X63021141Y-64439002D01*
X63016706Y-64439246D01*
X63016702Y-64439246D01*
X62763921Y-64453157D01*
X62763914Y-64453158D01*
X62759478Y-64453402D01*
X62502456Y-64504527D01*
X62255201Y-64591357D01*
X62251250Y-64593410D01*
X62251244Y-64593412D01*
X62195987Y-64622116D01*
X62022647Y-64712159D01*
X62019032Y-64714742D01*
X62019026Y-64714746D01*
X61813055Y-64861935D01*
X61813051Y-64861938D01*
X61809434Y-64864523D01*
X61619816Y-65045409D01*
X61457578Y-65251208D01*
X61455346Y-65255050D01*
X61455343Y-65255055D01*
X61328186Y-65473972D01*
X61325955Y-65477813D01*
X61324290Y-65481925D01*
X61324287Y-65481930D01*
X61229248Y-65716570D01*
X61227574Y-65720703D01*
X61164399Y-65975032D01*
X61137688Y-66235726D01*
X61147977Y-66497582D01*
X61195058Y-66755376D01*
X61277994Y-67003965D01*
X61279987Y-67007953D01*
X61357018Y-67162116D01*
X61395128Y-67238387D01*
X61544124Y-67453967D01*
X61567855Y-67479638D01*
X61599406Y-67543237D01*
X61591565Y-67613800D01*
X61574279Y-67643171D01*
X61460338Y-67787705D01*
X61460328Y-67787719D01*
X61457578Y-67791208D01*
X61455346Y-67795050D01*
X61455343Y-67795055D01*
X61328186Y-68013972D01*
X61325955Y-68017813D01*
X61324290Y-68021925D01*
X61324287Y-68021930D01*
X61229248Y-68256570D01*
X61227574Y-68260703D01*
X61164399Y-68515032D01*
X61137688Y-68775726D01*
X61147977Y-69037582D01*
X61195058Y-69295376D01*
X61277994Y-69543965D01*
X61279987Y-69547953D01*
X61357018Y-69702116D01*
X61395128Y-69778387D01*
X61544124Y-69993967D01*
X61567855Y-70019638D01*
X61599406Y-70083237D01*
X61591565Y-70153800D01*
X61574279Y-70183171D01*
X61460338Y-70327705D01*
X61460328Y-70327719D01*
X61457578Y-70331208D01*
X61455346Y-70335050D01*
X61455343Y-70335055D01*
X61328186Y-70553972D01*
X61325955Y-70557813D01*
X61324290Y-70561925D01*
X61324287Y-70561930D01*
X61229248Y-70796570D01*
X61227574Y-70800703D01*
X61164399Y-71055032D01*
X61137688Y-71315726D01*
X61147977Y-71577582D01*
X61195058Y-71835376D01*
X61277994Y-72083965D01*
X61279987Y-72087953D01*
X61357018Y-72242116D01*
X61395128Y-72318387D01*
X61544124Y-72533967D01*
X61567855Y-72559638D01*
X61599406Y-72623237D01*
X61591565Y-72693800D01*
X61574279Y-72723171D01*
X61460338Y-72867705D01*
X61460328Y-72867719D01*
X61457578Y-72871208D01*
X61455346Y-72875050D01*
X61455343Y-72875055D01*
X61348754Y-73058562D01*
X61325955Y-73097813D01*
X61324290Y-73101925D01*
X61324287Y-73101930D01*
X61290157Y-73186194D01*
X61227574Y-73340703D01*
X61164399Y-73595032D01*
X61137688Y-73855726D01*
X61147977Y-74117582D01*
X61195058Y-74375376D01*
X61277994Y-74623965D01*
X61279987Y-74627953D01*
X61357018Y-74782116D01*
X61395128Y-74858387D01*
X61544124Y-75073967D01*
X61567855Y-75099638D01*
X61599406Y-75163237D01*
X61591565Y-75233800D01*
X61574279Y-75263171D01*
X61460338Y-75407705D01*
X61460328Y-75407719D01*
X61457578Y-75411208D01*
X61455346Y-75415050D01*
X61455343Y-75415055D01*
X61328186Y-75633972D01*
X61325955Y-75637813D01*
X61324290Y-75641925D01*
X61324287Y-75641930D01*
X61229248Y-75876570D01*
X61227574Y-75880703D01*
X61164399Y-76135032D01*
X61137688Y-76395726D01*
X61147977Y-76657582D01*
X61195058Y-76915376D01*
X61277994Y-77163965D01*
X61279987Y-77167953D01*
X61357018Y-77322116D01*
X61395128Y-77398387D01*
X61544124Y-77613967D01*
X61567855Y-77639638D01*
X61599406Y-77703237D01*
X61591565Y-77773800D01*
X61574279Y-77803171D01*
X61460338Y-77947705D01*
X61460328Y-77947719D01*
X61457578Y-77951208D01*
X61455346Y-77955050D01*
X61455343Y-77955055D01*
X61328186Y-78173972D01*
X61325955Y-78177813D01*
X61324290Y-78181925D01*
X61324287Y-78181930D01*
X61229248Y-78416570D01*
X61227574Y-78420703D01*
X61164399Y-78675032D01*
X61137688Y-78935726D01*
X61147977Y-79197582D01*
X61195058Y-79455376D01*
X61277994Y-79703965D01*
X61279987Y-79707953D01*
X61357018Y-79862116D01*
X61395128Y-79938387D01*
X61544124Y-80153967D01*
X61567855Y-80179638D01*
X61599406Y-80243237D01*
X61591565Y-80313800D01*
X61574279Y-80343171D01*
X61460338Y-80487705D01*
X61460328Y-80487719D01*
X61457578Y-80491208D01*
X61455346Y-80495050D01*
X61455343Y-80495055D01*
X61328186Y-80713972D01*
X61325955Y-80717813D01*
X61324290Y-80721925D01*
X61324287Y-80721930D01*
X61229248Y-80956570D01*
X61227574Y-80960703D01*
X61164399Y-81215032D01*
X61137688Y-81475726D01*
X61147977Y-81737582D01*
X61195058Y-81995376D01*
X61277994Y-82243965D01*
X61279987Y-82247953D01*
X61357018Y-82402116D01*
X61395128Y-82478387D01*
X61544124Y-82693967D01*
X61567855Y-82719638D01*
X61599406Y-82783237D01*
X61591565Y-82853800D01*
X61574279Y-82883171D01*
X61460338Y-83027705D01*
X61460328Y-83027719D01*
X61457578Y-83031208D01*
X61455346Y-83035050D01*
X61455343Y-83035055D01*
X61372689Y-83177355D01*
X61325955Y-83257813D01*
X61324290Y-83261925D01*
X61324287Y-83261930D01*
X61236920Y-83477629D01*
X61227574Y-83500703D01*
X61164399Y-83755032D01*
X61137688Y-84015726D01*
X61137863Y-84020177D01*
X61146484Y-84239574D01*
X61147977Y-84277582D01*
X61195058Y-84535376D01*
X61196467Y-84539599D01*
X61262718Y-84738176D01*
X61277994Y-84783965D01*
X61279987Y-84787953D01*
X61357018Y-84942116D01*
X61395128Y-85018387D01*
X61436487Y-85078229D01*
X61535588Y-85221616D01*
X61544124Y-85233967D01*
X61567855Y-85259638D01*
X61599406Y-85323237D01*
X61591565Y-85393800D01*
X61574279Y-85423171D01*
X61460341Y-85567702D01*
X61460335Y-85567710D01*
X61457578Y-85571208D01*
X61455346Y-85575050D01*
X61455343Y-85575055D01*
X61407088Y-85658132D01*
X61325955Y-85797813D01*
X61324290Y-85801925D01*
X61324287Y-85801930D01*
X61296125Y-85871459D01*
X61227574Y-86040703D01*
X61164399Y-86295032D01*
X61137688Y-86555726D01*
X57388000Y-86555726D01*
X57388000Y-58639665D01*
X75033119Y-58639665D01*
X75033416Y-58644817D01*
X75033416Y-58644821D01*
X75038864Y-58739296D01*
X75046376Y-58869580D01*
X75047513Y-58874626D01*
X75047514Y-58874632D01*
X75069226Y-58970975D01*
X75097006Y-59094242D01*
X75098948Y-59099024D01*
X75098949Y-59099028D01*
X75136427Y-59191325D01*
X75183649Y-59307618D01*
X75303979Y-59503978D01*
X75454763Y-59678048D01*
X75631953Y-59825154D01*
X75830790Y-59941345D01*
X76045934Y-60023501D01*
X76051000Y-60024532D01*
X76051001Y-60024532D01*
X76151697Y-60045018D01*
X76271607Y-60069414D01*
X76401352Y-60074172D01*
X76496585Y-60077664D01*
X76496589Y-60077664D01*
X76501749Y-60077853D01*
X76506869Y-60077197D01*
X76506871Y-60077197D01*
X76576272Y-60068307D01*
X76730178Y-60048591D01*
X76735126Y-60047106D01*
X76735133Y-60047105D01*
X76945811Y-59983898D01*
X76945810Y-59983898D01*
X76950761Y-59982413D01*
X77157574Y-59881096D01*
X77345062Y-59747363D01*
X77508190Y-59584803D01*
X77566269Y-59503978D01*
X77639559Y-59401983D01*
X77642577Y-59397783D01*
X77744615Y-59191325D01*
X77775643Y-59089200D01*
X77810059Y-58975927D01*
X77810060Y-58975921D01*
X77811563Y-58970975D01*
X77841622Y-58742649D01*
X77843300Y-58674000D01*
X77824430Y-58444478D01*
X77768326Y-58221120D01*
X77676496Y-58009924D01*
X77551405Y-57816563D01*
X77530774Y-57793889D01*
X77399890Y-57650051D01*
X77399889Y-57650050D01*
X77396412Y-57646229D01*
X77392361Y-57643030D01*
X77392357Y-57643026D01*
X77219735Y-57506697D01*
X77219730Y-57506693D01*
X77215681Y-57503496D01*
X77211165Y-57501003D01*
X77211162Y-57501001D01*
X77018589Y-57394695D01*
X77018585Y-57394693D01*
X77014065Y-57392198D01*
X77009196Y-57390474D01*
X77009192Y-57390472D01*
X76801853Y-57317049D01*
X76801849Y-57317048D01*
X76796978Y-57315323D01*
X76791885Y-57314416D01*
X76791882Y-57314415D01*
X76695707Y-57297284D01*
X76570250Y-57274937D01*
X76483802Y-57273881D01*
X76345141Y-57272186D01*
X76345139Y-57272186D01*
X76339971Y-57272123D01*
X76112325Y-57306958D01*
X75893424Y-57378506D01*
X75689149Y-57484845D01*
X75504984Y-57623119D01*
X75345877Y-57789616D01*
X75216099Y-57979863D01*
X75213923Y-57984552D01*
X75213919Y-57984558D01*
X75202145Y-58009924D01*
X75119136Y-58188752D01*
X75057592Y-58410673D01*
X75033119Y-58639665D01*
X57388000Y-58639665D01*
X57388000Y-56260000D01*
X57408002Y-56191879D01*
X57461658Y-56145386D01*
X57514000Y-56134000D01*
X118492000Y-56134000D01*
X118560121Y-56154002D01*
G37*
%TD.AperFunction*%
%TD*%
M02*
