M48
; DRILL file {KiCad (6.0.1)} date Mon Aug 22 16:21:30 2022
; FORMAT={-:-/ absolute / metric / decimal}
; #@! TF.CreationDate,2022-08-22T16:21:30+03:00
; #@! TF.GenerationSoftware,Kicad,Pcbnew,(6.0.1)
; #@! TF.FileFunction,Plated,1,4,PTH
FMAT,2
METRIC
; #@! TA.AperFunction,Plated,PTH,ViaDrill
T1C0.400
; #@! TA.AperFunction,Plated,PTH,ComponentDrill
T2C1.000
; #@! TA.AperFunction,Plated,PTH,ComponentDrill
T3C1.020
; #@! TA.AperFunction,Plated,PTH,ComponentDrill
T4C2.690
%
G90
G05
T1
X60.452Y-116.078
X64.262Y-116.078
X71.882Y-58.674
X76.438Y-58.674
X77.978Y-37.084
X77.978Y-94.488
X77.978Y-98.806
X78.994Y-114.046
X79.227Y-120.65
X80.285Y-90.191
X82.042Y-35.052
X82.55Y-86.106
X82.55Y-102.362
X82.55Y-110.49
X82.801Y-94.485
X82.804Y-98.806
X85.09Y-90.17
X86.106Y-114.046
X86.106Y-117.094
X86.106Y-120.65
X86.868Y-86.106
X87.376Y-94.488
X90.678Y-141.986
X92.267Y-40.959
X93.218Y-113.538
X93.218Y-121.158
X94.488Y-141.986
X94.869Y-38.735
X96.139Y-38.735
X98.298Y-113.538
X98.298Y-121.158
X98.806Y-46.228
X101.362Y-49.546
X118.11Y-41.91
X118.11Y-42.926
X118.11Y-53.594
X118.11Y-54.61
X118.11Y-83.312
X118.11Y-84.328
X118.11Y-86.36
X118.11Y-87.376
X118.204Y-56.642
X118.204Y-57.658
X122.428Y-36.576
X124.705Y-111.515
X124.714Y-105.41
T2
X62.992Y-63.754
X62.992Y-66.294
X62.992Y-68.834
X62.992Y-71.374
X62.992Y-73.914
X62.992Y-76.454
X62.992Y-78.994
X62.992Y-81.534
X62.992Y-84.074
X62.992Y-86.614
X62.992Y-127.254
X62.992Y-129.794
X62.992Y-132.334
X62.992Y-134.874
X62.992Y-137.414
X62.992Y-139.954
X62.992Y-142.494
X62.992Y-145.034
X62.992Y-147.574
X62.992Y-150.114
X65.532Y-63.754
X65.532Y-66.294
X65.532Y-68.834
X65.532Y-71.374
X65.532Y-73.914
X65.532Y-76.454
X65.532Y-78.994
X65.532Y-81.534
X65.532Y-84.074
X65.532Y-86.614
X65.532Y-127.254
X65.532Y-129.794
X65.532Y-132.334
X65.532Y-134.874
X65.532Y-137.414
X65.532Y-139.954
X65.532Y-142.494
X65.532Y-145.034
X65.532Y-147.574
X65.532Y-150.114
X91.44Y-23.876
X91.44Y-26.416
X93.98Y-23.876
X93.98Y-26.416
X96.52Y-23.876
X96.52Y-26.416
X99.06Y-23.876
X99.06Y-26.416
X101.6Y-23.876
X101.6Y-26.416
X104.14Y-23.876
X104.14Y-26.416
X106.172Y-63.754
X106.172Y-66.294
X106.172Y-68.834
X106.172Y-71.374
X106.172Y-73.914
X106.172Y-76.454
X106.172Y-78.994
X106.172Y-81.534
X106.172Y-84.074
X106.172Y-86.614
X106.172Y-127.254
X106.172Y-129.794
X106.172Y-132.334
X106.172Y-134.874
X106.172Y-137.414
X106.172Y-139.954
X106.172Y-142.494
X106.172Y-145.034
X106.172Y-147.574
X106.172Y-150.114
X106.68Y-23.876
X106.68Y-26.416
X108.712Y-63.754
X108.712Y-66.294
X108.712Y-68.834
X108.712Y-71.374
X108.712Y-73.914
X108.712Y-76.454
X108.712Y-78.994
X108.712Y-81.534
X108.712Y-84.074
X108.712Y-86.614
X108.712Y-127.254
X108.712Y-129.794
X108.712Y-132.334
X108.712Y-134.874
X108.712Y-137.414
X108.712Y-139.954
X108.712Y-142.494
X108.712Y-145.034
X108.712Y-147.574
X108.712Y-150.114
T3
X123.84Y-54.084
X123.84Y-57.084
X123.84Y-69.342
X123.84Y-72.342
X123.84Y-83.764
X123.84Y-86.764
X123.84Y-95.446
X123.84Y-98.446
X123.84Y-118.214
X123.84Y-121.214
X123.84Y-129.898
X123.84Y-132.898
X123.84Y-142.392
X123.84Y-145.392
X123.84Y-148.392
X123.84Y-151.392
X123.878Y-24.154
X123.878Y-27.154
X123.878Y-42.436
X123.878Y-45.436
X126.84Y-54.084
X126.84Y-57.084
X126.84Y-69.342
X126.84Y-72.342
X126.84Y-83.764
X126.84Y-86.764
X126.84Y-95.446
X126.84Y-98.446
X126.84Y-118.214
X126.84Y-121.214
X126.84Y-129.898
X126.84Y-132.898
X126.84Y-142.392
X126.84Y-145.392
X126.84Y-148.392
X126.84Y-151.392
X126.878Y-24.154
X126.878Y-27.154
X126.878Y-42.436
X126.878Y-45.436
T4
X82.5Y-25.396
X115.62Y-25.396
T0
M30
