%TF.GenerationSoftware,KiCad,Pcbnew,(6.0.1)*%
%TF.CreationDate,2022-08-22T15:26:47+03:00*%
%TF.ProjectId,Launch-Adapter,4c61756e-6368-42d4-9164-61707465722e,rev?*%
%TF.SameCoordinates,Original*%
%TF.FileFunction,Legend,Bot*%
%TF.FilePolarity,Positive*%
%FSLAX46Y46*%
G04 Gerber Fmt 4.6, Leading zero omitted, Abs format (unit mm)*
G04 Created by KiCad (PCBNEW (6.0.1)) date 2022-08-22 15:26:47*
%MOMM*%
%LPD*%
G01*
G04 APERTURE LIST*
%ADD10C,0.150000*%
%ADD11C,0.120000*%
G04 APERTURE END LIST*
D10*
%TO.C,C20*%
X80398857Y-106783142D02*
X80446476Y-106830761D01*
X80589333Y-106878380D01*
X80684571Y-106878380D01*
X80827428Y-106830761D01*
X80922666Y-106735523D01*
X80970285Y-106640285D01*
X81017904Y-106449809D01*
X81017904Y-106306952D01*
X80970285Y-106116476D01*
X80922666Y-106021238D01*
X80827428Y-105926000D01*
X80684571Y-105878380D01*
X80589333Y-105878380D01*
X80446476Y-105926000D01*
X80398857Y-105973619D01*
X80017904Y-105973619D02*
X79970285Y-105926000D01*
X79875047Y-105878380D01*
X79636952Y-105878380D01*
X79541714Y-105926000D01*
X79494095Y-105973619D01*
X79446476Y-106068857D01*
X79446476Y-106164095D01*
X79494095Y-106306952D01*
X80065523Y-106878380D01*
X79446476Y-106878380D01*
X78827428Y-105878380D02*
X78732190Y-105878380D01*
X78636952Y-105926000D01*
X78589333Y-105973619D01*
X78541714Y-106068857D01*
X78494095Y-106259333D01*
X78494095Y-106497428D01*
X78541714Y-106687904D01*
X78589333Y-106783142D01*
X78636952Y-106830761D01*
X78732190Y-106878380D01*
X78827428Y-106878380D01*
X78922666Y-106830761D01*
X78970285Y-106783142D01*
X79017904Y-106687904D01*
X79065523Y-106497428D01*
X79065523Y-106259333D01*
X79017904Y-106068857D01*
X78970285Y-105973619D01*
X78922666Y-105926000D01*
X78827428Y-105878380D01*
%TO.C,C4*%
X92813142Y-142454333D02*
X92860761Y-142406714D01*
X92908380Y-142263857D01*
X92908380Y-142168619D01*
X92860761Y-142025761D01*
X92765523Y-141930523D01*
X92670285Y-141882904D01*
X92479809Y-141835285D01*
X92336952Y-141835285D01*
X92146476Y-141882904D01*
X92051238Y-141930523D01*
X91956000Y-142025761D01*
X91908380Y-142168619D01*
X91908380Y-142263857D01*
X91956000Y-142406714D01*
X92003619Y-142454333D01*
X92241714Y-143311476D02*
X92908380Y-143311476D01*
X91860761Y-143073380D02*
X92575047Y-142835285D01*
X92575047Y-143454333D01*
%TO.C,D3*%
X92556380Y-42695904D02*
X91556380Y-42695904D01*
X91556380Y-42934000D01*
X91604000Y-43076857D01*
X91699238Y-43172095D01*
X91794476Y-43219714D01*
X91984952Y-43267333D01*
X92127809Y-43267333D01*
X92318285Y-43219714D01*
X92413523Y-43172095D01*
X92508761Y-43076857D01*
X92556380Y-42934000D01*
X92556380Y-42695904D01*
X91556380Y-43600666D02*
X91556380Y-44219714D01*
X91937333Y-43886380D01*
X91937333Y-44029238D01*
X91984952Y-44124476D01*
X92032571Y-44172095D01*
X92127809Y-44219714D01*
X92365904Y-44219714D01*
X92461142Y-44172095D01*
X92508761Y-44124476D01*
X92556380Y-44029238D01*
X92556380Y-43743523D01*
X92508761Y-43648285D01*
X92461142Y-43600666D01*
%TO.C,R3*%
X105877666Y-117800380D02*
X106211000Y-117324190D01*
X106449095Y-117800380D02*
X106449095Y-116800380D01*
X106068142Y-116800380D01*
X105972904Y-116848000D01*
X105925285Y-116895619D01*
X105877666Y-116990857D01*
X105877666Y-117133714D01*
X105925285Y-117228952D01*
X105972904Y-117276571D01*
X106068142Y-117324190D01*
X106449095Y-117324190D01*
X105544333Y-116800380D02*
X104925285Y-116800380D01*
X105258619Y-117181333D01*
X105115761Y-117181333D01*
X105020523Y-117228952D01*
X104972904Y-117276571D01*
X104925285Y-117371809D01*
X104925285Y-117609904D01*
X104972904Y-117705142D01*
X105020523Y-117752761D01*
X105115761Y-117800380D01*
X105401476Y-117800380D01*
X105496714Y-117752761D01*
X105544333Y-117705142D01*
%TO.C,U3*%
X96519904Y-122320380D02*
X96519904Y-123129904D01*
X96472285Y-123225142D01*
X96424666Y-123272761D01*
X96329428Y-123320380D01*
X96138952Y-123320380D01*
X96043714Y-123272761D01*
X95996095Y-123225142D01*
X95948476Y-123129904D01*
X95948476Y-122320380D01*
X95567523Y-122320380D02*
X94948476Y-122320380D01*
X95281809Y-122701333D01*
X95138952Y-122701333D01*
X95043714Y-122748952D01*
X94996095Y-122796571D01*
X94948476Y-122891809D01*
X94948476Y-123129904D01*
X94996095Y-123225142D01*
X95043714Y-123272761D01*
X95138952Y-123320380D01*
X95424666Y-123320380D01*
X95519904Y-123272761D01*
X95567523Y-123225142D01*
D11*
%TO.C,C20*%
X83285000Y-106164748D02*
X83285000Y-106687252D01*
X81815000Y-106164748D02*
X81815000Y-106687252D01*
%TO.C,C4*%
X92717252Y-140943000D02*
X92194748Y-140943000D01*
X92717252Y-139473000D02*
X92194748Y-139473000D01*
%TO.C,D3*%
X92944000Y-43434000D02*
X92944000Y-39984000D01*
X92944000Y-43434000D02*
X92944000Y-45384000D01*
X98064000Y-43434000D02*
X98064000Y-45384000D01*
X98064000Y-43434000D02*
X98064000Y-41484000D01*
%TO.C,R3*%
X104113000Y-117120936D02*
X104113000Y-117575064D01*
X102643000Y-117120936D02*
X102643000Y-117575064D01*
%TO.C,U3*%
X95758000Y-112663000D02*
X99178000Y-112663000D01*
X92338000Y-122033000D02*
X92338000Y-121743000D01*
X95758000Y-122033000D02*
X92338000Y-122033000D01*
X99178000Y-112663000D02*
X99178000Y-112953000D01*
X99178000Y-122033000D02*
X99178000Y-121743000D01*
X92338000Y-121743000D02*
X90058000Y-121743000D01*
X95758000Y-122033000D02*
X99178000Y-122033000D01*
X92338000Y-112663000D02*
X92338000Y-112953000D01*
X95758000Y-112663000D02*
X92338000Y-112663000D01*
%TD*%
M02*
