%TF.GenerationSoftware,KiCad,Pcbnew,(6.0.1)*%
%TF.CreationDate,2022-08-22T15:26:47+03:00*%
%TF.ProjectId,Launch-Adapter,4c61756e-6368-42d4-9164-61707465722e,rev?*%
%TF.SameCoordinates,Original*%
%TF.FileFunction,Paste,Top*%
%TF.FilePolarity,Positive*%
%FSLAX46Y46*%
G04 Gerber Fmt 4.6, Leading zero omitted, Abs format (unit mm)*
G04 Created by KiCad (PCBNEW (6.0.1)) date 2022-08-22 15:26:47*
%MOMM*%
%LPD*%
G01*
G04 APERTURE LIST*
G04 Aperture macros list*
%AMRoundRect*
0 Rectangle with rounded corners*
0 $1 Rounding radius*
0 $2 $3 $4 $5 $6 $7 $8 $9 X,Y pos of 4 corners*
0 Add a 4 corners polygon primitive as box body*
4,1,4,$2,$3,$4,$5,$6,$7,$8,$9,$2,$3,0*
0 Add four circle primitives for the rounded corners*
1,1,$1+$1,$2,$3*
1,1,$1+$1,$4,$5*
1,1,$1+$1,$6,$7*
1,1,$1+$1,$8,$9*
0 Add four rect primitives between the rounded corners*
20,1,$1+$1,$2,$3,$4,$5,0*
20,1,$1+$1,$4,$5,$6,$7,0*
20,1,$1+$1,$6,$7,$8,$9,0*
20,1,$1+$1,$8,$9,$2,$3,0*%
G04 Aperture macros list end*
%ADD10RoundRect,0.250000X0.350000X0.450000X-0.350000X0.450000X-0.350000X-0.450000X0.350000X-0.450000X0*%
%ADD11RoundRect,0.250000X-0.350000X-0.450000X0.350000X-0.450000X0.350000X0.450000X-0.350000X0.450000X0*%
%ADD12RoundRect,0.250000X0.475000X-0.337500X0.475000X0.337500X-0.475000X0.337500X-0.475000X-0.337500X0*%
%ADD13RoundRect,0.250000X1.100000X-0.412500X1.100000X0.412500X-1.100000X0.412500X-1.100000X-0.412500X0*%
%ADD14RoundRect,0.250000X-0.475000X0.337500X-0.475000X-0.337500X0.475000X-0.337500X0.475000X0.337500X0*%
%ADD15RoundRect,0.250000X0.450000X-0.350000X0.450000X0.350000X-0.450000X0.350000X-0.450000X-0.350000X0*%
%ADD16RoundRect,0.250000X-0.450000X0.350000X-0.450000X-0.350000X0.450000X-0.350000X0.450000X0.350000X0*%
%ADD17RoundRect,0.250000X-0.325000X-0.450000X0.325000X-0.450000X0.325000X0.450000X-0.325000X0.450000X0*%
%ADD18RoundRect,0.150000X-0.150000X0.825000X-0.150000X-0.825000X0.150000X-0.825000X0.150000X0.825000X0*%
%ADD19RoundRect,0.250000X0.337500X0.475000X-0.337500X0.475000X-0.337500X-0.475000X0.337500X-0.475000X0*%
%ADD20RoundRect,0.150000X0.150000X-0.587500X0.150000X0.587500X-0.150000X0.587500X-0.150000X-0.587500X0*%
%ADD21R,1.600000X3.100000*%
%ADD22R,0.500000X0.500000*%
G04 APERTURE END LIST*
D10*
%TO.C,R28*%
X70342000Y-71374000D03*
X68342000Y-71374000D03*
%TD*%
%TO.C,R31*%
X70342000Y-84074000D03*
X68342000Y-84074000D03*
%TD*%
D11*
%TO.C,R17*%
X133382000Y-36576000D03*
X135382000Y-36576000D03*
%TD*%
D12*
%TO.C,C23*%
X87376000Y-96541500D03*
X87376000Y-94466500D03*
%TD*%
D10*
%TO.C,R35*%
X70342000Y-137414000D03*
X68342000Y-137414000D03*
%TD*%
D13*
%TO.C,C5*%
X120490000Y-57188500D03*
X120490000Y-54063500D03*
%TD*%
D10*
%TO.C,R29*%
X70342000Y-73914000D03*
X68342000Y-73914000D03*
%TD*%
D12*
%TO.C,C1*%
X93218000Y-118385500D03*
X93218000Y-116310500D03*
%TD*%
D11*
%TO.C,R20*%
X133243500Y-109728000D03*
X135243500Y-109728000D03*
%TD*%
D14*
%TO.C,C11*%
X95250000Y-41126500D03*
X95250000Y-43201500D03*
%TD*%
D10*
%TO.C,R38*%
X103362000Y-73914000D03*
X101362000Y-73914000D03*
%TD*%
D15*
%TO.C,R8*%
X85068500Y-96520000D03*
X85068500Y-94520000D03*
%TD*%
D16*
%TO.C,R15*%
X87376000Y-98822000D03*
X87376000Y-100822000D03*
%TD*%
D12*
%TO.C,C19*%
X82782500Y-100859500D03*
X82782500Y-98784500D03*
%TD*%
D16*
%TO.C,R11*%
X81280000Y-112030000D03*
X81280000Y-114030000D03*
%TD*%
D14*
%TO.C,C18*%
X78994000Y-111992500D03*
X78994000Y-114067500D03*
%TD*%
D15*
%TO.C,R16*%
X74422000Y-63484000D03*
X74422000Y-61484000D03*
%TD*%
D10*
%TO.C,R27*%
X70342000Y-68834000D03*
X68342000Y-68834000D03*
%TD*%
%TO.C,R34*%
X70342000Y-134874000D03*
X68342000Y-134874000D03*
%TD*%
D16*
%TO.C,R6*%
X81280000Y-116348000D03*
X81280000Y-118348000D03*
%TD*%
D15*
%TO.C,R10*%
X80264000Y-100822000D03*
X80264000Y-98822000D03*
%TD*%
%TO.C,R51*%
X88392000Y-114030000D03*
X88392000Y-112030000D03*
%TD*%
D13*
%TO.C,C2*%
X120396000Y-45504500D03*
X120396000Y-42379500D03*
%TD*%
D11*
%TO.C,R1*%
X93869000Y-152273000D03*
X95869000Y-152273000D03*
%TD*%
%TO.C,R19*%
X124238000Y-36576000D03*
X126238000Y-36576000D03*
%TD*%
D17*
%TO.C,D4*%
X133357000Y-34036000D03*
X135407000Y-34036000D03*
%TD*%
%TO.C,D7*%
X133218500Y-107188000D03*
X135268500Y-107188000D03*
%TD*%
D12*
%TO.C,C7*%
X98298000Y-118385500D03*
X98298000Y-116310500D03*
%TD*%
D11*
%TO.C,R45*%
X100797000Y-145034000D03*
X102797000Y-145034000D03*
%TD*%
D10*
%TO.C,R33*%
X70342000Y-132334000D03*
X68342000Y-132334000D03*
%TD*%
%TO.C,R32*%
X70342000Y-86614000D03*
X68342000Y-86614000D03*
%TD*%
D15*
%TO.C,R14*%
X76708000Y-114030000D03*
X76708000Y-112030000D03*
%TD*%
D10*
%TO.C,R41*%
X83296000Y-44958000D03*
X81296000Y-44958000D03*
%TD*%
D12*
%TO.C,C21*%
X75692000Y-96541500D03*
X75692000Y-94466500D03*
%TD*%
D14*
%TO.C,C10*%
X88392000Y-116310500D03*
X88392000Y-118385500D03*
%TD*%
D18*
%TO.C,U5*%
X86360000Y-103951000D03*
X85090000Y-103951000D03*
X83820000Y-103951000D03*
X82550000Y-103951000D03*
X81280000Y-103951000D03*
X80010000Y-103951000D03*
X78740000Y-103951000D03*
X78740000Y-108901000D03*
X80010000Y-108901000D03*
X81280000Y-108901000D03*
X82550000Y-108901000D03*
X83820000Y-108901000D03*
X85090000Y-108901000D03*
X86360000Y-108901000D03*
%TD*%
D11*
%TO.C,R44*%
X100916000Y-137414000D03*
X102916000Y-137414000D03*
%TD*%
D16*
%TO.C,R5*%
X77978000Y-94488000D03*
X77978000Y-96488000D03*
%TD*%
D11*
%TO.C,R39*%
X74438000Y-58674000D03*
X76438000Y-58674000D03*
%TD*%
D13*
%TO.C,C6*%
X120236000Y-98496500D03*
X120236000Y-95371500D03*
%TD*%
%TO.C,C3*%
X120236000Y-86851000D03*
X120236000Y-83726000D03*
%TD*%
D19*
%TO.C,C15*%
X81301500Y-120650000D03*
X79226500Y-120650000D03*
%TD*%
D15*
%TO.C,R4*%
X80264000Y-96488000D03*
X80264000Y-94488000D03*
%TD*%
D16*
%TO.C,R9*%
X82782500Y-94504000D03*
X82782500Y-96504000D03*
%TD*%
D17*
%TO.C,D6*%
X124213000Y-34036000D03*
X126263000Y-34036000D03*
%TD*%
%TO.C,D5*%
X124705000Y-107188000D03*
X126755000Y-107188000D03*
%TD*%
D20*
%TO.C,Q1*%
X74488000Y-55547500D03*
X76388000Y-55547500D03*
X75438000Y-53672500D03*
%TD*%
D10*
%TO.C,R36*%
X103362000Y-63754000D03*
X101362000Y-63754000D03*
%TD*%
D14*
%TO.C,C9*%
X86106000Y-111992500D03*
X86106000Y-114067500D03*
%TD*%
D21*
%TO.C,D1*%
X72898000Y-49403000D03*
X75438000Y-49403000D03*
X77978000Y-49403000D03*
X77978000Y-40513000D03*
X75438000Y-40513000D03*
X72898000Y-40513000D03*
%TD*%
D10*
%TO.C,R30*%
X70342000Y-81534000D03*
X68342000Y-81534000D03*
%TD*%
D14*
%TO.C,C22*%
X76708000Y-116310500D03*
X76708000Y-118385500D03*
%TD*%
D12*
%TO.C,C17*%
X77978000Y-100859500D03*
X77978000Y-98784500D03*
%TD*%
D11*
%TO.C,R2*%
X89551000Y-152273000D03*
X91551000Y-152273000D03*
%TD*%
D15*
%TO.C,R7*%
X78994000Y-118348000D03*
X78994000Y-116348000D03*
%TD*%
D16*
%TO.C,R40*%
X71882000Y-56658000D03*
X71882000Y-58658000D03*
%TD*%
D19*
%TO.C,C14*%
X80285500Y-92202000D03*
X78210500Y-92202000D03*
%TD*%
D10*
%TO.C,R21*%
X70342000Y-78994000D03*
X68342000Y-78994000D03*
%TD*%
D22*
%TO.C,D2*%
X78148000Y-35052000D03*
X80348000Y-35052000D03*
%TD*%
D14*
%TO.C,C8*%
X83820000Y-116310500D03*
X83820000Y-118385500D03*
%TD*%
D19*
%TO.C,C16*%
X85090000Y-92202000D03*
X83015000Y-92202000D03*
%TD*%
D10*
%TO.C,R37*%
X103362000Y-68834000D03*
X101362000Y-68834000D03*
%TD*%
D11*
%TO.C,R46*%
X100797000Y-142494000D03*
X102797000Y-142494000D03*
%TD*%
D18*
%TO.C,U4*%
X94488000Y-143702000D03*
X93218000Y-143702000D03*
X91948000Y-143702000D03*
X90678000Y-143702000D03*
X90678000Y-148652000D03*
X91948000Y-148652000D03*
X93218000Y-148652000D03*
X94488000Y-148652000D03*
%TD*%
D16*
%TO.C,R50*%
X83820000Y-112030000D03*
X83820000Y-114030000D03*
%TD*%
D11*
%TO.C,R43*%
X100916000Y-139954000D03*
X102916000Y-139954000D03*
%TD*%
%TO.C,R18*%
X124730000Y-109728000D03*
X126730000Y-109728000D03*
%TD*%
D15*
%TO.C,R12*%
X85068500Y-100822000D03*
X85068500Y-98822000D03*
%TD*%
D16*
%TO.C,R13*%
X75692000Y-98822000D03*
X75692000Y-100822000D03*
%TD*%
M02*
