%TF.GenerationSoftware,KiCad,Pcbnew,(6.0.1)*%
%TF.CreationDate,2022-08-22T15:26:47+03:00*%
%TF.ProjectId,Launch-Adapter,4c61756e-6368-42d4-9164-61707465722e,rev?*%
%TF.SameCoordinates,Original*%
%TF.FileFunction,Copper,L3,Inr*%
%TF.FilePolarity,Positive*%
%FSLAX46Y46*%
G04 Gerber Fmt 4.6, Leading zero omitted, Abs format (unit mm)*
G04 Created by KiCad (PCBNEW (6.0.1)) date 2022-08-22 15:26:47*
%MOMM*%
%LPD*%
G01*
G04 APERTURE LIST*
G04 Aperture macros list*
%AMRoundRect*
0 Rectangle with rounded corners*
0 $1 Rounding radius*
0 $2 $3 $4 $5 $6 $7 $8 $9 X,Y pos of 4 corners*
0 Add a 4 corners polygon primitive as box body*
4,1,4,$2,$3,$4,$5,$6,$7,$8,$9,$2,$3,0*
0 Add four circle primitives for the rounded corners*
1,1,$1+$1,$2,$3*
1,1,$1+$1,$4,$5*
1,1,$1+$1,$6,$7*
1,1,$1+$1,$8,$9*
0 Add four rect primitives between the rounded corners*
20,1,$1+$1,$2,$3,$4,$5,0*
20,1,$1+$1,$4,$5,$6,$7,0*
20,1,$1+$1,$6,$7,$8,$9,0*
20,1,$1+$1,$8,$9,$2,$3,0*%
G04 Aperture macros list end*
%TA.AperFunction,ComponentPad*%
%ADD10RoundRect,0.250001X-0.499999X0.499999X-0.499999X-0.499999X0.499999X-0.499999X0.499999X0.499999X0*%
%TD*%
%TA.AperFunction,ComponentPad*%
%ADD11C,1.500000*%
%TD*%
%TA.AperFunction,ComponentPad*%
%ADD12RoundRect,0.250000X0.600000X-0.600000X0.600000X0.600000X-0.600000X0.600000X-0.600000X-0.600000X0*%
%TD*%
%TA.AperFunction,ComponentPad*%
%ADD13C,1.700000*%
%TD*%
%TA.AperFunction,ComponentPad*%
%ADD14C,8.000000*%
%TD*%
%TA.AperFunction,ComponentPad*%
%ADD15R,1.700000X1.700000*%
%TD*%
%TA.AperFunction,ComponentPad*%
%ADD16O,1.700000X1.700000*%
%TD*%
%TA.AperFunction,ViaPad*%
%ADD17C,0.800000*%
%TD*%
%TA.AperFunction,Conductor*%
%ADD18C,0.500000*%
%TD*%
%TA.AperFunction,Conductor*%
%ADD19C,1.000000*%
%TD*%
%TA.AperFunction,Conductor*%
%ADD20C,1.500000*%
%TD*%
G04 APERTURE END LIST*
D10*
%TO.N,GND*%
%TO.C,J13*%
X126878500Y-24154000D03*
D11*
%TO.N,Net-(D1-Pad4)*%
X126878500Y-27154000D03*
%TO.N,GND*%
X123878500Y-24154000D03*
%TO.N,Net-(D1-Pad4)*%
X123878500Y-27154000D03*
%TD*%
D12*
%TO.N,RDY*%
%TO.C,J5*%
X91440000Y-26416000D03*
D13*
%TO.N,GND*%
X91440000Y-23876000D03*
%TO.N,FLT*%
X93980000Y-26416000D03*
%TO.N,GND*%
X93980000Y-23876000D03*
%TO.N,RST*%
X96520000Y-26416000D03*
%TO.N,GND*%
X96520000Y-23876000D03*
%TO.N,IN-*%
X99060000Y-26416000D03*
%TO.N,GND*%
X99060000Y-23876000D03*
%TO.N,IN+*%
X101600000Y-26416000D03*
%TO.N,GND*%
X101600000Y-23876000D03*
%TO.N,+5V*%
X104140000Y-26416000D03*
%TO.N,GND*%
X104140000Y-23876000D03*
%TO.N,+15V*%
X106680000Y-26416000D03*
%TO.N,GND*%
X106680000Y-23876000D03*
D14*
%TO.N,N/C*%
X115620000Y-25396000D03*
X82500000Y-25396000D03*
%TD*%
D10*
%TO.N,GND*%
%TO.C,J9*%
X126840000Y-54084000D03*
D11*
%TO.N,+3V3*%
X126840000Y-57084000D03*
%TO.N,GND*%
X123840000Y-54084000D03*
%TO.N,+3V3*%
X123840000Y-57084000D03*
%TD*%
D10*
%TO.N,GND2*%
%TO.C,J10*%
X126840000Y-95446000D03*
D11*
%TO.N,+5VD*%
X126840000Y-98446000D03*
%TO.N,GND2*%
X123840000Y-95446000D03*
%TO.N,+5VD*%
X123840000Y-98446000D03*
%TD*%
D10*
%TO.N,GND*%
%TO.C,J8*%
X126878500Y-42436000D03*
D11*
%TO.N,+15V*%
X126878500Y-45436000D03*
%TO.N,GND*%
X123878500Y-42436000D03*
%TO.N,+15V*%
X123878500Y-45436000D03*
%TD*%
D10*
%TO.N,GND*%
%TO.C,J6*%
X126840000Y-118214000D03*
D11*
X126840000Y-121214000D03*
%TO.N,V_IN*%
X123840000Y-118214000D03*
%TO.N,V_OUT*%
X123840000Y-121214000D03*
%TD*%
D10*
%TO.N,unconnected-(J14-Pad1)*%
%TO.C,J14*%
X126840000Y-69342000D03*
D11*
%TO.N,Temp*%
X126840000Y-72342000D03*
%TO.N,GND*%
X123840000Y-69342000D03*
%TO.N,+5V*%
X123840000Y-72342000D03*
%TD*%
D15*
%TO.N,+3V3*%
%TO.C,J2*%
X62992000Y-127254000D03*
D16*
%TO.N,+5V*%
X65532000Y-127254000D03*
%TO.N,unconnected-(J2-Pad3)*%
X62992000Y-129794000D03*
%TO.N,GND*%
X65532000Y-129794000D03*
%TO.N,unconnected-(J2-Pad5)*%
X62992000Y-132334000D03*
%TO.N,Net-(J2-Pad6)*%
X65532000Y-132334000D03*
%TO.N,unconnected-(J2-Pad7)*%
X62992000Y-134874000D03*
%TO.N,Net-(J2-Pad8)*%
X65532000Y-134874000D03*
%TO.N,unconnected-(J2-Pad9)*%
X62992000Y-137414000D03*
%TO.N,Net-(J2-Pad10)*%
X65532000Y-137414000D03*
%TO.N,unconnected-(J2-Pad11)*%
X62992000Y-139954000D03*
%TO.N,unconnected-(J2-Pad12)*%
X65532000Y-139954000D03*
%TO.N,unconnected-(J2-Pad13)*%
X62992000Y-142494000D03*
%TO.N,unconnected-(J2-Pad14)*%
X65532000Y-142494000D03*
%TO.N,unconnected-(J2-Pad15)*%
X62992000Y-145034000D03*
%TO.N,unconnected-(J2-Pad16)*%
X65532000Y-145034000D03*
%TO.N,unconnected-(J2-Pad17)*%
X62992000Y-147574000D03*
%TO.N,unconnected-(J2-Pad18)*%
X65532000Y-147574000D03*
%TO.N,unconnected-(J2-Pad19)*%
X62992000Y-150114000D03*
%TO.N,unconnected-(J2-Pad20)*%
X65532000Y-150114000D03*
%TD*%
D10*
%TO.N,GND*%
%TO.C,J12*%
X126840000Y-129898000D03*
D11*
%TO.N,I_INDUCT*%
X126840000Y-132898000D03*
%TO.N,GND*%
X123840000Y-129898000D03*
%TO.N,I_INDUCT*%
X123840000Y-132898000D03*
%TD*%
D10*
%TO.N,CANL*%
%TO.C,J11*%
X126840000Y-142392000D03*
D11*
%TO.N,GND*%
X126840000Y-145392000D03*
%TO.N,B*%
X126840000Y-148392000D03*
%TO.N,Y*%
X126840000Y-151392000D03*
%TO.N,CANH*%
X123840000Y-142392000D03*
%TO.N,GND*%
X123840000Y-145392000D03*
%TO.N,A*%
X123840000Y-148392000D03*
%TO.N,Z*%
X123840000Y-151392000D03*
%TD*%
D15*
%TO.N,unconnected-(J4-Pad1)*%
%TO.C,J4*%
X106172000Y-127254000D03*
D16*
%TO.N,unconnected-(J4-Pad2)*%
X108712000Y-127254000D03*
%TO.N,unconnected-(J4-Pad3)*%
X106172000Y-129794000D03*
%TO.N,unconnected-(J4-Pad4)*%
X108712000Y-129794000D03*
%TO.N,unconnected-(J4-Pad5)*%
X106172000Y-132334000D03*
%TO.N,unconnected-(J4-Pad6)*%
X108712000Y-132334000D03*
%TO.N,unconnected-(J4-Pad7)*%
X106172000Y-134874000D03*
%TO.N,unconnected-(J4-Pad8)*%
X108712000Y-134874000D03*
%TO.N,Net-(J4-Pad9)*%
X106172000Y-137414000D03*
%TO.N,unconnected-(J4-Pad10)*%
X108712000Y-137414000D03*
%TO.N,Net-(J4-Pad11)*%
X106172000Y-139954000D03*
%TO.N,unconnected-(J4-Pad12)*%
X108712000Y-139954000D03*
%TO.N,Net-(J4-Pad13)*%
X106172000Y-142494000D03*
%TO.N,unconnected-(J4-Pad14)*%
X108712000Y-142494000D03*
%TO.N,Net-(J4-Pad15)*%
X106172000Y-145034000D03*
%TO.N,unconnected-(J4-Pad16)*%
X108712000Y-145034000D03*
%TO.N,unconnected-(J4-Pad17)*%
X106172000Y-147574000D03*
%TO.N,unconnected-(J4-Pad18)*%
X108712000Y-147574000D03*
%TO.N,unconnected-(J4-Pad19)*%
X106172000Y-150114000D03*
%TO.N,unconnected-(J4-Pad20)*%
X108712000Y-150114000D03*
%TD*%
D15*
%TO.N,Net-(J3-Pad1)*%
%TO.C,J3*%
X106172000Y-63754000D03*
D16*
%TO.N,unconnected-(J3-Pad2)*%
X108712000Y-63754000D03*
%TO.N,unconnected-(J3-Pad3)*%
X106172000Y-66294000D03*
%TO.N,unconnected-(J3-Pad4)*%
X108712000Y-66294000D03*
%TO.N,Net-(J3-Pad5)*%
X106172000Y-68834000D03*
%TO.N,unconnected-(J3-Pad6)*%
X108712000Y-68834000D03*
%TO.N,unconnected-(J3-Pad7)*%
X106172000Y-71374000D03*
%TO.N,unconnected-(J3-Pad8)*%
X108712000Y-71374000D03*
%TO.N,Net-(J3-Pad9)*%
X106172000Y-73914000D03*
%TO.N,unconnected-(J3-Pad10)*%
X108712000Y-73914000D03*
%TO.N,unconnected-(J3-Pad11)*%
X106172000Y-76454000D03*
%TO.N,unconnected-(J3-Pad12)*%
X108712000Y-76454000D03*
%TO.N,RST*%
X106172000Y-78994000D03*
%TO.N,unconnected-(J3-Pad14)*%
X108712000Y-78994000D03*
%TO.N,FLT*%
X106172000Y-81534000D03*
%TO.N,unconnected-(J3-Pad16)*%
X108712000Y-81534000D03*
%TO.N,unconnected-(J3-Pad17)*%
X106172000Y-84074000D03*
%TO.N,Relay_Control*%
X108712000Y-84074000D03*
%TO.N,unconnected-(J3-Pad19)*%
X106172000Y-86614000D03*
%TO.N,RDY*%
X108712000Y-86614000D03*
%TD*%
D10*
%TO.N,GND*%
%TO.C,J7*%
X126840000Y-83764500D03*
D11*
%TO.N,+5V*%
X126840000Y-86764500D03*
%TO.N,GND*%
X123840000Y-83764500D03*
%TO.N,+5V*%
X123840000Y-86764500D03*
%TD*%
D15*
%TO.N,+3V3*%
%TO.C,J1*%
X62992000Y-63754000D03*
D16*
%TO.N,+5V*%
X65532000Y-63754000D03*
%TO.N,unconnected-(J1-Pad3)*%
X62992000Y-66294000D03*
%TO.N,GND*%
X65532000Y-66294000D03*
%TO.N,TXD*%
X62992000Y-68834000D03*
%TO.N,Net-(J1-Pad6)*%
X65532000Y-68834000D03*
%TO.N,RXD*%
X62992000Y-71374000D03*
%TO.N,Net-(J1-Pad8)*%
X65532000Y-71374000D03*
%TO.N,unconnected-(J1-Pad9)*%
X62992000Y-73914000D03*
%TO.N,Net-(J1-Pad10)*%
X65532000Y-73914000D03*
%TO.N,unconnected-(J1-Pad11)*%
X62992000Y-76454000D03*
%TO.N,unconnected-(J1-Pad12)*%
X65532000Y-76454000D03*
%TO.N,unconnected-(J1-Pad13)*%
X62992000Y-78994000D03*
%TO.N,Net-(J1-Pad14)*%
X65532000Y-78994000D03*
%TO.N,unconnected-(J1-Pad15)*%
X62992000Y-81534000D03*
%TO.N,Net-(J1-Pad16)*%
X65532000Y-81534000D03*
%TO.N,unconnected-(J1-Pad17)*%
X62992000Y-84074000D03*
%TO.N,Net-(J1-Pad18)*%
X65532000Y-84074000D03*
%TO.N,unconnected-(J1-Pad19)*%
X62992000Y-86614000D03*
%TO.N,Net-(J1-Pad20)*%
X65532000Y-86614000D03*
%TD*%
D17*
%TO.N,+5V*%
X118110000Y-86360000D03*
X124705000Y-111515000D03*
X92267000Y-40959000D03*
X118110000Y-87376000D03*
%TO.N,+3V3*%
X82550000Y-102362000D03*
X93218000Y-121158000D03*
X94488000Y-141986000D03*
X71882000Y-58674000D03*
X118204000Y-56642000D03*
X122428000Y-36576000D03*
X118204000Y-57658000D03*
%TO.N,+5VD*%
X98298000Y-121158000D03*
%TO.N,GND2*%
X98298000Y-113538000D03*
%TO.N,Temp*%
X86106000Y-117094000D03*
%TO.N,GND*%
X76438000Y-58674000D03*
X82804000Y-98806000D03*
X77978000Y-98806000D03*
X90678000Y-141986000D03*
X86106000Y-120650000D03*
X82042000Y-35052000D03*
X93218000Y-113538000D03*
X87376000Y-94488000D03*
X98806000Y-46228000D03*
X79226500Y-120650000D03*
X118110000Y-42926000D03*
X82550000Y-110490000D03*
X78994000Y-114046000D03*
X118110000Y-83312000D03*
X82801250Y-94485250D03*
X118110000Y-84328000D03*
X77978000Y-94488000D03*
X118110000Y-41910000D03*
X118110000Y-54610000D03*
X124714000Y-105410000D03*
X86106000Y-114046000D03*
X118110000Y-53594000D03*
%TO.N,Temp_ADC*%
X86868000Y-86106000D03*
X82550000Y-86106000D03*
%TO.N,IN-*%
X94869000Y-38735000D03*
%TO.N,IN+*%
X96139000Y-38735000D03*
%TO.N,V_OUT*%
X80285500Y-90191500D03*
%TO.N,V_IN*%
X85090000Y-90170000D03*
%TO.N,PWM_IN*%
X101362000Y-49546000D03*
%TO.N,TXD*%
X64262000Y-116078000D03*
X60452000Y-116078000D03*
%TO.N,Net-(D1-Pad4)*%
X77978000Y-37084000D03*
%TD*%
D18*
%TO.N,+5V*%
X124705000Y-111515000D02*
X124696000Y-111506000D01*
D19*
X118666000Y-72342000D02*
X118618000Y-72390000D01*
D20*
X104140000Y-26416000D02*
X104140000Y-39878000D01*
D19*
X123840000Y-72342000D02*
X118666000Y-72342000D01*
D18*
X124696000Y-111506000D02*
X118618000Y-111506000D01*
%TD*%
%TA.AperFunction,Conductor*%
%TO.N,+5V*%
G36*
X93613053Y-39390002D02*
G01*
X93652364Y-39430165D01*
X93732276Y-39560568D01*
X93732279Y-39560573D01*
X93734979Y-39564978D01*
X93885763Y-39739048D01*
X94062953Y-39886154D01*
X94261790Y-40002345D01*
X94266615Y-40004187D01*
X94266616Y-40004188D01*
X94340962Y-40032578D01*
X94476934Y-40084501D01*
X94482000Y-40085532D01*
X94482001Y-40085532D01*
X94582697Y-40106018D01*
X94702607Y-40130414D01*
X94832352Y-40135172D01*
X94927585Y-40138664D01*
X94927589Y-40138664D01*
X94932749Y-40138853D01*
X94937869Y-40138197D01*
X94937871Y-40138197D01*
X95007272Y-40129307D01*
X95161178Y-40109591D01*
X95166126Y-40108106D01*
X95166133Y-40108105D01*
X95376811Y-40044898D01*
X95376810Y-40044898D01*
X95381761Y-40043413D01*
X95445390Y-40012241D01*
X95515361Y-40000235D01*
X95545768Y-40007683D01*
X95746934Y-40084501D01*
X95752000Y-40085532D01*
X95752001Y-40085532D01*
X95852697Y-40106018D01*
X95972607Y-40130414D01*
X96102352Y-40135172D01*
X96197585Y-40138664D01*
X96197589Y-40138664D01*
X96202749Y-40138853D01*
X96207869Y-40138197D01*
X96207871Y-40138197D01*
X96277272Y-40129307D01*
X96431178Y-40109591D01*
X96436126Y-40108106D01*
X96436133Y-40108105D01*
X96646811Y-40044898D01*
X96646810Y-40044898D01*
X96651761Y-40043413D01*
X96858574Y-39942096D01*
X97046062Y-39808363D01*
X97209190Y-39645803D01*
X97267269Y-39564978D01*
X97340559Y-39462983D01*
X97343577Y-39458783D01*
X97352776Y-39440171D01*
X97400890Y-39387965D01*
X97465732Y-39370000D01*
X119254000Y-39370000D01*
X119322121Y-39390002D01*
X119368614Y-39443658D01*
X119380000Y-39496000D01*
X119380000Y-40898969D01*
X119359998Y-40967090D01*
X119306342Y-41013583D01*
X119236068Y-41023687D01*
X119171488Y-40994193D01*
X119160807Y-40983769D01*
X119071890Y-40886051D01*
X119071889Y-40886050D01*
X119068412Y-40882229D01*
X119064361Y-40879030D01*
X119064357Y-40879026D01*
X118891735Y-40742697D01*
X118891730Y-40742693D01*
X118887681Y-40739496D01*
X118883165Y-40737003D01*
X118883162Y-40737001D01*
X118690589Y-40630695D01*
X118690585Y-40630693D01*
X118686065Y-40628198D01*
X118681196Y-40626474D01*
X118681192Y-40626472D01*
X118473853Y-40553049D01*
X118473849Y-40553048D01*
X118468978Y-40551323D01*
X118463885Y-40550416D01*
X118463882Y-40550415D01*
X118367707Y-40533284D01*
X118242250Y-40510937D01*
X118155802Y-40509881D01*
X118017141Y-40508186D01*
X118017139Y-40508186D01*
X118011971Y-40508123D01*
X117784325Y-40542958D01*
X117565424Y-40614506D01*
X117361149Y-40720845D01*
X117176984Y-40859119D01*
X117017877Y-41025616D01*
X116888099Y-41215863D01*
X116885923Y-41220552D01*
X116885919Y-41220558D01*
X116874145Y-41245924D01*
X116791136Y-41424752D01*
X116729592Y-41646673D01*
X116705119Y-41875665D01*
X116718376Y-42105580D01*
X116719513Y-42110626D01*
X116719514Y-42110632D01*
X116741226Y-42206975D01*
X116769006Y-42330242D01*
X116770950Y-42335029D01*
X116770951Y-42335033D01*
X116784228Y-42367731D01*
X116791324Y-42438372D01*
X116788906Y-42448793D01*
X116729592Y-42662673D01*
X116705119Y-42891665D01*
X116718376Y-43121580D01*
X116719513Y-43126626D01*
X116719514Y-43126632D01*
X116741226Y-43222975D01*
X116769006Y-43346242D01*
X116855649Y-43559618D01*
X116975979Y-43755978D01*
X117126763Y-43930048D01*
X117303953Y-44077154D01*
X117502790Y-44193345D01*
X117717934Y-44275501D01*
X117723000Y-44276532D01*
X117723001Y-44276532D01*
X117823697Y-44297018D01*
X117943607Y-44321414D01*
X118073352Y-44326172D01*
X118168585Y-44329664D01*
X118168589Y-44329664D01*
X118173749Y-44329853D01*
X118178869Y-44329197D01*
X118178871Y-44329197D01*
X118248272Y-44320307D01*
X118402178Y-44300591D01*
X118407126Y-44299106D01*
X118407133Y-44299105D01*
X118617811Y-44235898D01*
X118617810Y-44235898D01*
X118622761Y-44234413D01*
X118829574Y-44133096D01*
X119017062Y-43999363D01*
X119165061Y-43851880D01*
X119227431Y-43817964D01*
X119298238Y-43823152D01*
X119355000Y-43865798D01*
X119379694Y-43932361D01*
X119380000Y-43941131D01*
X119380000Y-52582969D01*
X119359998Y-52651090D01*
X119306342Y-52697583D01*
X119236068Y-52707687D01*
X119171488Y-52678193D01*
X119160807Y-52667769D01*
X119071890Y-52570051D01*
X119071889Y-52570050D01*
X119068412Y-52566229D01*
X119064361Y-52563030D01*
X119064357Y-52563026D01*
X118891735Y-52426697D01*
X118891730Y-52426693D01*
X118887681Y-52423496D01*
X118883165Y-52421003D01*
X118883162Y-52421001D01*
X118690589Y-52314695D01*
X118690585Y-52314693D01*
X118686065Y-52312198D01*
X118681196Y-52310474D01*
X118681192Y-52310472D01*
X118473853Y-52237049D01*
X118473849Y-52237048D01*
X118468978Y-52235323D01*
X118463885Y-52234416D01*
X118463882Y-52234415D01*
X118367707Y-52217284D01*
X118242250Y-52194937D01*
X118155802Y-52193881D01*
X118017141Y-52192186D01*
X118017139Y-52192186D01*
X118011971Y-52192123D01*
X117784325Y-52226958D01*
X117565424Y-52298506D01*
X117361149Y-52404845D01*
X117176984Y-52543119D01*
X117017877Y-52709616D01*
X116888099Y-52899863D01*
X116885923Y-52904552D01*
X116885919Y-52904558D01*
X116874145Y-52929924D01*
X116791136Y-53108752D01*
X116729592Y-53330673D01*
X116705119Y-53559665D01*
X116718376Y-53789580D01*
X116719513Y-53794626D01*
X116719514Y-53794632D01*
X116741226Y-53890975D01*
X116769006Y-54014242D01*
X116770950Y-54019029D01*
X116770951Y-54019033D01*
X116784228Y-54051731D01*
X116791324Y-54122372D01*
X116788906Y-54132793D01*
X116729592Y-54346673D01*
X116705119Y-54575665D01*
X116718376Y-54805580D01*
X116719513Y-54810626D01*
X116719514Y-54810632D01*
X116741226Y-54906975D01*
X116769006Y-55030242D01*
X116855649Y-55243618D01*
X116975979Y-55439978D01*
X116979360Y-55443881D01*
X116979365Y-55443888D01*
X117110337Y-55595086D01*
X117139820Y-55659671D01*
X117129705Y-55729943D01*
X117113828Y-55755574D01*
X117111877Y-55757616D01*
X116982099Y-55947863D01*
X116979923Y-55952552D01*
X116979919Y-55952558D01*
X116968145Y-55977924D01*
X116885136Y-56156752D01*
X116823592Y-56378673D01*
X116799119Y-56607665D01*
X116812376Y-56837580D01*
X116813513Y-56842626D01*
X116813514Y-56842632D01*
X116835226Y-56938975D01*
X116863006Y-57062242D01*
X116864950Y-57067029D01*
X116864951Y-57067033D01*
X116878228Y-57099731D01*
X116885324Y-57170372D01*
X116882906Y-57180793D01*
X116823592Y-57394673D01*
X116823043Y-57399810D01*
X116811620Y-57506697D01*
X116799119Y-57623665D01*
X116812376Y-57853580D01*
X116813513Y-57858626D01*
X116813514Y-57858632D01*
X116835226Y-57954975D01*
X116863006Y-58078242D01*
X116864948Y-58083024D01*
X116864949Y-58083028D01*
X116923058Y-58226132D01*
X116949649Y-58291618D01*
X117069979Y-58487978D01*
X117220763Y-58662048D01*
X117397953Y-58809154D01*
X117596790Y-58925345D01*
X117811934Y-59007501D01*
X117817000Y-59008532D01*
X117817001Y-59008532D01*
X117917697Y-59029018D01*
X118037607Y-59053414D01*
X118167352Y-59058172D01*
X118262585Y-59061664D01*
X118262589Y-59061664D01*
X118267749Y-59061853D01*
X118272869Y-59061197D01*
X118272871Y-59061197D01*
X118342272Y-59052307D01*
X118496178Y-59032591D01*
X118501126Y-59031106D01*
X118501133Y-59031105D01*
X118711811Y-58967898D01*
X118711810Y-58967898D01*
X118716761Y-58966413D01*
X118923574Y-58865096D01*
X119111062Y-58731363D01*
X119165060Y-58677553D01*
X119227432Y-58643637D01*
X119298238Y-58648825D01*
X119355000Y-58691471D01*
X119379694Y-58758034D01*
X119380000Y-58766804D01*
X119380000Y-82300969D01*
X119359998Y-82369090D01*
X119306342Y-82415583D01*
X119236068Y-82425687D01*
X119171488Y-82396193D01*
X119160807Y-82385769D01*
X119071890Y-82288051D01*
X119071889Y-82288050D01*
X119068412Y-82284229D01*
X119064361Y-82281030D01*
X119064357Y-82281026D01*
X118891735Y-82144697D01*
X118891730Y-82144693D01*
X118887681Y-82141496D01*
X118883165Y-82139003D01*
X118883162Y-82139001D01*
X118690589Y-82032695D01*
X118690585Y-82032693D01*
X118686065Y-82030198D01*
X118681196Y-82028474D01*
X118681192Y-82028472D01*
X118473853Y-81955049D01*
X118473849Y-81955048D01*
X118468978Y-81953323D01*
X118463885Y-81952416D01*
X118463882Y-81952415D01*
X118367707Y-81935284D01*
X118242250Y-81912937D01*
X118155802Y-81911881D01*
X118017141Y-81910186D01*
X118017139Y-81910186D01*
X118011971Y-81910123D01*
X117784325Y-81944958D01*
X117565424Y-82016506D01*
X117361149Y-82122845D01*
X117176984Y-82261119D01*
X117017877Y-82427616D01*
X116888099Y-82617863D01*
X116885923Y-82622552D01*
X116885919Y-82622558D01*
X116800835Y-82805857D01*
X116791136Y-82826752D01*
X116789752Y-82831744D01*
X116733369Y-83035055D01*
X116729592Y-83048673D01*
X116729043Y-83053810D01*
X116706801Y-83261930D01*
X116705119Y-83277665D01*
X116718376Y-83507580D01*
X116719513Y-83512626D01*
X116719514Y-83512632D01*
X116741226Y-83608975D01*
X116769006Y-83732242D01*
X116770950Y-83737029D01*
X116770951Y-83737033D01*
X116784228Y-83769731D01*
X116791324Y-83840372D01*
X116788906Y-83850793D01*
X116729592Y-84064673D01*
X116729043Y-84069810D01*
X116706370Y-84281962D01*
X116705119Y-84293665D01*
X116718376Y-84523580D01*
X116719513Y-84528626D01*
X116719514Y-84528632D01*
X116720047Y-84530996D01*
X116769006Y-84748242D01*
X116770948Y-84753024D01*
X116770949Y-84753028D01*
X116853705Y-84956831D01*
X116855649Y-84961618D01*
X116975979Y-85157978D01*
X117126763Y-85332048D01*
X117303953Y-85479154D01*
X117502790Y-85595345D01*
X117717934Y-85677501D01*
X117723000Y-85678532D01*
X117723001Y-85678532D01*
X117823697Y-85699018D01*
X117943607Y-85723414D01*
X118073352Y-85728172D01*
X118168585Y-85731664D01*
X118168589Y-85731664D01*
X118173749Y-85731853D01*
X118178869Y-85731197D01*
X118178871Y-85731197D01*
X118248272Y-85722307D01*
X118402178Y-85702591D01*
X118407126Y-85701106D01*
X118407133Y-85701105D01*
X118617811Y-85637898D01*
X118617810Y-85637898D01*
X118622761Y-85636413D01*
X118829574Y-85535096D01*
X119017062Y-85401363D01*
X119165061Y-85253880D01*
X119227431Y-85219964D01*
X119298238Y-85225152D01*
X119355000Y-85267798D01*
X119379694Y-85334361D01*
X119380000Y-85343131D01*
X119380000Y-128144000D01*
X119359998Y-128212121D01*
X119306342Y-128258614D01*
X119254000Y-128270000D01*
X110479676Y-128270000D01*
X110411555Y-128249998D01*
X110365062Y-128196342D01*
X110354958Y-128126068D01*
X110364435Y-128093053D01*
X110455749Y-127886503D01*
X110457547Y-127882436D01*
X110528681Y-127630216D01*
X110563566Y-127370491D01*
X110567227Y-127254000D01*
X110548719Y-126992596D01*
X110493563Y-126736408D01*
X110402860Y-126490547D01*
X110278420Y-126259920D01*
X110253303Y-126225913D01*
X110125370Y-126052706D01*
X110122726Y-126049126D01*
X109938884Y-125862374D01*
X109870336Y-125810060D01*
X109734107Y-125706093D01*
X109734103Y-125706090D01*
X109730562Y-125703388D01*
X109501917Y-125575340D01*
X109497768Y-125573735D01*
X109497764Y-125573733D01*
X109350196Y-125516644D01*
X109257512Y-125480787D01*
X109253191Y-125479785D01*
X109253183Y-125479783D01*
X109085069Y-125440817D01*
X109002221Y-125421614D01*
X108741141Y-125399002D01*
X108736706Y-125399246D01*
X108736702Y-125399246D01*
X108483921Y-125413157D01*
X108483914Y-125413158D01*
X108479478Y-125413402D01*
X108222456Y-125464527D01*
X108218246Y-125466005D01*
X108218244Y-125466006D01*
X108073497Y-125516838D01*
X107975201Y-125551357D01*
X107971250Y-125553410D01*
X107971244Y-125553412D01*
X107794809Y-125645063D01*
X107725137Y-125658715D01*
X107657091Y-125630892D01*
X107591647Y-125577518D01*
X107575596Y-125564427D01*
X107395470Y-125470259D01*
X107200087Y-125414234D01*
X107168455Y-125411411D01*
X107082609Y-125403749D01*
X107082603Y-125403749D01*
X107079816Y-125403500D01*
X105264184Y-125403500D01*
X105261397Y-125403749D01*
X105261391Y-125403749D01*
X105175545Y-125411411D01*
X105143913Y-125414234D01*
X104948530Y-125470259D01*
X104768404Y-125564427D01*
X104763461Y-125568458D01*
X104763460Y-125568459D01*
X104669534Y-125645063D01*
X104610891Y-125692891D01*
X104482427Y-125850404D01*
X104388259Y-126030530D01*
X104332234Y-126225913D01*
X104321500Y-126346184D01*
X104321500Y-128144000D01*
X104301498Y-128212121D01*
X104247842Y-128258614D01*
X104195500Y-128270000D01*
X66628019Y-128270000D01*
X66559898Y-128249998D01*
X66557641Y-128248415D01*
X66554108Y-128246094D01*
X66550562Y-128243388D01*
X66321917Y-128115340D01*
X66317768Y-128113735D01*
X66317764Y-128113733D01*
X66170196Y-128056644D01*
X66077512Y-128020787D01*
X66073191Y-128019785D01*
X66073183Y-128019783D01*
X65905069Y-127980817D01*
X65822221Y-127961614D01*
X65561141Y-127939002D01*
X65556706Y-127939246D01*
X65556702Y-127939246D01*
X65303921Y-127953157D01*
X65303914Y-127953158D01*
X65299478Y-127953402D01*
X65042456Y-128004527D01*
X65010247Y-128015838D01*
X64939347Y-128019536D01*
X64877703Y-127984316D01*
X64844886Y-127921359D01*
X64842500Y-127896955D01*
X64842500Y-126346184D01*
X64831766Y-126225913D01*
X64775741Y-126030530D01*
X64681573Y-125850404D01*
X64553109Y-125692891D01*
X64494466Y-125645063D01*
X64400540Y-125568459D01*
X64400539Y-125568458D01*
X64395596Y-125564427D01*
X64215470Y-125470259D01*
X64020087Y-125414234D01*
X63988455Y-125411411D01*
X63902609Y-125403749D01*
X63902603Y-125403749D01*
X63899816Y-125403500D01*
X62084184Y-125403500D01*
X62081397Y-125403749D01*
X62081391Y-125403749D01*
X61995545Y-125411411D01*
X61963913Y-125414234D01*
X61768530Y-125470259D01*
X61588404Y-125564427D01*
X61583461Y-125568458D01*
X61583460Y-125568459D01*
X61489534Y-125645063D01*
X61430891Y-125692891D01*
X61302427Y-125850404D01*
X61208259Y-126030530D01*
X61152234Y-126225913D01*
X61141500Y-126346184D01*
X61141500Y-128144000D01*
X61121498Y-128212121D01*
X61067842Y-128258614D01*
X61015500Y-128270000D01*
X57514000Y-128270000D01*
X57445879Y-128249998D01*
X57399386Y-128196342D01*
X57388000Y-128144000D01*
X57388000Y-120615665D01*
X77821619Y-120615665D01*
X77821916Y-120620817D01*
X77821916Y-120620821D01*
X77826504Y-120700381D01*
X77834876Y-120845580D01*
X77836013Y-120850626D01*
X77836014Y-120850632D01*
X77857726Y-120946975D01*
X77885506Y-121070242D01*
X77887448Y-121075024D01*
X77887449Y-121075028D01*
X77924927Y-121167325D01*
X77972149Y-121283618D01*
X78092479Y-121479978D01*
X78243263Y-121654048D01*
X78420453Y-121801154D01*
X78619290Y-121917345D01*
X78834434Y-121999501D01*
X78839500Y-122000532D01*
X78839501Y-122000532D01*
X78940197Y-122021018D01*
X79060107Y-122045414D01*
X79189852Y-122050172D01*
X79285085Y-122053664D01*
X79285089Y-122053664D01*
X79290249Y-122053853D01*
X79295369Y-122053197D01*
X79295371Y-122053197D01*
X79364772Y-122044307D01*
X79518678Y-122024591D01*
X79523626Y-122023106D01*
X79523633Y-122023105D01*
X79734311Y-121959898D01*
X79734310Y-121959898D01*
X79739261Y-121958413D01*
X79946074Y-121857096D01*
X80133562Y-121723363D01*
X80296690Y-121560803D01*
X80354769Y-121479978D01*
X80428059Y-121377983D01*
X80431077Y-121373783D01*
X80533115Y-121167325D01*
X80564143Y-121065200D01*
X80598559Y-120951927D01*
X80598560Y-120951921D01*
X80600063Y-120946975D01*
X80630122Y-120718649D01*
X80631800Y-120650000D01*
X80628977Y-120615665D01*
X84701119Y-120615665D01*
X84701416Y-120620817D01*
X84701416Y-120620821D01*
X84706004Y-120700381D01*
X84714376Y-120845580D01*
X84715513Y-120850626D01*
X84715514Y-120850632D01*
X84737226Y-120946975D01*
X84765006Y-121070242D01*
X84766948Y-121075024D01*
X84766949Y-121075028D01*
X84804427Y-121167325D01*
X84851649Y-121283618D01*
X84971979Y-121479978D01*
X85122763Y-121654048D01*
X85299953Y-121801154D01*
X85498790Y-121917345D01*
X85713934Y-121999501D01*
X85719000Y-122000532D01*
X85719001Y-122000532D01*
X85819697Y-122021018D01*
X85939607Y-122045414D01*
X86069352Y-122050172D01*
X86164585Y-122053664D01*
X86164589Y-122053664D01*
X86169749Y-122053853D01*
X86174869Y-122053197D01*
X86174871Y-122053197D01*
X86244272Y-122044307D01*
X86398178Y-122024591D01*
X86403126Y-122023106D01*
X86403133Y-122023105D01*
X86613811Y-121959898D01*
X86613810Y-121959898D01*
X86618761Y-121958413D01*
X86825574Y-121857096D01*
X87013062Y-121723363D01*
X87176190Y-121560803D01*
X87234269Y-121479978D01*
X87307559Y-121377983D01*
X87310577Y-121373783D01*
X87412615Y-121167325D01*
X87425880Y-121123665D01*
X91813119Y-121123665D01*
X91813416Y-121128817D01*
X91813416Y-121128821D01*
X91815351Y-121162371D01*
X91826376Y-121353580D01*
X91827513Y-121358626D01*
X91827514Y-121358632D01*
X91849226Y-121454975D01*
X91877006Y-121578242D01*
X91878948Y-121583024D01*
X91878949Y-121583028D01*
X91937151Y-121726361D01*
X91963649Y-121791618D01*
X92083979Y-121987978D01*
X92234763Y-122162048D01*
X92411953Y-122309154D01*
X92610790Y-122425345D01*
X92825934Y-122507501D01*
X92831000Y-122508532D01*
X92831001Y-122508532D01*
X92931697Y-122529018D01*
X93051607Y-122553414D01*
X93181352Y-122558172D01*
X93276585Y-122561664D01*
X93276589Y-122561664D01*
X93281749Y-122561853D01*
X93286869Y-122561197D01*
X93286871Y-122561197D01*
X93356272Y-122552307D01*
X93510178Y-122532591D01*
X93515126Y-122531106D01*
X93515133Y-122531105D01*
X93725811Y-122467898D01*
X93725810Y-122467898D01*
X93730761Y-122466413D01*
X93937574Y-122365096D01*
X94020636Y-122305849D01*
X94120854Y-122234365D01*
X94120859Y-122234361D01*
X94125062Y-122231363D01*
X94145749Y-122210748D01*
X94208118Y-122176833D01*
X94234687Y-122174000D01*
X97283672Y-122174000D01*
X97351793Y-122194002D01*
X97364157Y-122203056D01*
X97491953Y-122309154D01*
X97690790Y-122425345D01*
X97905934Y-122507501D01*
X97911000Y-122508532D01*
X97911001Y-122508532D01*
X98011697Y-122529018D01*
X98131607Y-122553414D01*
X98261352Y-122558172D01*
X98356585Y-122561664D01*
X98356589Y-122561664D01*
X98361749Y-122561853D01*
X98366869Y-122561197D01*
X98366871Y-122561197D01*
X98436272Y-122552307D01*
X98590178Y-122532591D01*
X98595126Y-122531106D01*
X98595133Y-122531105D01*
X98805811Y-122467898D01*
X98805810Y-122467898D01*
X98810761Y-122466413D01*
X99017574Y-122365096D01*
X99205062Y-122231363D01*
X99368190Y-122068803D01*
X99379069Y-122053664D01*
X99499559Y-121885983D01*
X99502577Y-121881783D01*
X99604615Y-121675325D01*
X99635643Y-121573200D01*
X99670059Y-121459927D01*
X99670060Y-121459921D01*
X99671563Y-121454975D01*
X99701622Y-121226649D01*
X99703300Y-121158000D01*
X99684430Y-120928478D01*
X99628326Y-120705120D01*
X99536496Y-120493924D01*
X99411405Y-120300563D01*
X99390774Y-120277889D01*
X99259890Y-120134051D01*
X99259889Y-120134050D01*
X99256412Y-120130229D01*
X99252361Y-120127030D01*
X99252357Y-120127026D01*
X99079735Y-119990697D01*
X99079730Y-119990693D01*
X99075681Y-119987496D01*
X99071165Y-119985003D01*
X99071162Y-119985001D01*
X98878589Y-119878695D01*
X98878585Y-119878693D01*
X98874065Y-119876198D01*
X98869196Y-119874474D01*
X98869192Y-119874472D01*
X98661853Y-119801049D01*
X98661849Y-119801048D01*
X98656978Y-119799323D01*
X98651885Y-119798416D01*
X98651882Y-119798415D01*
X98555707Y-119781284D01*
X98430250Y-119758937D01*
X98343802Y-119757881D01*
X98205141Y-119756186D01*
X98205139Y-119756186D01*
X98199971Y-119756123D01*
X97972325Y-119790958D01*
X97955143Y-119796574D01*
X97884179Y-119798724D01*
X97823318Y-119762167D01*
X97791883Y-119698509D01*
X97790000Y-119676808D01*
X97790000Y-115018131D01*
X97810002Y-114950010D01*
X97863658Y-114903517D01*
X97933932Y-114893413D01*
X97941120Y-114894660D01*
X98032486Y-114913248D01*
X98131607Y-114933414D01*
X98261352Y-114938172D01*
X98356585Y-114941664D01*
X98356589Y-114941664D01*
X98361749Y-114941853D01*
X98366869Y-114941197D01*
X98366871Y-114941197D01*
X98436272Y-114932307D01*
X98590178Y-114912591D01*
X98595126Y-114911106D01*
X98595133Y-114911105D01*
X98805811Y-114847898D01*
X98805810Y-114847898D01*
X98810761Y-114846413D01*
X99017574Y-114745096D01*
X99205062Y-114611363D01*
X99368190Y-114448803D01*
X99426269Y-114367978D01*
X99499559Y-114265983D01*
X99502577Y-114261783D01*
X99604615Y-114055325D01*
X99635643Y-113953200D01*
X99670059Y-113839927D01*
X99670060Y-113839921D01*
X99671563Y-113834975D01*
X99701622Y-113606649D01*
X99703300Y-113538000D01*
X99684430Y-113308478D01*
X99628326Y-113085120D01*
X99574750Y-112961903D01*
X99538556Y-112878661D01*
X99538554Y-112878658D01*
X99536496Y-112873924D01*
X99416895Y-112689049D01*
X99414215Y-112684906D01*
X99414213Y-112684903D01*
X99411405Y-112680563D01*
X99390774Y-112657889D01*
X99259890Y-112514051D01*
X99259889Y-112514050D01*
X99256412Y-112510229D01*
X99252361Y-112507030D01*
X99252357Y-112507026D01*
X99079735Y-112370697D01*
X99079730Y-112370693D01*
X99075681Y-112367496D01*
X99071165Y-112365003D01*
X99071162Y-112365001D01*
X98878589Y-112258695D01*
X98878585Y-112258693D01*
X98874065Y-112256198D01*
X98869196Y-112254474D01*
X98869192Y-112254472D01*
X98661853Y-112181049D01*
X98661849Y-112181048D01*
X98656978Y-112179323D01*
X98651885Y-112178416D01*
X98651882Y-112178415D01*
X98555707Y-112161284D01*
X98430250Y-112138937D01*
X98343802Y-112137881D01*
X98205141Y-112136186D01*
X98205139Y-112136186D01*
X98199971Y-112136123D01*
X97972325Y-112170958D01*
X97753424Y-112242506D01*
X97549149Y-112348845D01*
X97364984Y-112487119D01*
X97361932Y-112490313D01*
X97297912Y-112520491D01*
X97278472Y-112522000D01*
X94235071Y-112522000D01*
X94166950Y-112501998D01*
X94156979Y-112494882D01*
X94147150Y-112487119D01*
X93995681Y-112367496D01*
X93991165Y-112365003D01*
X93991162Y-112365001D01*
X93798589Y-112258695D01*
X93798585Y-112258693D01*
X93794065Y-112256198D01*
X93789196Y-112254474D01*
X93789192Y-112254472D01*
X93581853Y-112181049D01*
X93581849Y-112181048D01*
X93576978Y-112179323D01*
X93571885Y-112178416D01*
X93571882Y-112178415D01*
X93475707Y-112161284D01*
X93350250Y-112138937D01*
X93263802Y-112137881D01*
X93125141Y-112136186D01*
X93125139Y-112136186D01*
X93119971Y-112136123D01*
X92892325Y-112170958D01*
X92673424Y-112242506D01*
X92469149Y-112348845D01*
X92284984Y-112487119D01*
X92125877Y-112653616D01*
X92122963Y-112657888D01*
X92122962Y-112657889D01*
X92101706Y-112689049D01*
X91996099Y-112843863D01*
X91993923Y-112848552D01*
X91993919Y-112848558D01*
X91915161Y-113018229D01*
X91899136Y-113052752D01*
X91837592Y-113274673D01*
X91837043Y-113279810D01*
X91825624Y-113386661D01*
X91813119Y-113503665D01*
X91813416Y-113508817D01*
X91813416Y-113508821D01*
X91818004Y-113588381D01*
X91826376Y-113733580D01*
X91827513Y-113738626D01*
X91827514Y-113738632D01*
X91849226Y-113834975D01*
X91877006Y-113958242D01*
X91878948Y-113963024D01*
X91878949Y-113963028D01*
X91916427Y-114055325D01*
X91963649Y-114171618D01*
X92083979Y-114367978D01*
X92234763Y-114542048D01*
X92411953Y-114689154D01*
X92610790Y-114805345D01*
X92825934Y-114887501D01*
X92831000Y-114888532D01*
X92831001Y-114888532D01*
X92924214Y-114907496D01*
X93051607Y-114933414D01*
X93181352Y-114938172D01*
X93276585Y-114941664D01*
X93276589Y-114941664D01*
X93281749Y-114941853D01*
X93286869Y-114941197D01*
X93286871Y-114941197D01*
X93505050Y-114913248D01*
X93505051Y-114913248D01*
X93510178Y-114912591D01*
X93515129Y-114911106D01*
X93515132Y-114911105D01*
X93563793Y-114896506D01*
X93634788Y-114896090D01*
X93694738Y-114934122D01*
X93724610Y-114998528D01*
X93726000Y-115017192D01*
X93726000Y-119675521D01*
X93705998Y-119743642D01*
X93652342Y-119790135D01*
X93582068Y-119800239D01*
X93576999Y-119799207D01*
X93576978Y-119799323D01*
X93350250Y-119758937D01*
X93263802Y-119757881D01*
X93125141Y-119756186D01*
X93125139Y-119756186D01*
X93119971Y-119756123D01*
X92892325Y-119790958D01*
X92673424Y-119862506D01*
X92469149Y-119968845D01*
X92284984Y-120107119D01*
X92125877Y-120273616D01*
X91996099Y-120463863D01*
X91993923Y-120468552D01*
X91993919Y-120468558D01*
X91901315Y-120668057D01*
X91899136Y-120672752D01*
X91837592Y-120894673D01*
X91813119Y-121123665D01*
X87425880Y-121123665D01*
X87443643Y-121065200D01*
X87478059Y-120951927D01*
X87478060Y-120951921D01*
X87479563Y-120946975D01*
X87509622Y-120718649D01*
X87511300Y-120650000D01*
X87492430Y-120420478D01*
X87436326Y-120197120D01*
X87382750Y-120073903D01*
X87346556Y-119990661D01*
X87346554Y-119990658D01*
X87344496Y-119985924D01*
X87224371Y-119800239D01*
X87222215Y-119796906D01*
X87222213Y-119796903D01*
X87219405Y-119792563D01*
X87198774Y-119769889D01*
X87067890Y-119626051D01*
X87067889Y-119626050D01*
X87064412Y-119622229D01*
X87060361Y-119619030D01*
X87060357Y-119619026D01*
X86887735Y-119482697D01*
X86887730Y-119482693D01*
X86883681Y-119479496D01*
X86879165Y-119477003D01*
X86879162Y-119477001D01*
X86686589Y-119370695D01*
X86686585Y-119370693D01*
X86682065Y-119368198D01*
X86677196Y-119366474D01*
X86677192Y-119366472D01*
X86469853Y-119293049D01*
X86469849Y-119293048D01*
X86464978Y-119291323D01*
X86459885Y-119290416D01*
X86459882Y-119290415D01*
X86363707Y-119273284D01*
X86238250Y-119250937D01*
X86151802Y-119249881D01*
X86013141Y-119248186D01*
X86013139Y-119248186D01*
X86007971Y-119248123D01*
X85780325Y-119282958D01*
X85561424Y-119354506D01*
X85357149Y-119460845D01*
X85172984Y-119599119D01*
X85013877Y-119765616D01*
X85010963Y-119769888D01*
X85010962Y-119769889D01*
X84990259Y-119800239D01*
X84884099Y-119955863D01*
X84881923Y-119960552D01*
X84881919Y-119960558D01*
X84803161Y-120130229D01*
X84787136Y-120164752D01*
X84725592Y-120386673D01*
X84725043Y-120391810D01*
X84713624Y-120498661D01*
X84701119Y-120615665D01*
X80628977Y-120615665D01*
X80612930Y-120420478D01*
X80556826Y-120197120D01*
X80503250Y-120073903D01*
X80467056Y-119990661D01*
X80467054Y-119990658D01*
X80464996Y-119985924D01*
X80344871Y-119800239D01*
X80342715Y-119796906D01*
X80342713Y-119796903D01*
X80339905Y-119792563D01*
X80319274Y-119769889D01*
X80188390Y-119626051D01*
X80188389Y-119626050D01*
X80184912Y-119622229D01*
X80180861Y-119619030D01*
X80180857Y-119619026D01*
X80008235Y-119482697D01*
X80008230Y-119482693D01*
X80004181Y-119479496D01*
X79999665Y-119477003D01*
X79999662Y-119477001D01*
X79807089Y-119370695D01*
X79807085Y-119370693D01*
X79802565Y-119368198D01*
X79797696Y-119366474D01*
X79797692Y-119366472D01*
X79590353Y-119293049D01*
X79590349Y-119293048D01*
X79585478Y-119291323D01*
X79580385Y-119290416D01*
X79580382Y-119290415D01*
X79484207Y-119273284D01*
X79358750Y-119250937D01*
X79272302Y-119249881D01*
X79133641Y-119248186D01*
X79133639Y-119248186D01*
X79128471Y-119248123D01*
X78900825Y-119282958D01*
X78681924Y-119354506D01*
X78477649Y-119460845D01*
X78293484Y-119599119D01*
X78134377Y-119765616D01*
X78131463Y-119769888D01*
X78131462Y-119769889D01*
X78110759Y-119800239D01*
X78004599Y-119955863D01*
X78002423Y-119960552D01*
X78002419Y-119960558D01*
X77923661Y-120130229D01*
X77907636Y-120164752D01*
X77846092Y-120386673D01*
X77845543Y-120391810D01*
X77834124Y-120498661D01*
X77821619Y-120615665D01*
X57388000Y-120615665D01*
X57388000Y-116043665D01*
X59047119Y-116043665D01*
X59047416Y-116048817D01*
X59047416Y-116048821D01*
X59052864Y-116143296D01*
X59060376Y-116273580D01*
X59061513Y-116278626D01*
X59061514Y-116278632D01*
X59083226Y-116374975D01*
X59111006Y-116498242D01*
X59112948Y-116503024D01*
X59112949Y-116503028D01*
X59171058Y-116646132D01*
X59197649Y-116711618D01*
X59317979Y-116907978D01*
X59468763Y-117082048D01*
X59645953Y-117229154D01*
X59844790Y-117345345D01*
X60059934Y-117427501D01*
X60065000Y-117428532D01*
X60065001Y-117428532D01*
X60165697Y-117449018D01*
X60285607Y-117473414D01*
X60415352Y-117478172D01*
X60510585Y-117481664D01*
X60510589Y-117481664D01*
X60515749Y-117481853D01*
X60520869Y-117481197D01*
X60520871Y-117481197D01*
X60590272Y-117472307D01*
X60744178Y-117452591D01*
X60749126Y-117451106D01*
X60749133Y-117451105D01*
X60959811Y-117387898D01*
X60959810Y-117387898D01*
X60964761Y-117386413D01*
X61171574Y-117285096D01*
X61359062Y-117151363D01*
X61522190Y-116988803D01*
X61580269Y-116907978D01*
X61653559Y-116805983D01*
X61656577Y-116801783D01*
X61758615Y-116595325D01*
X61816575Y-116404558D01*
X61824059Y-116379927D01*
X61824060Y-116379921D01*
X61825563Y-116374975D01*
X61846770Y-116213889D01*
X61855185Y-116149971D01*
X61855185Y-116149965D01*
X61855622Y-116146649D01*
X61857300Y-116078000D01*
X61854477Y-116043665D01*
X62857119Y-116043665D01*
X62857416Y-116048817D01*
X62857416Y-116048821D01*
X62862864Y-116143296D01*
X62870376Y-116273580D01*
X62871513Y-116278626D01*
X62871514Y-116278632D01*
X62893226Y-116374975D01*
X62921006Y-116498242D01*
X62922948Y-116503024D01*
X62922949Y-116503028D01*
X62981058Y-116646132D01*
X63007649Y-116711618D01*
X63127979Y-116907978D01*
X63278763Y-117082048D01*
X63455953Y-117229154D01*
X63654790Y-117345345D01*
X63869934Y-117427501D01*
X63875000Y-117428532D01*
X63875001Y-117428532D01*
X63975697Y-117449018D01*
X64095607Y-117473414D01*
X64225352Y-117478172D01*
X64320585Y-117481664D01*
X64320589Y-117481664D01*
X64325749Y-117481853D01*
X64330869Y-117481197D01*
X64330871Y-117481197D01*
X64400272Y-117472307D01*
X64554178Y-117452591D01*
X64559126Y-117451106D01*
X64559133Y-117451105D01*
X64769811Y-117387898D01*
X64769810Y-117387898D01*
X64774761Y-117386413D01*
X64981574Y-117285096D01*
X65169062Y-117151363D01*
X65261080Y-117059665D01*
X84701119Y-117059665D01*
X84701416Y-117064817D01*
X84701416Y-117064821D01*
X84706196Y-117147719D01*
X84714376Y-117289580D01*
X84715513Y-117294626D01*
X84715514Y-117294632D01*
X84736198Y-117386413D01*
X84765006Y-117514242D01*
X84766948Y-117519024D01*
X84766949Y-117519028D01*
X84804427Y-117611325D01*
X84851649Y-117727618D01*
X84971979Y-117923978D01*
X85122763Y-118098048D01*
X85299953Y-118245154D01*
X85498790Y-118361345D01*
X85713934Y-118443501D01*
X85719000Y-118444532D01*
X85719001Y-118444532D01*
X85819697Y-118465018D01*
X85939607Y-118489414D01*
X86069352Y-118494172D01*
X86164585Y-118497664D01*
X86164589Y-118497664D01*
X86169749Y-118497853D01*
X86174869Y-118497197D01*
X86174871Y-118497197D01*
X86244272Y-118488307D01*
X86398178Y-118468591D01*
X86403126Y-118467106D01*
X86403133Y-118467105D01*
X86613811Y-118403898D01*
X86613810Y-118403898D01*
X86618761Y-118402413D01*
X86825574Y-118301096D01*
X87013062Y-118167363D01*
X87176190Y-118004803D01*
X87234269Y-117923978D01*
X87307559Y-117821983D01*
X87310577Y-117817783D01*
X87412615Y-117611325D01*
X87451952Y-117481853D01*
X87478059Y-117395927D01*
X87478060Y-117395921D01*
X87479563Y-117390975D01*
X87509622Y-117162649D01*
X87511300Y-117094000D01*
X87492430Y-116864478D01*
X87436326Y-116641120D01*
X87344496Y-116429924D01*
X87246621Y-116278632D01*
X87222215Y-116240906D01*
X87222213Y-116240903D01*
X87219405Y-116236563D01*
X87198774Y-116213889D01*
X87067890Y-116070051D01*
X87067889Y-116070050D01*
X87064412Y-116066229D01*
X87060361Y-116063030D01*
X87060357Y-116063026D01*
X86887735Y-115926697D01*
X86887730Y-115926693D01*
X86883681Y-115923496D01*
X86879165Y-115921003D01*
X86879162Y-115921001D01*
X86686589Y-115814695D01*
X86686585Y-115814693D01*
X86682065Y-115812198D01*
X86677196Y-115810474D01*
X86677192Y-115810472D01*
X86469853Y-115737049D01*
X86469849Y-115737048D01*
X86464978Y-115735323D01*
X86459885Y-115734416D01*
X86459882Y-115734415D01*
X86363707Y-115717284D01*
X86238250Y-115694937D01*
X86230874Y-115694847D01*
X86230016Y-115694584D01*
X86227927Y-115694386D01*
X86227968Y-115693955D01*
X86163003Y-115674015D01*
X86117168Y-115619797D01*
X86107921Y-115549405D01*
X86138200Y-115485188D01*
X86198390Y-115447536D01*
X86216401Y-115443877D01*
X86282473Y-115435413D01*
X86398178Y-115420591D01*
X86403126Y-115419106D01*
X86403133Y-115419105D01*
X86613811Y-115355898D01*
X86613810Y-115355898D01*
X86618761Y-115354413D01*
X86825574Y-115253096D01*
X87013062Y-115119363D01*
X87176190Y-114956803D01*
X87187069Y-114941664D01*
X87307559Y-114773983D01*
X87310577Y-114769783D01*
X87412615Y-114563325D01*
X87443643Y-114461200D01*
X87478059Y-114347927D01*
X87478060Y-114347921D01*
X87479563Y-114342975D01*
X87509622Y-114114649D01*
X87511300Y-114046000D01*
X87492430Y-113816478D01*
X87436326Y-113593120D01*
X87344496Y-113381924D01*
X87219405Y-113188563D01*
X87198774Y-113165889D01*
X87067890Y-113022051D01*
X87067889Y-113022050D01*
X87064412Y-113018229D01*
X87060361Y-113015030D01*
X87060357Y-113015026D01*
X86887735Y-112878697D01*
X86887730Y-112878693D01*
X86883681Y-112875496D01*
X86879165Y-112873003D01*
X86879162Y-112873001D01*
X86686589Y-112766695D01*
X86686585Y-112766693D01*
X86682065Y-112764198D01*
X86677196Y-112762474D01*
X86677192Y-112762472D01*
X86469853Y-112689049D01*
X86469849Y-112689048D01*
X86464978Y-112687323D01*
X86459885Y-112686416D01*
X86459882Y-112686415D01*
X86363707Y-112669284D01*
X86238250Y-112646937D01*
X86151802Y-112645881D01*
X86013141Y-112644186D01*
X86013139Y-112644186D01*
X86007971Y-112644123D01*
X85780325Y-112678958D01*
X85561424Y-112750506D01*
X85357149Y-112856845D01*
X85172984Y-112995119D01*
X85013877Y-113161616D01*
X84884099Y-113351863D01*
X84881923Y-113356552D01*
X84881919Y-113356558D01*
X84789315Y-113556057D01*
X84787136Y-113560752D01*
X84725592Y-113782673D01*
X84701119Y-114011665D01*
X84701416Y-114016817D01*
X84701416Y-114016821D01*
X84703351Y-114050371D01*
X84714376Y-114241580D01*
X84715513Y-114246626D01*
X84715514Y-114246632D01*
X84737226Y-114342975D01*
X84765006Y-114466242D01*
X84766948Y-114471024D01*
X84766949Y-114471028D01*
X84825151Y-114614361D01*
X84851649Y-114679618D01*
X84971979Y-114875978D01*
X85122763Y-115050048D01*
X85299953Y-115197154D01*
X85498790Y-115313345D01*
X85713934Y-115395501D01*
X85719000Y-115396532D01*
X85719001Y-115396532D01*
X85783165Y-115409586D01*
X85939607Y-115441414D01*
X85984393Y-115443056D01*
X86051734Y-115465540D01*
X86096229Y-115520863D01*
X86103752Y-115591460D01*
X86071912Y-115654917D01*
X86010820Y-115691087D01*
X85998834Y-115693521D01*
X85983654Y-115695844D01*
X85780325Y-115726958D01*
X85561424Y-115798506D01*
X85357149Y-115904845D01*
X85172984Y-116043119D01*
X85013877Y-116209616D01*
X84884099Y-116399863D01*
X84881923Y-116404552D01*
X84881919Y-116404558D01*
X84791214Y-116599966D01*
X84787136Y-116608752D01*
X84725592Y-116830673D01*
X84725043Y-116835810D01*
X84709141Y-116984606D01*
X84701119Y-117059665D01*
X65261080Y-117059665D01*
X65332190Y-116988803D01*
X65390269Y-116907978D01*
X65463559Y-116805983D01*
X65466577Y-116801783D01*
X65568615Y-116595325D01*
X65626575Y-116404558D01*
X65634059Y-116379927D01*
X65634060Y-116379921D01*
X65635563Y-116374975D01*
X65656770Y-116213889D01*
X65665185Y-116149971D01*
X65665185Y-116149965D01*
X65665622Y-116146649D01*
X65667300Y-116078000D01*
X65648430Y-115848478D01*
X65592326Y-115625120D01*
X65500496Y-115413924D01*
X65375405Y-115220563D01*
X65356480Y-115199764D01*
X65223890Y-115054051D01*
X65223889Y-115054050D01*
X65220412Y-115050229D01*
X65216361Y-115047030D01*
X65216357Y-115047026D01*
X65043735Y-114910697D01*
X65043730Y-114910693D01*
X65039681Y-114907496D01*
X65035165Y-114905003D01*
X65035162Y-114905001D01*
X64842589Y-114798695D01*
X64842585Y-114798693D01*
X64838065Y-114796198D01*
X64833196Y-114794474D01*
X64833192Y-114794472D01*
X64625853Y-114721049D01*
X64625849Y-114721048D01*
X64620978Y-114719323D01*
X64615885Y-114718416D01*
X64615882Y-114718415D01*
X64519707Y-114701284D01*
X64394250Y-114678937D01*
X64307802Y-114677881D01*
X64169141Y-114676186D01*
X64169139Y-114676186D01*
X64163971Y-114676123D01*
X63936325Y-114710958D01*
X63717424Y-114782506D01*
X63513149Y-114888845D01*
X63328984Y-115027119D01*
X63169877Y-115193616D01*
X63040099Y-115383863D01*
X63037923Y-115388552D01*
X63037919Y-115388558D01*
X62963257Y-115549405D01*
X62943136Y-115592752D01*
X62881592Y-115814673D01*
X62881043Y-115819810D01*
X62869620Y-115926697D01*
X62857119Y-116043665D01*
X61854477Y-116043665D01*
X61838430Y-115848478D01*
X61782326Y-115625120D01*
X61690496Y-115413924D01*
X61565405Y-115220563D01*
X61546480Y-115199764D01*
X61413890Y-115054051D01*
X61413889Y-115054050D01*
X61410412Y-115050229D01*
X61406361Y-115047030D01*
X61406357Y-115047026D01*
X61233735Y-114910697D01*
X61233730Y-114910693D01*
X61229681Y-114907496D01*
X61225165Y-114905003D01*
X61225162Y-114905001D01*
X61032589Y-114798695D01*
X61032585Y-114798693D01*
X61028065Y-114796198D01*
X61023196Y-114794474D01*
X61023192Y-114794472D01*
X60815853Y-114721049D01*
X60815849Y-114721048D01*
X60810978Y-114719323D01*
X60805885Y-114718416D01*
X60805882Y-114718415D01*
X60709707Y-114701284D01*
X60584250Y-114678937D01*
X60497802Y-114677881D01*
X60359141Y-114676186D01*
X60359139Y-114676186D01*
X60353971Y-114676123D01*
X60126325Y-114710958D01*
X59907424Y-114782506D01*
X59703149Y-114888845D01*
X59518984Y-115027119D01*
X59359877Y-115193616D01*
X59230099Y-115383863D01*
X59227923Y-115388552D01*
X59227919Y-115388558D01*
X59153257Y-115549405D01*
X59133136Y-115592752D01*
X59071592Y-115814673D01*
X59071043Y-115819810D01*
X59059620Y-115926697D01*
X59047119Y-116043665D01*
X57388000Y-116043665D01*
X57388000Y-114011665D01*
X77589119Y-114011665D01*
X77589416Y-114016817D01*
X77589416Y-114016821D01*
X77591351Y-114050371D01*
X77602376Y-114241580D01*
X77603513Y-114246626D01*
X77603514Y-114246632D01*
X77625226Y-114342975D01*
X77653006Y-114466242D01*
X77654948Y-114471024D01*
X77654949Y-114471028D01*
X77713151Y-114614361D01*
X77739649Y-114679618D01*
X77859979Y-114875978D01*
X78010763Y-115050048D01*
X78187953Y-115197154D01*
X78386790Y-115313345D01*
X78601934Y-115395501D01*
X78607000Y-115396532D01*
X78607001Y-115396532D01*
X78671165Y-115409586D01*
X78827607Y-115441414D01*
X78957352Y-115446172D01*
X79052585Y-115449664D01*
X79052589Y-115449664D01*
X79057749Y-115449853D01*
X79062869Y-115449197D01*
X79062871Y-115449197D01*
X79132272Y-115440307D01*
X79286178Y-115420591D01*
X79291126Y-115419106D01*
X79291133Y-115419105D01*
X79501811Y-115355898D01*
X79501810Y-115355898D01*
X79506761Y-115354413D01*
X79713574Y-115253096D01*
X79901062Y-115119363D01*
X80064190Y-114956803D01*
X80075069Y-114941664D01*
X80195559Y-114773983D01*
X80198577Y-114769783D01*
X80300615Y-114563325D01*
X80331643Y-114461200D01*
X80366059Y-114347927D01*
X80366060Y-114347921D01*
X80367563Y-114342975D01*
X80397622Y-114114649D01*
X80399300Y-114046000D01*
X80380430Y-113816478D01*
X80324326Y-113593120D01*
X80232496Y-113381924D01*
X80107405Y-113188563D01*
X80086774Y-113165889D01*
X79955890Y-113022051D01*
X79955889Y-113022050D01*
X79952412Y-113018229D01*
X79948361Y-113015030D01*
X79948357Y-113015026D01*
X79775735Y-112878697D01*
X79775730Y-112878693D01*
X79771681Y-112875496D01*
X79767165Y-112873003D01*
X79767162Y-112873001D01*
X79574589Y-112766695D01*
X79574585Y-112766693D01*
X79570065Y-112764198D01*
X79565196Y-112762474D01*
X79565192Y-112762472D01*
X79357853Y-112689049D01*
X79357849Y-112689048D01*
X79352978Y-112687323D01*
X79347885Y-112686416D01*
X79347882Y-112686415D01*
X79251707Y-112669284D01*
X79126250Y-112646937D01*
X79039802Y-112645881D01*
X78901141Y-112644186D01*
X78901139Y-112644186D01*
X78895971Y-112644123D01*
X78668325Y-112678958D01*
X78449424Y-112750506D01*
X78245149Y-112856845D01*
X78060984Y-112995119D01*
X77901877Y-113161616D01*
X77772099Y-113351863D01*
X77769923Y-113356552D01*
X77769919Y-113356558D01*
X77677315Y-113556057D01*
X77675136Y-113560752D01*
X77613592Y-113782673D01*
X77589119Y-114011665D01*
X57388000Y-114011665D01*
X57388000Y-110455665D01*
X81145119Y-110455665D01*
X81145416Y-110460817D01*
X81145416Y-110460821D01*
X81150864Y-110555296D01*
X81158376Y-110685580D01*
X81159513Y-110690626D01*
X81159514Y-110690632D01*
X81181226Y-110786975D01*
X81209006Y-110910242D01*
X81210948Y-110915024D01*
X81210949Y-110915028D01*
X81248427Y-111007325D01*
X81295649Y-111123618D01*
X81415979Y-111319978D01*
X81566763Y-111494048D01*
X81743953Y-111641154D01*
X81942790Y-111757345D01*
X82157934Y-111839501D01*
X82163000Y-111840532D01*
X82163001Y-111840532D01*
X82263697Y-111861018D01*
X82383607Y-111885414D01*
X82513352Y-111890172D01*
X82608585Y-111893664D01*
X82608589Y-111893664D01*
X82613749Y-111893853D01*
X82618869Y-111893197D01*
X82618871Y-111893197D01*
X82688272Y-111884307D01*
X82842178Y-111864591D01*
X82847126Y-111863106D01*
X82847133Y-111863105D01*
X83057811Y-111799898D01*
X83057810Y-111799898D01*
X83062761Y-111798413D01*
X83269574Y-111697096D01*
X83457062Y-111563363D01*
X83620190Y-111400803D01*
X83678269Y-111319978D01*
X83751559Y-111217983D01*
X83754577Y-111213783D01*
X83856615Y-111007325D01*
X83887643Y-110905200D01*
X83922059Y-110791927D01*
X83922060Y-110791921D01*
X83923563Y-110786975D01*
X83953622Y-110558649D01*
X83955300Y-110490000D01*
X83936430Y-110260478D01*
X83880326Y-110037120D01*
X83788496Y-109825924D01*
X83663405Y-109632563D01*
X83642774Y-109609889D01*
X83511890Y-109466051D01*
X83511889Y-109466050D01*
X83508412Y-109462229D01*
X83504361Y-109459030D01*
X83504357Y-109459026D01*
X83331735Y-109322697D01*
X83331730Y-109322693D01*
X83327681Y-109319496D01*
X83323165Y-109317003D01*
X83323162Y-109317001D01*
X83130589Y-109210695D01*
X83130585Y-109210693D01*
X83126065Y-109208198D01*
X83121196Y-109206474D01*
X83121192Y-109206472D01*
X82913853Y-109133049D01*
X82913849Y-109133048D01*
X82908978Y-109131323D01*
X82903885Y-109130416D01*
X82903882Y-109130415D01*
X82807707Y-109113284D01*
X82682250Y-109090937D01*
X82595802Y-109089881D01*
X82457141Y-109088186D01*
X82457139Y-109088186D01*
X82451971Y-109088123D01*
X82224325Y-109122958D01*
X82005424Y-109194506D01*
X81801149Y-109300845D01*
X81616984Y-109439119D01*
X81457877Y-109605616D01*
X81328099Y-109795863D01*
X81325923Y-109800552D01*
X81325919Y-109800558D01*
X81314145Y-109825924D01*
X81231136Y-110004752D01*
X81169592Y-110226673D01*
X81145119Y-110455665D01*
X57388000Y-110455665D01*
X57388000Y-102327665D01*
X81145119Y-102327665D01*
X81145416Y-102332817D01*
X81145416Y-102332821D01*
X81150864Y-102427296D01*
X81158376Y-102557580D01*
X81159513Y-102562626D01*
X81159514Y-102562632D01*
X81181226Y-102658975D01*
X81209006Y-102782242D01*
X81210948Y-102787024D01*
X81210949Y-102787028D01*
X81248427Y-102879325D01*
X81295649Y-102995618D01*
X81415979Y-103191978D01*
X81566763Y-103366048D01*
X81743953Y-103513154D01*
X81942790Y-103629345D01*
X82157934Y-103711501D01*
X82163000Y-103712532D01*
X82163001Y-103712532D01*
X82263697Y-103733018D01*
X82383607Y-103757414D01*
X82513352Y-103762172D01*
X82608585Y-103765664D01*
X82608589Y-103765664D01*
X82613749Y-103765853D01*
X82618869Y-103765197D01*
X82618871Y-103765197D01*
X82688272Y-103756307D01*
X82842178Y-103736591D01*
X82847126Y-103735106D01*
X82847133Y-103735105D01*
X83057811Y-103671898D01*
X83057810Y-103671898D01*
X83062761Y-103670413D01*
X83269574Y-103569096D01*
X83457062Y-103435363D01*
X83620190Y-103272803D01*
X83678269Y-103191978D01*
X83751559Y-103089983D01*
X83754577Y-103085783D01*
X83856615Y-102879325D01*
X83887643Y-102777200D01*
X83922059Y-102663927D01*
X83922060Y-102663921D01*
X83923563Y-102658975D01*
X83953622Y-102430649D01*
X83955300Y-102362000D01*
X83936430Y-102132478D01*
X83880326Y-101909120D01*
X83788496Y-101697924D01*
X83663405Y-101504563D01*
X83642774Y-101481889D01*
X83511890Y-101338051D01*
X83511889Y-101338050D01*
X83508412Y-101334229D01*
X83504361Y-101331030D01*
X83504357Y-101331026D01*
X83331735Y-101194697D01*
X83331730Y-101194693D01*
X83327681Y-101191496D01*
X83323165Y-101189003D01*
X83323162Y-101189001D01*
X83130589Y-101082695D01*
X83130585Y-101082693D01*
X83126065Y-101080198D01*
X83121196Y-101078474D01*
X83121192Y-101078472D01*
X82913853Y-101005049D01*
X82913849Y-101005048D01*
X82908978Y-101003323D01*
X82903885Y-101002416D01*
X82903882Y-101002415D01*
X82807707Y-100985284D01*
X82682250Y-100962937D01*
X82595802Y-100961881D01*
X82457141Y-100960186D01*
X82457139Y-100960186D01*
X82451971Y-100960123D01*
X82224325Y-100994958D01*
X82005424Y-101066506D01*
X81801149Y-101172845D01*
X81616984Y-101311119D01*
X81457877Y-101477616D01*
X81328099Y-101667863D01*
X81325923Y-101672552D01*
X81325919Y-101672558D01*
X81314145Y-101697924D01*
X81231136Y-101876752D01*
X81169592Y-102098673D01*
X81145119Y-102327665D01*
X57388000Y-102327665D01*
X57388000Y-98771665D01*
X76573119Y-98771665D01*
X76573416Y-98776817D01*
X76573416Y-98776821D01*
X76578864Y-98871296D01*
X76586376Y-99001580D01*
X76587513Y-99006626D01*
X76587514Y-99006632D01*
X76609226Y-99102975D01*
X76637006Y-99226242D01*
X76638948Y-99231024D01*
X76638949Y-99231028D01*
X76676427Y-99323325D01*
X76723649Y-99439618D01*
X76843979Y-99635978D01*
X76994763Y-99810048D01*
X77171953Y-99957154D01*
X77370790Y-100073345D01*
X77585934Y-100155501D01*
X77591000Y-100156532D01*
X77591001Y-100156532D01*
X77691697Y-100177018D01*
X77811607Y-100201414D01*
X77941352Y-100206172D01*
X78036585Y-100209664D01*
X78036589Y-100209664D01*
X78041749Y-100209853D01*
X78046869Y-100209197D01*
X78046871Y-100209197D01*
X78116272Y-100200307D01*
X78270178Y-100180591D01*
X78275126Y-100179106D01*
X78275133Y-100179105D01*
X78485811Y-100115898D01*
X78485810Y-100115898D01*
X78490761Y-100114413D01*
X78697574Y-100013096D01*
X78885062Y-99879363D01*
X79048190Y-99716803D01*
X79106269Y-99635978D01*
X79179559Y-99533983D01*
X79182577Y-99529783D01*
X79284615Y-99323325D01*
X79315643Y-99221200D01*
X79350059Y-99107927D01*
X79350060Y-99107921D01*
X79351563Y-99102975D01*
X79381622Y-98874649D01*
X79383300Y-98806000D01*
X79380477Y-98771665D01*
X81399119Y-98771665D01*
X81399416Y-98776817D01*
X81399416Y-98776821D01*
X81404864Y-98871296D01*
X81412376Y-99001580D01*
X81413513Y-99006626D01*
X81413514Y-99006632D01*
X81435226Y-99102975D01*
X81463006Y-99226242D01*
X81464948Y-99231024D01*
X81464949Y-99231028D01*
X81502427Y-99323325D01*
X81549649Y-99439618D01*
X81669979Y-99635978D01*
X81820763Y-99810048D01*
X81997953Y-99957154D01*
X82196790Y-100073345D01*
X82411934Y-100155501D01*
X82417000Y-100156532D01*
X82417001Y-100156532D01*
X82517697Y-100177018D01*
X82637607Y-100201414D01*
X82767352Y-100206172D01*
X82862585Y-100209664D01*
X82862589Y-100209664D01*
X82867749Y-100209853D01*
X82872869Y-100209197D01*
X82872871Y-100209197D01*
X82942272Y-100200307D01*
X83096178Y-100180591D01*
X83101126Y-100179106D01*
X83101133Y-100179105D01*
X83311811Y-100115898D01*
X83311810Y-100115898D01*
X83316761Y-100114413D01*
X83523574Y-100013096D01*
X83711062Y-99879363D01*
X83874190Y-99716803D01*
X83932269Y-99635978D01*
X84005559Y-99533983D01*
X84008577Y-99529783D01*
X84110615Y-99323325D01*
X84141643Y-99221200D01*
X84176059Y-99107927D01*
X84176060Y-99107921D01*
X84177563Y-99102975D01*
X84207622Y-98874649D01*
X84209300Y-98806000D01*
X84190430Y-98576478D01*
X84134326Y-98353120D01*
X84042496Y-98141924D01*
X83917405Y-97948563D01*
X83896774Y-97925889D01*
X83765890Y-97782051D01*
X83765889Y-97782050D01*
X83762412Y-97778229D01*
X83758361Y-97775030D01*
X83758357Y-97775026D01*
X83585735Y-97638697D01*
X83585730Y-97638693D01*
X83581681Y-97635496D01*
X83577165Y-97633003D01*
X83577162Y-97633001D01*
X83384589Y-97526695D01*
X83384585Y-97526693D01*
X83380065Y-97524198D01*
X83375196Y-97522474D01*
X83375192Y-97522472D01*
X83167853Y-97449049D01*
X83167849Y-97449048D01*
X83162978Y-97447323D01*
X83157885Y-97446416D01*
X83157882Y-97446415D01*
X83061707Y-97429284D01*
X82936250Y-97406937D01*
X82849802Y-97405881D01*
X82711141Y-97404186D01*
X82711139Y-97404186D01*
X82705971Y-97404123D01*
X82478325Y-97438958D01*
X82259424Y-97510506D01*
X82055149Y-97616845D01*
X81870984Y-97755119D01*
X81711877Y-97921616D01*
X81582099Y-98111863D01*
X81579923Y-98116552D01*
X81579919Y-98116558D01*
X81568145Y-98141924D01*
X81485136Y-98320752D01*
X81423592Y-98542673D01*
X81399119Y-98771665D01*
X79380477Y-98771665D01*
X79364430Y-98576478D01*
X79308326Y-98353120D01*
X79216496Y-98141924D01*
X79091405Y-97948563D01*
X79070774Y-97925889D01*
X78939890Y-97782051D01*
X78939889Y-97782050D01*
X78936412Y-97778229D01*
X78932361Y-97775030D01*
X78932357Y-97775026D01*
X78759735Y-97638697D01*
X78759730Y-97638693D01*
X78755681Y-97635496D01*
X78751165Y-97633003D01*
X78751162Y-97633001D01*
X78558589Y-97526695D01*
X78558585Y-97526693D01*
X78554065Y-97524198D01*
X78549196Y-97522474D01*
X78549192Y-97522472D01*
X78341853Y-97449049D01*
X78341849Y-97449048D01*
X78336978Y-97447323D01*
X78331885Y-97446416D01*
X78331882Y-97446415D01*
X78235707Y-97429284D01*
X78110250Y-97406937D01*
X78023802Y-97405881D01*
X77885141Y-97404186D01*
X77885139Y-97404186D01*
X77879971Y-97404123D01*
X77652325Y-97438958D01*
X77433424Y-97510506D01*
X77229149Y-97616845D01*
X77044984Y-97755119D01*
X76885877Y-97921616D01*
X76756099Y-98111863D01*
X76753923Y-98116552D01*
X76753919Y-98116558D01*
X76742145Y-98141924D01*
X76659136Y-98320752D01*
X76597592Y-98542673D01*
X76573119Y-98771665D01*
X57388000Y-98771665D01*
X57388000Y-94453665D01*
X76573119Y-94453665D01*
X76573416Y-94458817D01*
X76573416Y-94458821D01*
X76579057Y-94556649D01*
X76586376Y-94683580D01*
X76587513Y-94688626D01*
X76587514Y-94688632D01*
X76608607Y-94782225D01*
X76637006Y-94908242D01*
X76638948Y-94913024D01*
X76638949Y-94913028D01*
X76721705Y-95116831D01*
X76723649Y-95121618D01*
X76843979Y-95317978D01*
X76994763Y-95492048D01*
X77171953Y-95639154D01*
X77370790Y-95755345D01*
X77585934Y-95837501D01*
X77591000Y-95838532D01*
X77591001Y-95838532D01*
X77688436Y-95858355D01*
X77811607Y-95883414D01*
X77941352Y-95888172D01*
X78036585Y-95891664D01*
X78036589Y-95891664D01*
X78041749Y-95891853D01*
X78046869Y-95891197D01*
X78046871Y-95891197D01*
X78129094Y-95880664D01*
X78270178Y-95862591D01*
X78275126Y-95861106D01*
X78275133Y-95861105D01*
X78485811Y-95797898D01*
X78485810Y-95797898D01*
X78490761Y-95796413D01*
X78697574Y-95695096D01*
X78885062Y-95561363D01*
X79048190Y-95398803D01*
X79106269Y-95317978D01*
X79179559Y-95215983D01*
X79182577Y-95211783D01*
X79228499Y-95118868D01*
X79282321Y-95009966D01*
X79284615Y-95005325D01*
X79316479Y-94900450D01*
X79350059Y-94789927D01*
X79350060Y-94789921D01*
X79351563Y-94784975D01*
X79381622Y-94556649D01*
X79383300Y-94488000D01*
X79380251Y-94450915D01*
X81396369Y-94450915D01*
X81396666Y-94456067D01*
X81396666Y-94456071D01*
X81398701Y-94491364D01*
X81409626Y-94680830D01*
X81410763Y-94685876D01*
X81410764Y-94685882D01*
X81431940Y-94779846D01*
X81460256Y-94905492D01*
X81462198Y-94910274D01*
X81462199Y-94910278D01*
X81498782Y-95000371D01*
X81546899Y-95118868D01*
X81667229Y-95315228D01*
X81818013Y-95489298D01*
X81995203Y-95636404D01*
X82194040Y-95752595D01*
X82409184Y-95834751D01*
X82414250Y-95835782D01*
X82414251Y-95835782D01*
X82427768Y-95838532D01*
X82634857Y-95880664D01*
X82764602Y-95885422D01*
X82859835Y-95888914D01*
X82859839Y-95888914D01*
X82864999Y-95889103D01*
X82870119Y-95888447D01*
X82870121Y-95888447D01*
X82939522Y-95879557D01*
X83093428Y-95859841D01*
X83098376Y-95858356D01*
X83098383Y-95858355D01*
X83309061Y-95795148D01*
X83309060Y-95795148D01*
X83314011Y-95793663D01*
X83520824Y-95692346D01*
X83708312Y-95558613D01*
X83871440Y-95396053D01*
X83929519Y-95315228D01*
X84002809Y-95213233D01*
X84005827Y-95209033D01*
X84107865Y-95002575D01*
X84172473Y-94789927D01*
X84173309Y-94787177D01*
X84173310Y-94787171D01*
X84174813Y-94782225D01*
X84204872Y-94553899D01*
X84206550Y-94485250D01*
X84203953Y-94453665D01*
X85971119Y-94453665D01*
X85971416Y-94458817D01*
X85971416Y-94458821D01*
X85977057Y-94556649D01*
X85984376Y-94683580D01*
X85985513Y-94688626D01*
X85985514Y-94688632D01*
X86006607Y-94782225D01*
X86035006Y-94908242D01*
X86036948Y-94913024D01*
X86036949Y-94913028D01*
X86119705Y-95116831D01*
X86121649Y-95121618D01*
X86241979Y-95317978D01*
X86392763Y-95492048D01*
X86569953Y-95639154D01*
X86768790Y-95755345D01*
X86983934Y-95837501D01*
X86989000Y-95838532D01*
X86989001Y-95838532D01*
X87086436Y-95858355D01*
X87209607Y-95883414D01*
X87339352Y-95888172D01*
X87434585Y-95891664D01*
X87434589Y-95891664D01*
X87439749Y-95891853D01*
X87444869Y-95891197D01*
X87444871Y-95891197D01*
X87527094Y-95880664D01*
X87668178Y-95862591D01*
X87673126Y-95861106D01*
X87673133Y-95861105D01*
X87883811Y-95797898D01*
X87883810Y-95797898D01*
X87888761Y-95796413D01*
X88095574Y-95695096D01*
X88283062Y-95561363D01*
X88446190Y-95398803D01*
X88504269Y-95317978D01*
X88577559Y-95215983D01*
X88580577Y-95211783D01*
X88626499Y-95118868D01*
X88680321Y-95009966D01*
X88682615Y-95005325D01*
X88714479Y-94900450D01*
X88748059Y-94789927D01*
X88748060Y-94789921D01*
X88749563Y-94784975D01*
X88779622Y-94556649D01*
X88781300Y-94488000D01*
X88762430Y-94258478D01*
X88706326Y-94035120D01*
X88614496Y-93823924D01*
X88489405Y-93630563D01*
X88483422Y-93623987D01*
X88337890Y-93464051D01*
X88337889Y-93464050D01*
X88334412Y-93460229D01*
X88330361Y-93457030D01*
X88330357Y-93457026D01*
X88157735Y-93320697D01*
X88157730Y-93320693D01*
X88153681Y-93317496D01*
X88149165Y-93315003D01*
X88149162Y-93315001D01*
X87956589Y-93208695D01*
X87956585Y-93208693D01*
X87952065Y-93206198D01*
X87947196Y-93204474D01*
X87947192Y-93204472D01*
X87739853Y-93131049D01*
X87739849Y-93131048D01*
X87734978Y-93129323D01*
X87729885Y-93128416D01*
X87729882Y-93128415D01*
X87633707Y-93111284D01*
X87508250Y-93088937D01*
X87421802Y-93087881D01*
X87283141Y-93086186D01*
X87283139Y-93086186D01*
X87277971Y-93086123D01*
X87050325Y-93120958D01*
X86831424Y-93192506D01*
X86627149Y-93298845D01*
X86442984Y-93437119D01*
X86283877Y-93603616D01*
X86154099Y-93793863D01*
X86151923Y-93798552D01*
X86151919Y-93798558D01*
X86137946Y-93828661D01*
X86057136Y-94002752D01*
X85995592Y-94224673D01*
X85971119Y-94453665D01*
X84203953Y-94453665D01*
X84187680Y-94255728D01*
X84131576Y-94032370D01*
X84078000Y-93909153D01*
X84041806Y-93825911D01*
X84041804Y-93825908D01*
X84039746Y-93821174D01*
X83914655Y-93627813D01*
X83896526Y-93607889D01*
X83763140Y-93461301D01*
X83763139Y-93461300D01*
X83759662Y-93457479D01*
X83755611Y-93454280D01*
X83755607Y-93454276D01*
X83582985Y-93317947D01*
X83582980Y-93317943D01*
X83578931Y-93314746D01*
X83574415Y-93312253D01*
X83574412Y-93312251D01*
X83381839Y-93205945D01*
X83381835Y-93205943D01*
X83377315Y-93203448D01*
X83372446Y-93201724D01*
X83372442Y-93201722D01*
X83165103Y-93128299D01*
X83165099Y-93128298D01*
X83160228Y-93126573D01*
X83155135Y-93125666D01*
X83155132Y-93125665D01*
X83058957Y-93108534D01*
X82933500Y-93086187D01*
X82847052Y-93085131D01*
X82708391Y-93083436D01*
X82708389Y-93083436D01*
X82703221Y-93083373D01*
X82475575Y-93118208D01*
X82256674Y-93189756D01*
X82052399Y-93296095D01*
X81868234Y-93434369D01*
X81709127Y-93600866D01*
X81579349Y-93791113D01*
X81577173Y-93795802D01*
X81577169Y-93795808D01*
X81484565Y-93995307D01*
X81482386Y-94000002D01*
X81420842Y-94221923D01*
X81396369Y-94450915D01*
X79380251Y-94450915D01*
X79364430Y-94258478D01*
X79308326Y-94035120D01*
X79216496Y-93823924D01*
X79091405Y-93630563D01*
X79085422Y-93623987D01*
X78939890Y-93464051D01*
X78939889Y-93464050D01*
X78936412Y-93460229D01*
X78932361Y-93457030D01*
X78932357Y-93457026D01*
X78759735Y-93320697D01*
X78759730Y-93320693D01*
X78755681Y-93317496D01*
X78751165Y-93315003D01*
X78751162Y-93315001D01*
X78558589Y-93208695D01*
X78558585Y-93208693D01*
X78554065Y-93206198D01*
X78549196Y-93204474D01*
X78549192Y-93204472D01*
X78341853Y-93131049D01*
X78341849Y-93131048D01*
X78336978Y-93129323D01*
X78331885Y-93128416D01*
X78331882Y-93128415D01*
X78235707Y-93111284D01*
X78110250Y-93088937D01*
X78023802Y-93087881D01*
X77885141Y-93086186D01*
X77885139Y-93086186D01*
X77879971Y-93086123D01*
X77652325Y-93120958D01*
X77433424Y-93192506D01*
X77229149Y-93298845D01*
X77044984Y-93437119D01*
X76885877Y-93603616D01*
X76756099Y-93793863D01*
X76753923Y-93798552D01*
X76753919Y-93798558D01*
X76739946Y-93828661D01*
X76659136Y-94002752D01*
X76597592Y-94224673D01*
X76573119Y-94453665D01*
X57388000Y-94453665D01*
X57388000Y-90157165D01*
X78880619Y-90157165D01*
X78880916Y-90162317D01*
X78880916Y-90162321D01*
X78885124Y-90235296D01*
X78893876Y-90387080D01*
X78895013Y-90392126D01*
X78895014Y-90392132D01*
X78916726Y-90488475D01*
X78944506Y-90611742D01*
X78946448Y-90616524D01*
X78946449Y-90616528D01*
X78983927Y-90708825D01*
X79031149Y-90825118D01*
X79033848Y-90829522D01*
X79140696Y-91003881D01*
X79151479Y-91021478D01*
X79302263Y-91195548D01*
X79479453Y-91342654D01*
X79678290Y-91458845D01*
X79893434Y-91541001D01*
X79898500Y-91542032D01*
X79898501Y-91542032D01*
X79999197Y-91562518D01*
X80119107Y-91586914D01*
X80248852Y-91591672D01*
X80344085Y-91595164D01*
X80344089Y-91595164D01*
X80349249Y-91595353D01*
X80354369Y-91594697D01*
X80354371Y-91594697D01*
X80423772Y-91585807D01*
X80577678Y-91566091D01*
X80582626Y-91564606D01*
X80582633Y-91564605D01*
X80793311Y-91501398D01*
X80793310Y-91501398D01*
X80798261Y-91499913D01*
X81005074Y-91398596D01*
X81192562Y-91264863D01*
X81355690Y-91102303D01*
X81413769Y-91021478D01*
X81487059Y-90919483D01*
X81490077Y-90915283D01*
X81592115Y-90708825D01*
X81623143Y-90606700D01*
X81657559Y-90493427D01*
X81657560Y-90493421D01*
X81659063Y-90488475D01*
X81689122Y-90260149D01*
X81689648Y-90238649D01*
X81690718Y-90194864D01*
X81690718Y-90194860D01*
X81690800Y-90191500D01*
X81686210Y-90135665D01*
X83685119Y-90135665D01*
X83685416Y-90140817D01*
X83685416Y-90140821D01*
X83688145Y-90188146D01*
X83698376Y-90365580D01*
X83699513Y-90370626D01*
X83699514Y-90370632D01*
X83721226Y-90466975D01*
X83749006Y-90590242D01*
X83750948Y-90595024D01*
X83750949Y-90595028D01*
X83799042Y-90713466D01*
X83835649Y-90803618D01*
X83955979Y-90999978D01*
X84106763Y-91174048D01*
X84283953Y-91321154D01*
X84482790Y-91437345D01*
X84487615Y-91439187D01*
X84487616Y-91439188D01*
X84543919Y-91460688D01*
X84697934Y-91519501D01*
X84703000Y-91520532D01*
X84703001Y-91520532D01*
X84794543Y-91539156D01*
X84923607Y-91565414D01*
X85053352Y-91570172D01*
X85148585Y-91573664D01*
X85148589Y-91573664D01*
X85153749Y-91573853D01*
X85158869Y-91573197D01*
X85158871Y-91573197D01*
X85228272Y-91564307D01*
X85382178Y-91544591D01*
X85387126Y-91543106D01*
X85387133Y-91543105D01*
X85597811Y-91479898D01*
X85597810Y-91479898D01*
X85602761Y-91478413D01*
X85809574Y-91377096D01*
X85997062Y-91243363D01*
X86160190Y-91080803D01*
X86218269Y-90999978D01*
X86291559Y-90897983D01*
X86294577Y-90893783D01*
X86396615Y-90687325D01*
X86427643Y-90585200D01*
X86462059Y-90471927D01*
X86462060Y-90471921D01*
X86463563Y-90466975D01*
X86493622Y-90238649D01*
X86494692Y-90194864D01*
X86495218Y-90173364D01*
X86495218Y-90173360D01*
X86495300Y-90170000D01*
X86476430Y-89940478D01*
X86420326Y-89717120D01*
X86339904Y-89532161D01*
X86330556Y-89510661D01*
X86330554Y-89510658D01*
X86328496Y-89505924D01*
X86203405Y-89312563D01*
X86195049Y-89303379D01*
X86051890Y-89146051D01*
X86051889Y-89146050D01*
X86048412Y-89142229D01*
X86044361Y-89139030D01*
X86044357Y-89139026D01*
X85871735Y-89002697D01*
X85871730Y-89002693D01*
X85867681Y-88999496D01*
X85863165Y-88997003D01*
X85863162Y-88997001D01*
X85670589Y-88890695D01*
X85670585Y-88890693D01*
X85666065Y-88888198D01*
X85661196Y-88886474D01*
X85661192Y-88886472D01*
X85453853Y-88813049D01*
X85453849Y-88813048D01*
X85448978Y-88811323D01*
X85443885Y-88810416D01*
X85443882Y-88810415D01*
X85347707Y-88793284D01*
X85222250Y-88770937D01*
X85135802Y-88769881D01*
X84997141Y-88768186D01*
X84997139Y-88768186D01*
X84991971Y-88768123D01*
X84764325Y-88802958D01*
X84545424Y-88874506D01*
X84341149Y-88980845D01*
X84156984Y-89119119D01*
X83997877Y-89285616D01*
X83994963Y-89289888D01*
X83994962Y-89289889D01*
X83964829Y-89334063D01*
X83868099Y-89475863D01*
X83865923Y-89480552D01*
X83865919Y-89480558D01*
X83844165Y-89527424D01*
X83771136Y-89684752D01*
X83709592Y-89906673D01*
X83685119Y-90135665D01*
X81686210Y-90135665D01*
X81671930Y-89961978D01*
X81615826Y-89738620D01*
X81523996Y-89527424D01*
X81398905Y-89334063D01*
X81383294Y-89316906D01*
X81247390Y-89167551D01*
X81247389Y-89167550D01*
X81243912Y-89163729D01*
X81239861Y-89160530D01*
X81239857Y-89160526D01*
X81067235Y-89024197D01*
X81067230Y-89024193D01*
X81063181Y-89020996D01*
X81058665Y-89018503D01*
X81058662Y-89018501D01*
X80866089Y-88912195D01*
X80866085Y-88912193D01*
X80861565Y-88909698D01*
X80856696Y-88907974D01*
X80856692Y-88907972D01*
X80649353Y-88834549D01*
X80649349Y-88834548D01*
X80644478Y-88832823D01*
X80639385Y-88831916D01*
X80639382Y-88831915D01*
X80518679Y-88810415D01*
X80417750Y-88792437D01*
X80331302Y-88791381D01*
X80192641Y-88789686D01*
X80192639Y-88789686D01*
X80187471Y-88789623D01*
X79959825Y-88824458D01*
X79740924Y-88896006D01*
X79536649Y-89002345D01*
X79352484Y-89140619D01*
X79193377Y-89307116D01*
X79063599Y-89497363D01*
X79061423Y-89502052D01*
X79061419Y-89502058D01*
X78968815Y-89701557D01*
X78966636Y-89706252D01*
X78905092Y-89928173D01*
X78904543Y-89933310D01*
X78882366Y-90140821D01*
X78880619Y-90157165D01*
X57388000Y-90157165D01*
X57388000Y-86555726D01*
X61137688Y-86555726D01*
X61141513Y-86653072D01*
X61144914Y-86739618D01*
X61147977Y-86817582D01*
X61195058Y-87075376D01*
X61277994Y-87323965D01*
X61279987Y-87327953D01*
X61370783Y-87509664D01*
X61395128Y-87558387D01*
X61544124Y-87773967D01*
X61650230Y-87888751D01*
X61665321Y-87905076D01*
X61722010Y-87966402D01*
X61725464Y-87969214D01*
X61921778Y-88129039D01*
X61921782Y-88129042D01*
X61925235Y-88131853D01*
X62149745Y-88267019D01*
X62262545Y-88314784D01*
X62386962Y-88367468D01*
X62386966Y-88367469D01*
X62391060Y-88369203D01*
X62395352Y-88370341D01*
X62395355Y-88370342D01*
X62496125Y-88397061D01*
X62644365Y-88436366D01*
X62648789Y-88436890D01*
X62648791Y-88436890D01*
X62799572Y-88454736D01*
X62904607Y-88467167D01*
X63166592Y-88460993D01*
X63170986Y-88460262D01*
X63170993Y-88460261D01*
X63420692Y-88418700D01*
X63420696Y-88418699D01*
X63425094Y-88417967D01*
X63589061Y-88366111D01*
X63670709Y-88340289D01*
X63670711Y-88340288D01*
X63674955Y-88338946D01*
X63678966Y-88337020D01*
X63678971Y-88337018D01*
X63907169Y-88227439D01*
X63907170Y-88227438D01*
X63911188Y-88225509D01*
X64055566Y-88129039D01*
X64125374Y-88082395D01*
X64125379Y-88082391D01*
X64129082Y-88079917D01*
X64132398Y-88076946D01*
X64132403Y-88076943D01*
X64178606Y-88035560D01*
X64242694Y-88005011D01*
X64313125Y-88013960D01*
X64342221Y-88031704D01*
X64461778Y-88129039D01*
X64461782Y-88129042D01*
X64465235Y-88131853D01*
X64689745Y-88267019D01*
X64802545Y-88314784D01*
X64926962Y-88367468D01*
X64926966Y-88367469D01*
X64931060Y-88369203D01*
X64935352Y-88370341D01*
X64935355Y-88370342D01*
X65036125Y-88397061D01*
X65184365Y-88436366D01*
X65188789Y-88436890D01*
X65188791Y-88436890D01*
X65339572Y-88454736D01*
X65444607Y-88467167D01*
X65706592Y-88460993D01*
X65710986Y-88460262D01*
X65710993Y-88460261D01*
X65960692Y-88418700D01*
X65960696Y-88418699D01*
X65965094Y-88417967D01*
X66129061Y-88366111D01*
X66210709Y-88340289D01*
X66210711Y-88340288D01*
X66214955Y-88338946D01*
X66218966Y-88337020D01*
X66218971Y-88337018D01*
X66447169Y-88227439D01*
X66447170Y-88227438D01*
X66451188Y-88225509D01*
X66595566Y-88129039D01*
X66665380Y-88082391D01*
X66665384Y-88082388D01*
X66669082Y-88079917D01*
X66864287Y-87905076D01*
X66974496Y-87773967D01*
X67030043Y-87707886D01*
X67030045Y-87707884D01*
X67032910Y-87704475D01*
X67171586Y-87482116D01*
X67183353Y-87455501D01*
X67275749Y-87246503D01*
X67277547Y-87242436D01*
X67348681Y-86990216D01*
X67356557Y-86931577D01*
X67383139Y-86733673D01*
X67383140Y-86733665D01*
X67383566Y-86730491D01*
X67387227Y-86614000D01*
X67368719Y-86352596D01*
X67313563Y-86096408D01*
X67304435Y-86071665D01*
X81145119Y-86071665D01*
X81145416Y-86076817D01*
X81145416Y-86076821D01*
X81150864Y-86171296D01*
X81158376Y-86301580D01*
X81159513Y-86306626D01*
X81159514Y-86306632D01*
X81181226Y-86402975D01*
X81209006Y-86526242D01*
X81210948Y-86531024D01*
X81210949Y-86531028D01*
X81248427Y-86623325D01*
X81295649Y-86739618D01*
X81415979Y-86935978D01*
X81566763Y-87110048D01*
X81743953Y-87257154D01*
X81942790Y-87373345D01*
X82157934Y-87455501D01*
X82163000Y-87456532D01*
X82163001Y-87456532D01*
X82263697Y-87477018D01*
X82383607Y-87501414D01*
X82513352Y-87506172D01*
X82608585Y-87509664D01*
X82608589Y-87509664D01*
X82613749Y-87509853D01*
X82618869Y-87509197D01*
X82618871Y-87509197D01*
X82688272Y-87500307D01*
X82842178Y-87480591D01*
X82847126Y-87479106D01*
X82847133Y-87479105D01*
X83057811Y-87415898D01*
X83057810Y-87415898D01*
X83062761Y-87414413D01*
X83269574Y-87313096D01*
X83457062Y-87179363D01*
X83620190Y-87016803D01*
X83678269Y-86935978D01*
X83751559Y-86833983D01*
X83754577Y-86829783D01*
X83758443Y-86821962D01*
X83854321Y-86627966D01*
X83856615Y-86623325D01*
X83887643Y-86521200D01*
X83922059Y-86407927D01*
X83922060Y-86407921D01*
X83923563Y-86402975D01*
X83953622Y-86174649D01*
X83955300Y-86106000D01*
X83952477Y-86071665D01*
X85463119Y-86071665D01*
X85463416Y-86076817D01*
X85463416Y-86076821D01*
X85468864Y-86171296D01*
X85476376Y-86301580D01*
X85477513Y-86306626D01*
X85477514Y-86306632D01*
X85499226Y-86402975D01*
X85527006Y-86526242D01*
X85528948Y-86531024D01*
X85528949Y-86531028D01*
X85566427Y-86623325D01*
X85613649Y-86739618D01*
X85733979Y-86935978D01*
X85884763Y-87110048D01*
X86061953Y-87257154D01*
X86260790Y-87373345D01*
X86475934Y-87455501D01*
X86481000Y-87456532D01*
X86481001Y-87456532D01*
X86581697Y-87477018D01*
X86701607Y-87501414D01*
X86831352Y-87506172D01*
X86926585Y-87509664D01*
X86926589Y-87509664D01*
X86931749Y-87509853D01*
X86936869Y-87509197D01*
X86936871Y-87509197D01*
X87006272Y-87500307D01*
X87160178Y-87480591D01*
X87165126Y-87479106D01*
X87165133Y-87479105D01*
X87375811Y-87415898D01*
X87375810Y-87415898D01*
X87380761Y-87414413D01*
X87587574Y-87313096D01*
X87775062Y-87179363D01*
X87938190Y-87016803D01*
X87996269Y-86935978D01*
X88069559Y-86833983D01*
X88072577Y-86829783D01*
X88076443Y-86821962D01*
X88172321Y-86627966D01*
X88174615Y-86623325D01*
X88195153Y-86555726D01*
X104317688Y-86555726D01*
X104321513Y-86653072D01*
X104324914Y-86739618D01*
X104327977Y-86817582D01*
X104375058Y-87075376D01*
X104457994Y-87323965D01*
X104459987Y-87327953D01*
X104550783Y-87509664D01*
X104575128Y-87558387D01*
X104724124Y-87773967D01*
X104830230Y-87888751D01*
X104845321Y-87905076D01*
X104902010Y-87966402D01*
X104905464Y-87969214D01*
X105101778Y-88129039D01*
X105101782Y-88129042D01*
X105105235Y-88131853D01*
X105329745Y-88267019D01*
X105442545Y-88314784D01*
X105566962Y-88367468D01*
X105566966Y-88367469D01*
X105571060Y-88369203D01*
X105575352Y-88370341D01*
X105575355Y-88370342D01*
X105676125Y-88397061D01*
X105824365Y-88436366D01*
X105828789Y-88436890D01*
X105828791Y-88436890D01*
X105979572Y-88454736D01*
X106084607Y-88467167D01*
X106346592Y-88460993D01*
X106350986Y-88460262D01*
X106350993Y-88460261D01*
X106600692Y-88418700D01*
X106600696Y-88418699D01*
X106605094Y-88417967D01*
X106769061Y-88366111D01*
X106850709Y-88340289D01*
X106850711Y-88340288D01*
X106854955Y-88338946D01*
X106858966Y-88337020D01*
X106858971Y-88337018D01*
X107087169Y-88227439D01*
X107087170Y-88227438D01*
X107091188Y-88225509D01*
X107235566Y-88129039D01*
X107305374Y-88082395D01*
X107305379Y-88082391D01*
X107309082Y-88079917D01*
X107312398Y-88076946D01*
X107312403Y-88076943D01*
X107358606Y-88035560D01*
X107422694Y-88005011D01*
X107493125Y-88013960D01*
X107522221Y-88031704D01*
X107641778Y-88129039D01*
X107641782Y-88129042D01*
X107645235Y-88131853D01*
X107869745Y-88267019D01*
X107982545Y-88314784D01*
X108106962Y-88367468D01*
X108106966Y-88367469D01*
X108111060Y-88369203D01*
X108115352Y-88370341D01*
X108115355Y-88370342D01*
X108216125Y-88397061D01*
X108364365Y-88436366D01*
X108368789Y-88436890D01*
X108368791Y-88436890D01*
X108519572Y-88454736D01*
X108624607Y-88467167D01*
X108886592Y-88460993D01*
X108890986Y-88460262D01*
X108890993Y-88460261D01*
X109140692Y-88418700D01*
X109140696Y-88418699D01*
X109145094Y-88417967D01*
X109309061Y-88366111D01*
X109390709Y-88340289D01*
X109390711Y-88340288D01*
X109394955Y-88338946D01*
X109398966Y-88337020D01*
X109398971Y-88337018D01*
X109627169Y-88227439D01*
X109627170Y-88227438D01*
X109631188Y-88225509D01*
X109775566Y-88129039D01*
X109845380Y-88082391D01*
X109845384Y-88082388D01*
X109849082Y-88079917D01*
X110044287Y-87905076D01*
X110154496Y-87773967D01*
X110210043Y-87707886D01*
X110210045Y-87707884D01*
X110212910Y-87704475D01*
X110351586Y-87482116D01*
X110363353Y-87455501D01*
X110455749Y-87246503D01*
X110457547Y-87242436D01*
X110528681Y-86990216D01*
X110536557Y-86931577D01*
X110563139Y-86733673D01*
X110563140Y-86733665D01*
X110563566Y-86730491D01*
X110567227Y-86614000D01*
X110548719Y-86352596D01*
X110493563Y-86096408D01*
X110474610Y-86045032D01*
X110404401Y-85854724D01*
X110402860Y-85850547D01*
X110278420Y-85619920D01*
X110260269Y-85595345D01*
X110127735Y-85415907D01*
X110103353Y-85349228D01*
X110118890Y-85279953D01*
X110132636Y-85259973D01*
X110210045Y-85167883D01*
X110212910Y-85164475D01*
X110351586Y-84942116D01*
X110362759Y-84916845D01*
X110455749Y-84706503D01*
X110457547Y-84702436D01*
X110528681Y-84450216D01*
X110535876Y-84396649D01*
X110563139Y-84193673D01*
X110563140Y-84193665D01*
X110563566Y-84190491D01*
X110567227Y-84074000D01*
X110548719Y-83812596D01*
X110493563Y-83556408D01*
X110477414Y-83512632D01*
X110404401Y-83314724D01*
X110402860Y-83310547D01*
X110278420Y-83079920D01*
X110251660Y-83043689D01*
X110127735Y-82875907D01*
X110103353Y-82809228D01*
X110118890Y-82739953D01*
X110132636Y-82719973D01*
X110210045Y-82627883D01*
X110212910Y-82624475D01*
X110351586Y-82402116D01*
X110396303Y-82300969D01*
X110455749Y-82166503D01*
X110457547Y-82162436D01*
X110528681Y-81910216D01*
X110551280Y-81741962D01*
X110563139Y-81653673D01*
X110563140Y-81653665D01*
X110563566Y-81650491D01*
X110567227Y-81534000D01*
X110548719Y-81272596D01*
X110493563Y-81016408D01*
X110474610Y-80965032D01*
X110404401Y-80774724D01*
X110402860Y-80770547D01*
X110278420Y-80539920D01*
X110275774Y-80536337D01*
X110127735Y-80335907D01*
X110103353Y-80269228D01*
X110118890Y-80199953D01*
X110132636Y-80179973D01*
X110210045Y-80087883D01*
X110212910Y-80084475D01*
X110351586Y-79862116D01*
X110419741Y-79707953D01*
X110455749Y-79626503D01*
X110457547Y-79622436D01*
X110528681Y-79370216D01*
X110551280Y-79201962D01*
X110563139Y-79113673D01*
X110563140Y-79113665D01*
X110563566Y-79110491D01*
X110567227Y-78994000D01*
X110548719Y-78732596D01*
X110493563Y-78476408D01*
X110474610Y-78425032D01*
X110404401Y-78234724D01*
X110402860Y-78230547D01*
X110278420Y-77999920D01*
X110275774Y-77996337D01*
X110127735Y-77795907D01*
X110103353Y-77729228D01*
X110118890Y-77659953D01*
X110132636Y-77639973D01*
X110210045Y-77547883D01*
X110212910Y-77544475D01*
X110351586Y-77322116D01*
X110419741Y-77167953D01*
X110455749Y-77086503D01*
X110457547Y-77082436D01*
X110528681Y-76830216D01*
X110551280Y-76661962D01*
X110563139Y-76573673D01*
X110563140Y-76573665D01*
X110563566Y-76570491D01*
X110567227Y-76454000D01*
X110548719Y-76192596D01*
X110493563Y-75936408D01*
X110474610Y-75885032D01*
X110404401Y-75694724D01*
X110402860Y-75690547D01*
X110278420Y-75459920D01*
X110275774Y-75456337D01*
X110127735Y-75255907D01*
X110103353Y-75189228D01*
X110118890Y-75119953D01*
X110132636Y-75099973D01*
X110210045Y-75007883D01*
X110212910Y-75004475D01*
X110351586Y-74782116D01*
X110419741Y-74627953D01*
X110455749Y-74546503D01*
X110457547Y-74542436D01*
X110528681Y-74290216D01*
X110551280Y-74121962D01*
X110563139Y-74033673D01*
X110563140Y-74033665D01*
X110563566Y-74030491D01*
X110567227Y-73914000D01*
X110548719Y-73652596D01*
X110493563Y-73396408D01*
X110474610Y-73345032D01*
X110404401Y-73154724D01*
X110402860Y-73150547D01*
X110278420Y-72919920D01*
X110275774Y-72916337D01*
X110127735Y-72715907D01*
X110103353Y-72649228D01*
X110118890Y-72579953D01*
X110132636Y-72559973D01*
X110210045Y-72467883D01*
X110212910Y-72464475D01*
X110351586Y-72242116D01*
X110419741Y-72087953D01*
X110455749Y-72006503D01*
X110457547Y-72002436D01*
X110528681Y-71750216D01*
X110551280Y-71581962D01*
X110563139Y-71493673D01*
X110563140Y-71493665D01*
X110563566Y-71490491D01*
X110567227Y-71374000D01*
X110548719Y-71112596D01*
X110493563Y-70856408D01*
X110474610Y-70805032D01*
X110404401Y-70614724D01*
X110402860Y-70610547D01*
X110278420Y-70379920D01*
X110275774Y-70376337D01*
X110127735Y-70175907D01*
X110103353Y-70109228D01*
X110118890Y-70039953D01*
X110132636Y-70019973D01*
X110210045Y-69927883D01*
X110212910Y-69924475D01*
X110351586Y-69702116D01*
X110419741Y-69547953D01*
X110455749Y-69466503D01*
X110457547Y-69462436D01*
X110528681Y-69210216D01*
X110551280Y-69041962D01*
X110563139Y-68953673D01*
X110563140Y-68953665D01*
X110563566Y-68950491D01*
X110567227Y-68834000D01*
X110548719Y-68572596D01*
X110493563Y-68316408D01*
X110474610Y-68265032D01*
X110404401Y-68074724D01*
X110402860Y-68070547D01*
X110278420Y-67839920D01*
X110275774Y-67836337D01*
X110127735Y-67635907D01*
X110103353Y-67569228D01*
X110118890Y-67499953D01*
X110132636Y-67479973D01*
X110210045Y-67387883D01*
X110212910Y-67384475D01*
X110351586Y-67162116D01*
X110419741Y-67007953D01*
X110455749Y-66926503D01*
X110457547Y-66922436D01*
X110528681Y-66670216D01*
X110551280Y-66501962D01*
X110563139Y-66413673D01*
X110563140Y-66413665D01*
X110563566Y-66410491D01*
X110567227Y-66294000D01*
X110548719Y-66032596D01*
X110493563Y-65776408D01*
X110474610Y-65725032D01*
X110404401Y-65534724D01*
X110402860Y-65530547D01*
X110278420Y-65299920D01*
X110176954Y-65162545D01*
X110127735Y-65095907D01*
X110103353Y-65029228D01*
X110118890Y-64959953D01*
X110132636Y-64939973D01*
X110210045Y-64847883D01*
X110212910Y-64844475D01*
X110351586Y-64622116D01*
X110355293Y-64613733D01*
X110455749Y-64386503D01*
X110457547Y-64382436D01*
X110528681Y-64130216D01*
X110563566Y-63870491D01*
X110567227Y-63754000D01*
X110548719Y-63492596D01*
X110493563Y-63236408D01*
X110402860Y-62990547D01*
X110278420Y-62759920D01*
X110253303Y-62725913D01*
X110125370Y-62552706D01*
X110122726Y-62549126D01*
X109938884Y-62362374D01*
X109870336Y-62310060D01*
X109734107Y-62206093D01*
X109734103Y-62206090D01*
X109730562Y-62203388D01*
X109501917Y-62075340D01*
X109497768Y-62073735D01*
X109497764Y-62073733D01*
X109350196Y-62016644D01*
X109257512Y-61980787D01*
X109253191Y-61979785D01*
X109253183Y-61979783D01*
X109085069Y-61940817D01*
X109002221Y-61921614D01*
X108741141Y-61899002D01*
X108736706Y-61899246D01*
X108736702Y-61899246D01*
X108483921Y-61913157D01*
X108483914Y-61913158D01*
X108479478Y-61913402D01*
X108222456Y-61964527D01*
X108218246Y-61966005D01*
X108218244Y-61966006D01*
X108073497Y-62016838D01*
X107975201Y-62051357D01*
X107971250Y-62053410D01*
X107971244Y-62053412D01*
X107794809Y-62145063D01*
X107725137Y-62158715D01*
X107657091Y-62130892D01*
X107591647Y-62077518D01*
X107575596Y-62064427D01*
X107395470Y-61970259D01*
X107200087Y-61914234D01*
X107168455Y-61911411D01*
X107082609Y-61903749D01*
X107082603Y-61903749D01*
X107079816Y-61903500D01*
X105264184Y-61903500D01*
X105261397Y-61903749D01*
X105261391Y-61903749D01*
X105175545Y-61911411D01*
X105143913Y-61914234D01*
X104948530Y-61970259D01*
X104768404Y-62064427D01*
X104763461Y-62068458D01*
X104763460Y-62068459D01*
X104669534Y-62145063D01*
X104610891Y-62192891D01*
X104482427Y-62350404D01*
X104388259Y-62530530D01*
X104332234Y-62725913D01*
X104321500Y-62846184D01*
X104321500Y-64661816D01*
X104332234Y-64782087D01*
X104388259Y-64977470D01*
X104482427Y-65157596D01*
X104486462Y-65162543D01*
X104486463Y-65162545D01*
X104549708Y-65240092D01*
X104577262Y-65305523D01*
X104565066Y-65375465D01*
X104561019Y-65383012D01*
X104508189Y-65473965D01*
X104508183Y-65473977D01*
X104505955Y-65477813D01*
X104504290Y-65481925D01*
X104504287Y-65481930D01*
X104409248Y-65716570D01*
X104407574Y-65720703D01*
X104344399Y-65975032D01*
X104317688Y-66235726D01*
X104327977Y-66497582D01*
X104375058Y-66755376D01*
X104457994Y-67003965D01*
X104459987Y-67007953D01*
X104537018Y-67162116D01*
X104575128Y-67238387D01*
X104724124Y-67453967D01*
X104747855Y-67479638D01*
X104779406Y-67543237D01*
X104771565Y-67613800D01*
X104754279Y-67643171D01*
X104640338Y-67787705D01*
X104640328Y-67787719D01*
X104637578Y-67791208D01*
X104635346Y-67795050D01*
X104635343Y-67795055D01*
X104508186Y-68013972D01*
X104505955Y-68017813D01*
X104504290Y-68021925D01*
X104504287Y-68021930D01*
X104409248Y-68256570D01*
X104407574Y-68260703D01*
X104344399Y-68515032D01*
X104317688Y-68775726D01*
X104327977Y-69037582D01*
X104375058Y-69295376D01*
X104457994Y-69543965D01*
X104459987Y-69547953D01*
X104537018Y-69702116D01*
X104575128Y-69778387D01*
X104724124Y-69993967D01*
X104747855Y-70019638D01*
X104779406Y-70083237D01*
X104771565Y-70153800D01*
X104754279Y-70183171D01*
X104640338Y-70327705D01*
X104640328Y-70327719D01*
X104637578Y-70331208D01*
X104635346Y-70335050D01*
X104635343Y-70335055D01*
X104508186Y-70553972D01*
X104505955Y-70557813D01*
X104504290Y-70561925D01*
X104504287Y-70561930D01*
X104409248Y-70796570D01*
X104407574Y-70800703D01*
X104344399Y-71055032D01*
X104317688Y-71315726D01*
X104327977Y-71577582D01*
X104375058Y-71835376D01*
X104457994Y-72083965D01*
X104459987Y-72087953D01*
X104537018Y-72242116D01*
X104575128Y-72318387D01*
X104724124Y-72533967D01*
X104747855Y-72559638D01*
X104779406Y-72623237D01*
X104771565Y-72693800D01*
X104754279Y-72723171D01*
X104640338Y-72867705D01*
X104640328Y-72867719D01*
X104637578Y-72871208D01*
X104635346Y-72875050D01*
X104635343Y-72875055D01*
X104508186Y-73093972D01*
X104505955Y-73097813D01*
X104504290Y-73101925D01*
X104504287Y-73101930D01*
X104409248Y-73336570D01*
X104407574Y-73340703D01*
X104344399Y-73595032D01*
X104317688Y-73855726D01*
X104327977Y-74117582D01*
X104375058Y-74375376D01*
X104457994Y-74623965D01*
X104459987Y-74627953D01*
X104537018Y-74782116D01*
X104575128Y-74858387D01*
X104724124Y-75073967D01*
X104747855Y-75099638D01*
X104779406Y-75163237D01*
X104771565Y-75233800D01*
X104754279Y-75263171D01*
X104640338Y-75407705D01*
X104640328Y-75407719D01*
X104637578Y-75411208D01*
X104635346Y-75415050D01*
X104635343Y-75415055D01*
X104508186Y-75633972D01*
X104505955Y-75637813D01*
X104504290Y-75641925D01*
X104504287Y-75641930D01*
X104409248Y-75876570D01*
X104407574Y-75880703D01*
X104344399Y-76135032D01*
X104317688Y-76395726D01*
X104327977Y-76657582D01*
X104375058Y-76915376D01*
X104457994Y-77163965D01*
X104459987Y-77167953D01*
X104537018Y-77322116D01*
X104575128Y-77398387D01*
X104724124Y-77613967D01*
X104747855Y-77639638D01*
X104779406Y-77703237D01*
X104771565Y-77773800D01*
X104754279Y-77803171D01*
X104640338Y-77947705D01*
X104640328Y-77947719D01*
X104637578Y-77951208D01*
X104635346Y-77955050D01*
X104635343Y-77955055D01*
X104508186Y-78173972D01*
X104505955Y-78177813D01*
X104504290Y-78181925D01*
X104504287Y-78181930D01*
X104409248Y-78416570D01*
X104407574Y-78420703D01*
X104344399Y-78675032D01*
X104317688Y-78935726D01*
X104327977Y-79197582D01*
X104375058Y-79455376D01*
X104457994Y-79703965D01*
X104459987Y-79707953D01*
X104537018Y-79862116D01*
X104575128Y-79938387D01*
X104724124Y-80153967D01*
X104747855Y-80179638D01*
X104779406Y-80243237D01*
X104771565Y-80313800D01*
X104754279Y-80343171D01*
X104640338Y-80487705D01*
X104640328Y-80487719D01*
X104637578Y-80491208D01*
X104635346Y-80495050D01*
X104635343Y-80495055D01*
X104508186Y-80713972D01*
X104505955Y-80717813D01*
X104504290Y-80721925D01*
X104504287Y-80721930D01*
X104409248Y-80956570D01*
X104407574Y-80960703D01*
X104344399Y-81215032D01*
X104317688Y-81475726D01*
X104327977Y-81737582D01*
X104375058Y-81995376D01*
X104376467Y-81999599D01*
X104424876Y-82144697D01*
X104457994Y-82243965D01*
X104478113Y-82284229D01*
X104543747Y-82415583D01*
X104575128Y-82478387D01*
X104724124Y-82693967D01*
X104747855Y-82719638D01*
X104779406Y-82783237D01*
X104771565Y-82853800D01*
X104754279Y-82883171D01*
X104640338Y-83027705D01*
X104640328Y-83027719D01*
X104637578Y-83031208D01*
X104635346Y-83035050D01*
X104635343Y-83035055D01*
X104508186Y-83253972D01*
X104505955Y-83257813D01*
X104504290Y-83261925D01*
X104504287Y-83261930D01*
X104456201Y-83380649D01*
X104407574Y-83500703D01*
X104344399Y-83755032D01*
X104317688Y-84015726D01*
X104327977Y-84277582D01*
X104375058Y-84535376D01*
X104376467Y-84539599D01*
X104442718Y-84738176D01*
X104457994Y-84783965D01*
X104459987Y-84787953D01*
X104537018Y-84942116D01*
X104575128Y-85018387D01*
X104616487Y-85078229D01*
X104718032Y-85225152D01*
X104724124Y-85233967D01*
X104747855Y-85259638D01*
X104779406Y-85323237D01*
X104771565Y-85393800D01*
X104754279Y-85423171D01*
X104640341Y-85567702D01*
X104640335Y-85567710D01*
X104637578Y-85571208D01*
X104635346Y-85575050D01*
X104635343Y-85575055D01*
X104561264Y-85702591D01*
X104505955Y-85797813D01*
X104504290Y-85801925D01*
X104504287Y-85801930D01*
X104476125Y-85871459D01*
X104407574Y-86040703D01*
X104344399Y-86295032D01*
X104317688Y-86555726D01*
X88195153Y-86555726D01*
X88205643Y-86521200D01*
X88240059Y-86407927D01*
X88240060Y-86407921D01*
X88241563Y-86402975D01*
X88271622Y-86174649D01*
X88273300Y-86106000D01*
X88254430Y-85876478D01*
X88198326Y-85653120D01*
X88106496Y-85441924D01*
X87993849Y-85267798D01*
X87984215Y-85252906D01*
X87984213Y-85252903D01*
X87981405Y-85248563D01*
X87971098Y-85237235D01*
X87829890Y-85082051D01*
X87829889Y-85082050D01*
X87826412Y-85078229D01*
X87822361Y-85075030D01*
X87822357Y-85075026D01*
X87649735Y-84938697D01*
X87649730Y-84938693D01*
X87645681Y-84935496D01*
X87641165Y-84933003D01*
X87641162Y-84933001D01*
X87448589Y-84826695D01*
X87448585Y-84826693D01*
X87444065Y-84824198D01*
X87439196Y-84822474D01*
X87439192Y-84822472D01*
X87231853Y-84749049D01*
X87231849Y-84749048D01*
X87226978Y-84747323D01*
X87221885Y-84746416D01*
X87221882Y-84746415D01*
X87125707Y-84729284D01*
X87000250Y-84706937D01*
X86913802Y-84705881D01*
X86775141Y-84704186D01*
X86775139Y-84704186D01*
X86769971Y-84704123D01*
X86542325Y-84738958D01*
X86323424Y-84810506D01*
X86119149Y-84916845D01*
X85934984Y-85055119D01*
X85775877Y-85221616D01*
X85772963Y-85225888D01*
X85772962Y-85225889D01*
X85744374Y-85267798D01*
X85646099Y-85411863D01*
X85643923Y-85416552D01*
X85643919Y-85416558D01*
X85560074Y-85597188D01*
X85549136Y-85620752D01*
X85487592Y-85842673D01*
X85487043Y-85847810D01*
X85466870Y-86036570D01*
X85463119Y-86071665D01*
X83952477Y-86071665D01*
X83936430Y-85876478D01*
X83880326Y-85653120D01*
X83788496Y-85441924D01*
X83675849Y-85267798D01*
X83666215Y-85252906D01*
X83666213Y-85252903D01*
X83663405Y-85248563D01*
X83653098Y-85237235D01*
X83511890Y-85082051D01*
X83511889Y-85082050D01*
X83508412Y-85078229D01*
X83504361Y-85075030D01*
X83504357Y-85075026D01*
X83331735Y-84938697D01*
X83331730Y-84938693D01*
X83327681Y-84935496D01*
X83323165Y-84933003D01*
X83323162Y-84933001D01*
X83130589Y-84826695D01*
X83130585Y-84826693D01*
X83126065Y-84824198D01*
X83121196Y-84822474D01*
X83121192Y-84822472D01*
X82913853Y-84749049D01*
X82913849Y-84749048D01*
X82908978Y-84747323D01*
X82903885Y-84746416D01*
X82903882Y-84746415D01*
X82807707Y-84729284D01*
X82682250Y-84706937D01*
X82595802Y-84705881D01*
X82457141Y-84704186D01*
X82457139Y-84704186D01*
X82451971Y-84704123D01*
X82224325Y-84738958D01*
X82005424Y-84810506D01*
X81801149Y-84916845D01*
X81616984Y-85055119D01*
X81457877Y-85221616D01*
X81454963Y-85225888D01*
X81454962Y-85225889D01*
X81426374Y-85267798D01*
X81328099Y-85411863D01*
X81325923Y-85416552D01*
X81325919Y-85416558D01*
X81242074Y-85597188D01*
X81231136Y-85620752D01*
X81169592Y-85842673D01*
X81169043Y-85847810D01*
X81148870Y-86036570D01*
X81145119Y-86071665D01*
X67304435Y-86071665D01*
X67294610Y-86045032D01*
X67224401Y-85854724D01*
X67222860Y-85850547D01*
X67098420Y-85619920D01*
X67080269Y-85595345D01*
X66947735Y-85415907D01*
X66923353Y-85349228D01*
X66938890Y-85279953D01*
X66952636Y-85259973D01*
X67030045Y-85167883D01*
X67032910Y-85164475D01*
X67171586Y-84942116D01*
X67182759Y-84916845D01*
X67275749Y-84706503D01*
X67277547Y-84702436D01*
X67348681Y-84450216D01*
X67355876Y-84396649D01*
X67383139Y-84193673D01*
X67383140Y-84193665D01*
X67383566Y-84190491D01*
X67387227Y-84074000D01*
X67368719Y-83812596D01*
X67313563Y-83556408D01*
X67297414Y-83512632D01*
X67224401Y-83314724D01*
X67222860Y-83310547D01*
X67098420Y-83079920D01*
X67071660Y-83043689D01*
X66947735Y-82875907D01*
X66923353Y-82809228D01*
X66938890Y-82739953D01*
X66952636Y-82719973D01*
X67030045Y-82627883D01*
X67032910Y-82624475D01*
X67171586Y-82402116D01*
X67216303Y-82300969D01*
X67275749Y-82166503D01*
X67277547Y-82162436D01*
X67348681Y-81910216D01*
X67371280Y-81741962D01*
X67383139Y-81653673D01*
X67383140Y-81653665D01*
X67383566Y-81650491D01*
X67387227Y-81534000D01*
X67368719Y-81272596D01*
X67313563Y-81016408D01*
X67294610Y-80965032D01*
X67224401Y-80774724D01*
X67222860Y-80770547D01*
X67098420Y-80539920D01*
X67095774Y-80536337D01*
X66947735Y-80335907D01*
X66923353Y-80269228D01*
X66938890Y-80199953D01*
X66952636Y-80179973D01*
X67030045Y-80087883D01*
X67032910Y-80084475D01*
X67171586Y-79862116D01*
X67239741Y-79707953D01*
X67275749Y-79626503D01*
X67277547Y-79622436D01*
X67348681Y-79370216D01*
X67371280Y-79201962D01*
X67383139Y-79113673D01*
X67383140Y-79113665D01*
X67383566Y-79110491D01*
X67387227Y-78994000D01*
X67368719Y-78732596D01*
X67313563Y-78476408D01*
X67294610Y-78425032D01*
X67224401Y-78234724D01*
X67222860Y-78230547D01*
X67098420Y-77999920D01*
X67095774Y-77996337D01*
X66947735Y-77795907D01*
X66923353Y-77729228D01*
X66938890Y-77659953D01*
X66952636Y-77639973D01*
X67030045Y-77547883D01*
X67032910Y-77544475D01*
X67171586Y-77322116D01*
X67239741Y-77167953D01*
X67275749Y-77086503D01*
X67277547Y-77082436D01*
X67348681Y-76830216D01*
X67371280Y-76661962D01*
X67383139Y-76573673D01*
X67383140Y-76573665D01*
X67383566Y-76570491D01*
X67387227Y-76454000D01*
X67368719Y-76192596D01*
X67313563Y-75936408D01*
X67294610Y-75885032D01*
X67224401Y-75694724D01*
X67222860Y-75690547D01*
X67098420Y-75459920D01*
X67095774Y-75456337D01*
X66947735Y-75255907D01*
X66923353Y-75189228D01*
X66938890Y-75119953D01*
X66952636Y-75099973D01*
X67030045Y-75007883D01*
X67032910Y-75004475D01*
X67171586Y-74782116D01*
X67239741Y-74627953D01*
X67275749Y-74546503D01*
X67277547Y-74542436D01*
X67348681Y-74290216D01*
X67371280Y-74121962D01*
X67383139Y-74033673D01*
X67383140Y-74033665D01*
X67383566Y-74030491D01*
X67387227Y-73914000D01*
X67368719Y-73652596D01*
X67313563Y-73396408D01*
X67294610Y-73345032D01*
X67224401Y-73154724D01*
X67222860Y-73150547D01*
X67098420Y-72919920D01*
X67095774Y-72916337D01*
X66947735Y-72715907D01*
X66923353Y-72649228D01*
X66938890Y-72579953D01*
X66952636Y-72559973D01*
X67030045Y-72467883D01*
X67032910Y-72464475D01*
X67171586Y-72242116D01*
X67239741Y-72087953D01*
X67275749Y-72006503D01*
X67277547Y-72002436D01*
X67348681Y-71750216D01*
X67371280Y-71581962D01*
X67383139Y-71493673D01*
X67383140Y-71493665D01*
X67383566Y-71490491D01*
X67387227Y-71374000D01*
X67368719Y-71112596D01*
X67313563Y-70856408D01*
X67294610Y-70805032D01*
X67224401Y-70614724D01*
X67222860Y-70610547D01*
X67098420Y-70379920D01*
X67095774Y-70376337D01*
X66947735Y-70175907D01*
X66923353Y-70109228D01*
X66938890Y-70039953D01*
X66952636Y-70019973D01*
X67030045Y-69927883D01*
X67032910Y-69924475D01*
X67171586Y-69702116D01*
X67239741Y-69547953D01*
X67275749Y-69466503D01*
X67277547Y-69462436D01*
X67348681Y-69210216D01*
X67371280Y-69041962D01*
X67383139Y-68953673D01*
X67383140Y-68953665D01*
X67383566Y-68950491D01*
X67387227Y-68834000D01*
X67368719Y-68572596D01*
X67313563Y-68316408D01*
X67294610Y-68265032D01*
X67224401Y-68074724D01*
X67222860Y-68070547D01*
X67098420Y-67839920D01*
X67095774Y-67836337D01*
X66947735Y-67635907D01*
X66923353Y-67569228D01*
X66938890Y-67499953D01*
X66952636Y-67479973D01*
X67030045Y-67387883D01*
X67032910Y-67384475D01*
X67171586Y-67162116D01*
X67239741Y-67007953D01*
X67275749Y-66926503D01*
X67277547Y-66922436D01*
X67348681Y-66670216D01*
X67371280Y-66501962D01*
X67383139Y-66413673D01*
X67383140Y-66413665D01*
X67383566Y-66410491D01*
X67387227Y-66294000D01*
X67368719Y-66032596D01*
X67313563Y-65776408D01*
X67294610Y-65725032D01*
X67224401Y-65534724D01*
X67222860Y-65530547D01*
X67098420Y-65299920D01*
X66942726Y-65089126D01*
X66758884Y-64902374D01*
X66601270Y-64782087D01*
X66554107Y-64746093D01*
X66554103Y-64746090D01*
X66550562Y-64743388D01*
X66321917Y-64615340D01*
X66317768Y-64613735D01*
X66317764Y-64613733D01*
X66170196Y-64556644D01*
X66077512Y-64520787D01*
X66073191Y-64519785D01*
X66073183Y-64519783D01*
X65905069Y-64480817D01*
X65822221Y-64461614D01*
X65561141Y-64439002D01*
X65556706Y-64439246D01*
X65556702Y-64439246D01*
X65303921Y-64453157D01*
X65303914Y-64453158D01*
X65299478Y-64453402D01*
X65042456Y-64504527D01*
X65010247Y-64515838D01*
X64939347Y-64519536D01*
X64877703Y-64484316D01*
X64844886Y-64421359D01*
X64842500Y-64396955D01*
X64842500Y-62846184D01*
X64831766Y-62725913D01*
X64775741Y-62530530D01*
X64681573Y-62350404D01*
X64553109Y-62192891D01*
X64494466Y-62145063D01*
X64400540Y-62068459D01*
X64400539Y-62068458D01*
X64395596Y-62064427D01*
X64215470Y-61970259D01*
X64020087Y-61914234D01*
X63988455Y-61911411D01*
X63902609Y-61903749D01*
X63902603Y-61903749D01*
X63899816Y-61903500D01*
X62084184Y-61903500D01*
X62081397Y-61903749D01*
X62081391Y-61903749D01*
X61995545Y-61911411D01*
X61963913Y-61914234D01*
X61768530Y-61970259D01*
X61588404Y-62064427D01*
X61583461Y-62068458D01*
X61583460Y-62068459D01*
X61489534Y-62145063D01*
X61430891Y-62192891D01*
X61302427Y-62350404D01*
X61208259Y-62530530D01*
X61152234Y-62725913D01*
X61141500Y-62846184D01*
X61141500Y-64661816D01*
X61152234Y-64782087D01*
X61208259Y-64977470D01*
X61302427Y-65157596D01*
X61306462Y-65162543D01*
X61306463Y-65162545D01*
X61369708Y-65240092D01*
X61397262Y-65305523D01*
X61385066Y-65375465D01*
X61381019Y-65383012D01*
X61328189Y-65473965D01*
X61328183Y-65473977D01*
X61325955Y-65477813D01*
X61324290Y-65481925D01*
X61324287Y-65481930D01*
X61229248Y-65716570D01*
X61227574Y-65720703D01*
X61164399Y-65975032D01*
X61137688Y-66235726D01*
X61147977Y-66497582D01*
X61195058Y-66755376D01*
X61277994Y-67003965D01*
X61279987Y-67007953D01*
X61357018Y-67162116D01*
X61395128Y-67238387D01*
X61544124Y-67453967D01*
X61567855Y-67479638D01*
X61599406Y-67543237D01*
X61591565Y-67613800D01*
X61574279Y-67643171D01*
X61460338Y-67787705D01*
X61460328Y-67787719D01*
X61457578Y-67791208D01*
X61455346Y-67795050D01*
X61455343Y-67795055D01*
X61328186Y-68013972D01*
X61325955Y-68017813D01*
X61324290Y-68021925D01*
X61324287Y-68021930D01*
X61229248Y-68256570D01*
X61227574Y-68260703D01*
X61164399Y-68515032D01*
X61137688Y-68775726D01*
X61147977Y-69037582D01*
X61195058Y-69295376D01*
X61277994Y-69543965D01*
X61279987Y-69547953D01*
X61357018Y-69702116D01*
X61395128Y-69778387D01*
X61544124Y-69993967D01*
X61567855Y-70019638D01*
X61599406Y-70083237D01*
X61591565Y-70153800D01*
X61574279Y-70183171D01*
X61460338Y-70327705D01*
X61460328Y-70327719D01*
X61457578Y-70331208D01*
X61455346Y-70335050D01*
X61455343Y-70335055D01*
X61328186Y-70553972D01*
X61325955Y-70557813D01*
X61324290Y-70561925D01*
X61324287Y-70561930D01*
X61229248Y-70796570D01*
X61227574Y-70800703D01*
X61164399Y-71055032D01*
X61137688Y-71315726D01*
X61147977Y-71577582D01*
X61195058Y-71835376D01*
X61277994Y-72083965D01*
X61279987Y-72087953D01*
X61357018Y-72242116D01*
X61395128Y-72318387D01*
X61544124Y-72533967D01*
X61567855Y-72559638D01*
X61599406Y-72623237D01*
X61591565Y-72693800D01*
X61574279Y-72723171D01*
X61460338Y-72867705D01*
X61460328Y-72867719D01*
X61457578Y-72871208D01*
X61455346Y-72875050D01*
X61455343Y-72875055D01*
X61328186Y-73093972D01*
X61325955Y-73097813D01*
X61324290Y-73101925D01*
X61324287Y-73101930D01*
X61229248Y-73336570D01*
X61227574Y-73340703D01*
X61164399Y-73595032D01*
X61137688Y-73855726D01*
X61147977Y-74117582D01*
X61195058Y-74375376D01*
X61277994Y-74623965D01*
X61279987Y-74627953D01*
X61357018Y-74782116D01*
X61395128Y-74858387D01*
X61544124Y-75073967D01*
X61567855Y-75099638D01*
X61599406Y-75163237D01*
X61591565Y-75233800D01*
X61574279Y-75263171D01*
X61460338Y-75407705D01*
X61460328Y-75407719D01*
X61457578Y-75411208D01*
X61455346Y-75415050D01*
X61455343Y-75415055D01*
X61328186Y-75633972D01*
X61325955Y-75637813D01*
X61324290Y-75641925D01*
X61324287Y-75641930D01*
X61229248Y-75876570D01*
X61227574Y-75880703D01*
X61164399Y-76135032D01*
X61137688Y-76395726D01*
X61147977Y-76657582D01*
X61195058Y-76915376D01*
X61277994Y-77163965D01*
X61279987Y-77167953D01*
X61357018Y-77322116D01*
X61395128Y-77398387D01*
X61544124Y-77613967D01*
X61567855Y-77639638D01*
X61599406Y-77703237D01*
X61591565Y-77773800D01*
X61574279Y-77803171D01*
X61460338Y-77947705D01*
X61460328Y-77947719D01*
X61457578Y-77951208D01*
X61455346Y-77955050D01*
X61455343Y-77955055D01*
X61328186Y-78173972D01*
X61325955Y-78177813D01*
X61324290Y-78181925D01*
X61324287Y-78181930D01*
X61229248Y-78416570D01*
X61227574Y-78420703D01*
X61164399Y-78675032D01*
X61137688Y-78935726D01*
X61147977Y-79197582D01*
X61195058Y-79455376D01*
X61277994Y-79703965D01*
X61279987Y-79707953D01*
X61357018Y-79862116D01*
X61395128Y-79938387D01*
X61544124Y-80153967D01*
X61567855Y-80179638D01*
X61599406Y-80243237D01*
X61591565Y-80313800D01*
X61574279Y-80343171D01*
X61460338Y-80487705D01*
X61460328Y-80487719D01*
X61457578Y-80491208D01*
X61455346Y-80495050D01*
X61455343Y-80495055D01*
X61328186Y-80713972D01*
X61325955Y-80717813D01*
X61324290Y-80721925D01*
X61324287Y-80721930D01*
X61229248Y-80956570D01*
X61227574Y-80960703D01*
X61164399Y-81215032D01*
X61137688Y-81475726D01*
X61147977Y-81737582D01*
X61195058Y-81995376D01*
X61196467Y-81999599D01*
X61244876Y-82144697D01*
X61277994Y-82243965D01*
X61298113Y-82284229D01*
X61363747Y-82415583D01*
X61395128Y-82478387D01*
X61544124Y-82693967D01*
X61567855Y-82719638D01*
X61599406Y-82783237D01*
X61591565Y-82853800D01*
X61574279Y-82883171D01*
X61460338Y-83027705D01*
X61460328Y-83027719D01*
X61457578Y-83031208D01*
X61455346Y-83035050D01*
X61455343Y-83035055D01*
X61328186Y-83253972D01*
X61325955Y-83257813D01*
X61324290Y-83261925D01*
X61324287Y-83261930D01*
X61276201Y-83380649D01*
X61227574Y-83500703D01*
X61164399Y-83755032D01*
X61137688Y-84015726D01*
X61147977Y-84277582D01*
X61195058Y-84535376D01*
X61196467Y-84539599D01*
X61262718Y-84738176D01*
X61277994Y-84783965D01*
X61279987Y-84787953D01*
X61357018Y-84942116D01*
X61395128Y-85018387D01*
X61436487Y-85078229D01*
X61538032Y-85225152D01*
X61544124Y-85233967D01*
X61567855Y-85259638D01*
X61599406Y-85323237D01*
X61591565Y-85393800D01*
X61574279Y-85423171D01*
X61460341Y-85567702D01*
X61460335Y-85567710D01*
X61457578Y-85571208D01*
X61455346Y-85575050D01*
X61455343Y-85575055D01*
X61381264Y-85702591D01*
X61325955Y-85797813D01*
X61324290Y-85801925D01*
X61324287Y-85801930D01*
X61296125Y-85871459D01*
X61227574Y-86040703D01*
X61164399Y-86295032D01*
X61137688Y-86555726D01*
X57388000Y-86555726D01*
X57388000Y-58639665D01*
X70477119Y-58639665D01*
X70477416Y-58644817D01*
X70477416Y-58644821D01*
X70480106Y-58691471D01*
X70490376Y-58869580D01*
X70491513Y-58874626D01*
X70491514Y-58874632D01*
X70512198Y-58966413D01*
X70541006Y-59094242D01*
X70542948Y-59099024D01*
X70542949Y-59099028D01*
X70580427Y-59191325D01*
X70627649Y-59307618D01*
X70747979Y-59503978D01*
X70898763Y-59678048D01*
X71075953Y-59825154D01*
X71274790Y-59941345D01*
X71489934Y-60023501D01*
X71495000Y-60024532D01*
X71495001Y-60024532D01*
X71595697Y-60045018D01*
X71715607Y-60069414D01*
X71845352Y-60074172D01*
X71940585Y-60077664D01*
X71940589Y-60077664D01*
X71945749Y-60077853D01*
X71950869Y-60077197D01*
X71950871Y-60077197D01*
X72020272Y-60068307D01*
X72174178Y-60048591D01*
X72179126Y-60047106D01*
X72179133Y-60047105D01*
X72389811Y-59983898D01*
X72389810Y-59983898D01*
X72394761Y-59982413D01*
X72601574Y-59881096D01*
X72789062Y-59747363D01*
X72952190Y-59584803D01*
X73010269Y-59503978D01*
X73083559Y-59401983D01*
X73086577Y-59397783D01*
X73188615Y-59191325D01*
X73227952Y-59061853D01*
X73254059Y-58975927D01*
X73254060Y-58975921D01*
X73255563Y-58970975D01*
X73285622Y-58742649D01*
X73287300Y-58674000D01*
X73284477Y-58639665D01*
X75033119Y-58639665D01*
X75033416Y-58644817D01*
X75033416Y-58644821D01*
X75036106Y-58691471D01*
X75046376Y-58869580D01*
X75047513Y-58874626D01*
X75047514Y-58874632D01*
X75068198Y-58966413D01*
X75097006Y-59094242D01*
X75098948Y-59099024D01*
X75098949Y-59099028D01*
X75136427Y-59191325D01*
X75183649Y-59307618D01*
X75303979Y-59503978D01*
X75454763Y-59678048D01*
X75631953Y-59825154D01*
X75830790Y-59941345D01*
X76045934Y-60023501D01*
X76051000Y-60024532D01*
X76051001Y-60024532D01*
X76151697Y-60045018D01*
X76271607Y-60069414D01*
X76401352Y-60074172D01*
X76496585Y-60077664D01*
X76496589Y-60077664D01*
X76501749Y-60077853D01*
X76506869Y-60077197D01*
X76506871Y-60077197D01*
X76576272Y-60068307D01*
X76730178Y-60048591D01*
X76735126Y-60047106D01*
X76735133Y-60047105D01*
X76945811Y-59983898D01*
X76945810Y-59983898D01*
X76950761Y-59982413D01*
X77157574Y-59881096D01*
X77345062Y-59747363D01*
X77508190Y-59584803D01*
X77566269Y-59503978D01*
X77639559Y-59401983D01*
X77642577Y-59397783D01*
X77744615Y-59191325D01*
X77783952Y-59061853D01*
X77810059Y-58975927D01*
X77810060Y-58975921D01*
X77811563Y-58970975D01*
X77841622Y-58742649D01*
X77843300Y-58674000D01*
X77824430Y-58444478D01*
X77768326Y-58221120D01*
X77676496Y-58009924D01*
X77578621Y-57858632D01*
X77554215Y-57820906D01*
X77554213Y-57820903D01*
X77551405Y-57816563D01*
X77530774Y-57793889D01*
X77399890Y-57650051D01*
X77399889Y-57650050D01*
X77396412Y-57646229D01*
X77392361Y-57643030D01*
X77392357Y-57643026D01*
X77219735Y-57506697D01*
X77219730Y-57506693D01*
X77215681Y-57503496D01*
X77211165Y-57501003D01*
X77211162Y-57501001D01*
X77018589Y-57394695D01*
X77018585Y-57394693D01*
X77014065Y-57392198D01*
X77009196Y-57390474D01*
X77009192Y-57390472D01*
X76801853Y-57317049D01*
X76801849Y-57317048D01*
X76796978Y-57315323D01*
X76791885Y-57314416D01*
X76791882Y-57314415D01*
X76695707Y-57297284D01*
X76570250Y-57274937D01*
X76483802Y-57273881D01*
X76345141Y-57272186D01*
X76345139Y-57272186D01*
X76339971Y-57272123D01*
X76112325Y-57306958D01*
X75893424Y-57378506D01*
X75689149Y-57484845D01*
X75504984Y-57623119D01*
X75345877Y-57789616D01*
X75216099Y-57979863D01*
X75213923Y-57984552D01*
X75213919Y-57984558D01*
X75121315Y-58184057D01*
X75119136Y-58188752D01*
X75057592Y-58410673D01*
X75057043Y-58415810D01*
X75049801Y-58483577D01*
X75033119Y-58639665D01*
X73284477Y-58639665D01*
X73268430Y-58444478D01*
X73212326Y-58221120D01*
X73120496Y-58009924D01*
X73022621Y-57858632D01*
X72998215Y-57820906D01*
X72998213Y-57820903D01*
X72995405Y-57816563D01*
X72974774Y-57793889D01*
X72843890Y-57650051D01*
X72843889Y-57650050D01*
X72840412Y-57646229D01*
X72836361Y-57643030D01*
X72836357Y-57643026D01*
X72663735Y-57506697D01*
X72663730Y-57506693D01*
X72659681Y-57503496D01*
X72655165Y-57501003D01*
X72655162Y-57501001D01*
X72462589Y-57394695D01*
X72462585Y-57394693D01*
X72458065Y-57392198D01*
X72453196Y-57390474D01*
X72453192Y-57390472D01*
X72245853Y-57317049D01*
X72245849Y-57317048D01*
X72240978Y-57315323D01*
X72235885Y-57314416D01*
X72235882Y-57314415D01*
X72139707Y-57297284D01*
X72014250Y-57274937D01*
X71927802Y-57273881D01*
X71789141Y-57272186D01*
X71789139Y-57272186D01*
X71783971Y-57272123D01*
X71556325Y-57306958D01*
X71337424Y-57378506D01*
X71133149Y-57484845D01*
X70948984Y-57623119D01*
X70789877Y-57789616D01*
X70660099Y-57979863D01*
X70657923Y-57984552D01*
X70657919Y-57984558D01*
X70565315Y-58184057D01*
X70563136Y-58188752D01*
X70501592Y-58410673D01*
X70501043Y-58415810D01*
X70493801Y-58483577D01*
X70477119Y-58639665D01*
X57388000Y-58639665D01*
X57388000Y-49511665D01*
X99957119Y-49511665D01*
X99957416Y-49516817D01*
X99957416Y-49516821D01*
X99962864Y-49611296D01*
X99970376Y-49741580D01*
X99971513Y-49746626D01*
X99971514Y-49746632D01*
X99993226Y-49842975D01*
X100021006Y-49966242D01*
X100022948Y-49971024D01*
X100022949Y-49971028D01*
X100060427Y-50063325D01*
X100107649Y-50179618D01*
X100227979Y-50375978D01*
X100378763Y-50550048D01*
X100555953Y-50697154D01*
X100754790Y-50813345D01*
X100969934Y-50895501D01*
X100975000Y-50896532D01*
X100975001Y-50896532D01*
X101075697Y-50917018D01*
X101195607Y-50941414D01*
X101325352Y-50946172D01*
X101420585Y-50949664D01*
X101420589Y-50949664D01*
X101425749Y-50949853D01*
X101430869Y-50949197D01*
X101430871Y-50949197D01*
X101500272Y-50940307D01*
X101654178Y-50920591D01*
X101659126Y-50919106D01*
X101659133Y-50919105D01*
X101869811Y-50855898D01*
X101869810Y-50855898D01*
X101874761Y-50854413D01*
X102081574Y-50753096D01*
X102269062Y-50619363D01*
X102432190Y-50456803D01*
X102490269Y-50375978D01*
X102563559Y-50273983D01*
X102566577Y-50269783D01*
X102668615Y-50063325D01*
X102699643Y-49961200D01*
X102734059Y-49847927D01*
X102734060Y-49847921D01*
X102735563Y-49842975D01*
X102765622Y-49614649D01*
X102767300Y-49546000D01*
X102748430Y-49316478D01*
X102692326Y-49093120D01*
X102600496Y-48881924D01*
X102475405Y-48688563D01*
X102454774Y-48665889D01*
X102323890Y-48522051D01*
X102323889Y-48522050D01*
X102320412Y-48518229D01*
X102316361Y-48515030D01*
X102316357Y-48515026D01*
X102143735Y-48378697D01*
X102143730Y-48378693D01*
X102139681Y-48375496D01*
X102135165Y-48373003D01*
X102135162Y-48373001D01*
X101942589Y-48266695D01*
X101942585Y-48266693D01*
X101938065Y-48264198D01*
X101933196Y-48262474D01*
X101933192Y-48262472D01*
X101725853Y-48189049D01*
X101725849Y-48189048D01*
X101720978Y-48187323D01*
X101715885Y-48186416D01*
X101715882Y-48186415D01*
X101619707Y-48169284D01*
X101494250Y-48146937D01*
X101407802Y-48145881D01*
X101269141Y-48144186D01*
X101269139Y-48144186D01*
X101263971Y-48144123D01*
X101036325Y-48178958D01*
X100817424Y-48250506D01*
X100613149Y-48356845D01*
X100428984Y-48495119D01*
X100269877Y-48661616D01*
X100140099Y-48851863D01*
X100137923Y-48856552D01*
X100137919Y-48856558D01*
X100126145Y-48881924D01*
X100043136Y-49060752D01*
X99981592Y-49282673D01*
X99957119Y-49511665D01*
X57388000Y-49511665D01*
X57388000Y-46193665D01*
X97401119Y-46193665D01*
X97401416Y-46198817D01*
X97401416Y-46198821D01*
X97406864Y-46293296D01*
X97414376Y-46423580D01*
X97415513Y-46428626D01*
X97415514Y-46428632D01*
X97437226Y-46524975D01*
X97465006Y-46648242D01*
X97466948Y-46653024D01*
X97466949Y-46653028D01*
X97504427Y-46745325D01*
X97551649Y-46861618D01*
X97671979Y-47057978D01*
X97822763Y-47232048D01*
X97999953Y-47379154D01*
X98198790Y-47495345D01*
X98413934Y-47577501D01*
X98419000Y-47578532D01*
X98419001Y-47578532D01*
X98519697Y-47599018D01*
X98639607Y-47623414D01*
X98769352Y-47628172D01*
X98864585Y-47631664D01*
X98864589Y-47631664D01*
X98869749Y-47631853D01*
X98874869Y-47631197D01*
X98874871Y-47631197D01*
X98944272Y-47622307D01*
X99098178Y-47602591D01*
X99103126Y-47601106D01*
X99103133Y-47601105D01*
X99313811Y-47537898D01*
X99313810Y-47537898D01*
X99318761Y-47536413D01*
X99525574Y-47435096D01*
X99713062Y-47301363D01*
X99876190Y-47138803D01*
X99934269Y-47057978D01*
X100007559Y-46955983D01*
X100010577Y-46951783D01*
X100112615Y-46745325D01*
X100143643Y-46643200D01*
X100178059Y-46529927D01*
X100178060Y-46529921D01*
X100179563Y-46524975D01*
X100209622Y-46296649D01*
X100211300Y-46228000D01*
X100192430Y-45998478D01*
X100136326Y-45775120D01*
X100044496Y-45563924D01*
X99919405Y-45370563D01*
X99898774Y-45347889D01*
X99767890Y-45204051D01*
X99767889Y-45204050D01*
X99764412Y-45200229D01*
X99760361Y-45197030D01*
X99760357Y-45197026D01*
X99587735Y-45060697D01*
X99587730Y-45060693D01*
X99583681Y-45057496D01*
X99579165Y-45055003D01*
X99579162Y-45055001D01*
X99386589Y-44948695D01*
X99386585Y-44948693D01*
X99382065Y-44946198D01*
X99377196Y-44944474D01*
X99377192Y-44944472D01*
X99169853Y-44871049D01*
X99169849Y-44871048D01*
X99164978Y-44869323D01*
X99159885Y-44868416D01*
X99159882Y-44868415D01*
X99063707Y-44851284D01*
X98938250Y-44828937D01*
X98851802Y-44827881D01*
X98713141Y-44826186D01*
X98713139Y-44826186D01*
X98707971Y-44826123D01*
X98480325Y-44860958D01*
X98261424Y-44932506D01*
X98057149Y-45038845D01*
X97872984Y-45177119D01*
X97713877Y-45343616D01*
X97584099Y-45533863D01*
X97581923Y-45538552D01*
X97581919Y-45538558D01*
X97570145Y-45563924D01*
X97487136Y-45742752D01*
X97425592Y-45964673D01*
X97401119Y-46193665D01*
X57388000Y-46193665D01*
X57388000Y-39496000D01*
X57408002Y-39427879D01*
X57461658Y-39381386D01*
X57514000Y-39370000D01*
X93544932Y-39370000D01*
X93613053Y-39390002D01*
G37*
%TD.AperFunction*%
%TD*%
M02*
