%TF.GenerationSoftware,KiCad,Pcbnew,(6.0.1)*%
%TF.CreationDate,2022-06-02T13:00:42+03:00*%
%TF.ProjectId,Launch-Adapter,4c61756e-6368-42d4-9164-61707465722e,rev?*%
%TF.SameCoordinates,Original*%
%TF.FileFunction,Legend,Bot*%
%TF.FilePolarity,Positive*%
%FSLAX46Y46*%
G04 Gerber Fmt 4.6, Leading zero omitted, Abs format (unit mm)*
G04 Created by KiCad (PCBNEW (6.0.1)) date 2022-06-02 13:00:42*
%MOMM*%
%LPD*%
G01*
G04 APERTURE LIST*
%ADD10C,0.150000*%
%ADD11C,0.120000*%
G04 APERTURE END LIST*
D10*
%TO.C,R23*%
X89923857Y-141677380D02*
X90257190Y-141201190D01*
X90495285Y-141677380D02*
X90495285Y-140677380D01*
X90114333Y-140677380D01*
X90019095Y-140725000D01*
X89971476Y-140772619D01*
X89923857Y-140867857D01*
X89923857Y-141010714D01*
X89971476Y-141105952D01*
X90019095Y-141153571D01*
X90114333Y-141201190D01*
X90495285Y-141201190D01*
X89542904Y-140772619D02*
X89495285Y-140725000D01*
X89400047Y-140677380D01*
X89161952Y-140677380D01*
X89066714Y-140725000D01*
X89019095Y-140772619D01*
X88971476Y-140867857D01*
X88971476Y-140963095D01*
X89019095Y-141105952D01*
X89590523Y-141677380D01*
X88971476Y-141677380D01*
X88638142Y-140677380D02*
X88019095Y-140677380D01*
X88352428Y-141058333D01*
X88209571Y-141058333D01*
X88114333Y-141105952D01*
X88066714Y-141153571D01*
X88019095Y-141248809D01*
X88019095Y-141486904D01*
X88066714Y-141582142D01*
X88114333Y-141629761D01*
X88209571Y-141677380D01*
X88495285Y-141677380D01*
X88590523Y-141629761D01*
X88638142Y-141582142D01*
%TO.C,R24*%
X89923857Y-136851380D02*
X90257190Y-136375190D01*
X90495285Y-136851380D02*
X90495285Y-135851380D01*
X90114333Y-135851380D01*
X90019095Y-135899000D01*
X89971476Y-135946619D01*
X89923857Y-136041857D01*
X89923857Y-136184714D01*
X89971476Y-136279952D01*
X90019095Y-136327571D01*
X90114333Y-136375190D01*
X90495285Y-136375190D01*
X89542904Y-135946619D02*
X89495285Y-135899000D01*
X89400047Y-135851380D01*
X89161952Y-135851380D01*
X89066714Y-135899000D01*
X89019095Y-135946619D01*
X88971476Y-136041857D01*
X88971476Y-136137095D01*
X89019095Y-136279952D01*
X89590523Y-136851380D01*
X88971476Y-136851380D01*
X88114333Y-136184714D02*
X88114333Y-136851380D01*
X88352428Y-135803761D02*
X88590523Y-136518047D01*
X87971476Y-136518047D01*
%TO.C,C20*%
X80398857Y-106783142D02*
X80446476Y-106830761D01*
X80589333Y-106878380D01*
X80684571Y-106878380D01*
X80827428Y-106830761D01*
X80922666Y-106735523D01*
X80970285Y-106640285D01*
X81017904Y-106449809D01*
X81017904Y-106306952D01*
X80970285Y-106116476D01*
X80922666Y-106021238D01*
X80827428Y-105926000D01*
X80684571Y-105878380D01*
X80589333Y-105878380D01*
X80446476Y-105926000D01*
X80398857Y-105973619D01*
X80017904Y-105973619D02*
X79970285Y-105926000D01*
X79875047Y-105878380D01*
X79636952Y-105878380D01*
X79541714Y-105926000D01*
X79494095Y-105973619D01*
X79446476Y-106068857D01*
X79446476Y-106164095D01*
X79494095Y-106306952D01*
X80065523Y-106878380D01*
X79446476Y-106878380D01*
X78827428Y-105878380D02*
X78732190Y-105878380D01*
X78636952Y-105926000D01*
X78589333Y-105973619D01*
X78541714Y-106068857D01*
X78494095Y-106259333D01*
X78494095Y-106497428D01*
X78541714Y-106687904D01*
X78589333Y-106783142D01*
X78636952Y-106830761D01*
X78732190Y-106878380D01*
X78827428Y-106878380D01*
X78922666Y-106830761D01*
X78970285Y-106783142D01*
X79017904Y-106687904D01*
X79065523Y-106497428D01*
X79065523Y-106259333D01*
X79017904Y-106068857D01*
X78970285Y-105973619D01*
X78922666Y-105926000D01*
X78827428Y-105878380D01*
%TO.C,R26*%
X84208857Y-143582380D02*
X84542190Y-143106190D01*
X84780285Y-143582380D02*
X84780285Y-142582380D01*
X84399333Y-142582380D01*
X84304095Y-142630000D01*
X84256476Y-142677619D01*
X84208857Y-142772857D01*
X84208857Y-142915714D01*
X84256476Y-143010952D01*
X84304095Y-143058571D01*
X84399333Y-143106190D01*
X84780285Y-143106190D01*
X83827904Y-142677619D02*
X83780285Y-142630000D01*
X83685047Y-142582380D01*
X83446952Y-142582380D01*
X83351714Y-142630000D01*
X83304095Y-142677619D01*
X83256476Y-142772857D01*
X83256476Y-142868095D01*
X83304095Y-143010952D01*
X83875523Y-143582380D01*
X83256476Y-143582380D01*
X82399333Y-142582380D02*
X82589809Y-142582380D01*
X82685047Y-142630000D01*
X82732666Y-142677619D01*
X82827904Y-142820476D01*
X82875523Y-143010952D01*
X82875523Y-143391904D01*
X82827904Y-143487142D01*
X82780285Y-143534761D01*
X82685047Y-143582380D01*
X82494571Y-143582380D01*
X82399333Y-143534761D01*
X82351714Y-143487142D01*
X82304095Y-143391904D01*
X82304095Y-143153809D01*
X82351714Y-143058571D01*
X82399333Y-143010952D01*
X82494571Y-142963333D01*
X82685047Y-142963333D01*
X82780285Y-143010952D01*
X82827904Y-143058571D01*
X82875523Y-143153809D01*
%TO.C,C4*%
X94019666Y-141602642D02*
X94067285Y-141650261D01*
X94210142Y-141697880D01*
X94305380Y-141697880D01*
X94448238Y-141650261D01*
X94543476Y-141555023D01*
X94591095Y-141459785D01*
X94638714Y-141269309D01*
X94638714Y-141126452D01*
X94591095Y-140935976D01*
X94543476Y-140840738D01*
X94448238Y-140745500D01*
X94305380Y-140697880D01*
X94210142Y-140697880D01*
X94067285Y-140745500D01*
X94019666Y-140793119D01*
X93162523Y-141031214D02*
X93162523Y-141697880D01*
X93400619Y-140650261D02*
X93638714Y-141364547D01*
X93019666Y-141364547D01*
%TO.C,C24*%
X94876857Y-41603142D02*
X94924476Y-41650761D01*
X95067333Y-41698380D01*
X95162571Y-41698380D01*
X95305428Y-41650761D01*
X95400666Y-41555523D01*
X95448285Y-41460285D01*
X95495904Y-41269809D01*
X95495904Y-41126952D01*
X95448285Y-40936476D01*
X95400666Y-40841238D01*
X95305428Y-40746000D01*
X95162571Y-40698380D01*
X95067333Y-40698380D01*
X94924476Y-40746000D01*
X94876857Y-40793619D01*
X94495904Y-40793619D02*
X94448285Y-40746000D01*
X94353047Y-40698380D01*
X94114952Y-40698380D01*
X94019714Y-40746000D01*
X93972095Y-40793619D01*
X93924476Y-40888857D01*
X93924476Y-40984095D01*
X93972095Y-41126952D01*
X94543523Y-41698380D01*
X93924476Y-41698380D01*
X93067333Y-41031714D02*
X93067333Y-41698380D01*
X93305428Y-40650761D02*
X93543523Y-41365047D01*
X92924476Y-41365047D01*
%TO.C,R25*%
X84208857Y-139264380D02*
X84542190Y-138788190D01*
X84780285Y-139264380D02*
X84780285Y-138264380D01*
X84399333Y-138264380D01*
X84304095Y-138312000D01*
X84256476Y-138359619D01*
X84208857Y-138454857D01*
X84208857Y-138597714D01*
X84256476Y-138692952D01*
X84304095Y-138740571D01*
X84399333Y-138788190D01*
X84780285Y-138788190D01*
X83827904Y-138359619D02*
X83780285Y-138312000D01*
X83685047Y-138264380D01*
X83446952Y-138264380D01*
X83351714Y-138312000D01*
X83304095Y-138359619D01*
X83256476Y-138454857D01*
X83256476Y-138550095D01*
X83304095Y-138692952D01*
X83875523Y-139264380D01*
X83256476Y-139264380D01*
X82351714Y-138264380D02*
X82827904Y-138264380D01*
X82875523Y-138740571D01*
X82827904Y-138692952D01*
X82732666Y-138645333D01*
X82494571Y-138645333D01*
X82399333Y-138692952D01*
X82351714Y-138740571D01*
X82304095Y-138835809D01*
X82304095Y-139073904D01*
X82351714Y-139169142D01*
X82399333Y-139216761D01*
X82494571Y-139264380D01*
X82732666Y-139264380D01*
X82827904Y-139216761D01*
X82875523Y-139169142D01*
%TO.C,R3*%
X101258666Y-117800380D02*
X101592000Y-117324190D01*
X101830095Y-117800380D02*
X101830095Y-116800380D01*
X101449142Y-116800380D01*
X101353904Y-116848000D01*
X101306285Y-116895619D01*
X101258666Y-116990857D01*
X101258666Y-117133714D01*
X101306285Y-117228952D01*
X101353904Y-117276571D01*
X101449142Y-117324190D01*
X101830095Y-117324190D01*
X100925333Y-116800380D02*
X100306285Y-116800380D01*
X100639619Y-117181333D01*
X100496761Y-117181333D01*
X100401523Y-117228952D01*
X100353904Y-117276571D01*
X100306285Y-117371809D01*
X100306285Y-117609904D01*
X100353904Y-117705142D01*
X100401523Y-117752761D01*
X100496761Y-117800380D01*
X100782476Y-117800380D01*
X100877714Y-117752761D01*
X100925333Y-117705142D01*
%TO.C,C25*%
X94876857Y-46683142D02*
X94924476Y-46730761D01*
X95067333Y-46778380D01*
X95162571Y-46778380D01*
X95305428Y-46730761D01*
X95400666Y-46635523D01*
X95448285Y-46540285D01*
X95495904Y-46349809D01*
X95495904Y-46206952D01*
X95448285Y-46016476D01*
X95400666Y-45921238D01*
X95305428Y-45826000D01*
X95162571Y-45778380D01*
X95067333Y-45778380D01*
X94924476Y-45826000D01*
X94876857Y-45873619D01*
X94495904Y-45873619D02*
X94448285Y-45826000D01*
X94353047Y-45778380D01*
X94114952Y-45778380D01*
X94019714Y-45826000D01*
X93972095Y-45873619D01*
X93924476Y-45968857D01*
X93924476Y-46064095D01*
X93972095Y-46206952D01*
X94543523Y-46778380D01*
X93924476Y-46778380D01*
X93019714Y-45778380D02*
X93495904Y-45778380D01*
X93543523Y-46254571D01*
X93495904Y-46206952D01*
X93400666Y-46159333D01*
X93162571Y-46159333D01*
X93067333Y-46206952D01*
X93019714Y-46254571D01*
X92972095Y-46349809D01*
X92972095Y-46587904D01*
X93019714Y-46683142D01*
X93067333Y-46730761D01*
X93162571Y-46778380D01*
X93400666Y-46778380D01*
X93495904Y-46730761D01*
X93543523Y-46683142D01*
%TO.C,U3*%
X91900904Y-122320380D02*
X91900904Y-123129904D01*
X91853285Y-123225142D01*
X91805666Y-123272761D01*
X91710428Y-123320380D01*
X91519952Y-123320380D01*
X91424714Y-123272761D01*
X91377095Y-123225142D01*
X91329476Y-123129904D01*
X91329476Y-122320380D01*
X90948523Y-122320380D02*
X90329476Y-122320380D01*
X90662809Y-122701333D01*
X90519952Y-122701333D01*
X90424714Y-122748952D01*
X90377095Y-122796571D01*
X90329476Y-122891809D01*
X90329476Y-123129904D01*
X90377095Y-123225142D01*
X90424714Y-123272761D01*
X90519952Y-123320380D01*
X90805666Y-123320380D01*
X90900904Y-123272761D01*
X90948523Y-123225142D01*
D11*
%TO.C,R23*%
X89508064Y-142140000D02*
X89053936Y-142140000D01*
X89508064Y-143610000D02*
X89053936Y-143610000D01*
%TO.C,R24*%
X89508064Y-138784000D02*
X89053936Y-138784000D01*
X89508064Y-137314000D02*
X89053936Y-137314000D01*
%TO.C,C20*%
X83285000Y-106164748D02*
X83285000Y-106687252D01*
X81815000Y-106164748D02*
X81815000Y-106687252D01*
%TO.C,R26*%
X83793064Y-145515000D02*
X83338936Y-145515000D01*
X83793064Y-144045000D02*
X83338936Y-144045000D01*
%TO.C,C4*%
X95531000Y-141506752D02*
X95531000Y-140984248D01*
X97001000Y-141506752D02*
X97001000Y-140984248D01*
%TO.C,C24*%
X94495252Y-42191000D02*
X93972748Y-42191000D01*
X94495252Y-43661000D02*
X93972748Y-43661000D01*
%TO.C,R25*%
X83793064Y-139727000D02*
X83338936Y-139727000D01*
X83793064Y-141197000D02*
X83338936Y-141197000D01*
%TO.C,R3*%
X99494000Y-117120936D02*
X99494000Y-117575064D01*
X98024000Y-117120936D02*
X98024000Y-117575064D01*
%TO.C,C25*%
X94495252Y-48741000D02*
X93972748Y-48741000D01*
X94495252Y-47271000D02*
X93972748Y-47271000D01*
%TO.C,U3*%
X91139000Y-112663000D02*
X94559000Y-112663000D01*
X87719000Y-122033000D02*
X87719000Y-121743000D01*
X91139000Y-122033000D02*
X87719000Y-122033000D01*
X94559000Y-112663000D02*
X94559000Y-112953000D01*
X94559000Y-122033000D02*
X94559000Y-121743000D01*
X87719000Y-121743000D02*
X85439000Y-121743000D01*
X91139000Y-122033000D02*
X94559000Y-122033000D01*
X87719000Y-112663000D02*
X87719000Y-112953000D01*
X91139000Y-112663000D02*
X87719000Y-112663000D01*
%TD*%
M02*
